  0
SECTION
  2
HEADER
  9
$ANGBASE
  50
0.0
  9
$ANGDIR
  70
1
  9
$MEASUREMENT
  70
0
  0
ENDSEC
  0
SECTION
  2
TABLES
  0
TABLE
  2
LTYPE
  70
4
  0
LTYPE
  5
40F
  2
CONTINUOUS
  70
0
  3
Solid line
  72
65
  73
0
  40
0.0
  0
LTYPE
  5
410
  2
DASHDOT
 70
0
  3
Dash Dot ____ _ ____ _
 72
65
 73
4
 40
2.0
 49
1.25
 49
-0.25
 49
0.25
 49
-0.25
  0
LTYPE
  5
411
  2
DASHED
 70
0
  3
Dashed __ __ __ __ __
 72
65
 73
2
 40
0.75
 49
0.5
 49
-0.25
  0
LTYPE
  5
43B
  2
DOTTED
 70
0
  3
Dotted .  .  .  .
 72
65
 73
2
 40
0.2
 49
0.0
 49
-0.2
  0
ENDTAB
  0
TABLE
  2
STYLE
  70
4
  0
STYLE
  2
KICAD
  70
0
  40
0
  41
1
  42
1
  50
0
  71
0
  3
isocp.shx
  0
STYLE
  2
KICADB
  70
0
  40
0
  41
1
  42
1
  50
0
  71
0
  3
isocp.shx
  0
STYLE
  2
KICADI
  70
0
  40
0
  41
1
  42
1
  50
15
  71
0
  3
isocp.shx
  0
STYLE
  2
KICADBI
  70
0
  40
0
  41
1
  42
1
  50
15
  71
0
  3
isocp.shx
  0
ENDTAB
  0
TABLE
  2
LAYER
  70
35
  0
LAYER
  2
BLACK
  70
0
  62
7
  6
CONTINUOUS
  0
LAYER
  2
GRAY1
  70
0
  62
251
  6
CONTINUOUS
  0
LAYER
  2
GRAY2
  70
0
  62
8
  6
CONTINUOUS
  0
LAYER
  2
GRAY3
  70
0
  62
9
  6
CONTINUOUS
  0
LAYER
  2
WHITE
  70
0
  62
7
  6
CONTINUOUS
  0
LAYER
  2
LYELLOW
  70
0
  62
51
  6
CONTINUOUS
  0
LAYER
  2
LORANGE
  70
0
  62
41
  6
CONTINUOUS
  0
LAYER
  2
BLUE1
  70
0
  62
178
  6
CONTINUOUS
  0
LAYER
  2
GREEN1
  70
0
  62
98
  6
CONTINUOUS
  0
LAYER
  2
CYAN1
  70
0
  62
138
  6
CONTINUOUS
  0
LAYER
  2
RED1
  70
0
  62
18
  6
CONTINUOUS
  0
LAYER
  2
MAGENTA1
  70
0
  62
228
  6
CONTINUOUS
  0
LAYER
  2
BROWN1
  70
0
  62
58
  6
CONTINUOUS
  0
LAYER
  2
ORANGE1
  70
0
  62
34
  6
CONTINUOUS
  0
LAYER
  2
BLUE2
  70
0
  62
5
  6
CONTINUOUS
  0
LAYER
  2
GREEN2
  70
0
  62
3
  6
CONTINUOUS
  0
LAYER
  2
CYAN2
  70
0
  62
4
  6
CONTINUOUS
  0
LAYER
  2
RED2
  70
0
  62
1
  6
CONTINUOUS
  0
LAYER
  2
MAGENTA2
  70
0
  62
6
  6
CONTINUOUS
  0
LAYER
  2
BROWN2
  70
0
  62
54
  6
CONTINUOUS
  0
LAYER
  2
ORANGE2
  70
0
  62
42
  6
CONTINUOUS
  0
LAYER
  2
BLUE3
  70
0
  62
171
  6
CONTINUOUS
  0
LAYER
  2
GREEN3
  70
0
  62
91
  6
CONTINUOUS
  0
LAYER
  2
CYAN3
  70
0
  62
131
  6
CONTINUOUS
  0
LAYER
  2
RED3
  70
0
  62
11
  6
CONTINUOUS
  0
LAYER
  2
MAGENTA3
  70
0
  62
221
  6
CONTINUOUS
  0
LAYER
  2
YELLOW3
  70
0
  62
2
  6
CONTINUOUS
  0
LAYER
  2
ORANGE3
  70
0
  62
32
  6
CONTINUOUS
  0
LAYER
  2
BLUE4
  70
0
  62
5
  6
CONTINUOUS
  0
LAYER
  2
GREEN4
  70
0
  62
3
  6
CONTINUOUS
  0
LAYER
  2
CYAN4
  70
0
  62
4
  6
CONTINUOUS
  0
LAYER
  2
RED4
  70
0
  62
1
  6
CONTINUOUS
  0
LAYER
  2
MAGENTA4
  70
0
  62
6
  6
CONTINUOUS
  0
LAYER
  2
YELLOW4
  70
0
  62
2
  6
CONTINUOUS
  0
LAYER
  2
ORANGE4
  70
0
  62
40
  6
CONTINUOUS
  0
ENDTAB
  0
ENDSEC
  0
SECTION
  2
ENTITIES
0
LINE
8
BLACK
6
CONTINUOUS
10
4.4304594881889763
20
-4.0790956692913385
11
4.4336526377952756
21
-4.0812292519685043
0
LINE
8
BLACK
6
CONTINUOUS
10
4.4336526377952756
20
-4.0812292519685043
11
4.4357862204724405
21
-4.0844224015748027
0
LINE
8
BLACK
6
CONTINUOUS
10
4.4357862204724405
20
-4.0844224015748027
11
4.4365354330708664
21
-4.0881889763779524
0
LINE
8
BLACK
6
CONTINUOUS
10
4.4365354330708664
20
-4.0881889763779524
11
4.4365354330708664
21
-4.1118110236220469
0
LINE
8
BLACK
6
CONTINUOUS
10
4.4365354330708664
20
-4.1118110236220469
11
4.4357862204724405
21
-4.1155775984251965
0
LINE
8
BLACK
6
CONTINUOUS
10
4.4357862204724405
20
-4.1155775984251965
11
4.4336526377952756
21
-4.1187707480314959
0
LINE
8
BLACK
6
CONTINUOUS
10
4.4336526377952756
20
-4.1187707480314959
11
4.4304594881889763
21
-4.1209043307086617
0
LINE
8
BLACK
6
CONTINUOUS
10
4.4304594881889763
20
-4.1209043307086617
11
4.4266929133858266
21
-4.1216535433070867
0
LINE
8
BLACK
6
CONTINUOUS
10
4.4266929133858266
20
-4.1216535433070867
11
4.4030708661417322
21
-4.1216535433070867
0
LINE
8
BLACK
6
CONTINUOUS
10
4.4030708661417322
20
-4.1216535433070867
11
4.3993042913385825
21
-4.1209043307086617
0
LINE
8
BLACK
6
CONTINUOUS
10
4.3993042913385825
20
-4.1209043307086617
11
4.3961111417322831
21
-4.1187707480314959
0
LINE
8
BLACK
6
CONTINUOUS
10
4.3961111417322831
20
-4.1187707480314959
11
4.3939775590551182
21
-4.1155775984251965
0
LINE
8
BLACK
6
CONTINUOUS
10
4.3939775590551182
20
-4.1155775984251965
11
4.3932283464566932
21
-4.1118110236220469
0
LINE
8
BLACK
6
CONTINUOUS
10
4.3932283464566932
20
-4.1118110236220469
11
4.3932283464566932
21
-4.0881889763779524
0
LINE
8
BLACK
6
CONTINUOUS
10
4.3932283464566932
20
-4.0881889763779524
11
4.3939775590551182
21
-4.0844224015748027
0
LINE
8
BLACK
6
CONTINUOUS
10
4.3939775590551182
20
-4.0844224015748027
11
4.3961111417322831
21
-4.0812292519685043
0
LINE
8
BLACK
6
CONTINUOUS
10
4.3961111417322831
20
-4.0812292519685043
11
4.3993042913385825
21
-4.0790956692913385
0
LINE
8
BLACK
6
CONTINUOUS
10
4.3993042913385825
20
-4.0790956692913385
11
4.4030708661417322
21
-4.0783464566929135
0
LINE
8
BLACK
6
CONTINUOUS
10
4.4030708661417322
20
-4.0783464566929135
11
4.4266929133858266
21
-4.0783464566929135
0
LINE
8
BLACK
6
CONTINUOUS
10
4.4266929133858266
20
-4.0783464566929135
11
4.4304594881889763
21
-4.0790956692913385
0
LINE
8
BLACK
6
CONTINUOUS
10
4.540695708661417
20
-4.0790956692913385
11
4.5438888582677164
21
-4.0812292519685043
0
LINE
8
BLACK
6
CONTINUOUS
10
4.5438888582677164
20
-4.0812292519685043
11
4.5460224409448822
21
-4.0844224015748027
0
LINE
8
BLACK
6
CONTINUOUS
10
4.5460224409448822
20
-4.0844224015748027
11
4.5467716535433071
21
-4.0881889763779524
0
LINE
8
BLACK
6
CONTINUOUS
10
4.5467716535433071
20
-4.0881889763779524
11
4.5467716535433071
21
-4.1118110236220469
0
LINE
8
BLACK
6
CONTINUOUS
10
4.5467716535433071
20
-4.1118110236220469
11
4.5460224409448822
21
-4.1155775984251965
0
LINE
8
BLACK
6
CONTINUOUS
10
4.5460224409448822
20
-4.1155775984251965
11
4.5438888582677164
21
-4.1187707480314959
0
LINE
8
BLACK
6
CONTINUOUS
10
4.5438888582677164
20
-4.1187707480314959
11
4.540695708661417
21
-4.1209043307086617
0
LINE
8
BLACK
6
CONTINUOUS
10
4.540695708661417
20
-4.1209043307086617
11
4.5369291338582673
21
-4.1216535433070867
0
LINE
8
BLACK
6
CONTINUOUS
10
4.5369291338582673
20
-4.1216535433070867
11
4.5133070866141729
21
-4.1216535433070867
0
LINE
8
BLACK
6
CONTINUOUS
10
4.5133070866141729
20
-4.1216535433070867
11
4.5095405118110232
21
-4.1209043307086617
0
LINE
8
BLACK
6
CONTINUOUS
10
4.5095405118110232
20
-4.1209043307086617
11
4.5063473622047239
21
-4.1187707480314959
0
LINE
8
BLACK
6
CONTINUOUS
10
4.5063473622047239
20
-4.1187707480314959
11
4.504213779527559
21
-4.1155775984251965
0
LINE
8
BLACK
6
CONTINUOUS
10
4.504213779527559
20
-4.1155775984251965
11
4.503464566929134
21
-4.1118110236220469
0
LINE
8
BLACK
6
CONTINUOUS
10
4.503464566929134
20
-4.1118110236220469
11
4.503464566929134
21
-4.0881889763779524
0
LINE
8
BLACK
6
CONTINUOUS
10
4.503464566929134
20
-4.0881889763779524
11
4.504213779527559
21
-4.0844224015748027
0
LINE
8
BLACK
6
CONTINUOUS
10
4.504213779527559
20
-4.0844224015748027
11
4.5063473622047239
21
-4.0812292519685043
0
LINE
8
BLACK
6
CONTINUOUS
10
4.5063473622047239
20
-4.0812292519685043
11
4.5095405118110232
21
-4.0790956692913385
0
LINE
8
BLACK
6
CONTINUOUS
10
4.5095405118110232
20
-4.0790956692913385
11
4.5133070866141729
21
-4.0783464566929135
0
LINE
8
BLACK
6
CONTINUOUS
10
4.5133070866141729
20
-4.0783464566929135
11
4.5369291338582673
21
-4.0783464566929135
0
LINE
8
BLACK
6
CONTINUOUS
10
4.5369291338582673
20
-4.0783464566929135
11
4.540695708661417
21
-4.0790956692913385
0
LINE
8
BLACK
6
CONTINUOUS
10
5.4046642125984254
20
-4.0597807086614175
11
5.4078573622047239
21
-4.0619142913385824
0
LINE
8
BLACK
6
CONTINUOUS
10
5.4078573622047239
20
-4.0619142913385824
11
5.4099909448818897
21
-4.0651074409448817
0
LINE
8
BLACK
6
CONTINUOUS
10
5.4099909448818897
20
-4.0651074409448817
11
5.4107401574803147
21
-4.0688740157480314
0
LINE
8
BLACK
6
CONTINUOUS
10
5.4107401574803147
20
-4.0688740157480314
11
5.4107401574803147
21
-4.1003700787401574
0
LINE
8
BLACK
6
CONTINUOUS
10
5.4107401574803147
20
-4.1003700787401574
11
5.4099909448818897
21
-4.104136653543307
0
LINE
8
BLACK
6
CONTINUOUS
10
5.4099909448818897
20
-4.104136653543307
11
5.4078573622047239
21
-4.1073298031496064
0
LINE
8
BLACK
6
CONTINUOUS
10
5.4078573622047239
20
-4.1073298031496064
11
5.4046642125984254
21
-4.1094633858267713
0
LINE
8
BLACK
6
CONTINUOUS
10
5.4046642125984254
20
-4.1094633858267713
11
5.4008976377952758
21
-4.1102125984251972
0
LINE
8
BLACK
6
CONTINUOUS
10
5.4008976377952758
20
-4.1102125984251972
11
5.3516850393700786
21
-4.1102125984251972
0
LINE
8
BLACK
6
CONTINUOUS
10
5.3516850393700786
20
-4.1102125984251972
11
5.3479184645669289
21
-4.1094633858267713
0
LINE
8
BLACK
6
CONTINUOUS
10
5.3479184645669289
20
-4.1094633858267713
11
5.3447253149606295
21
-4.1073298031496064
0
LINE
8
BLACK
6
CONTINUOUS
10
5.3447253149606295
20
-4.1073298031496064
11
5.3425917322834646
21
-4.104136653543307
0
LINE
8
BLACK
6
CONTINUOUS
10
5.3425917322834646
20
-4.104136653543307
11
5.3418425196850396
21
-4.1003700787401574
0
LINE
8
BLACK
6
CONTINUOUS
10
5.3418425196850396
20
-4.1003700787401574
11
5.3418425196850396
21
-4.0688740157480314
0
LINE
8
BLACK
6
CONTINUOUS
10
5.3418425196850396
20
-4.0688740157480314
11
5.3425917322834646
21
-4.0651074409448817
0
LINE
8
BLACK
6
CONTINUOUS
10
5.3425917322834646
20
-4.0651074409448817
11
5.3447253149606295
21
-4.0619142913385824
0
LINE
8
BLACK
6
CONTINUOUS
10
5.3447253149606295
20
-4.0619142913385824
11
5.3479184645669289
21
-4.0597807086614175
0
LINE
8
BLACK
6
CONTINUOUS
10
5.3479184645669289
20
-4.0597807086614175
11
5.3516850393700786
21
-4.0590314960629916
0
LINE
8
BLACK
6
CONTINUOUS
10
5.3516850393700786
20
-4.0590314960629916
11
5.4008976377952758
21
-4.0590314960629916
0
LINE
8
BLACK
6
CONTINUOUS
10
5.4008976377952758
20
-4.0590314960629916
11
5.4046642125984254
21
-4.0597807086614175
0
LINE
8
BLACK
6
CONTINUOUS
10
4.9996642125984252
20
-4.0515917322834643
11
5.0028573622047245
21
-4.05372531496063
0
LINE
8
BLACK
6
CONTINUOUS
10
5.0028573622047245
20
-4.05372531496063
11
5.0049909448818894
21
-4.0569184645669294
0
LINE
8
BLACK
6
CONTINUOUS
10
5.0049909448818894
20
-4.0569184645669294
11
5.0057401574803144
21
-4.0606850393700791
0
LINE
8
BLACK
6
CONTINUOUS
10
5.0057401574803144
20
-4.0606850393700791
11
5.0057401574803144
21
-4.092181102362205
0
LINE
8
BLACK
6
CONTINUOUS
10
5.0057401574803144
20
-4.092181102362205
11
5.0049909448818894
21
-4.0959476771653538
0
LINE
8
BLACK
6
CONTINUOUS
10
5.0049909448818894
20
-4.0959476771653538
11
5.0028573622047245
21
-4.0991408267716531
0
LINE
8
BLACK
6
CONTINUOUS
10
5.0028573622047245
20
-4.0991408267716531
11
4.9996642125984252
21
-4.1012744094488189
0
LINE
8
BLACK
6
CONTINUOUS
10
4.9996642125984252
20
-4.1012744094488189
11
4.9958976377952755
21
-4.1020236220472439
0
LINE
8
BLACK
6
CONTINUOUS
10
4.9958976377952755
20
-4.1020236220472439
11
4.9466850393700783
21
-4.1020236220472439
0
LINE
8
BLACK
6
CONTINUOUS
10
4.9466850393700783
20
-4.1020236220472439
11
4.9429184645669286
21
-4.1012744094488189
0
LINE
8
BLACK
6
CONTINUOUS
10
4.9429184645669286
20
-4.1012744094488189
11
4.9397253149606302
21
-4.0991408267716531
0
LINE
8
BLACK
6
CONTINUOUS
10
4.9397253149606302
20
-4.0991408267716531
11
4.9375917322834644
21
-4.0959476771653538
0
LINE
8
BLACK
6
CONTINUOUS
10
4.9375917322834644
20
-4.0959476771653538
11
4.9368425196850394
21
-4.092181102362205
0
LINE
8
BLACK
6
CONTINUOUS
10
4.9368425196850394
20
-4.092181102362205
11
4.9368425196850394
21
-4.0606850393700791
0
LINE
8
BLACK
6
CONTINUOUS
10
4.9368425196850394
20
-4.0606850393700791
11
4.9375917322834644
21
-4.0569184645669294
0
LINE
8
BLACK
6
CONTINUOUS
10
4.9375917322834644
20
-4.0569184645669294
11
4.9397253149606302
21
-4.05372531496063
0
LINE
8
BLACK
6
CONTINUOUS
10
4.9397253149606302
20
-4.05372531496063
11
4.9429184645669286
21
-4.0515917322834643
0
LINE
8
BLACK
6
CONTINUOUS
10
4.9429184645669286
20
-4.0515917322834643
11
4.9466850393700783
21
-4.0508425196850393
0
LINE
8
BLACK
6
CONTINUOUS
10
4.9466850393700783
20
-4.0508425196850393
11
4.9958976377952755
21
-4.0508425196850393
0
LINE
8
BLACK
6
CONTINUOUS
10
4.9958976377952755
20
-4.0508425196850393
11
4.9996642125984252
21
-4.0515917322834643
0
LINE
8
BLACK
6
CONTINUOUS
10
4.4943571259842523
20
-3.9556901574803147
11
4.4975502755905508
21
-3.9578237401574801
0
LINE
8
BLACK
6
CONTINUOUS
10
4.4975502755905508
20
-3.9578237401574801
11
4.4996838582677166
21
-3.9610168897637794
0
LINE
8
BLACK
6
CONTINUOUS
10
4.4996838582677166
20
-3.9610168897637794
11
4.5004330708661415
21
-3.9647834645669291
0
LINE
8
BLACK
6
CONTINUOUS
10
4.5004330708661415
20
-3.9647834645669291
11
4.5004330708661415
21
-3.9972637795275592
0
LINE
8
BLACK
6
CONTINUOUS
10
4.5004330708661415
20
-3.9972637795275592
11
4.4996838582677166
21
-4.0010303543307089
0
LINE
8
BLACK
6
CONTINUOUS
10
4.4996838582677166
20
-4.0010303543307089
11
4.4975502755905508
21
-4.0042235039370082
0
LINE
8
BLACK
6
CONTINUOUS
10
4.4975502755905508
20
-4.0042235039370082
11
4.4943571259842523
21
-4.0063570866141731
0
LINE
8
BLACK
6
CONTINUOUS
10
4.4943571259842523
20
-4.0063570866141731
11
4.4905905511811026
21
-4.0071062992125981
0
LINE
8
BLACK
6
CONTINUOUS
10
4.4905905511811026
20
-4.0071062992125981
11
4.4394094488188971
21
-4.0071062992125981
0
LINE
8
BLACK
6
CONTINUOUS
10
4.4394094488188971
20
-4.0071062992125981
11
4.4356428740157483
21
-4.0063570866141731
0
LINE
8
BLACK
6
CONTINUOUS
10
4.4356428740157483
20
-4.0063570866141731
11
4.432449724409449
21
-4.0042235039370082
0
LINE
8
BLACK
6
CONTINUOUS
10
4.432449724409449
20
-4.0042235039370082
11
4.4303161417322832
21
-4.0010303543307089
0
LINE
8
BLACK
6
CONTINUOUS
10
4.4303161417322832
20
-4.0010303543307089
11
4.4295669291338582
21
-3.9972637795275592
0
LINE
8
BLACK
6
CONTINUOUS
10
4.4295669291338582
20
-3.9972637795275592
11
4.4295669291338582
21
-3.9647834645669291
0
LINE
8
BLACK
6
CONTINUOUS
10
4.4295669291338582
20
-3.9647834645669291
11
4.4303161417322832
21
-3.9610168897637794
0
LINE
8
BLACK
6
CONTINUOUS
10
4.4303161417322832
20
-3.9610168897637794
11
4.432449724409449
21
-3.9578237401574801
0
LINE
8
BLACK
6
CONTINUOUS
10
4.432449724409449
20
-3.9578237401574801
11
4.4356428740157483
21
-3.9556901574803147
0
LINE
8
BLACK
6
CONTINUOUS
10
4.4356428740157483
20
-3.9556901574803147
11
4.4394094488188971
21
-3.9549409448818897
0
LINE
8
BLACK
6
CONTINUOUS
10
4.4394094488188971
20
-3.9549409448818897
11
4.4905905511811026
21
-3.9549409448818897
0
LINE
8
BLACK
6
CONTINUOUS
10
4.4905905511811026
20
-3.9549409448818897
11
4.4943571259842523
21
-3.9556901574803147
0
LINE
8
BLACK
6
CONTINUOUS
10
5.4046642125984254
20
-3.9377334645669291
11
5.4078573622047239
21
-3.9398670472440944
0
LINE
8
BLACK
6
CONTINUOUS
10
5.4078573622047239
20
-3.9398670472440944
11
5.4099909448818897
21
-3.9430601968503938
0
LINE
8
BLACK
6
CONTINUOUS
10
5.4099909448818897
20
-3.9430601968503938
11
5.4107401574803147
21
-3.946826771653543
0
LINE
8
BLACK
6
CONTINUOUS
10
5.4107401574803147
20
-3.946826771653543
11
5.4107401574803147
21
-3.9783228346456694
0
LINE
8
BLACK
6
CONTINUOUS
10
5.4107401574803147
20
-3.9783228346456694
11
5.4099909448818897
21
-3.9820894094488186
0
LINE
8
BLACK
6
CONTINUOUS
10
5.4099909448818897
20
-3.9820894094488186
11
5.4078573622047239
21
-3.985282559055118
0
LINE
8
BLACK
6
CONTINUOUS
10
5.4078573622047239
20
-3.985282559055118
11
5.4046642125984254
21
-3.9874161417322833
0
LINE
8
BLACK
6
CONTINUOUS
10
5.4046642125984254
20
-3.9874161417322833
11
5.4008976377952758
21
-3.9881653543307087
0
LINE
8
BLACK
6
CONTINUOUS
10
5.4008976377952758
20
-3.9881653543307087
11
5.3516850393700786
21
-3.9881653543307087
0
LINE
8
BLACK
6
CONTINUOUS
10
5.3516850393700786
20
-3.9881653543307087
11
5.3479184645669289
21
-3.9874161417322833
0
LINE
8
BLACK
6
CONTINUOUS
10
5.3479184645669289
20
-3.9874161417322833
11
5.3447253149606295
21
-3.985282559055118
0
LINE
8
BLACK
6
CONTINUOUS
10
5.3447253149606295
20
-3.985282559055118
11
5.3425917322834646
21
-3.9820894094488186
0
LINE
8
BLACK
6
CONTINUOUS
10
5.3425917322834646
20
-3.9820894094488186
11
5.3418425196850396
21
-3.9783228346456694
0
LINE
8
BLACK
6
CONTINUOUS
10
5.3418425196850396
20
-3.9783228346456694
11
5.3418425196850396
21
-3.946826771653543
0
LINE
8
BLACK
6
CONTINUOUS
10
5.3418425196850396
20
-3.946826771653543
11
5.3425917322834646
21
-3.9430601968503938
0
LINE
8
BLACK
6
CONTINUOUS
10
5.3425917322834646
20
-3.9430601968503938
11
5.3447253149606295
21
-3.9398670472440944
0
LINE
8
BLACK
6
CONTINUOUS
10
5.3447253149606295
20
-3.9398670472440944
11
5.3479184645669289
21
-3.9377334645669291
0
LINE
8
BLACK
6
CONTINUOUS
10
5.3479184645669289
20
-3.9377334645669291
11
5.3516850393700786
21
-3.9369842519685037
0
LINE
8
BLACK
6
CONTINUOUS
10
5.3516850393700786
20
-3.9369842519685037
11
5.4008976377952758
21
-3.9369842519685037
0
LINE
8
BLACK
6
CONTINUOUS
10
5.4008976377952758
20
-3.9369842519685037
11
5.4046642125984254
21
-3.9377334645669291
0
LINE
8
BLACK
6
CONTINUOUS
10
4.9996642125984252
20
-3.9295444881889763
11
5.0028573622047245
21
-3.9316780708661416
0
LINE
8
BLACK
6
CONTINUOUS
10
5.0028573622047245
20
-3.9316780708661416
11
5.0049909448818894
21
-3.934871220472441
0
LINE
8
BLACK
6
CONTINUOUS
10
5.0049909448818894
20
-3.934871220472441
11
5.0057401574803144
21
-3.9386377952755907
0
LINE
8
BLACK
6
CONTINUOUS
10
5.0057401574803144
20
-3.9386377952755907
11
5.0057401574803144
21
-3.9701338582677166
0
LINE
8
BLACK
6
CONTINUOUS
10
5.0057401574803144
20
-3.9701338582677166
11
5.0049909448818894
21
-3.9739004330708663
0
LINE
8
BLACK
6
CONTINUOUS
10
5.0049909448818894
20
-3.9739004330708663
11
5.0028573622047245
21
-3.9770935826771652
0
LINE
8
BLACK
6
CONTINUOUS
10
5.0028573622047245
20
-3.9770935826771652
11
4.9996642125984252
21
-3.9792271653543305
0
LINE
8
BLACK
6
CONTINUOUS
10
4.9996642125984252
20
-3.9792271653543305
11
4.9958976377952755
21
-3.9799763779527559
0
LINE
8
BLACK
6
CONTINUOUS
10
4.9958976377952755
20
-3.9799763779527559
11
4.9466850393700783
21
-3.9799763779527559
0
LINE
8
BLACK
6
CONTINUOUS
10
4.9466850393700783
20
-3.9799763779527559
11
4.9429184645669286
21
-3.9792271653543305
0
LINE
8
BLACK
6
CONTINUOUS
10
4.9429184645669286
20
-3.9792271653543305
11
4.9397253149606302
21
-3.9770935826771652
0
LINE
8
BLACK
6
CONTINUOUS
10
4.9397253149606302
20
-3.9770935826771652
11
4.9375917322834644
21
-3.9739004330708663
0
LINE
8
BLACK
6
CONTINUOUS
10
4.9375917322834644
20
-3.9739004330708663
11
4.9368425196850394
21
-3.9701338582677166
0
LINE
8
BLACK
6
CONTINUOUS
10
4.9368425196850394
20
-3.9701338582677166
11
4.9368425196850394
21
-3.9386377952755907
0
LINE
8
BLACK
6
CONTINUOUS
10
4.9368425196850394
20
-3.9386377952755907
11
4.9375917322834644
21
-3.934871220472441
0
LINE
8
BLACK
6
CONTINUOUS
10
4.9375917322834644
20
-3.934871220472441
11
4.9397253149606302
21
-3.9316780708661416
0
LINE
8
BLACK
6
CONTINUOUS
10
4.9397253149606302
20
-3.9316780708661416
11
4.9429184645669286
21
-3.9295444881889763
0
LINE
8
BLACK
6
CONTINUOUS
10
4.9429184645669286
20
-3.9295444881889763
11
4.9466850393700783
21
-3.9287952755905513
0
LINE
8
BLACK
6
CONTINUOUS
10
4.9466850393700783
20
-3.9287952755905513
11
4.9958976377952755
21
-3.9287952755905513
0
LINE
8
BLACK
6
CONTINUOUS
10
4.9958976377952755
20
-3.9287952755905513
11
4.9996642125984252
21
-3.9295444881889763
0
LINE
8
BLACK
6
CONTINUOUS
10
4.4943571259842523
20
-3.8326586614173226
11
4.4975502755905508
21
-3.8347922440944879
0
LINE
8
BLACK
6
CONTINUOUS
10
4.4975502755905508
20
-3.8347922440944879
11
4.4996838582677166
21
-3.8379853937007873
0
LINE
8
BLACK
6
CONTINUOUS
10
4.4996838582677166
20
-3.8379853937007873
11
4.5004330708661415
21
-3.841751968503937
0
LINE
8
BLACK
6
CONTINUOUS
10
4.5004330708661415
20
-3.841751968503937
11
4.5004330708661415
21
-3.8742322834645671
0
LINE
8
BLACK
6
CONTINUOUS
10
4.5004330708661415
20
-3.8742322834645671
11
4.4996838582677166
21
-3.8779988582677163
0
LINE
8
BLACK
6
CONTINUOUS
10
4.4996838582677166
20
-3.8779988582677163
11
4.4975502755905508
21
-3.8811920078740156
0
LINE
8
BLACK
6
CONTINUOUS
10
4.4975502755905508
20
-3.8811920078740156
11
4.4943571259842523
21
-3.883325590551181
0
LINE
8
BLACK
6
CONTINUOUS
10
4.4943571259842523
20
-3.883325590551181
11
4.4905905511811026
21
-3.8840748031496064
0
LINE
8
BLACK
6
CONTINUOUS
10
4.4905905511811026
20
-3.8840748031496064
11
4.4394094488188971
21
-3.8840748031496064
0
LINE
8
BLACK
6
CONTINUOUS
10
4.4394094488188971
20
-3.8840748031496064
11
4.4356428740157483
21
-3.883325590551181
0
LINE
8
BLACK
6
CONTINUOUS
10
4.4356428740157483
20
-3.883325590551181
11
4.432449724409449
21
-3.8811920078740156
0
LINE
8
BLACK
6
CONTINUOUS
10
4.432449724409449
20
-3.8811920078740156
11
4.4303161417322832
21
-3.8779988582677163
0
LINE
8
BLACK
6
CONTINUOUS
10
4.4303161417322832
20
-3.8779988582677163
11
4.4295669291338582
21
-3.8742322834645671
0
LINE
8
BLACK
6
CONTINUOUS
10
4.4295669291338582
20
-3.8742322834645671
11
4.4295669291338582
21
-3.841751968503937
0
LINE
8
BLACK
6
CONTINUOUS
10
4.4295669291338582
20
-3.841751968503937
11
4.4303161417322832
21
-3.8379853937007873
0
LINE
8
BLACK
6
CONTINUOUS
10
4.4303161417322832
20
-3.8379853937007873
11
4.432449724409449
21
-3.8347922440944879
0
LINE
8
BLACK
6
CONTINUOUS
10
4.432449724409449
20
-3.8347922440944879
11
4.4356428740157483
21
-3.8326586614173226
0
LINE
8
BLACK
6
CONTINUOUS
10
4.4356428740157483
20
-3.8326586614173226
11
4.4394094488188971
21
-3.8319094488188976
0
LINE
8
BLACK
6
CONTINUOUS
10
4.4394094488188971
20
-3.8319094488188976
11
4.4905905511811026
21
-3.8319094488188976
0
LINE
8
BLACK
6
CONTINUOUS
10
4.4905905511811026
20
-3.8319094488188976
11
4.4943571259842523
21
-3.8326586614173226
0
LINE
8
BLACK
6
CONTINUOUS
10
5.004467362204724
20
-3.7811822834645668
11
5.0076605118110233
21
-3.7833158661417321
0
LINE
8
BLACK
6
CONTINUOUS
10
5.0076605118110233
20
-3.7833158661417321
11
5.0097940944881891
21
-3.7865090157480314
0
LINE
8
BLACK
6
CONTINUOUS
10
5.0097940944881891
20
-3.7865090157480314
11
5.0105433070866141
21
-3.7902755905511811
0
LINE
8
BLACK
6
CONTINUOUS
10
5.0105433070866141
20
-3.7902755905511811
11
5.0105433070866141
21
-3.8217716535433071
0
LINE
8
BLACK
6
CONTINUOUS
10
5.0105433070866141
20
-3.8217716535433071
11
5.0097940944881891
21
-3.8255382283464567
0
LINE
8
BLACK
6
CONTINUOUS
10
5.0097940944881891
20
-3.8255382283464567
11
5.0076605118110233
21
-3.8287313779527556
0
LINE
8
BLACK
6
CONTINUOUS
10
5.0076605118110233
20
-3.8287313779527556
11
5.004467362204724
21
-3.830864960629921
0
LINE
8
BLACK
6
CONTINUOUS
10
5.004467362204724
20
-3.830864960629921
11
5.0007007874015743
21
-3.8316141732283464
0
LINE
8
BLACK
6
CONTINUOUS
10
5.0007007874015743
20
-3.8316141732283464
11
4.951488188976378
21
-3.8316141732283464
0
LINE
8
BLACK
6
CONTINUOUS
10
4.951488188976378
20
-3.8316141732283464
11
4.9477216141732283
21
-3.830864960629921
0
LINE
8
BLACK
6
CONTINUOUS
10
4.9477216141732283
20
-3.830864960629921
11
4.944528464566929
21
-3.8287313779527556
0
LINE
8
BLACK
6
CONTINUOUS
10
4.944528464566929
20
-3.8287313779527556
11
4.9423948818897641
21
-3.8255382283464567
0
LINE
8
BLACK
6
CONTINUOUS
10
4.9423948818897641
20
-3.8255382283464567
11
4.9416456692913382
21
-3.8217716535433071
0
LINE
8
BLACK
6
CONTINUOUS
10
4.9416456692913382
20
-3.8217716535433071
11
4.9416456692913382
21
-3.7902755905511811
0
LINE
8
BLACK
6
CONTINUOUS
10
4.9416456692913382
20
-3.7902755905511811
11
4.9423948818897641
21
-3.7865090157480314
0
LINE
8
BLACK
6
CONTINUOUS
10
4.9423948818897641
20
-3.7865090157480314
11
4.944528464566929
21
-3.7833158661417321
0
LINE
8
BLACK
6
CONTINUOUS
10
4.944528464566929
20
-3.7833158661417321
11
4.9477216141732283
21
-3.7811822834645668
0
LINE
8
BLACK
6
CONTINUOUS
10
4.9477216141732283
20
-3.7811822834645668
11
4.951488188976378
21
-3.7804330708661418
0
LINE
8
BLACK
6
CONTINUOUS
10
4.951488188976378
20
-3.7804330708661418
11
5.0007007874015743
21
-3.7804330708661418
0
LINE
8
BLACK
6
CONTINUOUS
10
5.0007007874015743
20
-3.7804330708661418
11
5.004467362204724
21
-3.7811822834645668
0
LINE
8
BLACK
6
CONTINUOUS
10
5.4046642125984254
20
-3.7811822834645668
11
5.4078573622047239
21
-3.7833158661417321
0
LINE
8
BLACK
6
CONTINUOUS
10
5.4078573622047239
20
-3.7833158661417321
11
5.4099909448818897
21
-3.7865090157480314
0
LINE
8
BLACK
6
CONTINUOUS
10
5.4099909448818897
20
-3.7865090157480314
11
5.4107401574803147
21
-3.7902755905511811
0
LINE
8
BLACK
6
CONTINUOUS
10
5.4107401574803147
20
-3.7902755905511811
11
5.4107401574803147
21
-3.8217716535433071
0
LINE
8
BLACK
6
CONTINUOUS
10
5.4107401574803147
20
-3.8217716535433071
11
5.4099909448818897
21
-3.8255382283464567
0
LINE
8
BLACK
6
CONTINUOUS
10
5.4099909448818897
20
-3.8255382283464567
11
5.4078573622047239
21
-3.8287313779527556
0
LINE
8
BLACK
6
CONTINUOUS
10
5.4078573622047239
20
-3.8287313779527556
11
5.4046642125984254
21
-3.830864960629921
0
LINE
8
BLACK
6
CONTINUOUS
10
5.4046642125984254
20
-3.830864960629921
11
5.4008976377952758
21
-3.8316141732283464
0
LINE
8
BLACK
6
CONTINUOUS
10
5.4008976377952758
20
-3.8316141732283464
11
5.3516850393700786
21
-3.8316141732283464
0
LINE
8
BLACK
6
CONTINUOUS
10
5.3516850393700786
20
-3.8316141732283464
11
5.3479184645669289
21
-3.830864960629921
0
LINE
8
BLACK
6
CONTINUOUS
10
5.3479184645669289
20
-3.830864960629921
11
5.3447253149606295
21
-3.8287313779527556
0
LINE
8
BLACK
6
CONTINUOUS
10
5.3447253149606295
20
-3.8287313779527556
11
5.3425917322834646
21
-3.8255382283464567
0
LINE
8
BLACK
6
CONTINUOUS
10
5.3425917322834646
20
-3.8255382283464567
11
5.3418425196850396
21
-3.8217716535433071
0
LINE
8
BLACK
6
CONTINUOUS
10
5.3418425196850396
20
-3.8217716535433071
11
5.3418425196850396
21
-3.7902755905511811
0
LINE
8
BLACK
6
CONTINUOUS
10
5.3418425196850396
20
-3.7902755905511811
11
5.3425917322834646
21
-3.7865090157480314
0
LINE
8
BLACK
6
CONTINUOUS
10
5.3425917322834646
20
-3.7865090157480314
11
5.3447253149606295
21
-3.7833158661417321
0
LINE
8
BLACK
6
CONTINUOUS
10
5.3447253149606295
20
-3.7833158661417321
11
5.3479184645669289
21
-3.7811822834645668
0
LINE
8
BLACK
6
CONTINUOUS
10
5.3479184645669289
20
-3.7811822834645668
11
5.3516850393700786
21
-3.7804330708661418
0
LINE
8
BLACK
6
CONTINUOUS
10
5.3516850393700786
20
-3.7804330708661418
11
5.4008976377952758
21
-3.7804330708661418
0
LINE
8
BLACK
6
CONTINUOUS
10
5.4008976377952758
20
-3.7804330708661418
11
5.4046642125984254
21
-3.7811822834645668
0
LINE
8
BLACK
6
CONTINUOUS
10
4.4943571259842523
20
-3.7311822834645669
11
4.4975502755905508
21
-3.7333158661417323
0
LINE
8
BLACK
6
CONTINUOUS
10
4.4975502755905508
20
-3.7333158661417323
11
4.4996838582677166
21
-3.7365090157480316
0
LINE
8
BLACK
6
CONTINUOUS
10
4.4996838582677166
20
-3.7365090157480316
11
4.5004330708661415
21
-3.7402755905511809
0
LINE
8
BLACK
6
CONTINUOUS
10
4.5004330708661415
20
-3.7402755905511809
11
4.5004330708661415
21
-3.7727559055118109
0
LINE
8
BLACK
6
CONTINUOUS
10
4.5004330708661415
20
-3.7727559055118109
11
4.4996838582677166
21
-3.7765224803149606
0
LINE
8
BLACK
6
CONTINUOUS
10
4.4996838582677166
20
-3.7765224803149606
11
4.4975502755905508
21
-3.77971562992126
0
LINE
8
BLACK
6
CONTINUOUS
10
4.4975502755905508
20
-3.77971562992126
11
4.4943571259842523
21
-3.7818492125984253
0
LINE
8
BLACK
6
CONTINUOUS
10
4.4943571259842523
20
-3.7818492125984253
11
4.4905905511811026
21
-3.7825984251968503
0
LINE
8
BLACK
6
CONTINUOUS
10
4.4905905511811026
20
-3.7825984251968503
11
4.4394094488188971
21
-3.7825984251968503
0
LINE
8
BLACK
6
CONTINUOUS
10
4.4394094488188971
20
-3.7825984251968503
11
4.4356428740157483
21
-3.7818492125984253
0
LINE
8
BLACK
6
CONTINUOUS
10
4.4356428740157483
20
-3.7818492125984253
11
4.432449724409449
21
-3.77971562992126
0
LINE
8
BLACK
6
CONTINUOUS
10
4.432449724409449
20
-3.77971562992126
11
4.4303161417322832
21
-3.7765224803149606
0
LINE
8
BLACK
6
CONTINUOUS
10
4.4303161417322832
20
-3.7765224803149606
11
4.4295669291338582
21
-3.7727559055118109
0
LINE
8
BLACK
6
CONTINUOUS
10
4.4295669291338582
20
-3.7727559055118109
11
4.4295669291338582
21
-3.7402755905511809
0
LINE
8
BLACK
6
CONTINUOUS
10
4.4295669291338582
20
-3.7402755905511809
11
4.4303161417322832
21
-3.7365090157480316
0
LINE
8
BLACK
6
CONTINUOUS
10
4.4303161417322832
20
-3.7365090157480316
11
4.432449724409449
21
-3.7333158661417323
0
LINE
8
BLACK
6
CONTINUOUS
10
4.432449724409449
20
-3.7333158661417323
11
4.4356428740157483
21
-3.7311822834645669
0
LINE
8
BLACK
6
CONTINUOUS
10
4.4356428740157483
20
-3.7311822834645669
11
4.4394094488188971
21
-3.7304330708661415
0
LINE
8
BLACK
6
CONTINUOUS
10
4.4394094488188971
20
-3.7304330708661415
11
4.4905905511811026
21
-3.7304330708661415
0
LINE
8
BLACK
6
CONTINUOUS
10
4.4905905511811026
20
-3.7304330708661415
11
4.4943571259842523
21
-3.7311822834645669
0
LINE
8
BLACK
6
CONTINUOUS
10
5.004467362204724
20
-3.6591350393700788
11
5.0076605118110233
21
-3.6612686220472441
0
LINE
8
BLACK
6
CONTINUOUS
10
5.0076605118110233
20
-3.6612686220472441
11
5.0097940944881891
21
-3.664461771653543
0
LINE
8
BLACK
6
CONTINUOUS
10
5.0097940944881891
20
-3.664461771653543
11
5.0105433070866141
21
-3.6682283464566927
0
LINE
8
BLACK
6
CONTINUOUS
10
5.0105433070866141
20
-3.6682283464566927
11
5.0105433070866141
21
-3.6997244094488186
0
LINE
8
BLACK
6
CONTINUOUS
10
5.0105433070866141
20
-3.6997244094488186
11
5.0097940944881891
21
-3.7034909842519683
0
LINE
8
BLACK
6
CONTINUOUS
10
5.0097940944881891
20
-3.7034909842519683
11
5.0076605118110233
21
-3.7066841338582677
0
LINE
8
BLACK
6
CONTINUOUS
10
5.0076605118110233
20
-3.7066841338582677
11
5.004467362204724
21
-3.708817716535433
0
LINE
8
BLACK
6
CONTINUOUS
10
5.004467362204724
20
-3.708817716535433
11
5.0007007874015743
21
-3.709566929133858
0
LINE
8
BLACK
6
CONTINUOUS
10
5.0007007874015743
20
-3.709566929133858
11
4.951488188976378
21
-3.709566929133858
0
LINE
8
BLACK
6
CONTINUOUS
10
4.951488188976378
20
-3.709566929133858
11
4.9477216141732283
21
-3.708817716535433
0
LINE
8
BLACK
6
CONTINUOUS
10
4.9477216141732283
20
-3.708817716535433
11
4.944528464566929
21
-3.7066841338582677
0
LINE
8
BLACK
6
CONTINUOUS
10
4.944528464566929
20
-3.7066841338582677
11
4.9423948818897641
21
-3.7034909842519683
0
LINE
8
BLACK
6
CONTINUOUS
10
4.9423948818897641
20
-3.7034909842519683
11
4.9416456692913382
21
-3.6997244094488186
0
LINE
8
BLACK
6
CONTINUOUS
10
4.9416456692913382
20
-3.6997244094488186
11
4.9416456692913382
21
-3.6682283464566927
0
LINE
8
BLACK
6
CONTINUOUS
10
4.9416456692913382
20
-3.6682283464566927
11
4.9423948818897641
21
-3.664461771653543
0
LINE
8
BLACK
6
CONTINUOUS
10
4.9423948818897641
20
-3.664461771653543
11
4.944528464566929
21
-3.6612686220472441
0
LINE
8
BLACK
6
CONTINUOUS
10
4.944528464566929
20
-3.6612686220472441
11
4.9477216141732283
21
-3.6591350393700788
0
LINE
8
BLACK
6
CONTINUOUS
10
4.9477216141732283
20
-3.6591350393700788
11
4.951488188976378
21
-3.6583858267716534
0
LINE
8
BLACK
6
CONTINUOUS
10
4.951488188976378
20
-3.6583858267716534
11
5.0007007874015743
21
-3.6583858267716534
0
LINE
8
BLACK
6
CONTINUOUS
10
5.0007007874015743
20
-3.6583858267716534
11
5.004467362204724
21
-3.6591350393700788
0
LINE
8
BLACK
6
CONTINUOUS
10
5.4046642125984254
20
-3.6591350393700788
11
5.4078573622047239
21
-3.6612686220472441
0
LINE
8
BLACK
6
CONTINUOUS
10
5.4078573622047239
20
-3.6612686220472441
11
5.4099909448818897
21
-3.664461771653543
0
LINE
8
BLACK
6
CONTINUOUS
10
5.4099909448818897
20
-3.664461771653543
11
5.4107401574803147
21
-3.6682283464566927
0
LINE
8
BLACK
6
CONTINUOUS
10
5.4107401574803147
20
-3.6682283464566927
11
5.4107401574803147
21
-3.6997244094488186
0
LINE
8
BLACK
6
CONTINUOUS
10
5.4107401574803147
20
-3.6997244094488186
11
5.4099909448818897
21
-3.7034909842519683
0
LINE
8
BLACK
6
CONTINUOUS
10
5.4099909448818897
20
-3.7034909842519683
11
5.4078573622047239
21
-3.7066841338582677
0
LINE
8
BLACK
6
CONTINUOUS
10
5.4078573622047239
20
-3.7066841338582677
11
5.4046642125984254
21
-3.708817716535433
0
LINE
8
BLACK
6
CONTINUOUS
10
5.4046642125984254
20
-3.708817716535433
11
5.4008976377952758
21
-3.709566929133858
0
LINE
8
BLACK
6
CONTINUOUS
10
5.4008976377952758
20
-3.709566929133858
11
5.3516850393700786
21
-3.709566929133858
0
LINE
8
BLACK
6
CONTINUOUS
10
5.3516850393700786
20
-3.709566929133858
11
5.3479184645669289
21
-3.708817716535433
0
LINE
8
BLACK
6
CONTINUOUS
10
5.3479184645669289
20
-3.708817716535433
11
5.3447253149606295
21
-3.7066841338582677
0
LINE
8
BLACK
6
CONTINUOUS
10
5.3447253149606295
20
-3.7066841338582677
11
5.3425917322834646
21
-3.7034909842519683
0
LINE
8
BLACK
6
CONTINUOUS
10
5.3425917322834646
20
-3.7034909842519683
11
5.3418425196850396
21
-3.6997244094488186
0
LINE
8
BLACK
6
CONTINUOUS
10
5.3418425196850396
20
-3.6997244094488186
11
5.3418425196850396
21
-3.6682283464566927
0
LINE
8
BLACK
6
CONTINUOUS
10
5.3418425196850396
20
-3.6682283464566927
11
5.3425917322834646
21
-3.664461771653543
0
LINE
8
BLACK
6
CONTINUOUS
10
5.3425917322834646
20
-3.664461771653543
11
5.3447253149606295
21
-3.6612686220472441
0
LINE
8
BLACK
6
CONTINUOUS
10
5.3447253149606295
20
-3.6612686220472441
11
5.3479184645669289
21
-3.6591350393700788
0
LINE
8
BLACK
6
CONTINUOUS
10
5.3479184645669289
20
-3.6591350393700788
11
5.3516850393700786
21
-3.6583858267716534
0
LINE
8
BLACK
6
CONTINUOUS
10
5.3516850393700786
20
-3.6583858267716534
11
5.4008976377952758
21
-3.6583858267716534
0
LINE
8
BLACK
6
CONTINUOUS
10
5.4008976377952758
20
-3.6583858267716534
11
5.4046642125984254
21
-3.6591350393700788
0
LINE
8
BLACK
6
CONTINUOUS
10
4.4943571259842523
20
-3.6081507874015748
11
4.4975502755905508
21
-3.6102843700787401
0
LINE
8
BLACK
6
CONTINUOUS
10
4.4975502755905508
20
-3.6102843700787401
11
4.4996838582677166
21
-3.6134775196850395
0
LINE
8
BLACK
6
CONTINUOUS
10
4.4996838582677166
20
-3.6134775196850395
11
4.5004330708661415
21
-3.6172440944881887
0
LINE
8
BLACK
6
CONTINUOUS
10
4.5004330708661415
20
-3.6172440944881887
11
4.5004330708661415
21
-3.6497244094488188
0
LINE
8
BLACK
6
CONTINUOUS
10
4.5004330708661415
20
-3.6497244094488188
11
4.4996838582677166
21
-3.6534909842519685
0
LINE
8
BLACK
6
CONTINUOUS
10
4.4996838582677166
20
-3.6534909842519685
11
4.4975502755905508
21
-3.6566841338582678
0
LINE
8
BLACK
6
CONTINUOUS
10
4.4975502755905508
20
-3.6566841338582678
11
4.4943571259842523
21
-3.6588177165354332
0
LINE
8
BLACK
6
CONTINUOUS
10
4.4943571259842523
20
-3.6588177165354332
11
4.4905905511811026
21
-3.6595669291338582
0
LINE
8
BLACK
6
CONTINUOUS
10
4.4905905511811026
20
-3.6595669291338582
11
4.4394094488188971
21
-3.6595669291338582
0
LINE
8
BLACK
6
CONTINUOUS
10
4.4394094488188971
20
-3.6595669291338582
11
4.4356428740157483
21
-3.6588177165354332
0
LINE
8
BLACK
6
CONTINUOUS
10
4.4356428740157483
20
-3.6588177165354332
11
4.432449724409449
21
-3.6566841338582678
0
LINE
8
BLACK
6
CONTINUOUS
10
4.432449724409449
20
-3.6566841338582678
11
4.4303161417322832
21
-3.6534909842519685
0
LINE
8
BLACK
6
CONTINUOUS
10
4.4303161417322832
20
-3.6534909842519685
11
4.4295669291338582
21
-3.6497244094488188
0
LINE
8
BLACK
6
CONTINUOUS
10
4.4295669291338582
20
-3.6497244094488188
11
4.4295669291338582
21
-3.6172440944881887
0
LINE
8
BLACK
6
CONTINUOUS
10
4.4295669291338582
20
-3.6172440944881887
11
4.4303161417322832
21
-3.6134775196850395
0
LINE
8
BLACK
6
CONTINUOUS
10
4.4303161417322832
20
-3.6134775196850395
11
4.432449724409449
21
-3.6102843700787401
0
LINE
8
BLACK
6
CONTINUOUS
10
4.432449724409449
20
-3.6102843700787401
11
4.4356428740157483
21
-3.6081507874015748
0
LINE
8
BLACK
6
CONTINUOUS
10
4.4356428740157483
20
-3.6081507874015748
11
4.4394094488188971
21
-3.6074015748031494
0
LINE
8
BLACK
6
CONTINUOUS
10
4.4394094488188971
20
-3.6074015748031494
11
4.4905905511811026
21
-3.6074015748031494
0
LINE
8
BLACK
6
CONTINUOUS
10
4.4905905511811026
20
-3.6074015748031494
11
4.4943571259842523
21
-3.6081507874015748
0
LINE
8
BLACK
6
CONTINUOUS
10
2.7184909842519684
20
-3.0053161417322833
11
2.7216841338582678
21
-3.0074497244094487
0
LINE
8
BLACK
6
CONTINUOUS
10
2.7216841338582678
20
-3.0074497244094487
11
2.7238177165354331
21
-3.010642874015748
0
LINE
8
BLACK
6
CONTINUOUS
10
2.7238177165354331
20
-3.010642874015748
11
2.7245669291338581
21
-3.0144094488188977
0
LINE
8
BLACK
6
CONTINUOUS
10
2.7245669291338581
20
-3.0144094488188977
11
2.7245669291338581
21
-3.0655905511811024
0
LINE
8
BLACK
6
CONTINUOUS
10
2.7245669291338581
20
-3.0655905511811024
11
2.7238177165354331
21
-3.069357125984252
0
LINE
8
BLACK
6
CONTINUOUS
10
2.7238177165354331
20
-3.069357125984252
11
2.7216841338582678
21
-3.0725502755905509
0
LINE
8
BLACK
6
CONTINUOUS
10
2.7216841338582678
20
-3.0725502755905509
11
2.7184909842519684
21
-3.0746838582677163
0
LINE
8
BLACK
6
CONTINUOUS
10
2.7184909842519684
20
-3.0746838582677163
11
2.7147244094488188
21
-3.0754330708661417
0
LINE
8
BLACK
6
CONTINUOUS
10
2.7147244094488188
20
-3.0754330708661417
11
2.6822440944881891
21
-3.0754330708661417
0
LINE
8
BLACK
6
CONTINUOUS
10
2.6822440944881891
20
-3.0754330708661417
11
2.6784775196850394
21
-3.0746838582677163
0
LINE
8
BLACK
6
CONTINUOUS
10
2.6784775196850394
20
-3.0746838582677163
11
2.6752843700787401
21
-3.0725502755905509
0
LINE
8
BLACK
6
CONTINUOUS
10
2.6752843700787401
20
-3.0725502755905509
11
2.6731507874015747
21
-3.069357125984252
0
LINE
8
BLACK
6
CONTINUOUS
10
2.6731507874015747
20
-3.069357125984252
11
2.6724015748031493
21
-3.0655905511811024
0
LINE
8
BLACK
6
CONTINUOUS
10
2.6724015748031493
20
-3.0655905511811024
11
2.6724015748031493
21
-3.0144094488188977
0
LINE
8
BLACK
6
CONTINUOUS
10
2.6724015748031493
20
-3.0144094488188977
11
2.6731507874015747
21
-3.010642874015748
0
LINE
8
BLACK
6
CONTINUOUS
10
2.6731507874015747
20
-3.010642874015748
11
2.6752843700787401
21
-3.0074497244094487
0
LINE
8
BLACK
6
CONTINUOUS
10
2.6752843700787401
20
-3.0074497244094487
11
2.6784775196850394
21
-3.0053161417322833
0
LINE
8
BLACK
6
CONTINUOUS
10
2.6784775196850394
20
-3.0053161417322833
11
2.6822440944881891
21
-3.0045669291338584
0
LINE
8
BLACK
6
CONTINUOUS
10
2.6822440944881891
20
-3.0045669291338584
11
2.7147244094488188
21
-3.0045669291338584
0
LINE
8
BLACK
6
CONTINUOUS
10
2.7147244094488188
20
-3.0045669291338584
11
2.7184909842519684
21
-3.0053161417322833
0
LINE
8
BLACK
6
CONTINUOUS
10
2.8415224803149606
20
-3.0053161417322833
11
2.8447156299212599
21
-3.0074497244094487
0
LINE
8
BLACK
6
CONTINUOUS
10
2.8447156299212599
20
-3.0074497244094487
11
2.8468492125984253
21
-3.010642874015748
0
LINE
8
BLACK
6
CONTINUOUS
10
2.8468492125984253
20
-3.010642874015748
11
2.8475984251968502
21
-3.0144094488188977
0
LINE
8
BLACK
6
CONTINUOUS
10
2.8475984251968502
20
-3.0144094488188977
11
2.8475984251968502
21
-3.0655905511811024
0
LINE
8
BLACK
6
CONTINUOUS
10
2.8475984251968502
20
-3.0655905511811024
11
2.8468492125984253
21
-3.069357125984252
0
LINE
8
BLACK
6
CONTINUOUS
10
2.8468492125984253
20
-3.069357125984252
11
2.8447156299212599
21
-3.0725502755905509
0
LINE
8
BLACK
6
CONTINUOUS
10
2.8447156299212599
20
-3.0725502755905509
11
2.8415224803149606
21
-3.0746838582677163
0
LINE
8
BLACK
6
CONTINUOUS
10
2.8415224803149606
20
-3.0746838582677163
11
2.8377559055118109
21
-3.0754330708661417
0
LINE
8
BLACK
6
CONTINUOUS
10
2.8377559055118109
20
-3.0754330708661417
11
2.8052755905511813
21
-3.0754330708661417
0
LINE
8
BLACK
6
CONTINUOUS
10
2.8052755905511813
20
-3.0754330708661417
11
2.8015090157480316
21
-3.0746838582677163
0
LINE
8
BLACK
6
CONTINUOUS
10
2.8015090157480316
20
-3.0746838582677163
11
2.7983158661417322
21
-3.0725502755905509
0
LINE
8
BLACK
6
CONTINUOUS
10
2.7983158661417322
20
-3.0725502755905509
11
2.7961822834645669
21
-3.069357125984252
0
LINE
8
BLACK
6
CONTINUOUS
10
2.7961822834645669
20
-3.069357125984252
11
2.7954330708661415
21
-3.0655905511811024
0
LINE
8
BLACK
6
CONTINUOUS
10
2.7954330708661415
20
-3.0655905511811024
11
2.7954330708661415
21
-3.0144094488188977
0
LINE
8
BLACK
6
CONTINUOUS
10
2.7954330708661415
20
-3.0144094488188977
11
2.7961822834645669
21
-3.010642874015748
0
LINE
8
BLACK
6
CONTINUOUS
10
2.7961822834645669
20
-3.010642874015748
11
2.7983158661417322
21
-3.0074497244094487
0
LINE
8
BLACK
6
CONTINUOUS
10
2.7983158661417322
20
-3.0074497244094487
11
2.8015090157480316
21
-3.0053161417322833
0
LINE
8
BLACK
6
CONTINUOUS
10
2.8015090157480316
20
-3.0053161417322833
11
2.8052755905511813
21
-3.0045669291338584
0
LINE
8
BLACK
6
CONTINUOUS
10
2.8052755905511813
20
-3.0045669291338584
11
2.8377559055118109
21
-3.0045669291338584
0
LINE
8
BLACK
6
CONTINUOUS
10
2.8377559055118109
20
-3.0045669291338584
11
2.8415224803149606
21
-3.0053161417322833
0
LINE
8
BLACK
6
CONTINUOUS
10
3.2934909842519686
20
-3.0053161417322833
11
3.2966841338582675
21
-3.0074497244094487
0
LINE
8
BLACK
6
CONTINUOUS
10
3.2966841338582675
20
-3.0074497244094487
11
3.2988177165354329
21
-3.010642874015748
0
LINE
8
BLACK
6
CONTINUOUS
10
3.2988177165354329
20
-3.010642874015748
11
3.2995669291338583
21
-3.0144094488188977
0
LINE
8
BLACK
6
CONTINUOUS
10
3.2995669291338583
20
-3.0144094488188977
11
3.2995669291338583
21
-3.0655905511811024
0
LINE
8
BLACK
6
CONTINUOUS
10
3.2995669291338583
20
-3.0655905511811024
11
3.2988177165354329
21
-3.069357125984252
0
LINE
8
BLACK
6
CONTINUOUS
10
3.2988177165354329
20
-3.069357125984252
11
3.2966841338582675
21
-3.0725502755905509
0
LINE
8
BLACK
6
CONTINUOUS
10
3.2966841338582675
20
-3.0725502755905509
11
3.2934909842519686
21
-3.0746838582677163
0
LINE
8
BLACK
6
CONTINUOUS
10
3.2934909842519686
20
-3.0746838582677163
11
3.2897244094488189
21
-3.0754330708661417
0
LINE
8
BLACK
6
CONTINUOUS
10
3.2897244094488189
20
-3.0754330708661417
11
3.2572440944881889
21
-3.0754330708661417
0
LINE
8
BLACK
6
CONTINUOUS
10
3.2572440944881889
20
-3.0754330708661417
11
3.2534775196850392
21
-3.0746838582677163
0
LINE
8
BLACK
6
CONTINUOUS
10
3.2534775196850392
20
-3.0746838582677163
11
3.2502843700787403
21
-3.0725502755905509
0
LINE
8
BLACK
6
CONTINUOUS
10
3.2502843700787403
20
-3.0725502755905509
11
3.2481507874015749
21
-3.069357125984252
0
LINE
8
BLACK
6
CONTINUOUS
10
3.2481507874015749
20
-3.069357125984252
11
3.2474015748031495
21
-3.0655905511811024
0
LINE
8
BLACK
6
CONTINUOUS
10
3.2474015748031495
20
-3.0655905511811024
11
3.2474015748031495
21
-3.0144094488188977
0
LINE
8
BLACK
6
CONTINUOUS
10
3.2474015748031495
20
-3.0144094488188977
11
3.2481507874015749
21
-3.010642874015748
0
LINE
8
BLACK
6
CONTINUOUS
10
3.2481507874015749
20
-3.010642874015748
11
3.2502843700787403
21
-3.0074497244094487
0
LINE
8
BLACK
6
CONTINUOUS
10
3.2502843700787403
20
-3.0074497244094487
11
3.2534775196850392
21
-3.0053161417322833
0
LINE
8
BLACK
6
CONTINUOUS
10
3.2534775196850392
20
-3.0053161417322833
11
3.2572440944881889
21
-3.0045669291338584
0
LINE
8
BLACK
6
CONTINUOUS
10
3.2572440944881889
20
-3.0045669291338584
11
3.2897244094488189
21
-3.0045669291338584
0
LINE
8
BLACK
6
CONTINUOUS
10
3.2897244094488189
20
-3.0045669291338584
11
3.2934909842519686
21
-3.0053161417322833
0
LINE
8
BLACK
6
CONTINUOUS
10
3.4165224803149608
20
-3.0053161417322833
11
3.4197156299212597
21
-3.0074497244094487
0
LINE
8
BLACK
6
CONTINUOUS
10
3.4197156299212597
20
-3.0074497244094487
11
3.421849212598425
21
-3.010642874015748
0
LINE
8
BLACK
6
CONTINUOUS
10
3.421849212598425
20
-3.010642874015748
11
3.4225984251968504
21
-3.0144094488188977
0
LINE
8
BLACK
6
CONTINUOUS
10
3.4225984251968504
20
-3.0144094488188977
11
3.4225984251968504
21
-3.0655905511811024
0
LINE
8
BLACK
6
CONTINUOUS
10
3.4225984251968504
20
-3.0655905511811024
11
3.421849212598425
21
-3.069357125984252
0
LINE
8
BLACK
6
CONTINUOUS
10
3.421849212598425
20
-3.069357125984252
11
3.4197156299212597
21
-3.0725502755905509
0
LINE
8
BLACK
6
CONTINUOUS
10
3.4197156299212597
20
-3.0725502755905509
11
3.4165224803149608
21
-3.0746838582677163
0
LINE
8
BLACK
6
CONTINUOUS
10
3.4165224803149608
20
-3.0746838582677163
11
3.4127559055118111
21
-3.0754330708661417
0
LINE
8
BLACK
6
CONTINUOUS
10
3.4127559055118111
20
-3.0754330708661417
11
3.380275590551181
21
-3.0754330708661417
0
LINE
8
BLACK
6
CONTINUOUS
10
3.380275590551181
20
-3.0754330708661417
11
3.3765090157480313
21
-3.0746838582677163
0
LINE
8
BLACK
6
CONTINUOUS
10
3.3765090157480313
20
-3.0746838582677163
11
3.3733158661417324
21
-3.0725502755905509
0
LINE
8
BLACK
6
CONTINUOUS
10
3.3733158661417324
20
-3.0725502755905509
11
3.3711822834645671
21
-3.069357125984252
0
LINE
8
BLACK
6
CONTINUOUS
10
3.3711822834645671
20
-3.069357125984252
11
3.3704330708661416
21
-3.0655905511811024
0
LINE
8
BLACK
6
CONTINUOUS
10
3.3704330708661416
20
-3.0655905511811024
11
3.3704330708661416
21
-3.0144094488188977
0
LINE
8
BLACK
6
CONTINUOUS
10
3.3704330708661416
20
-3.0144094488188977
11
3.3711822834645671
21
-3.010642874015748
0
LINE
8
BLACK
6
CONTINUOUS
10
3.3711822834645671
20
-3.010642874015748
11
3.3733158661417324
21
-3.0074497244094487
0
LINE
8
BLACK
6
CONTINUOUS
10
3.3733158661417324
20
-3.0074497244094487
11
3.3765090157480313
21
-3.0053161417322833
0
LINE
8
BLACK
6
CONTINUOUS
10
3.3765090157480313
20
-3.0053161417322833
11
3.380275590551181
21
-3.0045669291338584
0
LINE
8
BLACK
6
CONTINUOUS
10
3.380275590551181
20
-3.0045669291338584
11
3.4127559055118111
21
-3.0045669291338584
0
LINE
8
BLACK
6
CONTINUOUS
10
3.4127559055118111
20
-3.0045669291338584
11
3.4165224803149608
21
-3.0053161417322833
0
LINE
8
BLACK
6
CONTINUOUS
10
5.1084909842519686
20
-3.0053161417322833
11
5.1116841338582679
21
-3.0074497244094487
0
LINE
8
BLACK
6
CONTINUOUS
10
5.1116841338582679
20
-3.0074497244094487
11
5.1138177165354328
21
-3.010642874015748
0
LINE
8
BLACK
6
CONTINUOUS
10
5.1138177165354328
20
-3.010642874015748
11
5.1145669291338578
21
-3.0144094488188977
0
LINE
8
BLACK
6
CONTINUOUS
10
5.1145669291338578
20
-3.0144094488188977
11
5.1145669291338578
21
-3.0655905511811024
0
LINE
8
BLACK
6
CONTINUOUS
10
5.1145669291338578
20
-3.0655905511811024
11
5.1138177165354328
21
-3.069357125984252
0
LINE
8
BLACK
6
CONTINUOUS
10
5.1138177165354328
20
-3.069357125984252
11
5.1116841338582679
21
-3.0725502755905509
0
LINE
8
BLACK
6
CONTINUOUS
10
5.1116841338582679
20
-3.0725502755905509
11
5.1084909842519686
21
-3.0746838582677163
0
LINE
8
BLACK
6
CONTINUOUS
10
5.1084909842519686
20
-3.0746838582677163
11
5.1047244094488189
21
-3.0754330708661417
0
LINE
8
BLACK
6
CONTINUOUS
10
5.1047244094488189
20
-3.0754330708661417
11
5.0722440944881892
21
-3.0754330708661417
0
LINE
8
BLACK
6
CONTINUOUS
10
5.0722440944881892
20
-3.0754330708661417
11
5.0684775196850396
21
-3.0746838582677163
0
LINE
8
BLACK
6
CONTINUOUS
10
5.0684775196850396
20
-3.0746838582677163
11
5.0652843700787402
21
-3.0725502755905509
0
LINE
8
BLACK
6
CONTINUOUS
10
5.0652843700787402
20
-3.0725502755905509
11
5.0631507874015744
21
-3.069357125984252
0
LINE
8
BLACK
6
CONTINUOUS
10
5.0631507874015744
20
-3.069357125984252
11
5.0624015748031495
21
-3.0655905511811024
0
LINE
8
BLACK
6
CONTINUOUS
10
5.0624015748031495
20
-3.0655905511811024
11
5.0624015748031495
21
-3.0144094488188977
0
LINE
8
BLACK
6
CONTINUOUS
10
5.0624015748031495
20
-3.0144094488188977
11
5.0631507874015744
21
-3.010642874015748
0
LINE
8
BLACK
6
CONTINUOUS
10
5.0631507874015744
20
-3.010642874015748
11
5.0652843700787402
21
-3.0074497244094487
0
LINE
8
BLACK
6
CONTINUOUS
10
5.0652843700787402
20
-3.0074497244094487
11
5.0684775196850396
21
-3.0053161417322833
0
LINE
8
BLACK
6
CONTINUOUS
10
5.0684775196850396
20
-3.0053161417322833
11
5.0722440944881892
21
-3.0045669291338584
0
LINE
8
BLACK
6
CONTINUOUS
10
5.0722440944881892
20
-3.0045669291338584
11
5.1047244094488189
21
-3.0045669291338584
0
LINE
8
BLACK
6
CONTINUOUS
10
5.1047244094488189
20
-3.0045669291338584
11
5.1084909842519686
21
-3.0053161417322833
0
LINE
8
BLACK
6
CONTINUOUS
10
5.2315224803149603
20
-3.0053161417322833
11
5.2347156299212596
21
-3.0074497244094487
0
LINE
8
BLACK
6
CONTINUOUS
10
5.2347156299212596
20
-3.0074497244094487
11
5.2368492125984254
21
-3.010642874015748
0
LINE
8
BLACK
6
CONTINUOUS
10
5.2368492125984254
20
-3.010642874015748
11
5.2375984251968504
21
-3.0144094488188977
0
LINE
8
BLACK
6
CONTINUOUS
10
5.2375984251968504
20
-3.0144094488188977
11
5.2375984251968504
21
-3.0655905511811024
0
LINE
8
BLACK
6
CONTINUOUS
10
5.2375984251968504
20
-3.0655905511811024
11
5.2368492125984254
21
-3.069357125984252
0
LINE
8
BLACK
6
CONTINUOUS
10
5.2368492125984254
20
-3.069357125984252
11
5.2347156299212596
21
-3.0725502755905509
0
LINE
8
BLACK
6
CONTINUOUS
10
5.2347156299212596
20
-3.0725502755905509
11
5.2315224803149603
21
-3.0746838582677163
0
LINE
8
BLACK
6
CONTINUOUS
10
5.2315224803149603
20
-3.0746838582677163
11
5.2277559055118106
21
-3.0754330708661417
0
LINE
8
BLACK
6
CONTINUOUS
10
5.2277559055118106
20
-3.0754330708661417
11
5.1952755905511809
21
-3.0754330708661417
0
LINE
8
BLACK
6
CONTINUOUS
10
5.1952755905511809
20
-3.0754330708661417
11
5.1915090157480313
21
-3.0746838582677163
0
LINE
8
BLACK
6
CONTINUOUS
10
5.1915090157480313
20
-3.0746838582677163
11
5.1883158661417319
21
-3.0725502755905509
0
LINE
8
BLACK
6
CONTINUOUS
10
5.1883158661417319
20
-3.0725502755905509
11
5.186182283464567
21
-3.069357125984252
0
LINE
8
BLACK
6
CONTINUOUS
10
5.186182283464567
20
-3.069357125984252
11
5.185433070866142
21
-3.0655905511811024
0
LINE
8
BLACK
6
CONTINUOUS
10
5.185433070866142
20
-3.0655905511811024
11
5.185433070866142
21
-3.0144094488188977
0
LINE
8
BLACK
6
CONTINUOUS
10
5.185433070866142
20
-3.0144094488188977
11
5.186182283464567
21
-3.010642874015748
0
LINE
8
BLACK
6
CONTINUOUS
10
5.186182283464567
20
-3.010642874015748
11
5.1883158661417319
21
-3.0074497244094487
0
LINE
8
BLACK
6
CONTINUOUS
10
5.1883158661417319
20
-3.0074497244094487
11
5.1915090157480313
21
-3.0053161417322833
0
LINE
8
BLACK
6
CONTINUOUS
10
5.1915090157480313
20
-3.0053161417322833
11
5.1952755905511809
21
-3.0045669291338584
0
LINE
8
BLACK
6
CONTINUOUS
10
5.1952755905511809
20
-3.0045669291338584
11
5.2277559055118106
21
-3.0045669291338584
0
LINE
8
BLACK
6
CONTINUOUS
10
5.2277559055118106
20
-3.0045669291338584
11
5.2315224803149603
21
-3.0053161417322833
0
LINE
8
BLACK
6
CONTINUOUS
10
5.6834909842519687
20
-3.0053161417322833
11
5.6866841338582672
21
-3.0074497244094487
0
LINE
8
BLACK
6
CONTINUOUS
10
5.6866841338582672
20
-3.0074497244094487
11
5.688817716535433
21
-3.010642874015748
0
LINE
8
BLACK
6
CONTINUOUS
10
5.688817716535433
20
-3.010642874015748
11
5.689566929133858
21
-3.0144094488188977
0
LINE
8
BLACK
6
CONTINUOUS
10
5.689566929133858
20
-3.0144094488188977
11
5.689566929133858
21
-3.0655905511811024
0
LINE
8
BLACK
6
CONTINUOUS
10
5.689566929133858
20
-3.0655905511811024
11
5.688817716535433
21
-3.069357125984252
0
LINE
8
BLACK
6
CONTINUOUS
10
5.688817716535433
20
-3.069357125984252
11
5.6866841338582672
21
-3.0725502755905509
0
LINE
8
BLACK
6
CONTINUOUS
10
5.6866841338582672
20
-3.0725502755905509
11
5.6834909842519687
21
-3.0746838582677163
0
LINE
8
BLACK
6
CONTINUOUS
10
5.6834909842519687
20
-3.0746838582677163
11
5.6797244094488191
21
-3.0754330708661417
0
LINE
8
BLACK
6
CONTINUOUS
10
5.6797244094488191
20
-3.0754330708661417
11
5.6472440944881885
21
-3.0754330708661417
0
LINE
8
BLACK
6
CONTINUOUS
10
5.6472440944881885
20
-3.0754330708661417
11
5.6434775196850389
21
-3.0746838582677163
0
LINE
8
BLACK
6
CONTINUOUS
10
5.6434775196850389
20
-3.0746838582677163
11
5.6402843700787404
21
-3.0725502755905509
0
LINE
8
BLACK
6
CONTINUOUS
10
5.6402843700787404
20
-3.0725502755905509
11
5.6381507874015746
21
-3.069357125984252
0
LINE
8
BLACK
6
CONTINUOUS
10
5.6381507874015746
20
-3.069357125984252
11
5.6374015748031496
21
-3.0655905511811024
0
LINE
8
BLACK
6
CONTINUOUS
10
5.6374015748031496
20
-3.0655905511811024
11
5.6374015748031496
21
-3.0144094488188977
0
LINE
8
BLACK
6
CONTINUOUS
10
5.6374015748031496
20
-3.0144094488188977
11
5.6381507874015746
21
-3.010642874015748
0
LINE
8
BLACK
6
CONTINUOUS
10
5.6381507874015746
20
-3.010642874015748
11
5.6402843700787404
21
-3.0074497244094487
0
LINE
8
BLACK
6
CONTINUOUS
10
5.6402843700787404
20
-3.0074497244094487
11
5.6434775196850389
21
-3.0053161417322833
0
LINE
8
BLACK
6
CONTINUOUS
10
5.6434775196850389
20
-3.0053161417322833
11
5.6472440944881885
21
-3.0045669291338584
0
LINE
8
BLACK
6
CONTINUOUS
10
5.6472440944881885
20
-3.0045669291338584
11
5.6797244094488191
21
-3.0045669291338584
0
LINE
8
BLACK
6
CONTINUOUS
10
5.6797244094488191
20
-3.0045669291338584
11
5.6834909842519687
21
-3.0053161417322833
0
LINE
8
BLACK
6
CONTINUOUS
10
5.8065224803149604
20
-3.0053161417322833
11
5.8097156299212598
21
-3.0074497244094487
0
LINE
8
BLACK
6
CONTINUOUS
10
5.8097156299212598
20
-3.0074497244094487
11
5.8118492125984247
21
-3.010642874015748
0
LINE
8
BLACK
6
CONTINUOUS
10
5.8118492125984247
20
-3.010642874015748
11
5.8125984251968505
21
-3.0144094488188977
0
LINE
8
BLACK
6
CONTINUOUS
10
5.8125984251968505
20
-3.0144094488188977
11
5.8125984251968505
21
-3.0655905511811024
0
LINE
8
BLACK
6
CONTINUOUS
10
5.8125984251968505
20
-3.0655905511811024
11
5.8118492125984247
21
-3.069357125984252
0
LINE
8
BLACK
6
CONTINUOUS
10
5.8118492125984247
20
-3.069357125984252
11
5.8097156299212598
21
-3.0725502755905509
0
LINE
8
BLACK
6
CONTINUOUS
10
5.8097156299212598
20
-3.0725502755905509
11
5.8065224803149604
21
-3.0746838582677163
0
LINE
8
BLACK
6
CONTINUOUS
10
5.8065224803149604
20
-3.0746838582677163
11
5.8027559055118108
21
-3.0754330708661417
0
LINE
8
BLACK
6
CONTINUOUS
10
5.8027559055118108
20
-3.0754330708661417
11
5.7702755905511811
21
-3.0754330708661417
0
LINE
8
BLACK
6
CONTINUOUS
10
5.7702755905511811
20
-3.0754330708661417
11
5.7665090157480314
21
-3.0746838582677163
0
LINE
8
BLACK
6
CONTINUOUS
10
5.7665090157480314
20
-3.0746838582677163
11
5.7633158661417321
21
-3.0725502755905509
0
LINE
8
BLACK
6
CONTINUOUS
10
5.7633158661417321
20
-3.0725502755905509
11
5.7611822834645672
21
-3.069357125984252
0
LINE
8
BLACK
6
CONTINUOUS
10
5.7611822834645672
20
-3.069357125984252
11
5.7604330708661413
21
-3.0655905511811024
0
LINE
8
BLACK
6
CONTINUOUS
10
5.7604330708661413
20
-3.0655905511811024
11
5.7604330708661413
21
-3.0144094488188977
0
LINE
8
BLACK
6
CONTINUOUS
10
5.7604330708661413
20
-3.0144094488188977
11
5.7611822834645672
21
-3.010642874015748
0
LINE
8
BLACK
6
CONTINUOUS
10
5.7611822834645672
20
-3.010642874015748
11
5.7633158661417321
21
-3.0074497244094487
0
LINE
8
BLACK
6
CONTINUOUS
10
5.7633158661417321
20
-3.0074497244094487
11
5.7665090157480314
21
-3.0053161417322833
0
LINE
8
BLACK
6
CONTINUOUS
10
5.7665090157480314
20
-3.0053161417322833
11
5.7702755905511811
21
-3.0045669291338584
0
LINE
8
BLACK
6
CONTINUOUS
10
5.7702755905511811
20
-3.0045669291338584
11
5.8027559055118108
21
-3.0045669291338584
0
LINE
8
BLACK
6
CONTINUOUS
10
5.8027559055118108
20
-3.0045669291338584
11
5.8065224803149604
21
-3.0053161417322833
0
LINE
8
BLACK
6
CONTINUOUS
10
2.585
20
-2.9834999999999998
11
2.5550000000000002
21
-2.9834999999999998
0
LINE
8
BLACK
6
CONTINUOUS
10
2.5550000000000002
20
-2.9834999999999998
11
2.5550000000000002
21
-2.8374999999999999
0
LINE
8
BLACK
6
CONTINUOUS
10
2.5550000000000002
20
-2.8374999999999999
11
2.585
21
-2.8374999999999999
0
LINE
8
BLACK
6
CONTINUOUS
10
2.585
20
-2.8374999999999999
11
2.585
21
-2.9834999999999998
0
LINE
8
BLACK
6
CONTINUOUS
10
2.6349999999999998
20
-2.9834999999999998
11
2.605
21
-2.9834999999999998
0
LINE
8
BLACK
6
CONTINUOUS
10
2.605
20
-2.9834999999999998
11
2.605
21
-2.8374999999999999
0
LINE
8
BLACK
6
CONTINUOUS
10
2.605
20
-2.8374999999999999
11
2.6349999999999998
21
-2.8374999999999999
0
LINE
8
BLACK
6
CONTINUOUS
10
2.6349999999999998
20
-2.8374999999999999
11
2.6349999999999998
21
-2.9834999999999998
0
LINE
8
BLACK
6
CONTINUOUS
10
2.6850000000000001
20
-2.9834999999999998
11
2.6549999999999998
21
-2.9834999999999998
0
LINE
8
BLACK
6
CONTINUOUS
10
2.6549999999999998
20
-2.9834999999999998
11
2.6549999999999998
21
-2.8374999999999999
0
LINE
8
BLACK
6
CONTINUOUS
10
2.6549999999999998
20
-2.8374999999999999
11
2.6850000000000001
21
-2.8374999999999999
0
LINE
8
BLACK
6
CONTINUOUS
10
2.6850000000000001
20
-2.8374999999999999
11
2.6850000000000001
21
-2.9834999999999998
0
LINE
8
BLACK
6
CONTINUOUS
10
2.7349999999999999
20
-2.9834999999999998
11
2.7050000000000001
21
-2.9834999999999998
0
LINE
8
BLACK
6
CONTINUOUS
10
2.7050000000000001
20
-2.9834999999999998
11
2.7050000000000001
21
-2.8374999999999999
0
LINE
8
BLACK
6
CONTINUOUS
10
2.7050000000000001
20
-2.8374999999999999
11
2.7349999999999999
21
-2.8374999999999999
0
LINE
8
BLACK
6
CONTINUOUS
10
2.7349999999999999
20
-2.8374999999999999
11
2.7349999999999999
21
-2.9834999999999998
0
LINE
8
BLACK
6
CONTINUOUS
10
2.7850000000000001
20
-2.9834999999999998
11
2.7549999999999999
21
-2.9834999999999998
0
LINE
8
BLACK
6
CONTINUOUS
10
2.7549999999999999
20
-2.9834999999999998
11
2.7549999999999999
21
-2.8374999999999999
0
LINE
8
BLACK
6
CONTINUOUS
10
2.7549999999999999
20
-2.8374999999999999
11
2.7850000000000001
21
-2.8374999999999999
0
LINE
8
BLACK
6
CONTINUOUS
10
2.7850000000000001
20
-2.8374999999999999
11
2.7850000000000001
21
-2.9834999999999998
0
LINE
8
BLACK
6
CONTINUOUS
10
2.835
20
-2.9834999999999998
11
2.8049999999999997
21
-2.9834999999999998
0
LINE
8
BLACK
6
CONTINUOUS
10
2.8049999999999997
20
-2.9834999999999998
11
2.8049999999999997
21
-2.8374999999999999
0
LINE
8
BLACK
6
CONTINUOUS
10
2.8049999999999997
20
-2.8374999999999999
11
2.835
21
-2.8374999999999999
0
LINE
8
BLACK
6
CONTINUOUS
10
2.835
20
-2.8374999999999999
11
2.835
21
-2.9834999999999998
0
LINE
8
BLACK
6
CONTINUOUS
10
2.8849999999999998
20
-2.9834999999999998
11
2.855
21
-2.9834999999999998
0
LINE
8
BLACK
6
CONTINUOUS
10
2.855
20
-2.9834999999999998
11
2.855
21
-2.8374999999999999
0
LINE
8
BLACK
6
CONTINUOUS
10
2.855
20
-2.8374999999999999
11
2.8849999999999998
21
-2.8374999999999999
0
LINE
8
BLACK
6
CONTINUOUS
10
2.8849999999999998
20
-2.8374999999999999
11
2.8849999999999998
21
-2.9834999999999998
0
LINE
8
BLACK
6
CONTINUOUS
10
3.1600000000000001
20
-2.9834999999999998
11
3.1299999999999999
21
-2.9834999999999998
0
LINE
8
BLACK
6
CONTINUOUS
10
3.1299999999999999
20
-2.9834999999999998
11
3.1299999999999999
21
-2.8374999999999999
0
LINE
8
BLACK
6
CONTINUOUS
10
3.1299999999999999
20
-2.8374999999999999
11
3.1600000000000001
21
-2.8374999999999999
0
LINE
8
BLACK
6
CONTINUOUS
10
3.1600000000000001
20
-2.8374999999999999
11
3.1600000000000001
21
-2.9834999999999998
0
LINE
8
BLACK
6
CONTINUOUS
10
3.21
20
-2.9834999999999998
11
3.1799999999999997
21
-2.9834999999999998
0
LINE
8
BLACK
6
CONTINUOUS
10
3.1799999999999997
20
-2.9834999999999998
11
3.1799999999999997
21
-2.8374999999999999
0
LINE
8
BLACK
6
CONTINUOUS
10
3.1799999999999997
20
-2.8374999999999999
11
3.21
21
-2.8374999999999999
0
LINE
8
BLACK
6
CONTINUOUS
10
3.21
20
-2.8374999999999999
11
3.21
21
-2.9834999999999998
0
LINE
8
BLACK
6
CONTINUOUS
10
3.2599999999999998
20
-2.9834999999999998
11
3.23
21
-2.9834999999999998
0
LINE
8
BLACK
6
CONTINUOUS
10
3.23
20
-2.9834999999999998
11
3.23
21
-2.8374999999999999
0
LINE
8
BLACK
6
CONTINUOUS
10
3.23
20
-2.8374999999999999
11
3.2599999999999998
21
-2.8374999999999999
0
LINE
8
BLACK
6
CONTINUOUS
10
3.2599999999999998
20
-2.8374999999999999
11
3.2599999999999998
21
-2.9834999999999998
0
LINE
8
BLACK
6
CONTINUOUS
10
3.3100000000000001
20
-2.9834999999999998
11
3.2799999999999998
21
-2.9834999999999998
0
LINE
8
BLACK
6
CONTINUOUS
10
3.2799999999999998
20
-2.9834999999999998
11
3.2799999999999998
21
-2.8374999999999999
0
LINE
8
BLACK
6
CONTINUOUS
10
3.2799999999999998
20
-2.8374999999999999
11
3.3100000000000001
21
-2.8374999999999999
0
LINE
8
BLACK
6
CONTINUOUS
10
3.3100000000000001
20
-2.8374999999999999
11
3.3100000000000001
21
-2.9834999999999998
0
LINE
8
BLACK
6
CONTINUOUS
10
3.3599999999999999
20
-2.9834999999999998
11
3.3300000000000001
21
-2.9834999999999998
0
LINE
8
BLACK
6
CONTINUOUS
10
3.3300000000000001
20
-2.9834999999999998
11
3.3300000000000001
21
-2.8374999999999999
0
LINE
8
BLACK
6
CONTINUOUS
10
3.3300000000000001
20
-2.8374999999999999
11
3.3599999999999999
21
-2.8374999999999999
0
LINE
8
BLACK
6
CONTINUOUS
10
3.3599999999999999
20
-2.8374999999999999
11
3.3599999999999999
21
-2.9834999999999998
0
LINE
8
BLACK
6
CONTINUOUS
10
3.4100000000000001
20
-2.9834999999999998
11
3.3799999999999999
21
-2.9834999999999998
0
LINE
8
BLACK
6
CONTINUOUS
10
3.3799999999999999
20
-2.9834999999999998
11
3.3799999999999999
21
-2.8374999999999999
0
LINE
8
BLACK
6
CONTINUOUS
10
3.3799999999999999
20
-2.8374999999999999
11
3.4100000000000001
21
-2.8374999999999999
0
LINE
8
BLACK
6
CONTINUOUS
10
3.4100000000000001
20
-2.8374999999999999
11
3.4100000000000001
21
-2.9834999999999998
0
LINE
8
BLACK
6
CONTINUOUS
10
3.46
20
-2.9834999999999998
11
3.4299999999999997
21
-2.9834999999999998
0
LINE
8
BLACK
6
CONTINUOUS
10
3.4299999999999997
20
-2.9834999999999998
11
3.4299999999999997
21
-2.8374999999999999
0
LINE
8
BLACK
6
CONTINUOUS
10
3.4299999999999997
20
-2.8374999999999999
11
3.46
21
-2.8374999999999999
0
LINE
8
BLACK
6
CONTINUOUS
10
3.46
20
-2.8374999999999999
11
3.46
21
-2.9834999999999998
0
LINE
8
BLACK
6
CONTINUOUS
10
4.9737992125984247
20
-2.9834999999999998
11
4.9437992125984254
21
-2.9834999999999998
0
LINE
8
BLACK
6
CONTINUOUS
10
4.9437992125984254
20
-2.9834999999999998
11
4.9437992125984254
21
-2.8374999999999999
0
LINE
8
BLACK
6
CONTINUOUS
10
4.9437992125984254
20
-2.8374999999999999
11
4.9737992125984247
21
-2.8374999999999999
0
LINE
8
BLACK
6
CONTINUOUS
10
4.9737992125984247
20
-2.8374999999999999
11
4.9737992125984247
21
-2.9834999999999998
0
LINE
8
BLACK
6
CONTINUOUS
10
5.0237992125984254
20
-2.9834999999999998
11
4.9937992125984252
21
-2.9834999999999998
0
LINE
8
BLACK
6
CONTINUOUS
10
4.9937992125984252
20
-2.9834999999999998
11
4.9937992125984252
21
-2.8374999999999999
0
LINE
8
BLACK
6
CONTINUOUS
10
4.9937992125984252
20
-2.8374999999999999
11
5.0237992125984254
21
-2.8374999999999999
0
LINE
8
BLACK
6
CONTINUOUS
10
5.0237992125984254
20
-2.8374999999999999
11
5.0237992125984254
21
-2.9834999999999998
0
LINE
8
BLACK
6
CONTINUOUS
10
5.0737992125984253
20
-2.9834999999999998
11
5.043799212598425
21
-2.9834999999999998
0
LINE
8
BLACK
6
CONTINUOUS
10
5.043799212598425
20
-2.9834999999999998
11
5.043799212598425
21
-2.8374999999999999
0
LINE
8
BLACK
6
CONTINUOUS
10
5.043799212598425
20
-2.8374999999999999
11
5.0737992125984253
21
-2.8374999999999999
0
LINE
8
BLACK
6
CONTINUOUS
10
5.0737992125984253
20
-2.8374999999999999
11
5.0737992125984253
21
-2.9834999999999998
0
LINE
8
BLACK
6
CONTINUOUS
10
5.1237992125984251
20
-2.9834999999999998
11
5.0937992125984248
21
-2.9834999999999998
0
LINE
8
BLACK
6
CONTINUOUS
10
5.0937992125984248
20
-2.9834999999999998
11
5.0937992125984248
21
-2.8374999999999999
0
LINE
8
BLACK
6
CONTINUOUS
10
5.0937992125984248
20
-2.8374999999999999
11
5.1237992125984251
21
-2.8374999999999999
0
LINE
8
BLACK
6
CONTINUOUS
10
5.1237992125984251
20
-2.8374999999999999
11
5.1237992125984251
21
-2.9834999999999998
0
LINE
8
BLACK
6
CONTINUOUS
10
5.1737992125984249
20
-2.9834999999999998
11
5.1437992125984247
21
-2.9834999999999998
0
LINE
8
BLACK
6
CONTINUOUS
10
5.1437992125984247
20
-2.9834999999999998
11
5.1437992125984247
21
-2.8374999999999999
0
LINE
8
BLACK
6
CONTINUOUS
10
5.1437992125984247
20
-2.8374999999999999
11
5.1737992125984249
21
-2.8374999999999999
0
LINE
8
BLACK
6
CONTINUOUS
10
5.1737992125984249
20
-2.8374999999999999
11
5.1737992125984249
21
-2.9834999999999998
0
LINE
8
BLACK
6
CONTINUOUS
10
5.2237992125984247
20
-2.9834999999999998
11
5.1937992125984254
21
-2.9834999999999998
0
LINE
8
BLACK
6
CONTINUOUS
10
5.1937992125984254
20
-2.9834999999999998
11
5.1937992125984254
21
-2.8374999999999999
0
LINE
8
BLACK
6
CONTINUOUS
10
5.1937992125984254
20
-2.8374999999999999
11
5.2237992125984247
21
-2.8374999999999999
0
LINE
8
BLACK
6
CONTINUOUS
10
5.2237992125984247
20
-2.8374999999999999
11
5.2237992125984247
21
-2.9834999999999998
0
LINE
8
BLACK
6
CONTINUOUS
10
5.2737992125984254
20
-2.9834999999999998
11
5.2437992125984252
21
-2.9834999999999998
0
LINE
8
BLACK
6
CONTINUOUS
10
5.2437992125984252
20
-2.9834999999999998
11
5.2437992125984252
21
-2.8374999999999999
0
LINE
8
BLACK
6
CONTINUOUS
10
5.2437992125984252
20
-2.8374999999999999
11
5.2737992125984254
21
-2.8374999999999999
0
LINE
8
BLACK
6
CONTINUOUS
10
5.2737992125984254
20
-2.8374999999999999
11
5.2737992125984254
21
-2.9834999999999998
0
LINE
8
BLACK
6
CONTINUOUS
10
5.5487992125984249
20
-2.9834999999999998
11
5.5187992125984247
21
-2.9834999999999998
0
LINE
8
BLACK
6
CONTINUOUS
10
5.5187992125984247
20
-2.9834999999999998
11
5.5187992125984247
21
-2.8374999999999999
0
LINE
8
BLACK
6
CONTINUOUS
10
5.5187992125984247
20
-2.8374999999999999
11
5.5487992125984249
21
-2.8374999999999999
0
LINE
8
BLACK
6
CONTINUOUS
10
5.5487992125984249
20
-2.8374999999999999
11
5.5487992125984249
21
-2.9834999999999998
0
LINE
8
BLACK
6
CONTINUOUS
10
5.5987992125984247
20
-2.9834999999999998
11
5.5687992125984254
21
-2.9834999999999998
0
LINE
8
BLACK
6
CONTINUOUS
10
5.5687992125984254
20
-2.9834999999999998
11
5.5687992125984254
21
-2.8374999999999999
0
LINE
8
BLACK
6
CONTINUOUS
10
5.5687992125984254
20
-2.8374999999999999
11
5.5987992125984247
21
-2.8374999999999999
0
LINE
8
BLACK
6
CONTINUOUS
10
5.5987992125984247
20
-2.8374999999999999
11
5.5987992125984247
21
-2.9834999999999998
0
LINE
8
BLACK
6
CONTINUOUS
10
5.6487992125984254
20
-2.9834999999999998
11
5.6187992125984252
21
-2.9834999999999998
0
LINE
8
BLACK
6
CONTINUOUS
10
5.6187992125984252
20
-2.9834999999999998
11
5.6187992125984252
21
-2.8374999999999999
0
LINE
8
BLACK
6
CONTINUOUS
10
5.6187992125984252
20
-2.8374999999999999
11
5.6487992125984254
21
-2.8374999999999999
0
LINE
8
BLACK
6
CONTINUOUS
10
5.6487992125984254
20
-2.8374999999999999
11
5.6487992125984254
21
-2.9834999999999998
0
LINE
8
BLACK
6
CONTINUOUS
10
5.6987992125984253
20
-2.9834999999999998
11
5.668799212598425
21
-2.9834999999999998
0
LINE
8
BLACK
6
CONTINUOUS
10
5.668799212598425
20
-2.9834999999999998
11
5.668799212598425
21
-2.8374999999999999
0
LINE
8
BLACK
6
CONTINUOUS
10
5.668799212598425
20
-2.8374999999999999
11
5.6987992125984253
21
-2.8374999999999999
0
LINE
8
BLACK
6
CONTINUOUS
10
5.6987992125984253
20
-2.8374999999999999
11
5.6987992125984253
21
-2.9834999999999998
0
LINE
8
BLACK
6
CONTINUOUS
10
5.7487992125984251
20
-2.9834999999999998
11
5.7187992125984248
21
-2.9834999999999998
0
LINE
8
BLACK
6
CONTINUOUS
10
5.7187992125984248
20
-2.9834999999999998
11
5.7187992125984248
21
-2.8374999999999999
0
LINE
8
BLACK
6
CONTINUOUS
10
5.7187992125984248
20
-2.8374999999999999
11
5.7487992125984251
21
-2.8374999999999999
0
LINE
8
BLACK
6
CONTINUOUS
10
5.7487992125984251
20
-2.8374999999999999
11
5.7487992125984251
21
-2.9834999999999998
0
LINE
8
BLACK
6
CONTINUOUS
10
5.7987992125984249
20
-2.9834999999999998
11
5.7687992125984247
21
-2.9834999999999998
0
LINE
8
BLACK
6
CONTINUOUS
10
5.7687992125984247
20
-2.9834999999999998
11
5.7687992125984247
21
-2.8374999999999999
0
LINE
8
BLACK
6
CONTINUOUS
10
5.7687992125984247
20
-2.8374999999999999
11
5.7987992125984249
21
-2.8374999999999999
0
LINE
8
BLACK
6
CONTINUOUS
10
5.7987992125984249
20
-2.8374999999999999
11
5.7987992125984249
21
-2.9834999999999998
0
LINE
8
BLACK
6
CONTINUOUS
10
5.8487992125984247
20
-2.9834999999999998
11
5.8187992125984254
21
-2.9834999999999998
0
LINE
8
BLACK
6
CONTINUOUS
10
5.8187992125984254
20
-2.9834999999999998
11
5.8187992125984254
21
-2.8374999999999999
0
LINE
8
BLACK
6
CONTINUOUS
10
5.8187992125984254
20
-2.8374999999999999
11
5.8487992125984247
21
-2.8374999999999999
0
LINE
8
BLACK
6
CONTINUOUS
10
5.8487992125984247
20
-2.8374999999999999
11
5.8487992125984247
21
-2.9834999999999998
0
LINE
8
BLACK
6
CONTINUOUS
10
3.7454600787401575
20
-2.7976917322834645
11
3.7475356299212597
21
-2.7990785433070866
0
LINE
8
BLACK
6
CONTINUOUS
10
3.7475356299212597
20
-2.7990785433070866
11
3.7489224409448818
21
-2.8011540944881888
0
LINE
8
BLACK
6
CONTINUOUS
10
3.7489224409448818
20
-2.8011540944881888
11
3.7494094488188976
21
-2.8036023622047241
0
LINE
8
BLACK
6
CONTINUOUS
10
3.7494094488188976
20
-2.8036023622047241
11
3.7494094488188976
21
-2.8163976377952755
0
LINE
8
BLACK
6
CONTINUOUS
10
3.7494094488188976
20
-2.8163976377952755
11
3.7489224409448818
21
-2.8188459055118109
0
LINE
8
BLACK
6
CONTINUOUS
10
3.7489224409448818
20
-2.8188459055118109
11
3.7475356299212597
21
-2.8209214566929135
0
LINE
8
BLACK
6
CONTINUOUS
10
3.7475356299212597
20
-2.8209214566929135
11
3.7454600787401575
21
-2.8223082677165352
0
LINE
8
BLACK
6
CONTINUOUS
10
3.7454600787401575
20
-2.8223082677165352
11
3.7430118110236221
21
-2.822795275590551
0
LINE
8
BLACK
6
CONTINUOUS
10
3.7430118110236221
20
-2.822795275590551
11
3.6943897637795273
21
-2.822795275590551
0
LINE
8
BLACK
6
CONTINUOUS
10
3.6943897637795273
20
-2.822795275590551
11
3.6919414960629919
21
-2.8223082677165352
0
LINE
8
BLACK
6
CONTINUOUS
10
3.6919414960629919
20
-2.8223082677165352
11
3.6898659448818898
21
-2.8209214566929135
0
LINE
8
BLACK
6
CONTINUOUS
10
3.6898659448818898
20
-2.8209214566929135
11
3.6884791338582676
21
-2.8188459055118109
0
LINE
8
BLACK
6
CONTINUOUS
10
3.6884791338582676
20
-2.8188459055118109
11
3.6879921259842519
21
-2.8163976377952755
0
LINE
8
BLACK
6
CONTINUOUS
10
3.6879921259842519
20
-2.8163976377952755
11
3.6879921259842519
21
-2.8036023622047241
0
LINE
8
BLACK
6
CONTINUOUS
10
3.6879921259842519
20
-2.8036023622047241
11
3.6884791338582676
21
-2.8011540944881888
0
LINE
8
BLACK
6
CONTINUOUS
10
3.6884791338582676
20
-2.8011540944881888
11
3.6898659448818898
21
-2.7990785433070866
0
LINE
8
BLACK
6
CONTINUOUS
10
3.6898659448818898
20
-2.7990785433070866
11
3.6919414960629919
21
-2.7976917322834645
0
LINE
8
BLACK
6
CONTINUOUS
10
3.6919414960629919
20
-2.7976917322834645
11
3.6943897637795273
21
-2.7972047244094487
0
LINE
8
BLACK
6
CONTINUOUS
10
3.6943897637795273
20
-2.7972047244094487
11
3.7430118110236221
21
-2.7972047244094487
0
LINE
8
BLACK
6
CONTINUOUS
10
3.7430118110236221
20
-2.7972047244094487
11
3.7454600787401575
21
-2.7976917322834645
0
LINE
8
BLACK
6
CONTINUOUS
10
3.8517592913385825
20
-2.7976917322834645
11
3.8538348425196851
21
-2.7990785433070866
0
LINE
8
BLACK
6
CONTINUOUS
10
3.8538348425196851
20
-2.7990785433070866
11
3.8552216535433068
21
-2.8011540944881888
0
LINE
8
BLACK
6
CONTINUOUS
10
3.8552216535433068
20
-2.8011540944881888
11
3.8557086614173226
21
-2.8036023622047241
0
LINE
8
BLACK
6
CONTINUOUS
10
3.8557086614173226
20
-2.8036023622047241
11
3.8557086614173226
21
-2.8163976377952755
0
LINE
8
BLACK
6
CONTINUOUS
10
3.8557086614173226
20
-2.8163976377952755
11
3.8552216535433068
21
-2.8188459055118109
0
LINE
8
BLACK
6
CONTINUOUS
10
3.8552216535433068
20
-2.8188459055118109
11
3.8538348425196851
21
-2.8209214566929135
0
LINE
8
BLACK
6
CONTINUOUS
10
3.8538348425196851
20
-2.8209214566929135
11
3.8517592913385825
21
-2.8223082677165352
0
LINE
8
BLACK
6
CONTINUOUS
10
3.8517592913385825
20
-2.8223082677165352
11
3.8493110236220471
21
-2.822795275590551
0
LINE
8
BLACK
6
CONTINUOUS
10
3.8493110236220471
20
-2.822795275590551
11
3.8006889763779528
21
-2.822795275590551
0
LINE
8
BLACK
6
CONTINUOUS
10
3.8006889763779528
20
-2.822795275590551
11
3.7982407086614174
21
-2.8223082677165352
0
LINE
8
BLACK
6
CONTINUOUS
10
3.7982407086614174
20
-2.8223082677165352
11
3.7961651574803148
21
-2.8209214566929135
0
LINE
8
BLACK
6
CONTINUOUS
10
3.7961651574803148
20
-2.8209214566929135
11
3.7947783464566927
21
-2.8188459055118109
0
LINE
8
BLACK
6
CONTINUOUS
10
3.7947783464566927
20
-2.8188459055118109
11
3.7942913385826769
21
-2.8163976377952755
0
LINE
8
BLACK
6
CONTINUOUS
10
3.7942913385826769
20
-2.8163976377952755
11
3.7942913385826769
21
-2.8036023622047241
0
LINE
8
BLACK
6
CONTINUOUS
10
3.7942913385826769
20
-2.8036023622047241
11
3.7947783464566927
21
-2.8011540944881888
0
LINE
8
BLACK
6
CONTINUOUS
10
3.7947783464566927
20
-2.8011540944881888
11
3.7961651574803148
21
-2.7990785433070866
0
LINE
8
BLACK
6
CONTINUOUS
10
3.7961651574803148
20
-2.7990785433070866
11
3.7982407086614174
21
-2.7976917322834645
0
LINE
8
BLACK
6
CONTINUOUS
10
3.7982407086614174
20
-2.7976917322834645
11
3.8006889763779528
21
-2.7972047244094487
0
LINE
8
BLACK
6
CONTINUOUS
10
3.8006889763779528
20
-2.7972047244094487
11
3.8493110236220471
21
-2.7972047244094487
0
LINE
8
BLACK
6
CONTINUOUS
10
3.8493110236220471
20
-2.7972047244094487
11
3.8517592913385825
21
-2.7976917322834645
0
LINE
8
BLACK
6
CONTINUOUS
10
4.5291497244094483
20
-2.7624967716535433
11
4.5310655905511812
21
-2.7637769291338583
0
LINE
8
BLACK
6
CONTINUOUS
10
4.5310655905511812
20
-2.7637769291338583
11
4.5323457480314957
21
-2.7656927952755903
0
LINE
8
BLACK
6
CONTINUOUS
10
4.5323457480314957
20
-2.7656927952755903
11
4.5327952755905514
21
-2.7679527559055117
0
LINE
8
BLACK
6
CONTINUOUS
10
4.5327952755905514
20
-2.7679527559055117
11
4.5327952755905514
21
-2.7915748031496062
0
LINE
8
BLACK
6
CONTINUOUS
10
4.5327952755905514
20
-2.7915748031496062
11
4.5323457480314957
21
-2.7938347637795276
0
LINE
8
BLACK
6
CONTINUOUS
10
4.5323457480314957
20
-2.7938347637795276
11
4.5310655905511812
21
-2.79575062992126
0
LINE
8
BLACK
6
CONTINUOUS
10
4.5310655905511812
20
-2.79575062992126
11
4.5291497244094483
21
-2.797030787401575
0
LINE
8
BLACK
6
CONTINUOUS
10
4.5291497244094483
20
-2.797030787401575
11
4.5268897637795273
21
-2.7974803149606298
0
LINE
8
BLACK
6
CONTINUOUS
10
4.5268897637795273
20
-2.7974803149606298
11
4.5150787401574801
21
-2.7974803149606298
0
LINE
8
BLACK
6
CONTINUOUS
10
4.5150787401574801
20
-2.7974803149606298
11
4.5128187795275592
21
-2.797030787401575
0
LINE
8
BLACK
6
CONTINUOUS
10
4.5128187795275592
20
-2.797030787401575
11
4.5109029133858263
21
-2.79575062992126
0
LINE
8
BLACK
6
CONTINUOUS
10
4.5109029133858263
20
-2.79575062992126
11
4.5096227559055118
21
-2.7938347637795276
0
LINE
8
BLACK
6
CONTINUOUS
10
4.5096227559055118
20
-2.7938347637795276
11
4.509173228346457
21
-2.7915748031496062
0
LINE
8
BLACK
6
CONTINUOUS
10
4.509173228346457
20
-2.7915748031496062
11
4.509173228346457
21
-2.7679527559055117
0
LINE
8
BLACK
6
CONTINUOUS
10
4.509173228346457
20
-2.7679527559055117
11
4.5096227559055118
21
-2.7656927952755903
0
LINE
8
BLACK
6
CONTINUOUS
10
4.5096227559055118
20
-2.7656927952755903
11
4.5109029133858263
21
-2.7637769291338583
0
LINE
8
BLACK
6
CONTINUOUS
10
4.5109029133858263
20
-2.7637769291338583
11
4.5128187795275592
21
-2.7624967716535433
0
LINE
8
BLACK
6
CONTINUOUS
10
4.5128187795275592
20
-2.7624967716535433
11
4.5150787401574801
21
-2.7620472440944881
0
LINE
8
BLACK
6
CONTINUOUS
10
4.5150787401574801
20
-2.7620472440944881
11
4.5268897637795273
21
-2.7620472440944881
0
LINE
8
BLACK
6
CONTINUOUS
10
4.5268897637795273
20
-2.7620472440944881
11
4.5291497244094483
21
-2.7624967716535433
0
LINE
8
BLACK
6
CONTINUOUS
10
4.5795434251968503
20
-2.7624967716535433
11
4.5814592913385823
21
-2.7637769291338583
0
LINE
8
BLACK
6
CONTINUOUS
10
4.5814592913385823
20
-2.7637769291338583
11
4.5827394488188977
21
-2.7656927952755903
0
LINE
8
BLACK
6
CONTINUOUS
10
4.5827394488188977
20
-2.7656927952755903
11
4.5831889763779525
21
-2.7679527559055117
0
LINE
8
BLACK
6
CONTINUOUS
10
4.5831889763779525
20
-2.7679527559055117
11
4.5831889763779525
21
-2.7915748031496062
0
LINE
8
BLACK
6
CONTINUOUS
10
4.5831889763779525
20
-2.7915748031496062
11
4.5827394488188977
21
-2.7938347637795276
0
LINE
8
BLACK
6
CONTINUOUS
10
4.5827394488188977
20
-2.7938347637795276
11
4.5814592913385823
21
-2.79575062992126
0
LINE
8
BLACK
6
CONTINUOUS
10
4.5814592913385823
20
-2.79575062992126
11
4.5795434251968503
21
-2.797030787401575
0
LINE
8
BLACK
6
CONTINUOUS
10
4.5795434251968503
20
-2.797030787401575
11
4.5772834645669294
21
-2.7974803149606298
0
LINE
8
BLACK
6
CONTINUOUS
10
4.5772834645669294
20
-2.7974803149606298
11
4.5654724409448821
21
-2.7974803149606298
0
LINE
8
BLACK
6
CONTINUOUS
10
4.5654724409448821
20
-2.7974803149606298
11
4.5632124803149603
21
-2.797030787401575
0
LINE
8
BLACK
6
CONTINUOUS
10
4.5632124803149603
20
-2.797030787401575
11
4.5612966141732283
21
-2.79575062992126
0
LINE
8
BLACK
6
CONTINUOUS
10
4.5612966141732283
20
-2.79575062992126
11
4.5600164566929129
21
-2.7938347637795276
0
LINE
8
BLACK
6
CONTINUOUS
10
4.5600164566929129
20
-2.7938347637795276
11
4.5595669291338581
21
-2.7915748031496062
0
LINE
8
BLACK
6
CONTINUOUS
10
4.5595669291338581
20
-2.7915748031496062
11
4.5595669291338581
21
-2.7679527559055117
0
LINE
8
BLACK
6
CONTINUOUS
10
4.5595669291338581
20
-2.7679527559055117
11
4.5600164566929129
21
-2.7656927952755903
0
LINE
8
BLACK
6
CONTINUOUS
10
4.5600164566929129
20
-2.7656927952755903
11
4.5612966141732283
21
-2.7637769291338583
0
LINE
8
BLACK
6
CONTINUOUS
10
4.5612966141732283
20
-2.7637769291338583
11
4.5632124803149603
21
-2.7624967716535433
0
LINE
8
BLACK
6
CONTINUOUS
10
4.5632124803149603
20
-2.7624967716535433
11
4.5654724409448821
21
-2.7620472440944881
0
LINE
8
BLACK
6
CONTINUOUS
10
4.5654724409448821
20
-2.7620472440944881
11
4.5772834645669294
21
-2.7620472440944881
0
LINE
8
BLACK
6
CONTINUOUS
10
4.5772834645669294
20
-2.7620472440944881
11
4.5795434251968503
21
-2.7624967716535433
0
LINE
8
BLACK
6
CONTINUOUS
10
4.6267875196850392
20
-2.7624967716535433
11
4.6287033858267712
21
-2.7637769291338583
0
LINE
8
BLACK
6
CONTINUOUS
10
4.6287033858267712
20
-2.7637769291338583
11
4.6299835433070866
21
-2.7656927952755903
0
LINE
8
BLACK
6
CONTINUOUS
10
4.6299835433070866
20
-2.7656927952755903
11
4.6304330708661414
21
-2.7679527559055117
0
LINE
8
BLACK
6
CONTINUOUS
10
4.6304330708661414
20
-2.7679527559055117
11
4.6304330708661414
21
-2.7915748031496062
0
LINE
8
BLACK
6
CONTINUOUS
10
4.6304330708661414
20
-2.7915748031496062
11
4.6299835433070866
21
-2.7938347637795276
0
LINE
8
BLACK
6
CONTINUOUS
10
4.6299835433070866
20
-2.7938347637795276
11
4.6287033858267712
21
-2.79575062992126
0
LINE
8
BLACK
6
CONTINUOUS
10
4.6287033858267712
20
-2.79575062992126
11
4.6267875196850392
21
-2.797030787401575
0
LINE
8
BLACK
6
CONTINUOUS
10
4.6267875196850392
20
-2.797030787401575
11
4.6245275590551183
21
-2.7974803149606298
0
LINE
8
BLACK
6
CONTINUOUS
10
4.6245275590551183
20
-2.7974803149606298
11
4.612716535433071
21
-2.7974803149606298
0
LINE
8
BLACK
6
CONTINUOUS
10
4.612716535433071
20
-2.7974803149606298
11
4.6104565748031492
21
-2.797030787401575
0
LINE
8
BLACK
6
CONTINUOUS
10
4.6104565748031492
20
-2.797030787401575
11
4.6085407086614172
21
-2.79575062992126
0
LINE
8
BLACK
6
CONTINUOUS
10
4.6085407086614172
20
-2.79575062992126
11
4.6072605511811027
21
-2.7938347637795276
0
LINE
8
BLACK
6
CONTINUOUS
10
4.6072605511811027
20
-2.7938347637795276
11
4.606811023622047
21
-2.7915748031496062
0
LINE
8
BLACK
6
CONTINUOUS
10
4.606811023622047
20
-2.7915748031496062
11
4.606811023622047
21
-2.7679527559055117
0
LINE
8
BLACK
6
CONTINUOUS
10
4.606811023622047
20
-2.7679527559055117
11
4.6072605511811027
21
-2.7656927952755903
0
LINE
8
BLACK
6
CONTINUOUS
10
4.6072605511811027
20
-2.7656927952755903
11
4.6085407086614172
21
-2.7637769291338583
0
LINE
8
BLACK
6
CONTINUOUS
10
4.6085407086614172
20
-2.7637769291338583
11
4.6104565748031492
21
-2.7624967716535433
0
LINE
8
BLACK
6
CONTINUOUS
10
4.6104565748031492
20
-2.7624967716535433
11
4.612716535433071
21
-2.7620472440944881
0
LINE
8
BLACK
6
CONTINUOUS
10
4.612716535433071
20
-2.7620472440944881
11
4.6245275590551183
21
-2.7620472440944881
0
LINE
8
BLACK
6
CONTINUOUS
10
4.6245275590551183
20
-2.7620472440944881
11
4.6267875196850392
21
-2.7624967716535433
0
LINE
8
BLACK
6
CONTINUOUS
10
4.6771812204724412
20
-2.7624967716535433
11
4.6790970866141732
21
-2.7637769291338583
0
LINE
8
BLACK
6
CONTINUOUS
10
4.6790970866141732
20
-2.7637769291338583
11
4.6803772440944877
21
-2.7656927952755903
0
LINE
8
BLACK
6
CONTINUOUS
10
4.6803772440944877
20
-2.7656927952755903
11
4.6808267716535434
21
-2.7679527559055117
0
LINE
8
BLACK
6
CONTINUOUS
10
4.6808267716535434
20
-2.7679527559055117
11
4.6808267716535434
21
-2.7915748031496062
0
LINE
8
BLACK
6
CONTINUOUS
10
4.6808267716535434
20
-2.7915748031496062
11
4.6803772440944877
21
-2.7938347637795276
0
LINE
8
BLACK
6
CONTINUOUS
10
4.6803772440944877
20
-2.7938347637795276
11
4.6790970866141732
21
-2.79575062992126
0
LINE
8
BLACK
6
CONTINUOUS
10
4.6790970866141732
20
-2.79575062992126
11
4.6771812204724412
21
-2.797030787401575
0
LINE
8
BLACK
6
CONTINUOUS
10
4.6771812204724412
20
-2.797030787401575
11
4.6749212598425194
21
-2.7974803149606298
0
LINE
8
BLACK
6
CONTINUOUS
10
4.6749212598425194
20
-2.7974803149606298
11
4.6631102362204722
21
-2.7974803149606298
0
LINE
8
BLACK
6
CONTINUOUS
10
4.6631102362204722
20
-2.7974803149606298
11
4.6608502755905512
21
-2.797030787401575
0
LINE
8
BLACK
6
CONTINUOUS
10
4.6608502755905512
20
-2.797030787401575
11
4.6589344094488192
21
-2.79575062992126
0
LINE
8
BLACK
6
CONTINUOUS
10
4.6589344094488192
20
-2.79575062992126
11
4.6576542519685038
21
-2.7938347637795276
0
LINE
8
BLACK
6
CONTINUOUS
10
4.6576542519685038
20
-2.7938347637795276
11
4.657204724409449
21
-2.7915748031496062
0
LINE
8
BLACK
6
CONTINUOUS
10
4.657204724409449
20
-2.7915748031496062
11
4.657204724409449
21
-2.7679527559055117
0
LINE
8
BLACK
6
CONTINUOUS
10
4.657204724409449
20
-2.7679527559055117
11
4.6576542519685038
21
-2.7656927952755903
0
LINE
8
BLACK
6
CONTINUOUS
10
4.6576542519685038
20
-2.7656927952755903
11
4.6589344094488192
21
-2.7637769291338583
0
LINE
8
BLACK
6
CONTINUOUS
10
4.6589344094488192
20
-2.7637769291338583
11
4.6608502755905512
21
-2.7624967716535433
0
LINE
8
BLACK
6
CONTINUOUS
10
4.6608502755905512
20
-2.7624967716535433
11
4.6631102362204722
21
-2.7620472440944881
0
LINE
8
BLACK
6
CONTINUOUS
10
4.6631102362204722
20
-2.7620472440944881
11
4.6749212598425194
21
-2.7620472440944881
0
LINE
8
BLACK
6
CONTINUOUS
10
4.6749212598425194
20
-2.7620472440944881
11
4.6771812204724412
21
-2.7624967716535433
0
LINE
8
BLACK
6
CONTINUOUS
10
3.9738741338582675
20
-2.7564337795275589
11
3.9757899999999999
21
-2.7577139370078738
0
LINE
8
BLACK
6
CONTINUOUS
10
3.9757899999999999
20
-2.7577139370078738
11
3.9770701574803149
21
-2.7596298031496063
0
LINE
8
BLACK
6
CONTINUOUS
10
3.9770701574803149
20
-2.7596298031496063
11
3.9775196850393701
21
-2.7618897637795277
0
LINE
8
BLACK
6
CONTINUOUS
10
3.9775196850393701
20
-2.7618897637795277
11
3.9775196850393701
21
-2.7855118110236221
0
LINE
8
BLACK
6
CONTINUOUS
10
3.9775196850393701
20
-2.7855118110236221
11
3.9770701574803149
21
-2.7877717716535431
0
LINE
8
BLACK
6
CONTINUOUS
10
3.9770701574803149
20
-2.7877717716535431
11
3.9757899999999999
21
-2.7896876377952755
0
LINE
8
BLACK
6
CONTINUOUS
10
3.9757899999999999
20
-2.7896876377952755
11
3.9738741338582675
21
-2.7909677952755905
0
LINE
8
BLACK
6
CONTINUOUS
10
3.9738741338582675
20
-2.7909677952755905
11
3.9716141732283465
21
-2.7914173228346457
0
LINE
8
BLACK
6
CONTINUOUS
10
3.9716141732283465
20
-2.7914173228346457
11
3.9598031496062993
21
-2.7914173228346457
0
LINE
8
BLACK
6
CONTINUOUS
10
3.9598031496062993
20
-2.7914173228346457
11
3.9575431889763779
21
-2.7909677952755905
0
LINE
8
BLACK
6
CONTINUOUS
10
3.9575431889763779
20
-2.7909677952755905
11
3.9556273228346455
21
-2.7896876377952755
0
LINE
8
BLACK
6
CONTINUOUS
10
3.9556273228346455
20
-2.7896876377952755
11
3.9543471653543305
21
-2.7877717716535431
0
LINE
8
BLACK
6
CONTINUOUS
10
3.9543471653543305
20
-2.7877717716535431
11
3.9538976377952757
21
-2.7855118110236221
0
LINE
8
BLACK
6
CONTINUOUS
10
3.9538976377952757
20
-2.7855118110236221
11
3.9538976377952757
21
-2.7618897637795277
0
LINE
8
BLACK
6
CONTINUOUS
10
3.9538976377952757
20
-2.7618897637795277
11
3.9543471653543305
21
-2.7596298031496063
0
LINE
8
BLACK
6
CONTINUOUS
10
3.9543471653543305
20
-2.7596298031496063
11
3.9556273228346455
21
-2.7577139370078738
0
LINE
8
BLACK
6
CONTINUOUS
10
3.9556273228346455
20
-2.7577139370078738
11
3.9575431889763779
21
-2.7564337795275589
0
LINE
8
BLACK
6
CONTINUOUS
10
3.9575431889763779
20
-2.7564337795275589
11
3.9598031496062993
21
-2.7559842519685041
0
LINE
8
BLACK
6
CONTINUOUS
10
3.9598031496062993
20
-2.7559842519685041
11
3.9716141732283465
21
-2.7559842519685041
0
LINE
8
BLACK
6
CONTINUOUS
10
3.9716141732283465
20
-2.7559842519685041
11
3.9738741338582675
21
-2.7564337795275589
0
LINE
8
BLACK
6
CONTINUOUS
10
4.0242678346456691
20
-2.7564337795275589
11
4.0261837007874011
21
-2.7577139370078738
0
LINE
8
BLACK
6
CONTINUOUS
10
4.0261837007874011
20
-2.7577139370078738
11
4.0274638582677165
21
-2.7596298031496063
0
LINE
8
BLACK
6
CONTINUOUS
10
4.0274638582677165
20
-2.7596298031496063
11
4.0279133858267713
21
-2.7618897637795277
0
LINE
8
BLACK
6
CONTINUOUS
10
4.0279133858267713
20
-2.7618897637795277
11
4.0279133858267713
21
-2.7855118110236221
0
LINE
8
BLACK
6
CONTINUOUS
10
4.0279133858267713
20
-2.7855118110236221
11
4.0274638582677165
21
-2.7877717716535431
0
LINE
8
BLACK
6
CONTINUOUS
10
4.0274638582677165
20
-2.7877717716535431
11
4.0261837007874011
21
-2.7896876377952755
0
LINE
8
BLACK
6
CONTINUOUS
10
4.0261837007874011
20
-2.7896876377952755
11
4.0242678346456691
21
-2.7909677952755905
0
LINE
8
BLACK
6
CONTINUOUS
10
4.0242678346456691
20
-2.7909677952755905
11
4.0220078740157481
21
-2.7914173228346457
0
LINE
8
BLACK
6
CONTINUOUS
10
4.0220078740157481
20
-2.7914173228346457
11
4.0101968503937009
21
-2.7914173228346457
0
LINE
8
BLACK
6
CONTINUOUS
10
4.0101968503937009
20
-2.7914173228346457
11
4.007936889763779
21
-2.7909677952755905
0
LINE
8
BLACK
6
CONTINUOUS
10
4.007936889763779
20
-2.7909677952755905
11
4.006021023622047
21
-2.7896876377952755
0
LINE
8
BLACK
6
CONTINUOUS
10
4.006021023622047
20
-2.7896876377952755
11
4.0047408661417325
21
-2.7877717716535431
0
LINE
8
BLACK
6
CONTINUOUS
10
4.0047408661417325
20
-2.7877717716535431
11
4.0042913385826768
21
-2.7855118110236221
0
LINE
8
BLACK
6
CONTINUOUS
10
4.0042913385826768
20
-2.7855118110236221
11
4.0042913385826768
21
-2.7618897637795277
0
LINE
8
BLACK
6
CONTINUOUS
10
4.0042913385826768
20
-2.7618897637795277
11
4.0047408661417325
21
-2.7596298031496063
0
LINE
8
BLACK
6
CONTINUOUS
10
4.0047408661417325
20
-2.7596298031496063
11
4.006021023622047
21
-2.7577139370078738
0
LINE
8
BLACK
6
CONTINUOUS
10
4.006021023622047
20
-2.7577139370078738
11
4.007936889763779
21
-2.7564337795275589
0
LINE
8
BLACK
6
CONTINUOUS
10
4.007936889763779
20
-2.7564337795275589
11
4.0101968503937009
21
-2.7559842519685041
0
LINE
8
BLACK
6
CONTINUOUS
10
4.0101968503937009
20
-2.7559842519685041
11
4.0220078740157481
21
-2.7559842519685041
0
LINE
8
BLACK
6
CONTINUOUS
10
4.0220078740157481
20
-2.7559842519685041
11
4.0242678346456691
21
-2.7564337795275589
0
LINE
8
BLACK
6
CONTINUOUS
10
4.071511929133858
20
-2.7564337795275589
11
4.0734277952755908
21
-2.7577139370078738
0
LINE
8
BLACK
6
CONTINUOUS
10
4.0734277952755908
20
-2.7577139370078738
11
4.0747079527559054
21
-2.7596298031496063
0
LINE
8
BLACK
6
CONTINUOUS
10
4.0747079527559054
20
-2.7596298031496063
11
4.0751574803149602
21
-2.7618897637795277
0
LINE
8
BLACK
6
CONTINUOUS
10
4.0751574803149602
20
-2.7618897637795277
11
4.0751574803149602
21
-2.7855118110236221
0
LINE
8
BLACK
6
CONTINUOUS
10
4.0751574803149602
20
-2.7855118110236221
11
4.0747079527559054
21
-2.7877717716535431
0
LINE
8
BLACK
6
CONTINUOUS
10
4.0747079527559054
20
-2.7877717716535431
11
4.0734277952755908
21
-2.7896876377952755
0
LINE
8
BLACK
6
CONTINUOUS
10
4.0734277952755908
20
-2.7896876377952755
11
4.071511929133858
21
-2.7909677952755905
0
LINE
8
BLACK
6
CONTINUOUS
10
4.071511929133858
20
-2.7909677952755905
11
4.069251968503937
21
-2.7914173228346457
0
LINE
8
BLACK
6
CONTINUOUS
10
4.069251968503937
20
-2.7914173228346457
11
4.0574409448818898
21
-2.7914173228346457
0
LINE
8
BLACK
6
CONTINUOUS
10
4.0574409448818898
20
-2.7914173228346457
11
4.0551809842519688
21
-2.7909677952755905
0
LINE
8
BLACK
6
CONTINUOUS
10
4.0551809842519688
20
-2.7909677952755905
11
4.0532651181102359
21
-2.7896876377952755
0
LINE
8
BLACK
6
CONTINUOUS
10
4.0532651181102359
20
-2.7896876377952755
11
4.0519849606299214
21
-2.7877717716535431
0
LINE
8
BLACK
6
CONTINUOUS
10
4.0519849606299214
20
-2.7877717716535431
11
4.0515354330708657
21
-2.7855118110236221
0
LINE
8
BLACK
6
CONTINUOUS
10
4.0515354330708657
20
-2.7855118110236221
11
4.0515354330708657
21
-2.7618897637795277
0
LINE
8
BLACK
6
CONTINUOUS
10
4.0515354330708657
20
-2.7618897637795277
11
4.0519849606299214
21
-2.7596298031496063
0
LINE
8
BLACK
6
CONTINUOUS
10
4.0519849606299214
20
-2.7596298031496063
11
4.0532651181102359
21
-2.7577139370078738
0
LINE
8
BLACK
6
CONTINUOUS
10
4.0532651181102359
20
-2.7577139370078738
11
4.0551809842519688
21
-2.7564337795275589
0
LINE
8
BLACK
6
CONTINUOUS
10
4.0551809842519688
20
-2.7564337795275589
11
4.0574409448818898
21
-2.7559842519685041
0
LINE
8
BLACK
6
CONTINUOUS
10
4.0574409448818898
20
-2.7559842519685041
11
4.069251968503937
21
-2.7559842519685041
0
LINE
8
BLACK
6
CONTINUOUS
10
4.069251968503937
20
-2.7559842519685041
11
4.071511929133858
21
-2.7564337795275589
0
LINE
8
BLACK
6
CONTINUOUS
10
4.12190562992126
20
-2.7564337795275589
11
4.123821496062992
21
-2.7577139370078738
0
LINE
8
BLACK
6
CONTINUOUS
10
4.123821496062992
20
-2.7577139370078738
11
4.1251016535433074
21
-2.7596298031496063
0
LINE
8
BLACK
6
CONTINUOUS
10
4.1251016535433074
20
-2.7596298031496063
11
4.1255511811023622
21
-2.7618897637795277
0
LINE
8
BLACK
6
CONTINUOUS
10
4.1255511811023622
20
-2.7618897637795277
11
4.1255511811023622
21
-2.7855118110236221
0
LINE
8
BLACK
6
CONTINUOUS
10
4.1255511811023622
20
-2.7855118110236221
11
4.1251016535433074
21
-2.7877717716535431
0
LINE
8
BLACK
6
CONTINUOUS
10
4.1251016535433074
20
-2.7877717716535431
11
4.123821496062992
21
-2.7896876377952755
0
LINE
8
BLACK
6
CONTINUOUS
10
4.123821496062992
20
-2.7896876377952755
11
4.12190562992126
21
-2.7909677952755905
0
LINE
8
BLACK
6
CONTINUOUS
10
4.12190562992126
20
-2.7909677952755905
11
4.1196456692913381
21
-2.7914173228346457
0
LINE
8
BLACK
6
CONTINUOUS
10
4.1196456692913381
20
-2.7914173228346457
11
4.1078346456692909
21
-2.7914173228346457
0
LINE
8
BLACK
6
CONTINUOUS
10
4.1078346456692909
20
-2.7914173228346457
11
4.10557468503937
21
-2.7909677952755905
0
LINE
8
BLACK
6
CONTINUOUS
10
4.10557468503937
20
-2.7909677952755905
11
4.1036588188976379
21
-2.7896876377952755
0
LINE
8
BLACK
6
CONTINUOUS
10
4.1036588188976379
20
-2.7896876377952755
11
4.1023786614173225
21
-2.7877717716535431
0
LINE
8
BLACK
6
CONTINUOUS
10
4.1023786614173225
20
-2.7877717716535431
11
4.1019291338582677
21
-2.7855118110236221
0
LINE
8
BLACK
6
CONTINUOUS
10
4.1019291338582677
20
-2.7855118110236221
11
4.1019291338582677
21
-2.7618897637795277
0
LINE
8
BLACK
6
CONTINUOUS
10
4.1019291338582677
20
-2.7618897637795277
11
4.1023786614173225
21
-2.7596298031496063
0
LINE
8
BLACK
6
CONTINUOUS
10
4.1023786614173225
20
-2.7596298031496063
11
4.1036588188976379
21
-2.7577139370078738
0
LINE
8
BLACK
6
CONTINUOUS
10
4.1036588188976379
20
-2.7577139370078738
11
4.10557468503937
21
-2.7564337795275589
0
LINE
8
BLACK
6
CONTINUOUS
10
4.10557468503937
20
-2.7564337795275589
11
4.1078346456692909
21
-2.7559842519685041
0
LINE
8
BLACK
6
CONTINUOUS
10
4.1078346456692909
20
-2.7559842519685041
11
4.1196456692913381
21
-2.7559842519685041
0
LINE
8
BLACK
6
CONTINUOUS
10
4.1196456692913381
20
-2.7559842519685041
11
4.12190562992126
21
-2.7564337795275589
0
LINE
8
BLACK
6
CONTINUOUS
10
3.7454600787401575
20
-2.7602901574803149
11
3.7475356299212597
21
-2.7616769685039371
0
LINE
8
BLACK
6
CONTINUOUS
10
3.7475356299212597
20
-2.7616769685039371
11
3.7489224409448818
21
-2.7637525196850392
0
LINE
8
BLACK
6
CONTINUOUS
10
3.7489224409448818
20
-2.7637525196850392
11
3.7494094488188976
21
-2.7662007874015746
0
LINE
8
BLACK
6
CONTINUOUS
10
3.7494094488188976
20
-2.7662007874015746
11
3.7494094488188976
21
-2.778996062992126
0
LINE
8
BLACK
6
CONTINUOUS
10
3.7494094488188976
20
-2.778996062992126
11
3.7489224409448818
21
-2.7814443307086614
0
LINE
8
BLACK
6
CONTINUOUS
10
3.7489224409448818
20
-2.7814443307086614
11
3.7475356299212597
21
-2.7835198818897635
0
LINE
8
BLACK
6
CONTINUOUS
10
3.7475356299212597
20
-2.7835198818897635
11
3.7454600787401575
21
-2.7849066929133857
0
LINE
8
BLACK
6
CONTINUOUS
10
3.7454600787401575
20
-2.7849066929133857
11
3.7430118110236221
21
-2.7853937007874014
0
LINE
8
BLACK
6
CONTINUOUS
10
3.7430118110236221
20
-2.7853937007874014
11
3.6943897637795273
21
-2.7853937007874014
0
LINE
8
BLACK
6
CONTINUOUS
10
3.6943897637795273
20
-2.7853937007874014
11
3.6919414960629919
21
-2.7849066929133857
0
LINE
8
BLACK
6
CONTINUOUS
10
3.6919414960629919
20
-2.7849066929133857
11
3.6898659448818898
21
-2.7835198818897635
0
LINE
8
BLACK
6
CONTINUOUS
10
3.6898659448818898
20
-2.7835198818897635
11
3.6884791338582676
21
-2.7814443307086614
0
LINE
8
BLACK
6
CONTINUOUS
10
3.6884791338582676
20
-2.7814443307086614
11
3.6879921259842519
21
-2.778996062992126
0
LINE
8
BLACK
6
CONTINUOUS
10
3.6879921259842519
20
-2.778996062992126
11
3.6879921259842519
21
-2.7662007874015746
0
LINE
8
BLACK
6
CONTINUOUS
10
3.6879921259842519
20
-2.7662007874015746
11
3.6884791338582676
21
-2.7637525196850392
0
LINE
8
BLACK
6
CONTINUOUS
10
3.6884791338582676
20
-2.7637525196850392
11
3.6898659448818898
21
-2.7616769685039371
0
LINE
8
BLACK
6
CONTINUOUS
10
3.6898659448818898
20
-2.7616769685039371
11
3.6919414960629919
21
-2.7602901574803149
0
LINE
8
BLACK
6
CONTINUOUS
10
3.6919414960629919
20
-2.7602901574803149
11
3.6943897637795273
21
-2.7598031496062991
0
LINE
8
BLACK
6
CONTINUOUS
10
3.6943897637795273
20
-2.7598031496062991
11
3.7430118110236221
21
-2.7598031496062991
0
LINE
8
BLACK
6
CONTINUOUS
10
3.7430118110236221
20
-2.7598031496062991
11
3.7454600787401575
21
-2.7602901574803149
0
LINE
8
BLACK
6
CONTINUOUS
10
3.8517592913385825
20
-2.7602901574803149
11
3.8538348425196851
21
-2.7616769685039371
0
LINE
8
BLACK
6
CONTINUOUS
10
3.8538348425196851
20
-2.7616769685039371
11
3.8552216535433068
21
-2.7637525196850392
0
LINE
8
BLACK
6
CONTINUOUS
10
3.8552216535433068
20
-2.7637525196850392
11
3.8557086614173226
21
-2.7662007874015746
0
LINE
8
BLACK
6
CONTINUOUS
10
3.8557086614173226
20
-2.7662007874015746
11
3.8557086614173226
21
-2.778996062992126
0
LINE
8
BLACK
6
CONTINUOUS
10
3.8557086614173226
20
-2.778996062992126
11
3.8552216535433068
21
-2.7814443307086614
0
LINE
8
BLACK
6
CONTINUOUS
10
3.8552216535433068
20
-2.7814443307086614
11
3.8538348425196851
21
-2.7835198818897635
0
LINE
8
BLACK
6
CONTINUOUS
10
3.8538348425196851
20
-2.7835198818897635
11
3.8517592913385825
21
-2.7849066929133857
0
LINE
8
BLACK
6
CONTINUOUS
10
3.8517592913385825
20
-2.7849066929133857
11
3.8493110236220471
21
-2.7853937007874014
0
LINE
8
BLACK
6
CONTINUOUS
10
3.8493110236220471
20
-2.7853937007874014
11
3.8006889763779528
21
-2.7853937007874014
0
LINE
8
BLACK
6
CONTINUOUS
10
3.8006889763779528
20
-2.7853937007874014
11
3.7982407086614174
21
-2.7849066929133857
0
LINE
8
BLACK
6
CONTINUOUS
10
3.7982407086614174
20
-2.7849066929133857
11
3.7961651574803148
21
-2.7835198818897635
0
LINE
8
BLACK
6
CONTINUOUS
10
3.7961651574803148
20
-2.7835198818897635
11
3.7947783464566927
21
-2.7814443307086614
0
LINE
8
BLACK
6
CONTINUOUS
10
3.7947783464566927
20
-2.7814443307086614
11
3.7942913385826769
21
-2.778996062992126
0
LINE
8
BLACK
6
CONTINUOUS
10
3.7942913385826769
20
-2.778996062992126
11
3.7942913385826769
21
-2.7662007874015746
0
LINE
8
BLACK
6
CONTINUOUS
10
3.7942913385826769
20
-2.7662007874015746
11
3.7947783464566927
21
-2.7637525196850392
0
LINE
8
BLACK
6
CONTINUOUS
10
3.7947783464566927
20
-2.7637525196850392
11
3.7961651574803148
21
-2.7616769685039371
0
LINE
8
BLACK
6
CONTINUOUS
10
3.7961651574803148
20
-2.7616769685039371
11
3.7982407086614174
21
-2.7602901574803149
0
LINE
8
BLACK
6
CONTINUOUS
10
3.7982407086614174
20
-2.7602901574803149
11
3.8006889763779528
21
-2.7598031496062991
0
LINE
8
BLACK
6
CONTINUOUS
10
3.8006889763779528
20
-2.7598031496062991
11
3.8493110236220471
21
-2.7598031496062991
0
LINE
8
BLACK
6
CONTINUOUS
10
3.8493110236220471
20
-2.7598031496062991
11
3.8517592913385825
21
-2.7602901574803149
0
LINE
8
BLACK
6
CONTINUOUS
10
3.7454600787401575
20
-2.7228885826771654
11
3.7475356299212597
21
-2.7242753937007875
0
LINE
8
BLACK
6
CONTINUOUS
10
3.7475356299212597
20
-2.7242753937007875
11
3.7489224409448818
21
-2.7263509448818897
0
LINE
8
BLACK
6
CONTINUOUS
10
3.7489224409448818
20
-2.7263509448818897
11
3.7494094488188976
21
-2.7287992125984251
0
LINE
8
BLACK
6
CONTINUOUS
10
3.7494094488188976
20
-2.7287992125984251
11
3.7494094488188976
21
-2.7415944881889764
0
LINE
8
BLACK
6
CONTINUOUS
10
3.7494094488188976
20
-2.7415944881889764
11
3.7489224409448818
21
-2.7440427559055118
0
LINE
8
BLACK
6
CONTINUOUS
10
3.7489224409448818
20
-2.7440427559055118
11
3.7475356299212597
21
-2.746118307086614
0
LINE
8
BLACK
6
CONTINUOUS
10
3.7475356299212597
20
-2.746118307086614
11
3.7454600787401575
21
-2.7475051181102361
0
LINE
8
BLACK
6
CONTINUOUS
10
3.7454600787401575
20
-2.7475051181102361
11
3.7430118110236221
21
-2.7479921259842519
0
LINE
8
BLACK
6
CONTINUOUS
10
3.7430118110236221
20
-2.7479921259842519
11
3.6943897637795273
21
-2.7479921259842519
0
LINE
8
BLACK
6
CONTINUOUS
10
3.6943897637795273
20
-2.7479921259842519
11
3.6919414960629919
21
-2.7475051181102361
0
LINE
8
BLACK
6
CONTINUOUS
10
3.6919414960629919
20
-2.7475051181102361
11
3.6898659448818898
21
-2.746118307086614
0
LINE
8
BLACK
6
CONTINUOUS
10
3.6898659448818898
20
-2.746118307086614
11
3.6884791338582676
21
-2.7440427559055118
0
LINE
8
BLACK
6
CONTINUOUS
10
3.6884791338582676
20
-2.7440427559055118
11
3.6879921259842519
21
-2.7415944881889764
0
LINE
8
BLACK
6
CONTINUOUS
10
3.6879921259842519
20
-2.7415944881889764
11
3.6879921259842519
21
-2.7287992125984251
0
LINE
8
BLACK
6
CONTINUOUS
10
3.6879921259842519
20
-2.7287992125984251
11
3.6884791338582676
21
-2.7263509448818897
0
LINE
8
BLACK
6
CONTINUOUS
10
3.6884791338582676
20
-2.7263509448818897
11
3.6898659448818898
21
-2.7242753937007875
0
LINE
8
BLACK
6
CONTINUOUS
10
3.6898659448818898
20
-2.7242753937007875
11
3.6919414960629919
21
-2.7228885826771654
0
LINE
8
BLACK
6
CONTINUOUS
10
3.6919414960629919
20
-2.7228885826771654
11
3.6943897637795273
21
-2.7224015748031496
0
LINE
8
BLACK
6
CONTINUOUS
10
3.6943897637795273
20
-2.7224015748031496
11
3.7430118110236221
21
-2.7224015748031496
0
LINE
8
BLACK
6
CONTINUOUS
10
3.7430118110236221
20
-2.7224015748031496
11
3.7454600787401575
21
-2.7228885826771654
0
LINE
8
BLACK
6
CONTINUOUS
10
3.8517592913385825
20
-2.7228885826771654
11
3.8538348425196851
21
-2.7242753937007875
0
LINE
8
BLACK
6
CONTINUOUS
10
3.8538348425196851
20
-2.7242753937007875
11
3.8552216535433068
21
-2.7263509448818897
0
LINE
8
BLACK
6
CONTINUOUS
10
3.8552216535433068
20
-2.7263509448818897
11
3.8557086614173226
21
-2.7287992125984251
0
LINE
8
BLACK
6
CONTINUOUS
10
3.8557086614173226
20
-2.7287992125984251
11
3.8557086614173226
21
-2.7415944881889764
0
LINE
8
BLACK
6
CONTINUOUS
10
3.8557086614173226
20
-2.7415944881889764
11
3.8552216535433068
21
-2.7440427559055118
0
LINE
8
BLACK
6
CONTINUOUS
10
3.8552216535433068
20
-2.7440427559055118
11
3.8538348425196851
21
-2.746118307086614
0
LINE
8
BLACK
6
CONTINUOUS
10
3.8538348425196851
20
-2.746118307086614
11
3.8517592913385825
21
-2.7475051181102361
0
LINE
8
BLACK
6
CONTINUOUS
10
3.8517592913385825
20
-2.7475051181102361
11
3.8493110236220471
21
-2.7479921259842519
0
LINE
8
BLACK
6
CONTINUOUS
10
3.8493110236220471
20
-2.7479921259842519
11
3.8006889763779528
21
-2.7479921259842519
0
LINE
8
BLACK
6
CONTINUOUS
10
3.8006889763779528
20
-2.7479921259842519
11
3.7982407086614174
21
-2.7475051181102361
0
LINE
8
BLACK
6
CONTINUOUS
10
3.7982407086614174
20
-2.7475051181102361
11
3.7961651574803148
21
-2.746118307086614
0
LINE
8
BLACK
6
CONTINUOUS
10
3.7961651574803148
20
-2.746118307086614
11
3.7947783464566927
21
-2.7440427559055118
0
LINE
8
BLACK
6
CONTINUOUS
10
3.7947783464566927
20
-2.7440427559055118
11
3.7942913385826769
21
-2.7415944881889764
0
LINE
8
BLACK
6
CONTINUOUS
10
3.7942913385826769
20
-2.7415944881889764
11
3.7942913385826769
21
-2.7287992125984251
0
LINE
8
BLACK
6
CONTINUOUS
10
3.7942913385826769
20
-2.7287992125984251
11
3.7947783464566927
21
-2.7263509448818897
0
LINE
8
BLACK
6
CONTINUOUS
10
3.7947783464566927
20
-2.7263509448818897
11
3.7961651574803148
21
-2.7242753937007875
0
LINE
8
BLACK
6
CONTINUOUS
10
3.7961651574803148
20
-2.7242753937007875
11
3.7982407086614174
21
-2.7228885826771654
0
LINE
8
BLACK
6
CONTINUOUS
10
3.7982407086614174
20
-2.7228885826771654
11
3.8006889763779528
21
-2.7224015748031496
0
LINE
8
BLACK
6
CONTINUOUS
10
3.8006889763779528
20
-2.7224015748031496
11
3.8493110236220471
21
-2.7224015748031496
0
LINE
8
BLACK
6
CONTINUOUS
10
3.8493110236220471
20
-2.7224015748031496
11
3.8517592913385825
21
-2.7228885826771654
0
LINE
8
BLACK
6
CONTINUOUS
10
4.5637953937007874
20
-2.6955676377952758
11
4.5657112598425194
21
-2.6968477952755907
0
LINE
8
BLACK
6
CONTINUOUS
10
4.5657112598425194
20
-2.6968477952755907
11
4.5669914173228348
21
-2.6987636614173227
0
LINE
8
BLACK
6
CONTINUOUS
10
4.5669914173228348
20
-2.6987636614173227
11
4.5674409448818896
21
-2.7010236220472441
0
LINE
8
BLACK
6
CONTINUOUS
10
4.5674409448818896
20
-2.7010236220472441
11
4.5674409448818896
21
-2.7128346456692913
0
LINE
8
BLACK
6
CONTINUOUS
10
4.5674409448818896
20
-2.7128346456692913
11
4.5669914173228348
21
-2.7150946062992127
0
LINE
8
BLACK
6
CONTINUOUS
10
4.5669914173228348
20
-2.7150946062992127
11
4.5657112598425194
21
-2.7170104724409447
0
LINE
8
BLACK
6
CONTINUOUS
10
4.5657112598425194
20
-2.7170104724409447
11
4.5637953937007874
21
-2.7182906299212597
0
LINE
8
BLACK
6
CONTINUOUS
10
4.5637953937007874
20
-2.7182906299212597
11
4.5615354330708664
21
-2.7187401574803149
0
LINE
8
BLACK
6
CONTINUOUS
10
4.5615354330708664
20
-2.7187401574803149
11
4.537913385826772
21
-2.7187401574803149
0
LINE
8
BLACK
6
CONTINUOUS
10
4.537913385826772
20
-2.7187401574803149
11
4.5356534251968501
21
-2.7182906299212597
0
LINE
8
BLACK
6
CONTINUOUS
10
4.5356534251968501
20
-2.7182906299212597
11
4.5337375590551181
21
-2.7170104724409447
0
LINE
8
BLACK
6
CONTINUOUS
10
4.5337375590551181
20
-2.7170104724409447
11
4.5324574015748027
21
-2.7150946062992127
0
LINE
8
BLACK
6
CONTINUOUS
10
4.5324574015748027
20
-2.7150946062992127
11
4.5320078740157479
21
-2.7128346456692913
0
LINE
8
BLACK
6
CONTINUOUS
10
4.5320078740157479
20
-2.7128346456692913
11
4.5320078740157479
21
-2.7010236220472441
0
LINE
8
BLACK
6
CONTINUOUS
10
4.5320078740157479
20
-2.7010236220472441
11
4.5324574015748027
21
-2.6987636614173227
0
LINE
8
BLACK
6
CONTINUOUS
10
4.5324574015748027
20
-2.6987636614173227
11
4.5337375590551181
21
-2.6968477952755907
0
LINE
8
BLACK
6
CONTINUOUS
10
4.5337375590551181
20
-2.6968477952755907
11
4.5356534251968501
21
-2.6955676377952758
0
LINE
8
BLACK
6
CONTINUOUS
10
4.5356534251968501
20
-2.6955676377952758
11
4.537913385826772
21
-2.6951181102362205
0
LINE
8
BLACK
6
CONTINUOUS
10
4.537913385826772
20
-2.6951181102362205
11
4.5615354330708664
21
-2.6951181102362205
0
LINE
8
BLACK
6
CONTINUOUS
10
4.5615354330708664
20
-2.6951181102362205
11
4.5637953937007874
21
-2.6955676377952758
0
LINE
8
BLACK
6
CONTINUOUS
10
4.6090709842519688
20
-2.6955676377952758
11
4.6109868503937008
21
-2.6968477952755907
0
LINE
8
BLACK
6
CONTINUOUS
10
4.6109868503937008
20
-2.6968477952755907
11
4.6122670078740153
21
-2.6987636614173227
0
LINE
8
BLACK
6
CONTINUOUS
10
4.6122670078740153
20
-2.6987636614173227
11
4.612716535433071
21
-2.7010236220472441
0
LINE
8
BLACK
6
CONTINUOUS
10
4.612716535433071
20
-2.7010236220472441
11
4.612716535433071
21
-2.7128346456692913
0
LINE
8
BLACK
6
CONTINUOUS
10
4.612716535433071
20
-2.7128346456692913
11
4.6122670078740153
21
-2.7150946062992127
0
LINE
8
BLACK
6
CONTINUOUS
10
4.6122670078740153
20
-2.7150946062992127
11
4.6109868503937008
21
-2.7170104724409447
0
LINE
8
BLACK
6
CONTINUOUS
10
4.6109868503937008
20
-2.7170104724409447
11
4.6090709842519688
21
-2.7182906299212597
0
LINE
8
BLACK
6
CONTINUOUS
10
4.6090709842519688
20
-2.7182906299212597
11
4.606811023622047
21
-2.7187401574803149
0
LINE
8
BLACK
6
CONTINUOUS
10
4.606811023622047
20
-2.7187401574803149
11
4.5831889763779525
21
-2.7187401574803149
0
LINE
8
BLACK
6
CONTINUOUS
10
4.5831889763779525
20
-2.7187401574803149
11
4.5809290157480316
21
-2.7182906299212597
0
LINE
8
BLACK
6
CONTINUOUS
10
4.5809290157480316
20
-2.7182906299212597
11
4.5790131496062987
21
-2.7170104724409447
0
LINE
8
BLACK
6
CONTINUOUS
10
4.5790131496062987
20
-2.7170104724409447
11
4.5777329921259842
21
-2.7150946062992127
0
LINE
8
BLACK
6
CONTINUOUS
10
4.5777329921259842
20
-2.7150946062992127
11
4.5772834645669294
21
-2.7128346456692913
0
LINE
8
BLACK
6
CONTINUOUS
10
4.5772834645669294
20
-2.7128346456692913
11
4.5772834645669294
21
-2.7010236220472441
0
LINE
8
BLACK
6
CONTINUOUS
10
4.5772834645669294
20
-2.7010236220472441
11
4.5777329921259842
21
-2.6987636614173227
0
LINE
8
BLACK
6
CONTINUOUS
10
4.5777329921259842
20
-2.6987636614173227
11
4.5790131496062987
21
-2.6968477952755907
0
LINE
8
BLACK
6
CONTINUOUS
10
4.5790131496062987
20
-2.6968477952755907
11
4.5809290157480316
21
-2.6955676377952758
0
LINE
8
BLACK
6
CONTINUOUS
10
4.5809290157480316
20
-2.6955676377952758
11
4.5831889763779525
21
-2.6951181102362205
0
LINE
8
BLACK
6
CONTINUOUS
10
4.5831889763779525
20
-2.6951181102362205
11
4.606811023622047
21
-2.6951181102362205
0
LINE
8
BLACK
6
CONTINUOUS
10
4.606811023622047
20
-2.6951181102362205
11
4.6090709842519688
21
-2.6955676377952758
0
LINE
8
BLACK
6
CONTINUOUS
10
4.6543465748031494
20
-2.6955676377952758
11
4.6562624409448814
21
-2.6968477952755907
0
LINE
8
BLACK
6
CONTINUOUS
10
4.6562624409448814
20
-2.6968477952755907
11
4.6575425984251968
21
-2.6987636614173227
0
LINE
8
BLACK
6
CONTINUOUS
10
4.6575425984251968
20
-2.6987636614173227
11
4.6579921259842516
21
-2.7010236220472441
0
LINE
8
BLACK
6
CONTINUOUS
10
4.6579921259842516
20
-2.7010236220472441
11
4.6579921259842516
21
-2.7128346456692913
0
LINE
8
BLACK
6
CONTINUOUS
10
4.6579921259842516
20
-2.7128346456692913
11
4.6575425984251968
21
-2.7150946062992127
0
LINE
8
BLACK
6
CONTINUOUS
10
4.6575425984251968
20
-2.7150946062992127
11
4.6562624409448814
21
-2.7170104724409447
0
LINE
8
BLACK
6
CONTINUOUS
10
4.6562624409448814
20
-2.7170104724409447
11
4.6543465748031494
21
-2.7182906299212597
0
LINE
8
BLACK
6
CONTINUOUS
10
4.6543465748031494
20
-2.7182906299212597
11
4.6520866141732284
21
-2.7187401574803149
0
LINE
8
BLACK
6
CONTINUOUS
10
4.6520866141732284
20
-2.7187401574803149
11
4.628464566929134
21
-2.7187401574803149
0
LINE
8
BLACK
6
CONTINUOUS
10
4.628464566929134
20
-2.7187401574803149
11
4.6262046062992122
21
-2.7182906299212597
0
LINE
8
BLACK
6
CONTINUOUS
10
4.6262046062992122
20
-2.7182906299212597
11
4.6242887401574801
21
-2.7170104724409447
0
LINE
8
BLACK
6
CONTINUOUS
10
4.6242887401574801
20
-2.7170104724409447
11
4.6230085826771656
21
-2.7150946062992127
0
LINE
8
BLACK
6
CONTINUOUS
10
4.6230085826771656
20
-2.7150946062992127
11
4.6225590551181099
21
-2.7128346456692913
0
LINE
8
BLACK
6
CONTINUOUS
10
4.6225590551181099
20
-2.7128346456692913
11
4.6225590551181099
21
-2.7010236220472441
0
LINE
8
BLACK
6
CONTINUOUS
10
4.6225590551181099
20
-2.7010236220472441
11
4.6230085826771656
21
-2.6987636614173227
0
LINE
8
BLACK
6
CONTINUOUS
10
4.6230085826771656
20
-2.6987636614173227
11
4.6242887401574801
21
-2.6968477952755907
0
LINE
8
BLACK
6
CONTINUOUS
10
4.6242887401574801
20
-2.6968477952755907
11
4.6262046062992122
21
-2.6955676377952758
0
LINE
8
BLACK
6
CONTINUOUS
10
4.6262046062992122
20
-2.6955676377952758
11
4.628464566929134
21
-2.6951181102362205
0
LINE
8
BLACK
6
CONTINUOUS
10
4.628464566929134
20
-2.6951181102362205
11
4.6520866141732284
21
-2.6951181102362205
0
LINE
8
BLACK
6
CONTINUOUS
10
4.6520866141732284
20
-2.6951181102362205
11
4.6543465748031494
21
-2.6955676377952758
0
LINE
8
BLACK
6
CONTINUOUS
10
4.0085198031496061
20
-2.6895046456692913
11
4.0104356692913381
21
-2.6907848031496062
0
LINE
8
BLACK
6
CONTINUOUS
10
4.0104356692913381
20
-2.6907848031496062
11
4.0117158267716535
21
-2.6927006692913387
0
LINE
8
BLACK
6
CONTINUOUS
10
4.0117158267716535
20
-2.6927006692913387
11
4.0121653543307083
21
-2.6949606299212596
0
LINE
8
BLACK
6
CONTINUOUS
10
4.0121653543307083
20
-2.6949606299212596
11
4.0121653543307083
21
-2.7067716535433068
0
LINE
8
BLACK
6
CONTINUOUS
10
4.0121653543307083
20
-2.7067716535433068
11
4.0117158267716535
21
-2.7090316141732282
0
LINE
8
BLACK
6
CONTINUOUS
10
4.0117158267716535
20
-2.7090316141732282
11
4.0104356692913381
21
-2.7109474803149607
0
LINE
8
BLACK
6
CONTINUOUS
10
4.0104356692913381
20
-2.7109474803149607
11
4.0085198031496061
21
-2.7122276377952756
0
LINE
8
BLACK
6
CONTINUOUS
10
4.0085198031496061
20
-2.7122276377952756
11
4.0062598425196851
21
-2.7126771653543305
0
LINE
8
BLACK
6
CONTINUOUS
10
4.0062598425196851
20
-2.7126771653543305
11
3.9826377952755903
21
-2.7126771653543305
0
LINE
8
BLACK
6
CONTINUOUS
10
3.9826377952755903
20
-2.7126771653543305
11
3.9803778346456693
21
-2.7122276377952756
0
LINE
8
BLACK
6
CONTINUOUS
10
3.9803778346456693
20
-2.7122276377952756
11
3.9784619685039369
21
-2.7109474803149607
0
LINE
8
BLACK
6
CONTINUOUS
10
3.9784619685039369
20
-2.7109474803149607
11
3.9771818110236219
21
-2.7090316141732282
0
LINE
8
BLACK
6
CONTINUOUS
10
3.9771818110236219
20
-2.7090316141732282
11
3.9767322834645666
21
-2.7067716535433068
0
LINE
8
BLACK
6
CONTINUOUS
10
3.9767322834645666
20
-2.7067716535433068
11
3.9767322834645666
21
-2.6949606299212596
0
LINE
8
BLACK
6
CONTINUOUS
10
3.9767322834645666
20
-2.6949606299212596
11
3.9771818110236219
21
-2.6927006692913387
0
LINE
8
BLACK
6
CONTINUOUS
10
3.9771818110236219
20
-2.6927006692913387
11
3.9784619685039369
21
-2.6907848031496062
0
LINE
8
BLACK
6
CONTINUOUS
10
3.9784619685039369
20
-2.6907848031496062
11
3.9803778346456693
21
-2.6895046456692913
0
LINE
8
BLACK
6
CONTINUOUS
10
3.9803778346456693
20
-2.6895046456692913
11
3.9826377952755903
21
-2.689055118110236
0
LINE
8
BLACK
6
CONTINUOUS
10
3.9826377952755903
20
-2.689055118110236
11
4.0062598425196851
21
-2.689055118110236
0
LINE
8
BLACK
6
CONTINUOUS
10
4.0062598425196851
20
-2.689055118110236
11
4.0085198031496061
21
-2.6895046456692913
0
LINE
8
BLACK
6
CONTINUOUS
10
4.0537953937007876
20
-2.6895046456692913
11
4.0557112598425196
21
-2.6907848031496062
0
LINE
8
BLACK
6
CONTINUOUS
10
4.0557112598425196
20
-2.6907848031496062
11
4.056991417322835
21
-2.6927006692913387
0
LINE
8
BLACK
6
CONTINUOUS
10
4.056991417322835
20
-2.6927006692913387
11
4.0574409448818898
21
-2.6949606299212596
0
LINE
8
BLACK
6
CONTINUOUS
10
4.0574409448818898
20
-2.6949606299212596
11
4.0574409448818898
21
-2.7067716535433068
0
LINE
8
BLACK
6
CONTINUOUS
10
4.0574409448818898
20
-2.7067716535433068
11
4.056991417322835
21
-2.7090316141732282
0
LINE
8
BLACK
6
CONTINUOUS
10
4.056991417322835
20
-2.7090316141732282
11
4.0557112598425196
21
-2.7109474803149607
0
LINE
8
BLACK
6
CONTINUOUS
10
4.0557112598425196
20
-2.7109474803149607
11
4.0537953937007876
21
-2.7122276377952756
0
LINE
8
BLACK
6
CONTINUOUS
10
4.0537953937007876
20
-2.7122276377952756
11
4.0515354330708657
21
-2.7126771653543305
0
LINE
8
BLACK
6
CONTINUOUS
10
4.0515354330708657
20
-2.7126771653543305
11
4.0279133858267713
21
-2.7126771653543305
0
LINE
8
BLACK
6
CONTINUOUS
10
4.0279133858267713
20
-2.7126771653543305
11
4.0256534251968503
21
-2.7122276377952756
0
LINE
8
BLACK
6
CONTINUOUS
10
4.0256534251968503
20
-2.7122276377952756
11
4.0237375590551183
21
-2.7109474803149607
0
LINE
8
BLACK
6
CONTINUOUS
10
4.0237375590551183
20
-2.7109474803149607
11
4.0224574015748029
21
-2.7090316141732282
0
LINE
8
BLACK
6
CONTINUOUS
10
4.0224574015748029
20
-2.7090316141732282
11
4.0220078740157481
21
-2.7067716535433068
0
LINE
8
BLACK
6
CONTINUOUS
10
4.0220078740157481
20
-2.7067716535433068
11
4.0220078740157481
21
-2.6949606299212596
0
LINE
8
BLACK
6
CONTINUOUS
10
4.0220078740157481
20
-2.6949606299212596
11
4.0224574015748029
21
-2.6927006692913387
0
LINE
8
BLACK
6
CONTINUOUS
10
4.0224574015748029
20
-2.6927006692913387
11
4.0237375590551183
21
-2.6907848031496062
0
LINE
8
BLACK
6
CONTINUOUS
10
4.0237375590551183
20
-2.6907848031496062
11
4.0256534251968503
21
-2.6895046456692913
0
LINE
8
BLACK
6
CONTINUOUS
10
4.0256534251968503
20
-2.6895046456692913
11
4.0279133858267713
21
-2.689055118110236
0
LINE
8
BLACK
6
CONTINUOUS
10
4.0279133858267713
20
-2.689055118110236
11
4.0515354330708657
21
-2.689055118110236
0
LINE
8
BLACK
6
CONTINUOUS
10
4.0515354330708657
20
-2.689055118110236
11
4.0537953937007876
21
-2.6895046456692913
0
LINE
8
BLACK
6
CONTINUOUS
10
4.0990709842519681
20
-2.6895046456692913
11
4.100986850393701
21
-2.6907848031496062
0
LINE
8
BLACK
6
CONTINUOUS
10
4.100986850393701
20
-2.6907848031496062
11
4.1022670078740155
21
-2.6927006692913387
0
LINE
8
BLACK
6
CONTINUOUS
10
4.1022670078740155
20
-2.6927006692913387
11
4.1027165354330704
21
-2.6949606299212596
0
LINE
8
BLACK
6
CONTINUOUS
10
4.1027165354330704
20
-2.6949606299212596
11
4.1027165354330704
21
-2.7067716535433068
0
LINE
8
BLACK
6
CONTINUOUS
10
4.1027165354330704
20
-2.7067716535433068
11
4.1022670078740155
21
-2.7090316141732282
0
LINE
8
BLACK
6
CONTINUOUS
10
4.1022670078740155
20
-2.7090316141732282
11
4.100986850393701
21
-2.7109474803149607
0
LINE
8
BLACK
6
CONTINUOUS
10
4.100986850393701
20
-2.7109474803149607
11
4.0990709842519681
21
-2.7122276377952756
0
LINE
8
BLACK
6
CONTINUOUS
10
4.0990709842519681
20
-2.7122276377952756
11
4.0968110236220472
21
-2.7126771653543305
0
LINE
8
BLACK
6
CONTINUOUS
10
4.0968110236220472
20
-2.7126771653543305
11
4.0731889763779527
21
-2.7126771653543305
0
LINE
8
BLACK
6
CONTINUOUS
10
4.0731889763779527
20
-2.7126771653543305
11
4.0709290157480318
21
-2.7122276377952756
0
LINE
8
BLACK
6
CONTINUOUS
10
4.0709290157480318
20
-2.7122276377952756
11
4.0690131496062989
21
-2.7109474803149607
0
LINE
8
BLACK
6
CONTINUOUS
10
4.0690131496062989
20
-2.7109474803149607
11
4.0677329921259844
21
-2.7090316141732282
0
LINE
8
BLACK
6
CONTINUOUS
10
4.0677329921259844
20
-2.7090316141732282
11
4.0672834645669287
21
-2.7067716535433068
0
LINE
8
BLACK
6
CONTINUOUS
10
4.0672834645669287
20
-2.7067716535433068
11
4.0672834645669287
21
-2.6949606299212596
0
LINE
8
BLACK
6
CONTINUOUS
10
4.0672834645669287
20
-2.6949606299212596
11
4.0677329921259844
21
-2.6927006692913387
0
LINE
8
BLACK
6
CONTINUOUS
10
4.0677329921259844
20
-2.6927006692913387
11
4.0690131496062989
21
-2.6907848031496062
0
LINE
8
BLACK
6
CONTINUOUS
10
4.0690131496062989
20
-2.6907848031496062
11
4.0709290157480318
21
-2.6895046456692913
0
LINE
8
BLACK
6
CONTINUOUS
10
4.0709290157480318
20
-2.6895046456692913
11
4.0731889763779527
21
-2.689055118110236
0
LINE
8
BLACK
6
CONTINUOUS
10
4.0731889763779527
20
-2.689055118110236
11
4.0968110236220472
21
-2.689055118110236
0
LINE
8
BLACK
6
CONTINUOUS
10
4.0968110236220472
20
-2.689055118110236
11
4.0990709842519681
21
-2.6895046456692913
0
LINE
8
BLACK
6
CONTINUOUS
10
4.5637953937007874
20
-2.6621030708661415
11
4.5657112598425194
21
-2.6633832283464565
0
LINE
8
BLACK
6
CONTINUOUS
10
4.5657112598425194
20
-2.6633832283464565
11
4.5669914173228348
21
-2.6652990944881889
0
LINE
8
BLACK
6
CONTINUOUS
10
4.5669914173228348
20
-2.6652990944881889
11
4.5674409448818896
21
-2.6675590551181103
0
LINE
8
BLACK
6
CONTINUOUS
10
4.5674409448818896
20
-2.6675590551181103
11
4.5674409448818896
21
-2.6793700787401575
0
LINE
8
BLACK
6
CONTINUOUS
10
4.5674409448818896
20
-2.6793700787401575
11
4.5669914173228348
21
-2.6816300393700785
0
LINE
8
BLACK
6
CONTINUOUS
10
4.5669914173228348
20
-2.6816300393700785
11
4.5657112598425194
21
-2.6835459055118109
0
LINE
8
BLACK
6
CONTINUOUS
10
4.5657112598425194
20
-2.6835459055118109
11
4.5637953937007874
21
-2.6848260629921259
0
LINE
8
BLACK
6
CONTINUOUS
10
4.5637953937007874
20
-2.6848260629921259
11
4.5615354330708664
21
-2.6852755905511811
0
LINE
8
BLACK
6
CONTINUOUS
10
4.5615354330708664
20
-2.6852755905511811
11
4.537913385826772
21
-2.6852755905511811
0
LINE
8
BLACK
6
CONTINUOUS
10
4.537913385826772
20
-2.6852755905511811
11
4.5356534251968501
21
-2.6848260629921259
0
LINE
8
BLACK
6
CONTINUOUS
10
4.5356534251968501
20
-2.6848260629921259
11
4.5337375590551181
21
-2.6835459055118109
0
LINE
8
BLACK
6
CONTINUOUS
10
4.5337375590551181
20
-2.6835459055118109
11
4.5324574015748027
21
-2.6816300393700785
0
LINE
8
BLACK
6
CONTINUOUS
10
4.5324574015748027
20
-2.6816300393700785
11
4.5320078740157479
21
-2.6793700787401575
0
LINE
8
BLACK
6
CONTINUOUS
10
4.5320078740157479
20
-2.6793700787401575
11
4.5320078740157479
21
-2.6675590551181103
0
LINE
8
BLACK
6
CONTINUOUS
10
4.5320078740157479
20
-2.6675590551181103
11
4.5324574015748027
21
-2.6652990944881889
0
LINE
8
BLACK
6
CONTINUOUS
10
4.5324574015748027
20
-2.6652990944881889
11
4.5337375590551181
21
-2.6633832283464565
0
LINE
8
BLACK
6
CONTINUOUS
10
4.5337375590551181
20
-2.6633832283464565
11
4.5356534251968501
21
-2.6621030708661415
0
LINE
8
BLACK
6
CONTINUOUS
10
4.5356534251968501
20
-2.6621030708661415
11
4.537913385826772
21
-2.6616535433070867
0
LINE
8
BLACK
6
CONTINUOUS
10
4.537913385826772
20
-2.6616535433070867
11
4.5615354330708664
21
-2.6616535433070867
0
LINE
8
BLACK
6
CONTINUOUS
10
4.5615354330708664
20
-2.6616535433070867
11
4.5637953937007874
21
-2.6621030708661415
0
LINE
8
BLACK
6
CONTINUOUS
10
4.6090709842519688
20
-2.6621030708661415
11
4.6109868503937008
21
-2.6633832283464565
0
LINE
8
BLACK
6
CONTINUOUS
10
4.6109868503937008
20
-2.6633832283464565
11
4.6122670078740153
21
-2.6652990944881889
0
LINE
8
BLACK
6
CONTINUOUS
10
4.6122670078740153
20
-2.6652990944881889
11
4.612716535433071
21
-2.6675590551181103
0
LINE
8
BLACK
6
CONTINUOUS
10
4.612716535433071
20
-2.6675590551181103
11
4.612716535433071
21
-2.6793700787401575
0
LINE
8
BLACK
6
CONTINUOUS
10
4.612716535433071
20
-2.6793700787401575
11
4.6122670078740153
21
-2.6816300393700785
0
LINE
8
BLACK
6
CONTINUOUS
10
4.6122670078740153
20
-2.6816300393700785
11
4.6109868503937008
21
-2.6835459055118109
0
LINE
8
BLACK
6
CONTINUOUS
10
4.6109868503937008
20
-2.6835459055118109
11
4.6090709842519688
21
-2.6848260629921259
0
LINE
8
BLACK
6
CONTINUOUS
10
4.6090709842519688
20
-2.6848260629921259
11
4.606811023622047
21
-2.6852755905511811
0
LINE
8
BLACK
6
CONTINUOUS
10
4.606811023622047
20
-2.6852755905511811
11
4.5831889763779525
21
-2.6852755905511811
0
LINE
8
BLACK
6
CONTINUOUS
10
4.5831889763779525
20
-2.6852755905511811
11
4.5809290157480316
21
-2.6848260629921259
0
LINE
8
BLACK
6
CONTINUOUS
10
4.5809290157480316
20
-2.6848260629921259
11
4.5790131496062987
21
-2.6835459055118109
0
LINE
8
BLACK
6
CONTINUOUS
10
4.5790131496062987
20
-2.6835459055118109
11
4.5777329921259842
21
-2.6816300393700785
0
LINE
8
BLACK
6
CONTINUOUS
10
4.5777329921259842
20
-2.6816300393700785
11
4.5772834645669294
21
-2.6793700787401575
0
LINE
8
BLACK
6
CONTINUOUS
10
4.5772834645669294
20
-2.6793700787401575
11
4.5772834645669294
21
-2.6675590551181103
0
LINE
8
BLACK
6
CONTINUOUS
10
4.5772834645669294
20
-2.6675590551181103
11
4.5777329921259842
21
-2.6652990944881889
0
LINE
8
BLACK
6
CONTINUOUS
10
4.5777329921259842
20
-2.6652990944881889
11
4.5790131496062987
21
-2.6633832283464565
0
LINE
8
BLACK
6
CONTINUOUS
10
4.5790131496062987
20
-2.6633832283464565
11
4.5809290157480316
21
-2.6621030708661415
0
LINE
8
BLACK
6
CONTINUOUS
10
4.5809290157480316
20
-2.6621030708661415
11
4.5831889763779525
21
-2.6616535433070867
0
LINE
8
BLACK
6
CONTINUOUS
10
4.5831889763779525
20
-2.6616535433070867
11
4.606811023622047
21
-2.6616535433070867
0
LINE
8
BLACK
6
CONTINUOUS
10
4.606811023622047
20
-2.6616535433070867
11
4.6090709842519688
21
-2.6621030708661415
0
LINE
8
BLACK
6
CONTINUOUS
10
4.6543465748031494
20
-2.6621030708661415
11
4.6562624409448814
21
-2.6633832283464565
0
LINE
8
BLACK
6
CONTINUOUS
10
4.6562624409448814
20
-2.6633832283464565
11
4.6575425984251968
21
-2.6652990944881889
0
LINE
8
BLACK
6
CONTINUOUS
10
4.6575425984251968
20
-2.6652990944881889
11
4.6579921259842516
21
-2.6675590551181103
0
LINE
8
BLACK
6
CONTINUOUS
10
4.6579921259842516
20
-2.6675590551181103
11
4.6579921259842516
21
-2.6793700787401575
0
LINE
8
BLACK
6
CONTINUOUS
10
4.6579921259842516
20
-2.6793700787401575
11
4.6575425984251968
21
-2.6816300393700785
0
LINE
8
BLACK
6
CONTINUOUS
10
4.6575425984251968
20
-2.6816300393700785
11
4.6562624409448814
21
-2.6835459055118109
0
LINE
8
BLACK
6
CONTINUOUS
10
4.6562624409448814
20
-2.6835459055118109
11
4.6543465748031494
21
-2.6848260629921259
0
LINE
8
BLACK
6
CONTINUOUS
10
4.6543465748031494
20
-2.6848260629921259
11
4.6520866141732284
21
-2.6852755905511811
0
LINE
8
BLACK
6
CONTINUOUS
10
4.6520866141732284
20
-2.6852755905511811
11
4.628464566929134
21
-2.6852755905511811
0
LINE
8
BLACK
6
CONTINUOUS
10
4.628464566929134
20
-2.6852755905511811
11
4.6262046062992122
21
-2.6848260629921259
0
LINE
8
BLACK
6
CONTINUOUS
10
4.6262046062992122
20
-2.6848260629921259
11
4.6242887401574801
21
-2.6835459055118109
0
LINE
8
BLACK
6
CONTINUOUS
10
4.6242887401574801
20
-2.6835459055118109
11
4.6230085826771656
21
-2.6816300393700785
0
LINE
8
BLACK
6
CONTINUOUS
10
4.6230085826771656
20
-2.6816300393700785
11
4.6225590551181099
21
-2.6793700787401575
0
LINE
8
BLACK
6
CONTINUOUS
10
4.6225590551181099
20
-2.6793700787401575
11
4.6225590551181099
21
-2.6675590551181103
0
LINE
8
BLACK
6
CONTINUOUS
10
4.6225590551181099
20
-2.6675590551181103
11
4.6230085826771656
21
-2.6652990944881889
0
LINE
8
BLACK
6
CONTINUOUS
10
4.6230085826771656
20
-2.6652990944881889
11
4.6242887401574801
21
-2.6633832283464565
0
LINE
8
BLACK
6
CONTINUOUS
10
4.6242887401574801
20
-2.6633832283464565
11
4.6262046062992122
21
-2.6621030708661415
0
LINE
8
BLACK
6
CONTINUOUS
10
4.6262046062992122
20
-2.6621030708661415
11
4.628464566929134
21
-2.6616535433070867
0
LINE
8
BLACK
6
CONTINUOUS
10
4.628464566929134
20
-2.6616535433070867
11
4.6520866141732284
21
-2.6616535433070867
0
LINE
8
BLACK
6
CONTINUOUS
10
4.6520866141732284
20
-2.6616535433070867
11
4.6543465748031494
21
-2.6621030708661415
0
LINE
8
BLACK
6
CONTINUOUS
10
4.0085198031496061
20
-2.6560400787401575
11
4.0104356692913381
21
-2.6573202362204724
0
LINE
8
BLACK
6
CONTINUOUS
10
4.0104356692913381
20
-2.6573202362204724
11
4.0117158267716535
21
-2.6592361023622049
0
LINE
8
BLACK
6
CONTINUOUS
10
4.0117158267716535
20
-2.6592361023622049
11
4.0121653543307083
21
-2.6614960629921258
0
LINE
8
BLACK
6
CONTINUOUS
10
4.0121653543307083
20
-2.6614960629921258
11
4.0121653543307083
21
-2.673307086614173
0
LINE
8
BLACK
6
CONTINUOUS
10
4.0121653543307083
20
-2.673307086614173
11
4.0117158267716535
21
-2.6755670472440944
0
LINE
8
BLACK
6
CONTINUOUS
10
4.0117158267716535
20
-2.6755670472440944
11
4.0104356692913381
21
-2.6774829133858269
0
LINE
8
BLACK
6
CONTINUOUS
10
4.0104356692913381
20
-2.6774829133858269
11
4.0085198031496061
21
-2.6787630708661418
0
LINE
8
BLACK
6
CONTINUOUS
10
4.0085198031496061
20
-2.6787630708661418
11
4.0062598425196851
21
-2.6792125984251967
0
LINE
8
BLACK
6
CONTINUOUS
10
4.0062598425196851
20
-2.6792125984251967
11
3.9826377952755903
21
-2.6792125984251967
0
LINE
8
BLACK
6
CONTINUOUS
10
3.9826377952755903
20
-2.6792125984251967
11
3.9803778346456693
21
-2.6787630708661418
0
LINE
8
BLACK
6
CONTINUOUS
10
3.9803778346456693
20
-2.6787630708661418
11
3.9784619685039369
21
-2.6774829133858269
0
LINE
8
BLACK
6
CONTINUOUS
10
3.9784619685039369
20
-2.6774829133858269
11
3.9771818110236219
21
-2.6755670472440944
0
LINE
8
BLACK
6
CONTINUOUS
10
3.9771818110236219
20
-2.6755670472440944
11
3.9767322834645666
21
-2.673307086614173
0
LINE
8
BLACK
6
CONTINUOUS
10
3.9767322834645666
20
-2.673307086614173
11
3.9767322834645666
21
-2.6614960629921258
0
LINE
8
BLACK
6
CONTINUOUS
10
3.9767322834645666
20
-2.6614960629921258
11
3.9771818110236219
21
-2.6592361023622049
0
LINE
8
BLACK
6
CONTINUOUS
10
3.9771818110236219
20
-2.6592361023622049
11
3.9784619685039369
21
-2.6573202362204724
0
LINE
8
BLACK
6
CONTINUOUS
10
3.9784619685039369
20
-2.6573202362204724
11
3.9803778346456693
21
-2.6560400787401575
0
LINE
8
BLACK
6
CONTINUOUS
10
3.9803778346456693
20
-2.6560400787401575
11
3.9826377952755903
21
-2.6555905511811022
0
LINE
8
BLACK
6
CONTINUOUS
10
3.9826377952755903
20
-2.6555905511811022
11
4.0062598425196851
21
-2.6555905511811022
0
LINE
8
BLACK
6
CONTINUOUS
10
4.0062598425196851
20
-2.6555905511811022
11
4.0085198031496061
21
-2.6560400787401575
0
LINE
8
BLACK
6
CONTINUOUS
10
4.0537953937007876
20
-2.6560400787401575
11
4.0557112598425196
21
-2.6573202362204724
0
LINE
8
BLACK
6
CONTINUOUS
10
4.0557112598425196
20
-2.6573202362204724
11
4.056991417322835
21
-2.6592361023622049
0
LINE
8
BLACK
6
CONTINUOUS
10
4.056991417322835
20
-2.6592361023622049
11
4.0574409448818898
21
-2.6614960629921258
0
LINE
8
BLACK
6
CONTINUOUS
10
4.0574409448818898
20
-2.6614960629921258
11
4.0574409448818898
21
-2.673307086614173
0
LINE
8
BLACK
6
CONTINUOUS
10
4.0574409448818898
20
-2.673307086614173
11
4.056991417322835
21
-2.6755670472440944
0
LINE
8
BLACK
6
CONTINUOUS
10
4.056991417322835
20
-2.6755670472440944
11
4.0557112598425196
21
-2.6774829133858269
0
LINE
8
BLACK
6
CONTINUOUS
10
4.0557112598425196
20
-2.6774829133858269
11
4.0537953937007876
21
-2.6787630708661418
0
LINE
8
BLACK
6
CONTINUOUS
10
4.0537953937007876
20
-2.6787630708661418
11
4.0515354330708657
21
-2.6792125984251967
0
LINE
8
BLACK
6
CONTINUOUS
10
4.0515354330708657
20
-2.6792125984251967
11
4.0279133858267713
21
-2.6792125984251967
0
LINE
8
BLACK
6
CONTINUOUS
10
4.0279133858267713
20
-2.6792125984251967
11
4.0256534251968503
21
-2.6787630708661418
0
LINE
8
BLACK
6
CONTINUOUS
10
4.0256534251968503
20
-2.6787630708661418
11
4.0237375590551183
21
-2.6774829133858269
0
LINE
8
BLACK
6
CONTINUOUS
10
4.0237375590551183
20
-2.6774829133858269
11
4.0224574015748029
21
-2.6755670472440944
0
LINE
8
BLACK
6
CONTINUOUS
10
4.0224574015748029
20
-2.6755670472440944
11
4.0220078740157481
21
-2.673307086614173
0
LINE
8
BLACK
6
CONTINUOUS
10
4.0220078740157481
20
-2.673307086614173
11
4.0220078740157481
21
-2.6614960629921258
0
LINE
8
BLACK
6
CONTINUOUS
10
4.0220078740157481
20
-2.6614960629921258
11
4.0224574015748029
21
-2.6592361023622049
0
LINE
8
BLACK
6
CONTINUOUS
10
4.0224574015748029
20
-2.6592361023622049
11
4.0237375590551183
21
-2.6573202362204724
0
LINE
8
BLACK
6
CONTINUOUS
10
4.0237375590551183
20
-2.6573202362204724
11
4.0256534251968503
21
-2.6560400787401575
0
LINE
8
BLACK
6
CONTINUOUS
10
4.0256534251968503
20
-2.6560400787401575
11
4.0279133858267713
21
-2.6555905511811022
0
LINE
8
BLACK
6
CONTINUOUS
10
4.0279133858267713
20
-2.6555905511811022
11
4.0515354330708657
21
-2.6555905511811022
0
LINE
8
BLACK
6
CONTINUOUS
10
4.0515354330708657
20
-2.6555905511811022
11
4.0537953937007876
21
-2.6560400787401575
0
LINE
8
BLACK
6
CONTINUOUS
10
4.0990709842519681
20
-2.6560400787401575
11
4.100986850393701
21
-2.6573202362204724
0
LINE
8
BLACK
6
CONTINUOUS
10
4.100986850393701
20
-2.6573202362204724
11
4.1022670078740155
21
-2.6592361023622049
0
LINE
8
BLACK
6
CONTINUOUS
10
4.1022670078740155
20
-2.6592361023622049
11
4.1027165354330704
21
-2.6614960629921258
0
LINE
8
BLACK
6
CONTINUOUS
10
4.1027165354330704
20
-2.6614960629921258
11
4.1027165354330704
21
-2.673307086614173
0
LINE
8
BLACK
6
CONTINUOUS
10
4.1027165354330704
20
-2.673307086614173
11
4.1022670078740155
21
-2.6755670472440944
0
LINE
8
BLACK
6
CONTINUOUS
10
4.1022670078740155
20
-2.6755670472440944
11
4.100986850393701
21
-2.6774829133858269
0
LINE
8
BLACK
6
CONTINUOUS
10
4.100986850393701
20
-2.6774829133858269
11
4.0990709842519681
21
-2.6787630708661418
0
LINE
8
BLACK
6
CONTINUOUS
10
4.0990709842519681
20
-2.6787630708661418
11
4.0968110236220472
21
-2.6792125984251967
0
LINE
8
BLACK
6
CONTINUOUS
10
4.0968110236220472
20
-2.6792125984251967
11
4.0731889763779527
21
-2.6792125984251967
0
LINE
8
BLACK
6
CONTINUOUS
10
4.0731889763779527
20
-2.6792125984251967
11
4.0709290157480318
21
-2.6787630708661418
0
LINE
8
BLACK
6
CONTINUOUS
10
4.0709290157480318
20
-2.6787630708661418
11
4.0690131496062989
21
-2.6774829133858269
0
LINE
8
BLACK
6
CONTINUOUS
10
4.0690131496062989
20
-2.6774829133858269
11
4.0677329921259844
21
-2.6755670472440944
0
LINE
8
BLACK
6
CONTINUOUS
10
4.0677329921259844
20
-2.6755670472440944
11
4.0672834645669287
21
-2.673307086614173
0
LINE
8
BLACK
6
CONTINUOUS
10
4.0672834645669287
20
-2.673307086614173
11
4.0672834645669287
21
-2.6614960629921258
0
LINE
8
BLACK
6
CONTINUOUS
10
4.0672834645669287
20
-2.6614960629921258
11
4.0677329921259844
21
-2.6592361023622049
0
LINE
8
BLACK
6
CONTINUOUS
10
4.0677329921259844
20
-2.6592361023622049
11
4.0690131496062989
21
-2.6573202362204724
0
LINE
8
BLACK
6
CONTINUOUS
10
4.0690131496062989
20
-2.6573202362204724
11
4.0709290157480318
21
-2.6560400787401575
0
LINE
8
BLACK
6
CONTINUOUS
10
4.0709290157480318
20
-2.6560400787401575
11
4.0731889763779527
21
-2.6555905511811022
0
LINE
8
BLACK
6
CONTINUOUS
10
4.0731889763779527
20
-2.6555905511811022
11
4.0968110236220472
21
-2.6555905511811022
0
LINE
8
BLACK
6
CONTINUOUS
10
4.0968110236220472
20
-2.6555905511811022
11
4.0990709842519681
21
-2.6560400787401575
0
LINE
8
BLACK
6
CONTINUOUS
10
4.5637953937007874
20
-2.6286385039370077
11
4.5657112598425194
21
-2.6299186614173227
0
LINE
8
BLACK
6
CONTINUOUS
10
4.5657112598425194
20
-2.6299186614173227
11
4.5669914173228348
21
-2.6318345275590551
0
LINE
8
BLACK
6
CONTINUOUS
10
4.5669914173228348
20
-2.6318345275590551
11
4.5674409448818896
21
-2.6340944881889765
0
LINE
8
BLACK
6
CONTINUOUS
10
4.5674409448818896
20
-2.6340944881889765
11
4.5674409448818896
21
-2.6459055118110237
0
LINE
8
BLACK
6
CONTINUOUS
10
4.5674409448818896
20
-2.6459055118110237
11
4.5669914173228348
21
-2.6481654724409447
0
LINE
8
BLACK
6
CONTINUOUS
10
4.5669914173228348
20
-2.6481654724409447
11
4.5657112598425194
21
-2.6500813385826771
0
LINE
8
BLACK
6
CONTINUOUS
10
4.5657112598425194
20
-2.6500813385826771
11
4.5637953937007874
21
-2.6513614960629921
0
LINE
8
BLACK
6
CONTINUOUS
10
4.5637953937007874
20
-2.6513614960629921
11
4.5615354330708664
21
-2.6518110236220473
0
LINE
8
BLACK
6
CONTINUOUS
10
4.5615354330708664
20
-2.6518110236220473
11
4.537913385826772
21
-2.6518110236220473
0
LINE
8
BLACK
6
CONTINUOUS
10
4.537913385826772
20
-2.6518110236220473
11
4.5356534251968501
21
-2.6513614960629921
0
LINE
8
BLACK
6
CONTINUOUS
10
4.5356534251968501
20
-2.6513614960629921
11
4.5337375590551181
21
-2.6500813385826771
0
LINE
8
BLACK
6
CONTINUOUS
10
4.5337375590551181
20
-2.6500813385826771
11
4.5324574015748027
21
-2.6481654724409447
0
LINE
8
BLACK
6
CONTINUOUS
10
4.5324574015748027
20
-2.6481654724409447
11
4.5320078740157479
21
-2.6459055118110237
0
LINE
8
BLACK
6
CONTINUOUS
10
4.5320078740157479
20
-2.6459055118110237
11
4.5320078740157479
21
-2.6340944881889765
0
LINE
8
BLACK
6
CONTINUOUS
10
4.5320078740157479
20
-2.6340944881889765
11
4.5324574015748027
21
-2.6318345275590551
0
LINE
8
BLACK
6
CONTINUOUS
10
4.5324574015748027
20
-2.6318345275590551
11
4.5337375590551181
21
-2.6299186614173227
0
LINE
8
BLACK
6
CONTINUOUS
10
4.5337375590551181
20
-2.6299186614173227
11
4.5356534251968501
21
-2.6286385039370077
0
LINE
8
BLACK
6
CONTINUOUS
10
4.5356534251968501
20
-2.6286385039370077
11
4.537913385826772
21
-2.6281889763779529
0
LINE
8
BLACK
6
CONTINUOUS
10
4.537913385826772
20
-2.6281889763779529
11
4.5615354330708664
21
-2.6281889763779529
0
LINE
8
BLACK
6
CONTINUOUS
10
4.5615354330708664
20
-2.6281889763779529
11
4.5637953937007874
21
-2.6286385039370077
0
LINE
8
BLACK
6
CONTINUOUS
10
4.6090709842519688
20
-2.6286385039370077
11
4.6109868503937008
21
-2.6299186614173227
0
LINE
8
BLACK
6
CONTINUOUS
10
4.6109868503937008
20
-2.6299186614173227
11
4.6122670078740153
21
-2.6318345275590551
0
LINE
8
BLACK
6
CONTINUOUS
10
4.6122670078740153
20
-2.6318345275590551
11
4.612716535433071
21
-2.6340944881889765
0
LINE
8
BLACK
6
CONTINUOUS
10
4.612716535433071
20
-2.6340944881889765
11
4.612716535433071
21
-2.6459055118110237
0
LINE
8
BLACK
6
CONTINUOUS
10
4.612716535433071
20
-2.6459055118110237
11
4.6122670078740153
21
-2.6481654724409447
0
LINE
8
BLACK
6
CONTINUOUS
10
4.6122670078740153
20
-2.6481654724409447
11
4.6109868503937008
21
-2.6500813385826771
0
LINE
8
BLACK
6
CONTINUOUS
10
4.6109868503937008
20
-2.6500813385826771
11
4.6090709842519688
21
-2.6513614960629921
0
LINE
8
BLACK
6
CONTINUOUS
10
4.6090709842519688
20
-2.6513614960629921
11
4.606811023622047
21
-2.6518110236220473
0
LINE
8
BLACK
6
CONTINUOUS
10
4.606811023622047
20
-2.6518110236220473
11
4.5831889763779525
21
-2.6518110236220473
0
LINE
8
BLACK
6
CONTINUOUS
10
4.5831889763779525
20
-2.6518110236220473
11
4.5809290157480316
21
-2.6513614960629921
0
LINE
8
BLACK
6
CONTINUOUS
10
4.5809290157480316
20
-2.6513614960629921
11
4.5790131496062987
21
-2.6500813385826771
0
LINE
8
BLACK
6
CONTINUOUS
10
4.5790131496062987
20
-2.6500813385826771
11
4.5777329921259842
21
-2.6481654724409447
0
LINE
8
BLACK
6
CONTINUOUS
10
4.5777329921259842
20
-2.6481654724409447
11
4.5772834645669294
21
-2.6459055118110237
0
LINE
8
BLACK
6
CONTINUOUS
10
4.5772834645669294
20
-2.6459055118110237
11
4.5772834645669294
21
-2.6340944881889765
0
LINE
8
BLACK
6
CONTINUOUS
10
4.5772834645669294
20
-2.6340944881889765
11
4.5777329921259842
21
-2.6318345275590551
0
LINE
8
BLACK
6
CONTINUOUS
10
4.5777329921259842
20
-2.6318345275590551
11
4.5790131496062987
21
-2.6299186614173227
0
LINE
8
BLACK
6
CONTINUOUS
10
4.5790131496062987
20
-2.6299186614173227
11
4.5809290157480316
21
-2.6286385039370077
0
LINE
8
BLACK
6
CONTINUOUS
10
4.5809290157480316
20
-2.6286385039370077
11
4.5831889763779525
21
-2.6281889763779529
0
LINE
8
BLACK
6
CONTINUOUS
10
4.5831889763779525
20
-2.6281889763779529
11
4.606811023622047
21
-2.6281889763779529
0
LINE
8
BLACK
6
CONTINUOUS
10
4.606811023622047
20
-2.6281889763779529
11
4.6090709842519688
21
-2.6286385039370077
0
LINE
8
BLACK
6
CONTINUOUS
10
4.6543465748031494
20
-2.6286385039370077
11
4.6562624409448814
21
-2.6299186614173227
0
LINE
8
BLACK
6
CONTINUOUS
10
4.6562624409448814
20
-2.6299186614173227
11
4.6575425984251968
21
-2.6318345275590551
0
LINE
8
BLACK
6
CONTINUOUS
10
4.6575425984251968
20
-2.6318345275590551
11
4.6579921259842516
21
-2.6340944881889765
0
LINE
8
BLACK
6
CONTINUOUS
10
4.6579921259842516
20
-2.6340944881889765
11
4.6579921259842516
21
-2.6459055118110237
0
LINE
8
BLACK
6
CONTINUOUS
10
4.6579921259842516
20
-2.6459055118110237
11
4.6575425984251968
21
-2.6481654724409447
0
LINE
8
BLACK
6
CONTINUOUS
10
4.6575425984251968
20
-2.6481654724409447
11
4.6562624409448814
21
-2.6500813385826771
0
LINE
8
BLACK
6
CONTINUOUS
10
4.6562624409448814
20
-2.6500813385826771
11
4.6543465748031494
21
-2.6513614960629921
0
LINE
8
BLACK
6
CONTINUOUS
10
4.6543465748031494
20
-2.6513614960629921
11
4.6520866141732284
21
-2.6518110236220473
0
LINE
8
BLACK
6
CONTINUOUS
10
4.6520866141732284
20
-2.6518110236220473
11
4.628464566929134
21
-2.6518110236220473
0
LINE
8
BLACK
6
CONTINUOUS
10
4.628464566929134
20
-2.6518110236220473
11
4.6262046062992122
21
-2.6513614960629921
0
LINE
8
BLACK
6
CONTINUOUS
10
4.6262046062992122
20
-2.6513614960629921
11
4.6242887401574801
21
-2.6500813385826771
0
LINE
8
BLACK
6
CONTINUOUS
10
4.6242887401574801
20
-2.6500813385826771
11
4.6230085826771656
21
-2.6481654724409447
0
LINE
8
BLACK
6
CONTINUOUS
10
4.6230085826771656
20
-2.6481654724409447
11
4.6225590551181099
21
-2.6459055118110237
0
LINE
8
BLACK
6
CONTINUOUS
10
4.6225590551181099
20
-2.6459055118110237
11
4.6225590551181099
21
-2.6340944881889765
0
LINE
8
BLACK
6
CONTINUOUS
10
4.6225590551181099
20
-2.6340944881889765
11
4.6230085826771656
21
-2.6318345275590551
0
LINE
8
BLACK
6
CONTINUOUS
10
4.6230085826771656
20
-2.6318345275590551
11
4.6242887401574801
21
-2.6299186614173227
0
LINE
8
BLACK
6
CONTINUOUS
10
4.6242887401574801
20
-2.6299186614173227
11
4.6262046062992122
21
-2.6286385039370077
0
LINE
8
BLACK
6
CONTINUOUS
10
4.6262046062992122
20
-2.6286385039370077
11
4.628464566929134
21
-2.6281889763779529
0
LINE
8
BLACK
6
CONTINUOUS
10
4.628464566929134
20
-2.6281889763779529
11
4.6520866141732284
21
-2.6281889763779529
0
LINE
8
BLACK
6
CONTINUOUS
10
4.6520866141732284
20
-2.6281889763779529
11
4.6543465748031494
21
-2.6286385039370077
0
LINE
8
BLACK
6
CONTINUOUS
10
4.0085198031496061
20
-2.6225755118110237
11
4.0104356692913381
21
-2.6238556692913386
0
LINE
8
BLACK
6
CONTINUOUS
10
4.0104356692913381
20
-2.6238556692913386
11
4.0117158267716535
21
-2.6257715354330706
0
LINE
8
BLACK
6
CONTINUOUS
10
4.0117158267716535
20
-2.6257715354330706
11
4.0121653543307083
21
-2.628031496062992
0
LINE
8
BLACK
6
CONTINUOUS
10
4.0121653543307083
20
-2.628031496062992
11
4.0121653543307083
21
-2.6398425196850392
0
LINE
8
BLACK
6
CONTINUOUS
10
4.0121653543307083
20
-2.6398425196850392
11
4.0117158267716535
21
-2.6421024803149606
0
LINE
8
BLACK
6
CONTINUOUS
10
4.0117158267716535
20
-2.6421024803149606
11
4.0104356692913381
21
-2.6440183464566926
0
LINE
8
BLACK
6
CONTINUOUS
10
4.0104356692913381
20
-2.6440183464566926
11
4.0085198031496061
21
-2.6452985039370076
0
LINE
8
BLACK
6
CONTINUOUS
10
4.0085198031496061
20
-2.6452985039370076
11
4.0062598425196851
21
-2.6457480314960629
0
LINE
8
BLACK
6
CONTINUOUS
10
4.0062598425196851
20
-2.6457480314960629
11
3.9826377952755903
21
-2.6457480314960629
0
LINE
8
BLACK
6
CONTINUOUS
10
3.9826377952755903
20
-2.6457480314960629
11
3.9803778346456693
21
-2.6452985039370076
0
LINE
8
BLACK
6
CONTINUOUS
10
3.9803778346456693
20
-2.6452985039370076
11
3.9784619685039369
21
-2.6440183464566926
0
LINE
8
BLACK
6
CONTINUOUS
10
3.9784619685039369
20
-2.6440183464566926
11
3.9771818110236219
21
-2.6421024803149606
0
LINE
8
BLACK
6
CONTINUOUS
10
3.9771818110236219
20
-2.6421024803149606
11
3.9767322834645666
21
-2.6398425196850392
0
LINE
8
BLACK
6
CONTINUOUS
10
3.9767322834645666
20
-2.6398425196850392
11
3.9767322834645666
21
-2.628031496062992
0
LINE
8
BLACK
6
CONTINUOUS
10
3.9767322834645666
20
-2.628031496062992
11
3.9771818110236219
21
-2.6257715354330706
0
LINE
8
BLACK
6
CONTINUOUS
10
3.9771818110236219
20
-2.6257715354330706
11
3.9784619685039369
21
-2.6238556692913386
0
LINE
8
BLACK
6
CONTINUOUS
10
3.9784619685039369
20
-2.6238556692913386
11
3.9803778346456693
21
-2.6225755118110237
0
LINE
8
BLACK
6
CONTINUOUS
10
3.9803778346456693
20
-2.6225755118110237
11
3.9826377952755903
21
-2.6221259842519684
0
LINE
8
BLACK
6
CONTINUOUS
10
3.9826377952755903
20
-2.6221259842519684
11
4.0062598425196851
21
-2.6221259842519684
0
LINE
8
BLACK
6
CONTINUOUS
10
4.0062598425196851
20
-2.6221259842519684
11
4.0085198031496061
21
-2.6225755118110237
0
LINE
8
BLACK
6
CONTINUOUS
10
4.0537953937007876
20
-2.6225755118110237
11
4.0557112598425196
21
-2.6238556692913386
0
LINE
8
BLACK
6
CONTINUOUS
10
4.0557112598425196
20
-2.6238556692913386
11
4.056991417322835
21
-2.6257715354330706
0
LINE
8
BLACK
6
CONTINUOUS
10
4.056991417322835
20
-2.6257715354330706
11
4.0574409448818898
21
-2.628031496062992
0
LINE
8
BLACK
6
CONTINUOUS
10
4.0574409448818898
20
-2.628031496062992
11
4.0574409448818898
21
-2.6398425196850392
0
LINE
8
BLACK
6
CONTINUOUS
10
4.0574409448818898
20
-2.6398425196850392
11
4.056991417322835
21
-2.6421024803149606
0
LINE
8
BLACK
6
CONTINUOUS
10
4.056991417322835
20
-2.6421024803149606
11
4.0557112598425196
21
-2.6440183464566926
0
LINE
8
BLACK
6
CONTINUOUS
10
4.0557112598425196
20
-2.6440183464566926
11
4.0537953937007876
21
-2.6452985039370076
0
LINE
8
BLACK
6
CONTINUOUS
10
4.0537953937007876
20
-2.6452985039370076
11
4.0515354330708657
21
-2.6457480314960629
0
LINE
8
BLACK
6
CONTINUOUS
10
4.0515354330708657
20
-2.6457480314960629
11
4.0279133858267713
21
-2.6457480314960629
0
LINE
8
BLACK
6
CONTINUOUS
10
4.0279133858267713
20
-2.6457480314960629
11
4.0256534251968503
21
-2.6452985039370076
0
LINE
8
BLACK
6
CONTINUOUS
10
4.0256534251968503
20
-2.6452985039370076
11
4.0237375590551183
21
-2.6440183464566926
0
LINE
8
BLACK
6
CONTINUOUS
10
4.0237375590551183
20
-2.6440183464566926
11
4.0224574015748029
21
-2.6421024803149606
0
LINE
8
BLACK
6
CONTINUOUS
10
4.0224574015748029
20
-2.6421024803149606
11
4.0220078740157481
21
-2.6398425196850392
0
LINE
8
BLACK
6
CONTINUOUS
10
4.0220078740157481
20
-2.6398425196850392
11
4.0220078740157481
21
-2.628031496062992
0
LINE
8
BLACK
6
CONTINUOUS
10
4.0220078740157481
20
-2.628031496062992
11
4.0224574015748029
21
-2.6257715354330706
0
LINE
8
BLACK
6
CONTINUOUS
10
4.0224574015748029
20
-2.6257715354330706
11
4.0237375590551183
21
-2.6238556692913386
0
LINE
8
BLACK
6
CONTINUOUS
10
4.0237375590551183
20
-2.6238556692913386
11
4.0256534251968503
21
-2.6225755118110237
0
LINE
8
BLACK
6
CONTINUOUS
10
4.0256534251968503
20
-2.6225755118110237
11
4.0279133858267713
21
-2.6221259842519684
0
LINE
8
BLACK
6
CONTINUOUS
10
4.0279133858267713
20
-2.6221259842519684
11
4.0515354330708657
21
-2.6221259842519684
0
LINE
8
BLACK
6
CONTINUOUS
10
4.0515354330708657
20
-2.6221259842519684
11
4.0537953937007876
21
-2.6225755118110237
0
LINE
8
BLACK
6
CONTINUOUS
10
4.0990709842519681
20
-2.6225755118110237
11
4.100986850393701
21
-2.6238556692913386
0
LINE
8
BLACK
6
CONTINUOUS
10
4.100986850393701
20
-2.6238556692913386
11
4.1022670078740155
21
-2.6257715354330706
0
LINE
8
BLACK
6
CONTINUOUS
10
4.1022670078740155
20
-2.6257715354330706
11
4.1027165354330704
21
-2.628031496062992
0
LINE
8
BLACK
6
CONTINUOUS
10
4.1027165354330704
20
-2.628031496062992
11
4.1027165354330704
21
-2.6398425196850392
0
LINE
8
BLACK
6
CONTINUOUS
10
4.1027165354330704
20
-2.6398425196850392
11
4.1022670078740155
21
-2.6421024803149606
0
LINE
8
BLACK
6
CONTINUOUS
10
4.1022670078740155
20
-2.6421024803149606
11
4.100986850393701
21
-2.6440183464566926
0
LINE
8
BLACK
6
CONTINUOUS
10
4.100986850393701
20
-2.6440183464566926
11
4.0990709842519681
21
-2.6452985039370076
0
LINE
8
BLACK
6
CONTINUOUS
10
4.0990709842519681
20
-2.6452985039370076
11
4.0968110236220472
21
-2.6457480314960629
0
LINE
8
BLACK
6
CONTINUOUS
10
4.0968110236220472
20
-2.6457480314960629
11
4.0731889763779527
21
-2.6457480314960629
0
LINE
8
BLACK
6
CONTINUOUS
10
4.0731889763779527
20
-2.6457480314960629
11
4.0709290157480318
21
-2.6452985039370076
0
LINE
8
BLACK
6
CONTINUOUS
10
4.0709290157480318
20
-2.6452985039370076
11
4.0690131496062989
21
-2.6440183464566926
0
LINE
8
BLACK
6
CONTINUOUS
10
4.0690131496062989
20
-2.6440183464566926
11
4.0677329921259844
21
-2.6421024803149606
0
LINE
8
BLACK
6
CONTINUOUS
10
4.0677329921259844
20
-2.6421024803149606
11
4.0672834645669287
21
-2.6398425196850392
0
LINE
8
BLACK
6
CONTINUOUS
10
4.0672834645669287
20
-2.6398425196850392
11
4.0672834645669287
21
-2.628031496062992
0
LINE
8
BLACK
6
CONTINUOUS
10
4.0672834645669287
20
-2.628031496062992
11
4.0677329921259844
21
-2.6257715354330706
0
LINE
8
BLACK
6
CONTINUOUS
10
4.0677329921259844
20
-2.6257715354330706
11
4.0690131496062989
21
-2.6238556692913386
0
LINE
8
BLACK
6
CONTINUOUS
10
4.0690131496062989
20
-2.6238556692913386
11
4.0709290157480318
21
-2.6225755118110237
0
LINE
8
BLACK
6
CONTINUOUS
10
4.0709290157480318
20
-2.6225755118110237
11
4.0731889763779527
21
-2.6221259842519684
0
LINE
8
BLACK
6
CONTINUOUS
10
4.0731889763779527
20
-2.6221259842519684
11
4.0968110236220472
21
-2.6221259842519684
0
LINE
8
BLACK
6
CONTINUOUS
10
4.0968110236220472
20
-2.6221259842519684
11
4.0990709842519681
21
-2.6225755118110237
0
LINE
8
BLACK
6
CONTINUOUS
10
3.7303413779527559
20
-2.5729145669291338
11
3.7335345275590552
21
-2.5750481496062991
0
LINE
8
BLACK
6
CONTINUOUS
10
3.7335345275590552
20
-2.5750481496062991
11
3.7356681102362206
21
-2.5782412992125985
0
LINE
8
BLACK
6
CONTINUOUS
10
3.7356681102362206
20
-2.5782412992125985
11
3.7364173228346456
21
-2.5820078740157482
0
LINE
8
BLACK
6
CONTINUOUS
10
3.7364173228346456
20
-2.5820078740157482
11
3.7364173228346456
21
-2.6331889763779528
0
LINE
8
BLACK
6
CONTINUOUS
10
3.7364173228346456
20
-2.6331889763779528
11
3.7356681102362206
21
-2.6369555511811025
0
LINE
8
BLACK
6
CONTINUOUS
10
3.7356681102362206
20
-2.6369555511811025
11
3.7335345275590552
21
-2.6401487007874014
0
LINE
8
BLACK
6
CONTINUOUS
10
3.7335345275590552
20
-2.6401487007874014
11
3.7303413779527559
21
-2.6422822834645667
0
LINE
8
BLACK
6
CONTINUOUS
10
3.7303413779527559
20
-2.6422822834645667
11
3.7265748031496062
21
-2.6430314960629921
0
LINE
8
BLACK
6
CONTINUOUS
10
3.7265748031496062
20
-2.6430314960629921
11
3.6940944881889761
21
-2.6430314960629921
0
LINE
8
BLACK
6
CONTINUOUS
10
3.6940944881889761
20
-2.6430314960629921
11
3.6903279133858269
21
-2.6422822834645667
0
LINE
8
BLACK
6
CONTINUOUS
10
3.6903279133858269
20
-2.6422822834645667
11
3.6871347637795275
21
-2.6401487007874014
0
LINE
8
BLACK
6
CONTINUOUS
10
3.6871347637795275
20
-2.6401487007874014
11
3.6850011811023622
21
-2.6369555511811025
0
LINE
8
BLACK
6
CONTINUOUS
10
3.6850011811023622
20
-2.6369555511811025
11
3.6842519685039368
21
-2.6331889763779528
0
LINE
8
BLACK
6
CONTINUOUS
10
3.6842519685039368
20
-2.6331889763779528
11
3.6842519685039368
21
-2.5820078740157482
0
LINE
8
BLACK
6
CONTINUOUS
10
3.6842519685039368
20
-2.5820078740157482
11
3.6850011811023622
21
-2.5782412992125985
0
LINE
8
BLACK
6
CONTINUOUS
10
3.6850011811023622
20
-2.5782412992125985
11
3.6871347637795275
21
-2.5750481496062991
0
LINE
8
BLACK
6
CONTINUOUS
10
3.6871347637795275
20
-2.5750481496062991
11
3.6903279133858269
21
-2.5729145669291338
0
LINE
8
BLACK
6
CONTINUOUS
10
3.6903279133858269
20
-2.5729145669291338
11
3.6940944881889761
21
-2.5721653543307088
0
LINE
8
BLACK
6
CONTINUOUS
10
3.6940944881889761
20
-2.5721653543307088
11
3.7265748031496062
21
-2.5721653543307088
0
LINE
8
BLACK
6
CONTINUOUS
10
3.7265748031496062
20
-2.5721653543307088
11
3.7303413779527559
21
-2.5729145669291338
0
LINE
8
BLACK
6
CONTINUOUS
10
3.853372874015748
20
-2.5729145669291338
11
3.8565660236220474
21
-2.5750481496062991
0
LINE
8
BLACK
6
CONTINUOUS
10
3.8565660236220474
20
-2.5750481496062991
11
3.8586996062992127
21
-2.5782412992125985
0
LINE
8
BLACK
6
CONTINUOUS
10
3.8586996062992127
20
-2.5782412992125985
11
3.8594488188976377
21
-2.5820078740157482
0
LINE
8
BLACK
6
CONTINUOUS
10
3.8594488188976377
20
-2.5820078740157482
11
3.8594488188976377
21
-2.6331889763779528
0
LINE
8
BLACK
6
CONTINUOUS
10
3.8594488188976377
20
-2.6331889763779528
11
3.8586996062992127
21
-2.6369555511811025
0
LINE
8
BLACK
6
CONTINUOUS
10
3.8586996062992127
20
-2.6369555511811025
11
3.8565660236220474
21
-2.6401487007874014
0
LINE
8
BLACK
6
CONTINUOUS
10
3.8565660236220474
20
-2.6401487007874014
11
3.853372874015748
21
-2.6422822834645667
0
LINE
8
BLACK
6
CONTINUOUS
10
3.853372874015748
20
-2.6422822834645667
11
3.8496062992125983
21
-2.6430314960629921
0
LINE
8
BLACK
6
CONTINUOUS
10
3.8496062992125983
20
-2.6430314960629921
11
3.8171259842519683
21
-2.6430314960629921
0
LINE
8
BLACK
6
CONTINUOUS
10
3.8171259842519683
20
-2.6430314960629921
11
3.813359409448819
21
-2.6422822834645667
0
LINE
8
BLACK
6
CONTINUOUS
10
3.813359409448819
20
-2.6422822834645667
11
3.8101662598425197
21
-2.6401487007874014
0
LINE
8
BLACK
6
CONTINUOUS
10
3.8101662598425197
20
-2.6401487007874014
11
3.8080326771653543
21
-2.6369555511811025
0
LINE
8
BLACK
6
CONTINUOUS
10
3.8080326771653543
20
-2.6369555511811025
11
3.8072834645669289
21
-2.6331889763779528
0
LINE
8
BLACK
6
CONTINUOUS
10
3.8072834645669289
20
-2.6331889763779528
11
3.8072834645669289
21
-2.5820078740157482
0
LINE
8
BLACK
6
CONTINUOUS
10
3.8072834645669289
20
-2.5820078740157482
11
3.8080326771653543
21
-2.5782412992125985
0
LINE
8
BLACK
6
CONTINUOUS
10
3.8080326771653543
20
-2.5782412992125985
11
3.8101662598425197
21
-2.5750481496062991
0
LINE
8
BLACK
6
CONTINUOUS
10
3.8101662598425197
20
-2.5750481496062991
11
3.813359409448819
21
-2.5729145669291338
0
LINE
8
BLACK
6
CONTINUOUS
10
3.813359409448819
20
-2.5729145669291338
11
3.8171259842519683
21
-2.5721653543307088
0
LINE
8
BLACK
6
CONTINUOUS
10
3.8171259842519683
20
-2.5721653543307088
11
3.8496062992125983
21
-2.5721653543307088
0
LINE
8
BLACK
6
CONTINUOUS
10
3.8496062992125983
20
-2.5721653543307088
11
3.853372874015748
21
-2.5729145669291338
0
LINE
8
BLACK
6
CONTINUOUS
10
2.8885000000000001
20
-2.6315
11
2.5514999999999999
21
-2.6315
0
LINE
8
BLACK
6
CONTINUOUS
10
2.5514999999999999
20
-2.6315
11
2.5514999999999999
21
-2.3064999999999998
0
LINE
8
BLACK
6
CONTINUOUS
10
2.5514999999999999
20
-2.3064999999999998
11
2.8885000000000001
21
-2.3064999999999998
0
LINE
8
BLACK
6
CONTINUOUS
10
2.8885000000000001
20
-2.3064999999999998
11
2.8885000000000001
21
-2.6315
0
LINE
8
BLACK
6
CONTINUOUS
10
3.4634999999999998
20
-2.6315
11
3.1265000000000001
21
-2.6315
0
LINE
8
BLACK
6
CONTINUOUS
10
3.1265000000000001
20
-2.6315
11
3.1265000000000001
21
-2.3064999999999998
0
LINE
8
BLACK
6
CONTINUOUS
10
3.1265000000000001
20
-2.3064999999999998
11
3.4634999999999998
21
-2.3064999999999998
0
LINE
8
BLACK
6
CONTINUOUS
10
3.4634999999999998
20
-2.3064999999999998
11
3.4634999999999998
21
-2.6315
0
LINE
8
BLACK
6
CONTINUOUS
10
5.2772992125984253
20
-2.6315
11
4.9402992125984255
21
-2.6315
0
LINE
8
BLACK
6
CONTINUOUS
10
4.9402992125984255
20
-2.6315
11
4.9402992125984255
21
-2.3064999999999998
0
LINE
8
BLACK
6
CONTINUOUS
10
4.9402992125984255
20
-2.3064999999999998
11
5.2772992125984253
21
-2.3064999999999998
0
LINE
8
BLACK
6
CONTINUOUS
10
5.2772992125984253
20
-2.3064999999999998
11
5.2772992125984253
21
-2.6315
0
LINE
8
BLACK
6
CONTINUOUS
10
5.8522992125984254
20
-2.6315
11
5.5152992125984248
21
-2.6315
0
LINE
8
BLACK
6
CONTINUOUS
10
5.5152992125984248
20
-2.6315
11
5.5152992125984248
21
-2.3064999999999998
0
LINE
8
BLACK
6
CONTINUOUS
10
5.5152992125984248
20
-2.3064999999999998
11
5.8522992125984254
21
-2.3064999999999998
0
LINE
8
BLACK
6
CONTINUOUS
10
5.8522992125984254
20
-2.3064999999999998
11
5.8522992125984254
21
-2.6315
0
LINE
8
BLACK
6
CONTINUOUS
10
4.5279686220472444
20
-2.5343471653543306
11
4.5298844881889764
21
-2.5356273228346455
0
LINE
8
BLACK
6
CONTINUOUS
10
4.5298844881889764
20
-2.5356273228346455
11
4.5311646456692909
21
-2.537543188976378
0
LINE
8
BLACK
6
CONTINUOUS
10
4.5311646456692909
20
-2.537543188976378
11
4.5316141732283466
21
-2.5398031496062989
0
LINE
8
BLACK
6
CONTINUOUS
10
4.5316141732283466
20
-2.5398031496062989
11
4.5316141732283466
21
-2.5693307086614174
0
LINE
8
BLACK
6
CONTINUOUS
10
4.5316141732283466
20
-2.5693307086614174
11
4.5311646456692909
21
-2.5715906692913384
0
LINE
8
BLACK
6
CONTINUOUS
10
4.5311646456692909
20
-2.5715906692913384
11
4.5298844881889764
21
-2.5735065354330708
0
LINE
8
BLACK
6
CONTINUOUS
10
4.5298844881889764
20
-2.5735065354330708
11
4.5279686220472444
21
-2.5747866929133858
0
LINE
8
BLACK
6
CONTINUOUS
10
4.5279686220472444
20
-2.5747866929133858
11
4.5257086614173225
21
-2.5752362204724411
0
LINE
8
BLACK
6
CONTINUOUS
10
4.5257086614173225
20
-2.5752362204724411
11
4.5138976377952753
21
-2.5752362204724411
0
LINE
8
BLACK
6
CONTINUOUS
10
4.5138976377952753
20
-2.5752362204724411
11
4.5116376771653544
21
-2.5747866929133858
0
LINE
8
BLACK
6
CONTINUOUS
10
4.5116376771653544
20
-2.5747866929133858
11
4.5097218110236224
21
-2.5735065354330708
0
LINE
8
BLACK
6
CONTINUOUS
10
4.5097218110236224
20
-2.5735065354330708
11
4.5084416535433069
21
-2.5715906692913384
0
LINE
8
BLACK
6
CONTINUOUS
10
4.5084416535433069
20
-2.5715906692913384
11
4.5079921259842521
21
-2.5693307086614174
0
LINE
8
BLACK
6
CONTINUOUS
10
4.5079921259842521
20
-2.5693307086614174
11
4.5079921259842521
21
-2.5398031496062989
0
LINE
8
BLACK
6
CONTINUOUS
10
4.5079921259842521
20
-2.5398031496062989
11
4.5084416535433069
21
-2.537543188976378
0
LINE
8
BLACK
6
CONTINUOUS
10
4.5084416535433069
20
-2.537543188976378
11
4.5097218110236224
21
-2.5356273228346455
0
LINE
8
BLACK
6
CONTINUOUS
10
4.5097218110236224
20
-2.5356273228346455
11
4.5116376771653544
21
-2.5343471653543306
0
LINE
8
BLACK
6
CONTINUOUS
10
4.5116376771653544
20
-2.5343471653543306
11
4.5138976377952753
21
-2.5338976377952753
0
LINE
8
BLACK
6
CONTINUOUS
10
4.5138976377952753
20
-2.5338976377952753
11
4.5257086614173225
21
-2.5338976377952753
0
LINE
8
BLACK
6
CONTINUOUS
10
4.5257086614173225
20
-2.5338976377952753
11
4.5279686220472444
21
-2.5343471653543306
0
LINE
8
BLACK
6
CONTINUOUS
10
4.5779686220472442
20
-2.5343471653543306
11
4.5798844881889762
21
-2.5356273228346455
0
LINE
8
BLACK
6
CONTINUOUS
10
4.5798844881889762
20
-2.5356273228346455
11
4.5811646456692916
21
-2.537543188976378
0
LINE
8
BLACK
6
CONTINUOUS
10
4.5811646456692916
20
-2.537543188976378
11
4.5816141732283464
21
-2.5398031496062989
0
LINE
8
BLACK
6
CONTINUOUS
10
4.5816141732283464
20
-2.5398031496062989
11
4.5816141732283464
21
-2.5693307086614174
0
LINE
8
BLACK
6
CONTINUOUS
10
4.5816141732283464
20
-2.5693307086614174
11
4.5811646456692916
21
-2.5715906692913384
0
LINE
8
BLACK
6
CONTINUOUS
10
4.5811646456692916
20
-2.5715906692913384
11
4.5798844881889762
21
-2.5735065354330708
0
LINE
8
BLACK
6
CONTINUOUS
10
4.5798844881889762
20
-2.5735065354330708
11
4.5779686220472442
21
-2.5747866929133858
0
LINE
8
BLACK
6
CONTINUOUS
10
4.5779686220472442
20
-2.5747866929133858
11
4.5757086614173224
21
-2.5752362204724411
0
LINE
8
BLACK
6
CONTINUOUS
10
4.5757086614173224
20
-2.5752362204724411
11
4.5638976377952751
21
-2.5752362204724411
0
LINE
8
BLACK
6
CONTINUOUS
10
4.5638976377952751
20
-2.5752362204724411
11
4.5616376771653542
21
-2.5747866929133858
0
LINE
8
BLACK
6
CONTINUOUS
10
4.5616376771653542
20
-2.5747866929133858
11
4.5597218110236222
21
-2.5735065354330708
0
LINE
8
BLACK
6
CONTINUOUS
10
4.5597218110236222
20
-2.5735065354330708
11
4.5584416535433068
21
-2.5715906692913384
0
LINE
8
BLACK
6
CONTINUOUS
10
4.5584416535433068
20
-2.5715906692913384
11
4.557992125984252
21
-2.5693307086614174
0
LINE
8
BLACK
6
CONTINUOUS
10
4.557992125984252
20
-2.5693307086614174
11
4.557992125984252
21
-2.5398031496062989
0
LINE
8
BLACK
6
CONTINUOUS
10
4.557992125984252
20
-2.5398031496062989
11
4.5584416535433068
21
-2.537543188976378
0
LINE
8
BLACK
6
CONTINUOUS
10
4.5584416535433068
20
-2.537543188976378
11
4.5597218110236222
21
-2.5356273228346455
0
LINE
8
BLACK
6
CONTINUOUS
10
4.5597218110236222
20
-2.5356273228346455
11
4.5616376771653542
21
-2.5343471653543306
0
LINE
8
BLACK
6
CONTINUOUS
10
4.5616376771653542
20
-2.5343471653543306
11
4.5638976377952751
21
-2.5338976377952753
0
LINE
8
BLACK
6
CONTINUOUS
10
4.5638976377952751
20
-2.5338976377952753
11
4.5757086614173224
21
-2.5338976377952753
0
LINE
8
BLACK
6
CONTINUOUS
10
4.5757086614173224
20
-2.5338976377952753
11
4.5779686220472442
21
-2.5343471653543306
0
LINE
8
BLACK
6
CONTINUOUS
10
4.6283623228346453
20
-2.5343471653543306
11
4.6302781889763782
21
-2.5356273228346455
0
LINE
8
BLACK
6
CONTINUOUS
10
4.6302781889763782
20
-2.5356273228346455
11
4.6315583464566927
21
-2.537543188976378
0
LINE
8
BLACK
6
CONTINUOUS
10
4.6315583464566927
20
-2.537543188976378
11
4.6320078740157475
21
-2.5398031496062989
0
LINE
8
BLACK
6
CONTINUOUS
10
4.6320078740157475
20
-2.5398031496062989
11
4.6320078740157475
21
-2.5693307086614174
0
LINE
8
BLACK
6
CONTINUOUS
10
4.6320078740157475
20
-2.5693307086614174
11
4.6315583464566927
21
-2.5715906692913384
0
LINE
8
BLACK
6
CONTINUOUS
10
4.6315583464566927
20
-2.5715906692913384
11
4.6302781889763782
21
-2.5735065354330708
0
LINE
8
BLACK
6
CONTINUOUS
10
4.6302781889763782
20
-2.5735065354330708
11
4.6283623228346453
21
-2.5747866929133858
0
LINE
8
BLACK
6
CONTINUOUS
10
4.6283623228346453
20
-2.5747866929133858
11
4.6261023622047244
21
-2.5752362204724411
0
LINE
8
BLACK
6
CONTINUOUS
10
4.6261023622047244
20
-2.5752362204724411
11
4.6142913385826771
21
-2.5752362204724411
0
LINE
8
BLACK
6
CONTINUOUS
10
4.6142913385826771
20
-2.5752362204724411
11
4.6120313779527562
21
-2.5747866929133858
0
LINE
8
BLACK
6
CONTINUOUS
10
4.6120313779527562
20
-2.5747866929133858
11
4.6101155118110233
21
-2.5735065354330708
0
LINE
8
BLACK
6
CONTINUOUS
10
4.6101155118110233
20
-2.5735065354330708
11
4.6088353543307088
21
-2.5715906692913384
0
LINE
8
BLACK
6
CONTINUOUS
10
4.6088353543307088
20
-2.5715906692913384
11
4.6083858267716531
21
-2.5693307086614174
0
LINE
8
BLACK
6
CONTINUOUS
10
4.6083858267716531
20
-2.5693307086614174
11
4.6083858267716531
21
-2.5398031496062989
0
LINE
8
BLACK
6
CONTINUOUS
10
4.6083858267716531
20
-2.5398031496062989
11
4.6088353543307088
21
-2.537543188976378
0
LINE
8
BLACK
6
CONTINUOUS
10
4.6088353543307088
20
-2.537543188976378
11
4.6101155118110233
21
-2.5356273228346455
0
LINE
8
BLACK
6
CONTINUOUS
10
4.6101155118110233
20
-2.5356273228346455
11
4.6120313779527562
21
-2.5343471653543306
0
LINE
8
BLACK
6
CONTINUOUS
10
4.6120313779527562
20
-2.5343471653543306
11
4.6142913385826771
21
-2.5338976377952753
0
LINE
8
BLACK
6
CONTINUOUS
10
4.6142913385826771
20
-2.5338976377952753
11
4.6261023622047244
21
-2.5338976377952753
0
LINE
8
BLACK
6
CONTINUOUS
10
4.6261023622047244
20
-2.5338976377952753
11
4.6283623228346453
21
-2.5343471653543306
0
LINE
8
BLACK
6
CONTINUOUS
10
4.6783623228346451
20
-2.5343471653543306
11
4.680278188976378
21
-2.5356273228346455
0
LINE
8
BLACK
6
CONTINUOUS
10
4.680278188976378
20
-2.5356273228346455
11
4.6815583464566926
21
-2.537543188976378
0
LINE
8
BLACK
6
CONTINUOUS
10
4.6815583464566926
20
-2.537543188976378
11
4.6820078740157482
21
-2.5398031496062989
0
LINE
8
BLACK
6
CONTINUOUS
10
4.6820078740157482
20
-2.5398031496062989
11
4.6820078740157482
21
-2.5693307086614174
0
LINE
8
BLACK
6
CONTINUOUS
10
4.6820078740157482
20
-2.5693307086614174
11
4.6815583464566926
21
-2.5715906692913384
0
LINE
8
BLACK
6
CONTINUOUS
10
4.6815583464566926
20
-2.5715906692913384
11
4.680278188976378
21
-2.5735065354330708
0
LINE
8
BLACK
6
CONTINUOUS
10
4.680278188976378
20
-2.5735065354330708
11
4.6783623228346451
21
-2.5747866929133858
0
LINE
8
BLACK
6
CONTINUOUS
10
4.6783623228346451
20
-2.5747866929133858
11
4.6761023622047242
21
-2.5752362204724411
0
LINE
8
BLACK
6
CONTINUOUS
10
4.6761023622047242
20
-2.5752362204724411
11
4.664291338582677
21
-2.5752362204724411
0
LINE
8
BLACK
6
CONTINUOUS
10
4.664291338582677
20
-2.5752362204724411
11
4.662031377952756
21
-2.5747866929133858
0
LINE
8
BLACK
6
CONTINUOUS
10
4.662031377952756
20
-2.5747866929133858
11
4.6601155118110231
21
-2.5735065354330708
0
LINE
8
BLACK
6
CONTINUOUS
10
4.6601155118110231
20
-2.5735065354330708
11
4.6588353543307086
21
-2.5715906692913384
0
LINE
8
BLACK
6
CONTINUOUS
10
4.6588353543307086
20
-2.5715906692913384
11
4.6583858267716538
21
-2.5693307086614174
0
LINE
8
BLACK
6
CONTINUOUS
10
4.6583858267716538
20
-2.5693307086614174
11
4.6583858267716538
21
-2.5398031496062989
0
LINE
8
BLACK
6
CONTINUOUS
10
4.6583858267716538
20
-2.5398031496062989
11
4.6588353543307086
21
-2.537543188976378
0
LINE
8
BLACK
6
CONTINUOUS
10
4.6588353543307086
20
-2.537543188976378
11
4.6601155118110231
21
-2.5356273228346455
0
LINE
8
BLACK
6
CONTINUOUS
10
4.6601155118110231
20
-2.5356273228346455
11
4.662031377952756
21
-2.5343471653543306
0
LINE
8
BLACK
6
CONTINUOUS
10
4.662031377952756
20
-2.5343471653543306
11
4.664291338582677
21
-2.5338976377952753
0
LINE
8
BLACK
6
CONTINUOUS
10
4.664291338582677
20
-2.5338976377952753
11
4.6761023622047242
21
-2.5338976377952753
0
LINE
8
BLACK
6
CONTINUOUS
10
4.6761023622047242
20
-2.5338976377952753
11
4.6783623228346451
21
-2.5343471653543306
0
LINE
8
BLACK
6
CONTINUOUS
10
3.9726930314960631
20
-2.5282841732283465
11
3.9746088976377951
21
-2.5295643307086615
0
LINE
8
BLACK
6
CONTINUOUS
10
3.9746088976377951
20
-2.5295643307086615
11
3.9758890551181101
21
-2.5314801968503935
0
LINE
8
BLACK
6
CONTINUOUS
10
3.9758890551181101
20
-2.5314801968503935
11
3.9763385826771653
21
-2.5337401574803149
0
LINE
8
BLACK
6
CONTINUOUS
10
3.9763385826771653
20
-2.5337401574803149
11
3.9763385826771653
21
-2.5632677165354329
0
LINE
8
BLACK
6
CONTINUOUS
10
3.9763385826771653
20
-2.5632677165354329
11
3.9758890551181101
21
-2.5655276771653543
0
LINE
8
BLACK
6
CONTINUOUS
10
3.9758890551181101
20
-2.5655276771653543
11
3.9746088976377951
21
-2.5674435433070864
0
LINE
8
BLACK
6
CONTINUOUS
10
3.9746088976377951
20
-2.5674435433070864
11
3.9726930314960631
21
-2.5687237007874013
0
LINE
8
BLACK
6
CONTINUOUS
10
3.9726930314960631
20
-2.5687237007874013
11
3.9704330708661417
21
-2.5691732283464566
0
LINE
8
BLACK
6
CONTINUOUS
10
3.9704330708661417
20
-2.5691732283464566
11
3.9586220472440945
21
-2.5691732283464566
0
LINE
8
BLACK
6
CONTINUOUS
10
3.9586220472440945
20
-2.5691732283464566
11
3.9563620866141731
21
-2.5687237007874013
0
LINE
8
BLACK
6
CONTINUOUS
10
3.9563620866141731
20
-2.5687237007874013
11
3.9544462204724407
21
-2.5674435433070864
0
LINE
8
BLACK
6
CONTINUOUS
10
3.9544462204724407
20
-2.5674435433070864
11
3.9531660629921257
21
-2.5655276771653543
0
LINE
8
BLACK
6
CONTINUOUS
10
3.9531660629921257
20
-2.5655276771653543
11
3.9527165354330709
21
-2.5632677165354329
0
LINE
8
BLACK
6
CONTINUOUS
10
3.9527165354330709
20
-2.5632677165354329
11
3.9527165354330709
21
-2.5337401574803149
0
LINE
8
BLACK
6
CONTINUOUS
10
3.9527165354330709
20
-2.5337401574803149
11
3.9531660629921257
21
-2.5314801968503935
0
LINE
8
BLACK
6
CONTINUOUS
10
3.9531660629921257
20
-2.5314801968503935
11
3.9544462204724407
21
-2.5295643307086615
0
LINE
8
BLACK
6
CONTINUOUS
10
3.9544462204724407
20
-2.5295643307086615
11
3.9563620866141731
21
-2.5282841732283465
0
LINE
8
BLACK
6
CONTINUOUS
10
3.9563620866141731
20
-2.5282841732283465
11
3.9586220472440945
21
-2.5278346456692913
0
LINE
8
BLACK
6
CONTINUOUS
10
3.9586220472440945
20
-2.5278346456692913
11
3.9704330708661417
21
-2.5278346456692913
0
LINE
8
BLACK
6
CONTINUOUS
10
3.9704330708661417
20
-2.5278346456692913
11
3.9726930314960631
21
-2.5282841732283465
0
LINE
8
BLACK
6
CONTINUOUS
10
4.0226930314960629
20
-2.5282841732283465
11
4.0246088976377949
21
-2.5295643307086615
0
LINE
8
BLACK
6
CONTINUOUS
10
4.0246088976377949
20
-2.5295643307086615
11
4.0258890551181103
21
-2.5314801968503935
0
LINE
8
BLACK
6
CONTINUOUS
10
4.0258890551181103
20
-2.5314801968503935
11
4.0263385826771652
21
-2.5337401574803149
0
LINE
8
BLACK
6
CONTINUOUS
10
4.0263385826771652
20
-2.5337401574803149
11
4.0263385826771652
21
-2.5632677165354329
0
LINE
8
BLACK
6
CONTINUOUS
10
4.0263385826771652
20
-2.5632677165354329
11
4.0258890551181103
21
-2.5655276771653543
0
LINE
8
BLACK
6
CONTINUOUS
10
4.0258890551181103
20
-2.5655276771653543
11
4.0246088976377949
21
-2.5674435433070864
0
LINE
8
BLACK
6
CONTINUOUS
10
4.0246088976377949
20
-2.5674435433070864
11
4.0226930314960629
21
-2.5687237007874013
0
LINE
8
BLACK
6
CONTINUOUS
10
4.0226930314960629
20
-2.5687237007874013
11
4.020433070866142
21
-2.5691732283464566
0
LINE
8
BLACK
6
CONTINUOUS
10
4.020433070866142
20
-2.5691732283464566
11
4.0086220472440948
21
-2.5691732283464566
0
LINE
8
BLACK
6
CONTINUOUS
10
4.0086220472440948
20
-2.5691732283464566
11
4.0063620866141729
21
-2.5687237007874013
0
LINE
8
BLACK
6
CONTINUOUS
10
4.0063620866141729
20
-2.5687237007874013
11
4.0044462204724409
21
-2.5674435433070864
0
LINE
8
BLACK
6
CONTINUOUS
10
4.0044462204724409
20
-2.5674435433070864
11
4.0031660629921255
21
-2.5655276771653543
0
LINE
8
BLACK
6
CONTINUOUS
10
4.0031660629921255
20
-2.5655276771653543
11
4.0027165354330707
21
-2.5632677165354329
0
LINE
8
BLACK
6
CONTINUOUS
10
4.0027165354330707
20
-2.5632677165354329
11
4.0027165354330707
21
-2.5337401574803149
0
LINE
8
BLACK
6
CONTINUOUS
10
4.0027165354330707
20
-2.5337401574803149
11
4.0031660629921255
21
-2.5314801968503935
0
LINE
8
BLACK
6
CONTINUOUS
10
4.0031660629921255
20
-2.5314801968503935
11
4.0044462204724409
21
-2.5295643307086615
0
LINE
8
BLACK
6
CONTINUOUS
10
4.0044462204724409
20
-2.5295643307086615
11
4.0063620866141729
21
-2.5282841732283465
0
LINE
8
BLACK
6
CONTINUOUS
10
4.0063620866141729
20
-2.5282841732283465
11
4.0086220472440948
21
-2.5278346456692913
0
LINE
8
BLACK
6
CONTINUOUS
10
4.0086220472440948
20
-2.5278346456692913
11
4.020433070866142
21
-2.5278346456692913
0
LINE
8
BLACK
6
CONTINUOUS
10
4.020433070866142
20
-2.5278346456692913
11
4.0226930314960629
21
-2.5282841732283465
0
LINE
8
BLACK
6
CONTINUOUS
10
4.0730867322834641
20
-2.5282841732283465
11
4.075002598425197
21
-2.5295643307086615
0
LINE
8
BLACK
6
CONTINUOUS
10
4.075002598425197
20
-2.5295643307086615
11
4.0762827559055115
21
-2.5314801968503935
0
LINE
8
BLACK
6
CONTINUOUS
10
4.0762827559055115
20
-2.5314801968503935
11
4.0767322834645672
21
-2.5337401574803149
0
LINE
8
BLACK
6
CONTINUOUS
10
4.0767322834645672
20
-2.5337401574803149
11
4.0767322834645672
21
-2.5632677165354329
0
LINE
8
BLACK
6
CONTINUOUS
10
4.0767322834645672
20
-2.5632677165354329
11
4.0762827559055115
21
-2.5655276771653543
0
LINE
8
BLACK
6
CONTINUOUS
10
4.0762827559055115
20
-2.5655276771653543
11
4.075002598425197
21
-2.5674435433070864
0
LINE
8
BLACK
6
CONTINUOUS
10
4.075002598425197
20
-2.5674435433070864
11
4.0730867322834641
21
-2.5687237007874013
0
LINE
8
BLACK
6
CONTINUOUS
10
4.0730867322834641
20
-2.5687237007874013
11
4.0708267716535431
21
-2.5691732283464566
0
LINE
8
BLACK
6
CONTINUOUS
10
4.0708267716535431
20
-2.5691732283464566
11
4.0590157480314959
21
-2.5691732283464566
0
LINE
8
BLACK
6
CONTINUOUS
10
4.0590157480314959
20
-2.5691732283464566
11
4.0567557874015749
21
-2.5687237007874013
0
LINE
8
BLACK
6
CONTINUOUS
10
4.0567557874015749
20
-2.5687237007874013
11
4.0548399212598421
21
-2.5674435433070864
0
LINE
8
BLACK
6
CONTINUOUS
10
4.0548399212598421
20
-2.5674435433070864
11
4.0535597637795275
21
-2.5655276771653543
0
LINE
8
BLACK
6
CONTINUOUS
10
4.0535597637795275
20
-2.5655276771653543
11
4.0531102362204727
21
-2.5632677165354329
0
LINE
8
BLACK
6
CONTINUOUS
10
4.0531102362204727
20
-2.5632677165354329
11
4.0531102362204727
21
-2.5337401574803149
0
LINE
8
BLACK
6
CONTINUOUS
10
4.0531102362204727
20
-2.5337401574803149
11
4.0535597637795275
21
-2.5314801968503935
0
LINE
8
BLACK
6
CONTINUOUS
10
4.0535597637795275
20
-2.5314801968503935
11
4.0548399212598421
21
-2.5295643307086615
0
LINE
8
BLACK
6
CONTINUOUS
10
4.0548399212598421
20
-2.5295643307086615
11
4.0567557874015749
21
-2.5282841732283465
0
LINE
8
BLACK
6
CONTINUOUS
10
4.0567557874015749
20
-2.5282841732283465
11
4.0590157480314959
21
-2.5278346456692913
0
LINE
8
BLACK
6
CONTINUOUS
10
4.0590157480314959
20
-2.5278346456692913
11
4.0708267716535431
21
-2.5278346456692913
0
LINE
8
BLACK
6
CONTINUOUS
10
4.0708267716535431
20
-2.5278346456692913
11
4.0730867322834641
21
-2.5282841732283465
0
LINE
8
BLACK
6
CONTINUOUS
10
4.1230867322834648
20
-2.5282841732283465
11
4.1250025984251968
21
-2.5295643307086615
0
LINE
8
BLACK
6
CONTINUOUS
10
4.1250025984251968
20
-2.5295643307086615
11
4.1262827559055113
21
-2.5314801968503935
0
LINE
8
BLACK
6
CONTINUOUS
10
4.1262827559055113
20
-2.5314801968503935
11
4.126732283464567
21
-2.5337401574803149
0
LINE
8
BLACK
6
CONTINUOUS
10
4.126732283464567
20
-2.5337401574803149
11
4.126732283464567
21
-2.5632677165354329
0
LINE
8
BLACK
6
CONTINUOUS
10
4.126732283464567
20
-2.5632677165354329
11
4.1262827559055113
21
-2.5655276771653543
0
LINE
8
BLACK
6
CONTINUOUS
10
4.1262827559055113
20
-2.5655276771653543
11
4.1250025984251968
21
-2.5674435433070864
0
LINE
8
BLACK
6
CONTINUOUS
10
4.1250025984251968
20
-2.5674435433070864
11
4.1230867322834648
21
-2.5687237007874013
0
LINE
8
BLACK
6
CONTINUOUS
10
4.1230867322834648
20
-2.5687237007874013
11
4.1208267716535429
21
-2.5691732283464566
0
LINE
8
BLACK
6
CONTINUOUS
10
4.1208267716535429
20
-2.5691732283464566
11
4.1090157480314957
21
-2.5691732283464566
0
LINE
8
BLACK
6
CONTINUOUS
10
4.1090157480314957
20
-2.5691732283464566
11
4.1067557874015748
21
-2.5687237007874013
0
LINE
8
BLACK
6
CONTINUOUS
10
4.1067557874015748
20
-2.5687237007874013
11
4.1048399212598428
21
-2.5674435433070864
0
LINE
8
BLACK
6
CONTINUOUS
10
4.1048399212598428
20
-2.5674435433070864
11
4.1035597637795274
21
-2.5655276771653543
0
LINE
8
BLACK
6
CONTINUOUS
10
4.1035597637795274
20
-2.5655276771653543
11
4.1031102362204726
21
-2.5632677165354329
0
LINE
8
BLACK
6
CONTINUOUS
10
4.1031102362204726
20
-2.5632677165354329
11
4.1031102362204726
21
-2.5337401574803149
0
LINE
8
BLACK
6
CONTINUOUS
10
4.1031102362204726
20
-2.5337401574803149
11
4.1035597637795274
21
-2.5314801968503935
0
LINE
8
BLACK
6
CONTINUOUS
10
4.1035597637795274
20
-2.5314801968503935
11
4.1048399212598428
21
-2.5295643307086615
0
LINE
8
BLACK
6
CONTINUOUS
10
4.1048399212598428
20
-2.5295643307086615
11
4.1067557874015748
21
-2.5282841732283465
0
LINE
8
BLACK
6
CONTINUOUS
10
4.1067557874015748
20
-2.5282841732283465
11
4.1090157480314957
21
-2.5278346456692913
0
LINE
8
BLACK
6
CONTINUOUS
10
4.1090157480314957
20
-2.5278346456692913
11
4.1208267716535429
21
-2.5278346456692913
0
LINE
8
BLACK
6
CONTINUOUS
10
4.1208267716535429
20
-2.5278346456692913
11
4.1230867322834648
21
-2.5282841732283465
0
LINE
8
BLACK
6
CONTINUOUS
10
3.7303413779527559
20
-2.437914566929134
11
3.7335345275590552
21
-2.4400481496062993
0
LINE
8
BLACK
6
CONTINUOUS
10
3.7335345275590552
20
-2.4400481496062993
11
3.7356681102362206
21
-2.4432412992125982
0
LINE
8
BLACK
6
CONTINUOUS
10
3.7356681102362206
20
-2.4432412992125982
11
3.7364173228346456
21
-2.4470078740157479
0
LINE
8
BLACK
6
CONTINUOUS
10
3.7364173228346456
20
-2.4470078740157479
11
3.7364173228346456
21
-2.4981889763779526
0
LINE
8
BLACK
6
CONTINUOUS
10
3.7364173228346456
20
-2.4981889763779526
11
3.7356681102362206
21
-2.5019555511811022
0
LINE
8
BLACK
6
CONTINUOUS
10
3.7356681102362206
20
-2.5019555511811022
11
3.7335345275590552
21
-2.5051487007874016
0
LINE
8
BLACK
6
CONTINUOUS
10
3.7335345275590552
20
-2.5051487007874016
11
3.7303413779527559
21
-2.5072822834645669
0
LINE
8
BLACK
6
CONTINUOUS
10
3.7303413779527559
20
-2.5072822834645669
11
3.7265748031496062
21
-2.5080314960629919
0
LINE
8
BLACK
6
CONTINUOUS
10
3.7265748031496062
20
-2.5080314960629919
11
3.6940944881889761
21
-2.5080314960629919
0
LINE
8
BLACK
6
CONTINUOUS
10
3.6940944881889761
20
-2.5080314960629919
11
3.6903279133858269
21
-2.5072822834645669
0
LINE
8
BLACK
6
CONTINUOUS
10
3.6903279133858269
20
-2.5072822834645669
11
3.6871347637795275
21
-2.5051487007874016
0
LINE
8
BLACK
6
CONTINUOUS
10
3.6871347637795275
20
-2.5051487007874016
11
3.6850011811023622
21
-2.5019555511811022
0
LINE
8
BLACK
6
CONTINUOUS
10
3.6850011811023622
20
-2.5019555511811022
11
3.6842519685039368
21
-2.4981889763779526
0
LINE
8
BLACK
6
CONTINUOUS
10
3.6842519685039368
20
-2.4981889763779526
11
3.6842519685039368
21
-2.4470078740157479
0
LINE
8
BLACK
6
CONTINUOUS
10
3.6842519685039368
20
-2.4470078740157479
11
3.6850011811023622
21
-2.4432412992125982
0
LINE
8
BLACK
6
CONTINUOUS
10
3.6850011811023622
20
-2.4432412992125982
11
3.6871347637795275
21
-2.4400481496062993
0
LINE
8
BLACK
6
CONTINUOUS
10
3.6871347637795275
20
-2.4400481496062993
11
3.6903279133858269
21
-2.437914566929134
0
LINE
8
BLACK
6
CONTINUOUS
10
3.6903279133858269
20
-2.437914566929134
11
3.6940944881889761
21
-2.4371653543307086
0
LINE
8
BLACK
6
CONTINUOUS
10
3.6940944881889761
20
-2.4371653543307086
11
3.7265748031496062
21
-2.4371653543307086
0
LINE
8
BLACK
6
CONTINUOUS
10
3.7265748031496062
20
-2.4371653543307086
11
3.7303413779527559
21
-2.437914566929134
0
LINE
8
BLACK
6
CONTINUOUS
10
3.853372874015748
20
-2.437914566929134
11
3.8565660236220474
21
-2.4400481496062993
0
LINE
8
BLACK
6
CONTINUOUS
10
3.8565660236220474
20
-2.4400481496062993
11
3.8586996062992127
21
-2.4432412992125982
0
LINE
8
BLACK
6
CONTINUOUS
10
3.8586996062992127
20
-2.4432412992125982
11
3.8594488188976377
21
-2.4470078740157479
0
LINE
8
BLACK
6
CONTINUOUS
10
3.8594488188976377
20
-2.4470078740157479
11
3.8594488188976377
21
-2.4981889763779526
0
LINE
8
BLACK
6
CONTINUOUS
10
3.8594488188976377
20
-2.4981889763779526
11
3.8586996062992127
21
-2.5019555511811022
0
LINE
8
BLACK
6
CONTINUOUS
10
3.8586996062992127
20
-2.5019555511811022
11
3.8565660236220474
21
-2.5051487007874016
0
LINE
8
BLACK
6
CONTINUOUS
10
3.8565660236220474
20
-2.5051487007874016
11
3.853372874015748
21
-2.5072822834645669
0
LINE
8
BLACK
6
CONTINUOUS
10
3.853372874015748
20
-2.5072822834645669
11
3.8496062992125983
21
-2.5080314960629919
0
LINE
8
BLACK
6
CONTINUOUS
10
3.8496062992125983
20
-2.5080314960629919
11
3.8171259842519683
21
-2.5080314960629919
0
LINE
8
BLACK
6
CONTINUOUS
10
3.8171259842519683
20
-2.5080314960629919
11
3.813359409448819
21
-2.5072822834645669
0
LINE
8
BLACK
6
CONTINUOUS
10
3.813359409448819
20
-2.5072822834645669
11
3.8101662598425197
21
-2.5051487007874016
0
LINE
8
BLACK
6
CONTINUOUS
10
3.8101662598425197
20
-2.5051487007874016
11
3.8080326771653543
21
-2.5019555511811022
0
LINE
8
BLACK
6
CONTINUOUS
10
3.8080326771653543
20
-2.5019555511811022
11
3.8072834645669289
21
-2.4981889763779526
0
LINE
8
BLACK
6
CONTINUOUS
10
3.8072834645669289
20
-2.4981889763779526
11
3.8072834645669289
21
-2.4470078740157479
0
LINE
8
BLACK
6
CONTINUOUS
10
3.8072834645669289
20
-2.4470078740157479
11
3.8080326771653543
21
-2.4432412992125982
0
LINE
8
BLACK
6
CONTINUOUS
10
3.8080326771653543
20
-2.4432412992125982
11
3.8101662598425197
21
-2.4400481496062993
0
LINE
8
BLACK
6
CONTINUOUS
10
3.8101662598425197
20
-2.4400481496062993
11
3.813359409448819
21
-2.437914566929134
0
LINE
8
BLACK
6
CONTINUOUS
10
3.813359409448819
20
-2.437914566929134
11
3.8171259842519683
21
-2.4371653543307086
0
LINE
8
BLACK
6
CONTINUOUS
10
3.8171259842519683
20
-2.4371653543307086
11
3.8496062992125983
21
-2.4371653543307086
0
LINE
8
BLACK
6
CONTINUOUS
10
3.8496062992125983
20
-2.4371653543307086
11
3.853372874015748
21
-2.437914566929134
0
CIRCLE
8
WHITE
10
3.2387992125984253
20
-1.845
40
0.0334645669291339
0
CIRCLE
8
WHITE
10
2.864783464566929
20
-2.0949999999999998
40
0.0334645669291339
0
CIRCLE
8
WHITE
10
4.8149999999999995
20
-4.5949999999999998
40
0.0194999606299213
0
CIRCLE
8
WHITE
10
4.8149999999999995
20
-4.2997244094488192
40
0.0194999606299213
0
LINE
8
WHITE
6
CONTINUOUS
10
4.8543749606299214
20
-4.4237401574803146
11
4.8543749606299214
21
-4.4434251968503933
0
ARC
8
WHITE
10
4.8740600000000001
20
-4.4434251968503933
40
0.0196850393700787
50
180.00000000
51
360.00000000
0
LINE
8
WHITE
6
CONTINUOUS
10
4.8937450393700788
20
-4.4434251968503933
11
4.8937450393700788
21
-4.4237401574803146
0
ARC
8
WHITE
10
4.8740600000000001
20
-4.4237401574803146
40
0.0196850393700787
50
360.00000000
51
540.00000000
0
LINE
8
WHITE
6
CONTINUOUS
10
4.6870449606299216
20
-4.2150786614173228
11
4.6870449606299216
21
-4.2347637007874015
0
ARC
8
WHITE
10
4.7067300000000003
20
-4.2347637007874015
40
0.0196850393700787
50
180.00000000
51
360.00000000
0
LINE
8
WHITE
6
CONTINUOUS
10
4.726415039370079
20
-4.2347637007874015
11
4.726415039370079
21
-4.2150786614173228
0
ARC
8
WHITE
10
4.7067300000000003
20
-4.2150786614173228
40
0.0196850393700787
50
360.00000000
51
540.00000000
0
LINE
8
WHITE
6
CONTINUOUS
10
4.9035803543307086
20
-4.2150786614173228
11
4.9035803543307086
21
-4.2347637007874015
0
ARC
8
WHITE
10
4.9232653937007873
20
-4.2347637007874015
40
0.0196850393700787
50
180.00000000
51
360.00000000
0
LINE
8
WHITE
6
CONTINUOUS
10
4.942950433070866
20
-4.2347637007874015
11
4.942950433070866
21
-4.2150786614173228
0
ARC
8
WHITE
10
4.9232653937007873
20
-4.2150786614173228
40
0.0196850393700787
50
360.00000000
51
540.00000000
0
CIRCLE
8
WHITE
10
5.0999999999999996
20
-4.0149999999999997
40
0.0177165354330709
0
CIRCLE
8
WHITE
10
5.2000000000000002
20
-4.0149999999999997
40
0.0177165354330709
0
CIRCLE
8
WHITE
10
5.1048031496062993
20
-3.7199999999999998
40
0.0177165354330709
0
CIRCLE
8
WHITE
10
5.204803149606299
20
-3.7199999999999998
40
0.0177165354330709
0
CIRCLE
8
WHITE
10
2.3900000000000001
20
-4.6699999999999999
40
0.0629920866141732
0
CIRCLE
8
WHITE
10
4.2201968503937008
20
-3.4350000000000001
40
0.0196850393700787
0
CIRCLE
8
WHITE
10
4.1201968503937003
20
-3.4350000000000001
40
0.0196850393700787
0
CIRCLE
8
WHITE
10
3.7399999999999998
20
-1.895
40
0.0255
0
CIRCLE
8
WHITE
10
3.54
20
-1.895
40
0.0255
0
CIRCLE
8
WHITE
10
6.0649999999999995
20
-1.8200000000000001
40
0.0629920866141732
0
CIRCLE
8
WHITE
10
4.6499999999999995
20
-3.0875717716535434
40
0.0196850393700787
0
CIRCLE
8
WHITE
10
4.6499999999999995
20
-3.3828473622047244
40
0.0196850393700787
0
CIRCLE
8
WHITE
10
3.77
20
-3.0835717716535433
40
0.0196850393700787
0
CIRCLE
8
WHITE
10
3.77
20
-3.3788473622047244
40
0.0196850393700787
0
CIRCLE
8
WHITE
10
2.4121457086614173
20
-3.2084999999999999
40
0.0255
0
CIRCLE
8
WHITE
10
2.4121457086614173
20
-3.4085000000000001
40
0.0255
0
CIRCLE
8
WHITE
10
4.0899999999999999
20
-4.6950000000000003
40
0.0255905511811024
0
CIRCLE
8
WHITE
10
4.2400000000000002
20
-4.6950000000000003
40
0.0255905511811024
0
CIRCLE
8
WHITE
10
5.165
20
-2.0949999999999998
40
0.0334645669291339
0
CIRCLE
8
WHITE
10
5.5390157480314963
20
-1.845
40
0.0334645669291339
0
CIRCLE
8
WHITE
10
2.3900000000000001
20
-4.4180000000000001
40
0.0177165354330709
0
CIRCLE
8
WHITE
10
2.4899999999999998
20
-4.4180000000000001
40
0.0177165354330709
0
CIRCLE
8
WHITE
10
2.5899999999999999
20
-4.4180000000000001
40
0.0177165354330709
0
CIRCLE
8
WHITE
10
2.6899999999999999
20
-4.4180000000000001
40
0.0177165354330709
0
CIRCLE
8
WHITE
10
2.79
20
-4.4180000000000001
40
0.0177165354330709
0
CIRCLE
8
WHITE
10
2.8900000000000001
20
-4.4180000000000001
40
0.0177165354330709
0
CIRCLE
8
WHITE
10
2.9899999999999998
20
-4.4180000000000001
40
0.0177165354330709
0
CIRCLE
8
WHITE
10
3.0899999999999999
20
-4.4180000000000001
40
0.0177165354330709
0
CIRCLE
8
WHITE
10
3.1899999999999999
20
-4.4180000000000001
40
0.0177165354330709
0
CIRCLE
8
WHITE
10
3.29
20
-4.4180000000000001
40
0.0177165354330709
0
CIRCLE
8
WHITE
10
3.3900000000000001
20
-4.4180000000000001
40
0.0177165354330709
0
CIRCLE
8
WHITE
10
3.4899999999999998
20
-4.4180000000000001
40
0.0177165354330709
0
CIRCLE
8
WHITE
10
3.5899999999999999
20
-4.4180000000000001
40
0.0177165354330709
0
CIRCLE
8
WHITE
10
3.6899999999999999
20
-4.4180000000000001
40
0.0177165354330709
0
CIRCLE
8
WHITE
10
3.79
20
-4.4180000000000001
40
0.0177165354330709
0
CIRCLE
8
WHITE
10
3.8900000000000001
20
-4.4180000000000001
40
0.0177165354330709
0
CIRCLE
8
WHITE
10
3.9899999999999998
20
-4.4180000000000001
40
0.0177165354330709
0
CIRCLE
8
WHITE
10
4.0899999999999999
20
-4.4180000000000001
40
0.0177165354330709
0
CIRCLE
8
WHITE
10
4.1899999999999995
20
-4.4180000000000001
40
0.0177165354330709
0
CIRCLE
8
WHITE
10
4.29
20
-4.4180000000000001
40
0.0177165354330709
0
CIRCLE
8
WHITE
10
4.29
20
-3.722
40
0.0177165354330709
0
CIRCLE
8
WHITE
10
4.1899999999999995
20
-3.722
40
0.0177165354330709
0
CIRCLE
8
WHITE
10
4.0899999999999999
20
-3.722
40
0.0177165354330709
0
CIRCLE
8
WHITE
10
3.9899999999999998
20
-3.722
40
0.0177165354330709
0
CIRCLE
8
WHITE
10
3.8900000000000001
20
-3.722
40
0.0177165354330709
0
CIRCLE
8
WHITE
10
3.79
20
-3.722
40
0.0177165354330709
0
CIRCLE
8
WHITE
10
3.6899999999999999
20
-3.722
40
0.0177165354330709
0
CIRCLE
8
WHITE
10
3.5899999999999999
20
-3.722
40
0.0177165354330709
0
CIRCLE
8
WHITE
10
3.4899999999999998
20
-3.722
40
0.0177165354330709
0
CIRCLE
8
WHITE
10
3.3900000000000001
20
-3.722
40
0.0177165354330709
0
CIRCLE
8
WHITE
10
3.29
20
-3.722
40
0.0177165354330709
0
CIRCLE
8
WHITE
10
3.1899999999999999
20
-3.722
40
0.0177165354330709
0
CIRCLE
8
WHITE
10
3.0899999999999999
20
-3.722
40
0.0177165354330709
0
CIRCLE
8
WHITE
10
2.9899999999999998
20
-3.722
40
0.0177165354330709
0
CIRCLE
8
WHITE
10
2.8900000000000001
20
-3.722
40
0.0177165354330709
0
CIRCLE
8
WHITE
10
2.79
20
-3.722
40
0.0177165354330709
0
CIRCLE
8
WHITE
10
2.6899999999999999
20
-3.722
40
0.0177165354330709
0
CIRCLE
8
WHITE
10
2.5899999999999999
20
-3.722
40
0.0177165354330709
0
CIRCLE
8
WHITE
10
2.4899999999999998
20
-3.722
40
0.0177165354330709
0
CIRCLE
8
WHITE
10
2.3900000000000001
20
-3.722
40
0.0177165354330709
0
CIRCLE
8
WHITE
10
3.8649999999999998
20
-4.6449999999999996
40
0.0196850393700787
0
CIRCLE
8
WHITE
10
3.7650000000000001
20
-4.6449999999999996
40
0.0196850393700787
0
CIRCLE
8
WHITE
10
3.665
20
-4.6449999999999996
40
0.0196850393700787
0
CIRCLE
8
WHITE
10
3.5649999999999999
20
-4.6449999999999996
40
0.0196850393700787
0
CIRCLE
8
WHITE
10
3.4649999999999999
20
-4.6449999999999996
40
0.0196850393700787
0
CIRCLE
8
WHITE
10
3.3649999999999998
20
-4.6449999999999996
40
0.0196850393700787
0
CIRCLE
8
WHITE
10
3.2650000000000001
20
-4.6449999999999996
40
0.0196850393700787
0
CIRCLE
8
WHITE
10
3.165
20
-4.6449999999999996
40
0.0196850393700787
0
CIRCLE
8
WHITE
10
3.0649999999999999
20
-4.6449999999999996
40
0.0196850393700787
0
CIRCLE
8
WHITE
10
2.9649999999999999
20
-4.6449999999999996
40
0.0196850393700787
0
CIRCLE
8
WHITE
10
2.8649999999999998
20
-4.6449999999999996
40
0.0196850393700787
0
CIRCLE
8
WHITE
10
2.7650000000000001
20
-4.6449999999999996
40
0.0196850393700787
0
CIRCLE
8
WHITE
10
5.9399999999999995
20
-3.9950000000000001
40
0.0255905511811024
0
CIRCLE
8
WHITE
10
5.9399999999999995
20
-3.7949999999999999
40
0.0255905511811024
0
CIRCLE
8
WHITE
10
5.9399999999999995
20
-3.5949999999999998
40
0.0255905511811024
0
CIRCLE
8
WHITE
10
5.9399999999999995
20
-3.395
40
0.0255905511811024
0
CIRCLE
8
WHITE
10
5.5049999999999999
20
-4.0199999999999996
40
0.0177165354330709
0
CIRCLE
8
WHITE
10
5.6049999999999995
20
-4.0199999999999996
40
0.0177165354330709
0
CIRCLE
8
WHITE
10
5.6849999999999996
20
-4.3449999999999998
40
0.0255905511811024
0
CIRCLE
8
WHITE
10
5.8849999999999998
20
-4.3449999999999998
40
0.0255905511811024
0
CIRCLE
8
WHITE
10
6.085
20
-4.3449999999999998
40
0.0255905511811024
0
CIRCLE
8
WHITE
10
5.1150000000000002
20
-4.5956076771653542
40
0.0194999606299213
0
CIRCLE
8
WHITE
10
5.1150000000000002
20
-4.3003320866141728
40
0.0194999606299213
0
LINE
8
WHITE
6
CONTINUOUS
10
5.1543749606299212
20
-4.4243478346456691
11
5.1543749606299212
21
-4.4440328740157478
0
ARC
8
WHITE
10
5.1740599999999999
20
-4.4440328740157478
40
0.0196850393700787
50
180.00000000
51
360.00000000
0
LINE
8
WHITE
6
CONTINUOUS
10
5.1937450393700786
20
-4.4440328740157478
11
5.1937450393700786
21
-4.4243478346456691
0
ARC
8
WHITE
10
5.1740599999999999
20
-4.4243478346456691
40
0.0196850393700787
50
360.00000000
51
540.00000000
0
LINE
8
WHITE
6
CONTINUOUS
10
4.9870449606299214
20
-4.2156863385826773
11
4.9870449606299214
21
-4.235371377952756
0
ARC
8
WHITE
10
5.0067300000000001
20
-4.235371377952756
40
0.0196850393700787
50
180.00000000
51
360.00000000
0
LINE
8
WHITE
6
CONTINUOUS
10
5.0264150393700788
20
-4.235371377952756
11
5.0264150393700788
21
-4.2156863385826773
0
ARC
8
WHITE
10
5.0067300000000001
20
-4.2156863385826773
40
0.0196850393700787
50
360.00000000
51
540.00000000
0
LINE
8
WHITE
6
CONTINUOUS
10
5.2035803543307084
20
-4.2156863385826773
11
5.2035803543307084
21
-4.235371377952756
0
ARC
8
WHITE
10
5.2232653937007871
20
-4.235371377952756
40
0.0196850393700787
50
180.00000000
51
360.00000000
0
LINE
8
WHITE
6
CONTINUOUS
10
5.2429504330708658
20
-4.235371377952756
11
5.2429504330708658
21
-4.2156863385826773
0
ARC
8
WHITE
10
5.2232653937007871
20
-4.2156863385826773
40
0.0196850393700787
50
360.00000000
51
540.00000000
0
CIRCLE
8
WHITE
10
4.5489999999999995
20
-2.1955039763779527
40
0.0295275590551181
0
CIRCLE
8
WHITE
10
4.5489999999999995
20
-1.7955039763779528
40
0.0295275590551181
0
CIRCLE
8
WHITE
10
4.149
20
-2.1955039763779527
40
0.0295275590551181
0
CIRCLE
8
WHITE
10
4.149
20
-1.7955039763779528
40
0.0295275590551181
0
CIRCLE
8
WHITE
10
2.3900000000000001
20
-1.8200000000000001
40
0.0629920866141732
0
CIRCLE
8
WHITE
10
4.6399999999999997
20
-3.6999999999999997
40
0.0196850393700787
0
CIRCLE
8
WHITE
10
4.6399999999999997
20
-3.7999999999999998
40
0.0196850393700787
0
CIRCLE
8
WHITE
10
4.6399999999999997
20
-3.8999999999999999
40
0.0196850393700787
0
CIRCLE
8
WHITE
10
5.415
20
-4.5956076771653542
40
0.0194999606299213
0
CIRCLE
8
WHITE
10
5.415
20
-4.3003320866141728
40
0.0194999606299213
0
LINE
8
WHITE
6
CONTINUOUS
10
5.454374960629921
20
-4.4243478346456691
11
5.454374960629921
21
-4.4440328740157478
0
ARC
8
WHITE
10
5.4740599999999997
20
-4.4440328740157478
40
0.0196850393700787
50
180.00000000
51
360.00000000
0
LINE
8
WHITE
6
CONTINUOUS
10
5.4937450393700784
20
-4.4440328740157478
11
5.4937450393700784
21
-4.4243478346456691
0
ARC
8
WHITE
10
5.4740599999999997
20
-4.4243478346456691
40
0.0196850393700787
50
360.00000000
51
540.00000000
0
LINE
8
WHITE
6
CONTINUOUS
10
5.2870449606299212
20
-4.2156863385826773
11
5.2870449606299212
21
-4.235371377952756
0
ARC
8
WHITE
10
5.3067299999999999
20
-4.235371377952756
40
0.0196850393700787
50
180.00000000
51
360.00000000
0
LINE
8
WHITE
6
CONTINUOUS
10
5.3264150393700787
20
-4.235371377952756
11
5.3264150393700787
21
-4.2156863385826773
0
ARC
8
WHITE
10
5.3067299999999999
20
-4.2156863385826773
40
0.0196850393700787
50
360.00000000
51
540.00000000
0
LINE
8
WHITE
6
CONTINUOUS
10
5.5035803543307082
20
-4.2156863385826773
11
5.5035803543307082
21
-4.235371377952756
0
ARC
8
WHITE
10
5.523265393700787
20
-4.235371377952756
40
0.0196850393700787
50
180.00000000
51
360.00000000
0
LINE
8
WHITE
6
CONTINUOUS
10
5.5429504330708657
20
-4.235371377952756
11
5.5429504330708657
21
-4.2156863385826773
0
ARC
8
WHITE
10
5.523265393700787
20
-4.2156863385826773
40
0.0196850393700787
50
360.00000000
51
540.00000000
0
CIRCLE
8
WHITE
10
4.5149999999999997
20
-4.5949999999999998
40
0.0194999606299213
0
CIRCLE
8
WHITE
10
4.5149999999999997
20
-4.2997244094488192
40
0.0194999606299213
0
LINE
8
WHITE
6
CONTINUOUS
10
4.5543749606299215
20
-4.4237401574803146
11
4.5543749606299215
21
-4.4434251968503933
0
ARC
8
WHITE
10
4.5740600000000002
20
-4.4434251968503933
40
0.0196850393700787
50
180.00000000
51
360.00000000
0
LINE
8
WHITE
6
CONTINUOUS
10
4.5937450393700789
20
-4.4434251968503933
11
4.5937450393700789
21
-4.4237401574803146
0
ARC
8
WHITE
10
4.5740600000000002
20
-4.4237401574803146
40
0.0196850393700787
50
360.00000000
51
540.00000000
0
LINE
8
WHITE
6
CONTINUOUS
10
4.3870449606299209
20
-4.2150786614173228
11
4.3870449606299209
21
-4.2347637007874015
0
ARC
8
WHITE
10
4.4067299999999996
20
-4.2347637007874015
40
0.0196850393700787
50
180.00000000
51
360.00000000
0
LINE
8
WHITE
6
CONTINUOUS
10
4.4264150393700783
20
-4.2347637007874015
11
4.4264150393700783
21
-4.2150786614173228
0
ARC
8
WHITE
10
4.4067299999999996
20
-4.2150786614173228
40
0.0196850393700787
50
360.00000000
51
540.00000000
0
LINE
8
WHITE
6
CONTINUOUS
10
4.6035803543307088
20
-4.2150786614173228
11
4.6035803543307088
21
-4.2347637007874015
0
ARC
8
WHITE
10
4.6232653937007875
20
-4.2347637007874015
40
0.0196850393700787
50
180.00000000
51
360.00000000
0
LINE
8
WHITE
6
CONTINUOUS
10
4.6429504330708662
20
-4.2347637007874015
11
4.6429504330708662
21
-4.2150786614173228
0
ARC
8
WHITE
10
4.6232653937007875
20
-4.2150786614173228
40
0.0196850393700787
50
360.00000000
51
540.00000000
0
CIRCLE
8
WHITE
10
5.5049999999999999
20
-3.7250000000000001
40
0.0177165354330709
0
CIRCLE
8
WHITE
10
5.6049999999999995
20
-3.7250000000000001
40
0.0177165354330709
0
CIRCLE
8
WHITE
10
6.0649999999999995
20
-4.6699999999999999
40
0.0629920866141732
  0
ENDSEC
  0
EOF
