ISO-10303-21;
HEADER;
FILE_DESCRIPTION((''),'2;1');
FILE_NAME('C-63900-1','2014-01-27T',('workeradm'),('Tyco Electronics Ltd.'),
'PRO/ENGINEER BY PARAMETRIC TECHNOLOGY CORPORATION, 2013050',
'PRO/ENGINEER BY PARAMETRIC TECHNOLOGY CORPORATION, 2013050','');
FILE_SCHEMA(('AUTOMOTIVE_DESIGN { 1 0 10303 214 1 1 1 1 }'));
ENDSEC;
DATA;
#134=CARTESIAN_POINT('',(0.E0,-4.0005E-1,-4.5212E0));
#135=DIRECTION('',(0.E0,-1.E0,0.E0));
#136=DIRECTION('',(-1.E0,0.E0,0.E0));
#137=AXIS2_PLACEMENT_3D('',#134,#135,#136);
#139=CARTESIAN_POINT('',(0.E0,-4.0005E-1,-4.5212E0));
#140=DIRECTION('',(0.E0,-1.E0,0.E0));
#141=DIRECTION('',(1.E0,0.E0,0.E0));
#142=AXIS2_PLACEMENT_3D('',#139,#140,#141);
#144=DIRECTION('',(1.E0,0.E0,0.E0));
#145=VECTOR('',#144,6.096E0);
#146=CARTESIAN_POINT('',(-3.048E0,-4.0005E-1,-8.89E-1));
#147=LINE('',#146,#145);
#148=DIRECTION('',(-7.071067811865E-1,0.E0,7.071067811865E-1));
#149=VECTOR('',#148,1.796051224214E-1);
#150=CARTESIAN_POINT('',(3.175E0,-4.0005E-1,-1.016E0));
#151=LINE('',#150,#149);
#152=DIRECTION('',(0.E0,0.E0,1.E0));
#153=VECTOR('',#152,1.04648E1);
#154=CARTESIAN_POINT('',(3.175E0,-4.0005E-1,-1.14808E1));
#155=LINE('',#154,#153);
#156=DIRECTION('',(-1.E0,0.E0,0.E0));
#157=VECTOR('',#156,3.81E-1);
#158=CARTESIAN_POINT('',(3.556E0,-4.0005E-1,-1.14808E1));
#159=LINE('',#158,#157);
#160=DIRECTION('',(0.E0,0.E0,1.E0));
#161=VECTOR('',#160,1.143E0);
#162=CARTESIAN_POINT('',(3.556E0,-4.0005E-1,-1.26238E1));
#163=LINE('',#162,#161);
#164=DIRECTION('',(1.E0,0.E0,0.E0));
#165=VECTOR('',#164,4.318E-1);
#166=CARTESIAN_POINT('',(3.1242E0,-4.0005E-1,-1.26238E1));
#167=LINE('',#166,#165);
#168=DIRECTION('',(0.E0,0.E0,1.E0));
#169=VECTOR('',#168,3.175E0);
#170=CARTESIAN_POINT('',(3.1242E0,-4.0005E-1,-1.57988E1));
#171=LINE('',#170,#169);
#172=DIRECTION('',(1.E0,0.E0,0.E0));
#173=VECTOR('',#172,1.3716E0);
#174=CARTESIAN_POINT('',(1.7526E0,-4.0005E-1,-1.57988E1));
#175=LINE('',#174,#173);
#176=DIRECTION('',(0.E0,0.E0,-1.E0));
#177=VECTOR('',#176,3.175E0);
#178=CARTESIAN_POINT('',(1.7526E0,-4.0005E-1,-1.26238E1));
#179=LINE('',#178,#177);
#180=DIRECTION('',(1.E0,0.E0,0.E0));
#181=VECTOR('',#180,3.7084E0);
#182=CARTESIAN_POINT('',(-1.9558E0,-4.0005E-1,-1.26238E1));
#183=LINE('',#182,#181);
#184=DIRECTION('',(0.E0,0.E0,1.E0));
#185=VECTOR('',#184,3.175E0);
#186=CARTESIAN_POINT('',(-1.9558E0,-4.0005E-1,-1.57988E1));
#187=LINE('',#186,#185);
#188=DIRECTION('',(1.E0,0.E0,0.E0));
#189=VECTOR('',#188,1.1684E0);
#190=CARTESIAN_POINT('',(-3.1242E0,-4.0005E-1,-1.57988E1));
#191=LINE('',#190,#189);
#192=DIRECTION('',(0.E0,0.E0,1.E0));
#193=VECTOR('',#192,3.175E0);
#194=CARTESIAN_POINT('',(-3.1242E0,-4.0005E-1,-1.57988E1));
#195=LINE('',#194,#193);
#196=DIRECTION('',(-1.E0,0.E0,0.E0));
#197=VECTOR('',#196,4.318E-1);
#198=CARTESIAN_POINT('',(-3.1242E0,-4.0005E-1,-1.26238E1));
#199=LINE('',#198,#197);
#200=DIRECTION('',(0.E0,0.E0,1.E0));
#201=VECTOR('',#200,1.143E0);
#202=CARTESIAN_POINT('',(-3.556E0,-4.0005E-1,-1.26238E1));
#203=LINE('',#202,#201);
#204=DIRECTION('',(1.E0,0.E0,0.E0));
#205=VECTOR('',#204,3.81E-1);
#206=CARTESIAN_POINT('',(-3.556E0,-4.0005E-1,-1.14808E1));
#207=LINE('',#206,#205);
#208=DIRECTION('',(0.E0,0.E0,-1.E0));
#209=VECTOR('',#208,1.04648E1);
#210=CARTESIAN_POINT('',(-3.175E0,-4.0005E-1,-1.016E0));
#211=LINE('',#210,#209);
#212=DIRECTION('',(-7.071067811865E-1,0.E0,-7.071067811865E-1));
#213=VECTOR('',#212,1.796051224214E-1);
#214=CARTESIAN_POINT('',(-3.048E0,-4.0005E-1,-8.89E-1));
#215=LINE('',#214,#213);
#216=DIRECTION('',(0.E0,-1.E0,0.E0));
#217=VECTOR('',#216,8.001E-1);
#218=CARTESIAN_POINT('',(8.5725E-1,4.0005E-1,-4.5212E0));
#219=LINE('',#218,#217);
#220=DIRECTION('',(0.E0,-1.E0,0.E0));
#221=VECTOR('',#220,8.001E-1);
#222=CARTESIAN_POINT('',(-8.5725E-1,4.0005E-1,-4.5212E0));
#223=LINE('',#222,#221);
#224=CARTESIAN_POINT('',(0.E0,4.0005E-1,-4.5212E0));
#225=DIRECTION('',(0.E0,-1.E0,0.E0));
#226=DIRECTION('',(-1.E0,0.E0,0.E0));
#227=AXIS2_PLACEMENT_3D('',#224,#225,#226);
#229=CARTESIAN_POINT('',(0.E0,4.0005E-1,-4.5212E0));
#230=DIRECTION('',(0.E0,-1.E0,0.E0));
#231=DIRECTION('',(1.E0,0.E0,0.E0));
#232=AXIS2_PLACEMENT_3D('',#229,#230,#231);
#234=DIRECTION('',(1.E0,0.E0,0.E0));
#235=VECTOR('',#234,6.096E0);
#236=CARTESIAN_POINT('',(-3.048E0,4.0005E-1,-8.89E-1));
#237=LINE('',#236,#235);
#238=DIRECTION('',(-7.071067811865E-1,0.E0,-7.071067811865E-1));
#239=VECTOR('',#238,1.796051224214E-1);
#240=CARTESIAN_POINT('',(-3.048E0,4.0005E-1,-8.89E-1));
#241=LINE('',#240,#239);
#242=DIRECTION('',(0.E0,0.E0,-1.E0));
#243=VECTOR('',#242,1.04648E1);
#244=CARTESIAN_POINT('',(-3.175E0,4.0005E-1,-1.016E0));
#245=LINE('',#244,#243);
#246=DIRECTION('',(1.E0,0.E0,0.E0));
#247=VECTOR('',#246,3.81E-1);
#248=CARTESIAN_POINT('',(-3.556E0,4.0005E-1,-1.14808E1));
#249=LINE('',#248,#247);
#250=DIRECTION('',(0.E0,0.E0,1.E0));
#251=VECTOR('',#250,1.143E0);
#252=CARTESIAN_POINT('',(-3.556E0,4.0005E-1,-1.26238E1));
#253=LINE('',#252,#251);
#254=DIRECTION('',(-1.E0,0.E0,0.E0));
#255=VECTOR('',#254,4.318E-1);
#256=CARTESIAN_POINT('',(-3.1242E0,4.0005E-1,-1.26238E1));
#257=LINE('',#256,#255);
#258=DIRECTION('',(0.E0,0.E0,1.E0));
#259=VECTOR('',#258,3.175E0);
#260=CARTESIAN_POINT('',(-3.1242E0,4.0005E-1,-1.57988E1));
#261=LINE('',#260,#259);
#262=DIRECTION('',(1.E0,0.E0,0.E0));
#263=VECTOR('',#262,1.1684E0);
#264=CARTESIAN_POINT('',(-3.1242E0,4.0005E-1,-1.57988E1));
#265=LINE('',#264,#263);
#266=DIRECTION('',(0.E0,0.E0,1.E0));
#267=VECTOR('',#266,3.175E0);
#268=CARTESIAN_POINT('',(-1.9558E0,4.0005E-1,-1.57988E1));
#269=LINE('',#268,#267);
#270=DIRECTION('',(1.E0,0.E0,0.E0));
#271=VECTOR('',#270,3.7084E0);
#272=CARTESIAN_POINT('',(-1.9558E0,4.0005E-1,-1.26238E1));
#273=LINE('',#272,#271);
#274=DIRECTION('',(0.E0,0.E0,-1.E0));
#275=VECTOR('',#274,3.175E0);
#276=CARTESIAN_POINT('',(1.7526E0,4.0005E-1,-1.26238E1));
#277=LINE('',#276,#275);
#278=DIRECTION('',(1.E0,0.E0,0.E0));
#279=VECTOR('',#278,1.3716E0);
#280=CARTESIAN_POINT('',(1.7526E0,4.0005E-1,-1.57988E1));
#281=LINE('',#280,#279);
#282=DIRECTION('',(0.E0,0.E0,1.E0));
#283=VECTOR('',#282,3.175E0);
#284=CARTESIAN_POINT('',(3.1242E0,4.0005E-1,-1.57988E1));
#285=LINE('',#284,#283);
#286=DIRECTION('',(1.E0,0.E0,0.E0));
#287=VECTOR('',#286,4.318E-1);
#288=CARTESIAN_POINT('',(3.1242E0,4.0005E-1,-1.26238E1));
#289=LINE('',#288,#287);
#290=DIRECTION('',(0.E0,0.E0,1.E0));
#291=VECTOR('',#290,1.143E0);
#292=CARTESIAN_POINT('',(3.556E0,4.0005E-1,-1.26238E1));
#293=LINE('',#292,#291);
#294=DIRECTION('',(-1.E0,0.E0,0.E0));
#295=VECTOR('',#294,3.81E-1);
#296=CARTESIAN_POINT('',(3.556E0,4.0005E-1,-1.14808E1));
#297=LINE('',#296,#295);
#298=DIRECTION('',(0.E0,0.E0,1.E0));
#299=VECTOR('',#298,1.04648E1);
#300=CARTESIAN_POINT('',(3.175E0,4.0005E-1,-1.14808E1));
#301=LINE('',#300,#299);
#302=DIRECTION('',(-7.071067811865E-1,0.E0,7.071067811865E-1));
#303=VECTOR('',#302,1.796051224214E-1);
#304=CARTESIAN_POINT('',(3.175E0,4.0005E-1,-1.016E0));
#305=LINE('',#304,#303);
#306=DIRECTION('',(7.016738431599E-1,-1.237240302065E-1,-7.016738431599E-1));
#307=VECTOR('',#306,1.266970414625E0);
#308=CARTESIAN_POINT('',(2.159E0,-2.432953141502E-1,0.E0));
#309=LINE('',#308,#307);
#310=DIRECTION('',(7.016738431599E-1,1.237240302065E-1,-7.016738431599E-1));
#311=VECTOR('',#310,1.266970414625E0);
#312=CARTESIAN_POINT('',(2.159E0,2.432953141502E-1,0.E0));
#313=LINE('',#312,#311);
#314=DIRECTION('',(0.E0,1.E0,0.E0));
#315=VECTOR('',#314,8.001E-1);
#316=CARTESIAN_POINT('',(3.175E0,-4.0005E-1,-1.016E0));
#317=LINE('',#316,#315);
#318=DIRECTION('',(-7.016738431599E-1,-1.237240302065E-1,-7.016738431599E-1));
#319=VECTOR('',#318,1.266970414625E0);
#320=CARTESIAN_POINT('',(-2.159E0,-2.432953141502E-1,0.E0));
#321=LINE('',#320,#319);
#322=DIRECTION('',(-7.016738431599E-1,1.237240302065E-1,-7.016738431599E-1));
#323=VECTOR('',#322,1.266970414625E0);
#324=CARTESIAN_POINT('',(-2.159E0,2.432953141502E-1,0.E0));
#325=LINE('',#324,#323);
#326=DIRECTION('',(0.E0,1.E0,0.E0));
#327=VECTOR('',#326,4.865906283003E-1);
#328=CARTESIAN_POINT('',(-2.159E0,-2.432953141502E-1,0.E0));
#329=LINE('',#328,#327);
#330=DIRECTION('',(0.E0,1.E0,0.E0));
#331=VECTOR('',#330,8.001E-1);
#332=CARTESIAN_POINT('',(-3.175E0,-4.0005E-1,-1.016E0));
#333=LINE('',#332,#331);
#334=DIRECTION('',(0.E0,1.E0,0.E0));
#335=VECTOR('',#334,8.001E-1);
#336=CARTESIAN_POINT('',(-3.175E0,-4.0005E-1,-1.14808E1));
#337=LINE('',#336,#335);
#338=DIRECTION('',(0.E0,-1.E0,0.E0));
#339=VECTOR('',#338,8.001E-1);
#340=CARTESIAN_POINT('',(-3.556E0,4.0005E-1,-1.14808E1));
#341=LINE('',#340,#339);
#342=DIRECTION('',(0.E0,-1.E0,0.E0));
#343=VECTOR('',#342,8.001E-1);
#344=CARTESIAN_POINT('',(-3.556E0,4.0005E-1,-1.26238E1));
#345=LINE('',#344,#343);
#346=DIRECTION('',(0.E0,-1.E0,0.E0));
#347=VECTOR('',#346,8.001E-1);
#348=CARTESIAN_POINT('',(-3.1242E0,4.0005E-1,-1.26238E1));
#349=LINE('',#348,#347);
#350=DIRECTION('',(0.E0,1.E0,0.E0));
#351=VECTOR('',#350,8.001E-1);
#352=CARTESIAN_POINT('',(-3.1242E0,-4.0005E-1,-1.57988E1));
#353=LINE('',#352,#351);
#354=DIRECTION('',(0.E0,1.E0,0.E0));
#355=VECTOR('',#354,8.001E-1);
#356=CARTESIAN_POINT('',(-1.9558E0,-4.0005E-1,-1.57988E1));
#357=LINE('',#356,#355);
#358=DIRECTION('',(0.E0,1.E0,0.E0));
#359=VECTOR('',#358,8.001E-1);
#360=CARTESIAN_POINT('',(-1.9558E0,-4.0005E-1,-1.26238E1));
#361=LINE('',#360,#359);
#362=DIRECTION('',(0.E0,1.E0,0.E0));
#363=VECTOR('',#362,8.001E-1);
#364=CARTESIAN_POINT('',(1.7526E0,-4.0005E-1,-1.26238E1));
#365=LINE('',#364,#363);
#366=DIRECTION('',(0.E0,1.E0,0.E0));
#367=VECTOR('',#366,8.001E-1);
#368=CARTESIAN_POINT('',(1.7526E0,-4.0005E-1,-1.57988E1));
#369=LINE('',#368,#367);
#370=DIRECTION('',(0.E0,1.E0,0.E0));
#371=VECTOR('',#370,8.001E-1);
#372=CARTESIAN_POINT('',(3.1242E0,-4.0005E-1,-1.57988E1));
#373=LINE('',#372,#371);
#374=DIRECTION('',(0.E0,1.E0,0.E0));
#375=VECTOR('',#374,8.001E-1);
#376=CARTESIAN_POINT('',(3.1242E0,-4.0005E-1,-1.26238E1));
#377=LINE('',#376,#375);
#378=DIRECTION('',(0.E0,1.E0,0.E0));
#379=VECTOR('',#378,8.001E-1);
#380=CARTESIAN_POINT('',(3.556E0,-4.0005E-1,-1.26238E1));
#381=LINE('',#380,#379);
#382=DIRECTION('',(0.E0,1.E0,0.E0));
#383=VECTOR('',#382,8.001E-1);
#384=CARTESIAN_POINT('',(3.556E0,-4.0005E-1,-1.14808E1));
#385=LINE('',#384,#383);
#386=DIRECTION('',(0.E0,1.E0,0.E0));
#387=VECTOR('',#386,8.001E-1);
#388=CARTESIAN_POINT('',(3.175E0,-4.0005E-1,-1.14808E1));
#389=LINE('',#388,#387);
#390=DIRECTION('',(-1.E0,0.E0,0.E0));
#391=VECTOR('',#390,4.318E0);
#392=CARTESIAN_POINT('',(2.159E0,-2.432953141502E-1,0.E0));
#393=LINE('',#392,#391);
#394=DIRECTION('',(-1.E0,0.E0,0.E0));
#395=VECTOR('',#394,4.318E0);
#396=CARTESIAN_POINT('',(2.159E0,2.432953141502E-1,0.E0));
#397=LINE('',#396,#395);
#398=DIRECTION('',(0.E0,1.E0,0.E0));
#399=VECTOR('',#398,4.865906283003E-1);
#400=CARTESIAN_POINT('',(2.159E0,-2.432953141502E-1,0.E0));
#401=LINE('',#400,#399);
#402=CARTESIAN_POINT('',(-8.5725E-1,-4.0005E-1,-4.5212E0));
#403=CARTESIAN_POINT('',(8.5725E-1,-4.0005E-1,-4.5212E0));
#404=VERTEX_POINT('',#402);
#405=VERTEX_POINT('',#403);
#406=CARTESIAN_POINT('',(-3.556E0,-4.0005E-1,-1.14808E1));
#407=CARTESIAN_POINT('',(-3.175E0,-4.0005E-1,-1.14808E1));
#408=VERTEX_POINT('',#406);
#409=VERTEX_POINT('',#407);
#410=CARTESIAN_POINT('',(-3.556E0,-4.0005E-1,-1.26238E1));
#411=VERTEX_POINT('',#410);
#412=CARTESIAN_POINT('',(-3.1242E0,-4.0005E-1,-1.26238E1));
#413=VERTEX_POINT('',#412);
#414=CARTESIAN_POINT('',(-3.1242E0,-4.0005E-1,-1.57988E1));
#415=VERTEX_POINT('',#414);
#416=CARTESIAN_POINT('',(-8.5725E-1,4.0005E-1,-4.5212E0));
#417=CARTESIAN_POINT('',(8.5725E-1,4.0005E-1,-4.5212E0));
#418=VERTEX_POINT('',#416);
#419=VERTEX_POINT('',#417);
#420=CARTESIAN_POINT('',(-3.556E0,4.0005E-1,-1.14808E1));
#421=CARTESIAN_POINT('',(-3.175E0,4.0005E-1,-1.14808E1));
#422=VERTEX_POINT('',#420);
#423=VERTEX_POINT('',#421);
#424=CARTESIAN_POINT('',(-3.556E0,4.0005E-1,-1.26238E1));
#425=VERTEX_POINT('',#424);
#426=CARTESIAN_POINT('',(-3.1242E0,4.0005E-1,-1.26238E1));
#427=VERTEX_POINT('',#426);
#428=CARTESIAN_POINT('',(-3.1242E0,4.0005E-1,-1.57988E1));
#429=VERTEX_POINT('',#428);
#430=CARTESIAN_POINT('',(-3.175E0,-4.0005E-1,-1.016E0));
#431=VERTEX_POINT('',#430);
#432=CARTESIAN_POINT('',(-3.175E0,4.0005E-1,-1.016E0));
#433=VERTEX_POINT('',#432);
#434=CARTESIAN_POINT('',(-3.048E0,-4.0005E-1,-8.89E-1));
#435=CARTESIAN_POINT('',(3.048E0,-4.0005E-1,-8.89E-1));
#436=VERTEX_POINT('',#434);
#437=VERTEX_POINT('',#435);
#438=CARTESIAN_POINT('',(-3.048E0,4.0005E-1,-8.89E-1));
#439=CARTESIAN_POINT('',(3.048E0,4.0005E-1,-8.89E-1));
#440=VERTEX_POINT('',#438);
#441=VERTEX_POINT('',#439);
#442=CARTESIAN_POINT('',(-2.159E0,-2.432953141502E-1,0.E0));
#443=VERTEX_POINT('',#442);
#444=CARTESIAN_POINT('',(-2.159E0,2.432953141502E-1,0.E0));
#445=VERTEX_POINT('',#444);
#446=CARTESIAN_POINT('',(2.159E0,-2.432953141502E-1,0.E0));
#447=VERTEX_POINT('',#446);
#448=CARTESIAN_POINT('',(2.159E0,2.432953141502E-1,0.E0));
#449=VERTEX_POINT('',#448);
#450=CARTESIAN_POINT('',(-1.9558E0,-4.0005E-1,-1.57988E1));
#451=VERTEX_POINT('',#450);
#452=CARTESIAN_POINT('',(-1.9558E0,-4.0005E-1,-1.26238E1));
#453=VERTEX_POINT('',#452);
#454=CARTESIAN_POINT('',(1.7526E0,-4.0005E-1,-1.26238E1));
#455=VERTEX_POINT('',#454);
#456=CARTESIAN_POINT('',(1.7526E0,-4.0005E-1,-1.57988E1));
#457=VERTEX_POINT('',#456);
#458=CARTESIAN_POINT('',(3.1242E0,-4.0005E-1,-1.57988E1));
#459=VERTEX_POINT('',#458);
#460=CARTESIAN_POINT('',(3.1242E0,-4.0005E-1,-1.26238E1));
#461=VERTEX_POINT('',#460);
#462=CARTESIAN_POINT('',(3.556E0,-4.0005E-1,-1.26238E1));
#463=VERTEX_POINT('',#462);
#464=CARTESIAN_POINT('',(3.556E0,-4.0005E-1,-1.14808E1));
#465=VERTEX_POINT('',#464);
#466=CARTESIAN_POINT('',(3.175E0,-4.0005E-1,-1.14808E1));
#467=VERTEX_POINT('',#466);
#468=CARTESIAN_POINT('',(3.175E0,-4.0005E-1,-1.016E0));
#469=VERTEX_POINT('',#468);
#470=CARTESIAN_POINT('',(-1.9558E0,4.0005E-1,-1.57988E1));
#471=VERTEX_POINT('',#470);
#472=CARTESIAN_POINT('',(-1.9558E0,4.0005E-1,-1.26238E1));
#473=VERTEX_POINT('',#472);
#474=CARTESIAN_POINT('',(1.7526E0,4.0005E-1,-1.26238E1));
#475=VERTEX_POINT('',#474);
#476=CARTESIAN_POINT('',(1.7526E0,4.0005E-1,-1.57988E1));
#477=VERTEX_POINT('',#476);
#478=CARTESIAN_POINT('',(3.1242E0,4.0005E-1,-1.57988E1));
#479=VERTEX_POINT('',#478);
#480=CARTESIAN_POINT('',(3.1242E0,4.0005E-1,-1.26238E1));
#481=VERTEX_POINT('',#480);
#482=CARTESIAN_POINT('',(3.556E0,4.0005E-1,-1.26238E1));
#483=VERTEX_POINT('',#482);
#484=CARTESIAN_POINT('',(3.556E0,4.0005E-1,-1.14808E1));
#485=VERTEX_POINT('',#484);
#486=CARTESIAN_POINT('',(3.175E0,4.0005E-1,-1.14808E1));
#487=VERTEX_POINT('',#486);
#488=CARTESIAN_POINT('',(3.175E0,4.0005E-1,-1.016E0));
#489=VERTEX_POINT('',#488);
#490=CARTESIAN_POINT('',(0.E0,-4.0005E-1,0.E0));
#491=DIRECTION('',(0.E0,-1.E0,0.E0));
#492=DIRECTION('',(1.E0,0.E0,0.E0));
#493=AXIS2_PLACEMENT_3D('',#490,#491,#492);
#494=PLANE('',#493);
#496=ORIENTED_EDGE('',*,*,#495,.T.);
#498=ORIENTED_EDGE('',*,*,#497,.F.);
#500=ORIENTED_EDGE('',*,*,#499,.F.);
#502=ORIENTED_EDGE('',*,*,#501,.F.);
#504=ORIENTED_EDGE('',*,*,#503,.F.);
#506=ORIENTED_EDGE('',*,*,#505,.F.);
#508=ORIENTED_EDGE('',*,*,#507,.F.);
#510=ORIENTED_EDGE('',*,*,#509,.F.);
#512=ORIENTED_EDGE('',*,*,#511,.F.);
#514=ORIENTED_EDGE('',*,*,#513,.F.);
#516=ORIENTED_EDGE('',*,*,#515,.F.);
#518=ORIENTED_EDGE('',*,*,#517,.F.);
#520=ORIENTED_EDGE('',*,*,#519,.T.);
#522=ORIENTED_EDGE('',*,*,#521,.T.);
#524=ORIENTED_EDGE('',*,*,#523,.T.);
#526=ORIENTED_EDGE('',*,*,#525,.T.);
#528=ORIENTED_EDGE('',*,*,#527,.F.);
#530=ORIENTED_EDGE('',*,*,#529,.F.);
#531=EDGE_LOOP('',(#496,#498,#500,#502,#504,#506,#508,#510,#512,#514,#516,#518,
#520,#522,#524,#526,#528,#530));
#532=FACE_OUTER_BOUND('',#531,.F.);
#534=ORIENTED_EDGE('',*,*,#533,.T.);
#536=ORIENTED_EDGE('',*,*,#535,.T.);
#537=EDGE_LOOP('',(#534,#536));
#538=FACE_BOUND('',#537,.F.);
#540=CARTESIAN_POINT('',(0.E0,-4.0005E-1,-4.5212E0));
#541=DIRECTION('',(0.E0,-1.E0,0.E0));
#542=DIRECTION('',(1.E0,0.E0,0.E0));
#543=AXIS2_PLACEMENT_3D('',#540,#541,#542);
#544=CYLINDRICAL_SURFACE('',#543,8.5725E-1);
#545=ORIENTED_EDGE('',*,*,#533,.F.);
#547=ORIENTED_EDGE('',*,*,#546,.F.);
#549=ORIENTED_EDGE('',*,*,#548,.T.);
#551=ORIENTED_EDGE('',*,*,#550,.T.);
#552=EDGE_LOOP('',(#545,#547,#549,#551));
#553=FACE_OUTER_BOUND('',#552,.F.);
#555=CARTESIAN_POINT('',(0.E0,-4.0005E-1,-4.5212E0));
#556=DIRECTION('',(0.E0,-1.E0,0.E0));
#557=DIRECTION('',(1.E0,0.E0,0.E0));
#558=AXIS2_PLACEMENT_3D('',#555,#556,#557);
#559=CYLINDRICAL_SURFACE('',#558,8.5725E-1);
#560=ORIENTED_EDGE('',*,*,#535,.F.);
#561=ORIENTED_EDGE('',*,*,#550,.F.);
#563=ORIENTED_EDGE('',*,*,#562,.T.);
#564=ORIENTED_EDGE('',*,*,#546,.T.);
#565=EDGE_LOOP('',(#560,#561,#563,#564));
#566=FACE_OUTER_BOUND('',#565,.F.);
#568=CARTESIAN_POINT('',(0.E0,4.0005E-1,0.E0));
#569=DIRECTION('',(0.E0,-1.E0,0.E0));
#570=DIRECTION('',(1.E0,0.E0,0.E0));
#571=AXIS2_PLACEMENT_3D('',#568,#569,#570);
#572=PLANE('',#571);
#574=ORIENTED_EDGE('',*,*,#573,.F.);
#576=ORIENTED_EDGE('',*,*,#575,.T.);
#578=ORIENTED_EDGE('',*,*,#577,.T.);
#580=ORIENTED_EDGE('',*,*,#579,.F.);
#582=ORIENTED_EDGE('',*,*,#581,.F.);
#584=ORIENTED_EDGE('',*,*,#583,.F.);
#586=ORIENTED_EDGE('',*,*,#585,.F.);
#588=ORIENTED_EDGE('',*,*,#587,.T.);
#590=ORIENTED_EDGE('',*,*,#589,.T.);
#592=ORIENTED_EDGE('',*,*,#591,.T.);
#594=ORIENTED_EDGE('',*,*,#593,.T.);
#596=ORIENTED_EDGE('',*,*,#595,.T.);
#598=ORIENTED_EDGE('',*,*,#597,.T.);
#600=ORIENTED_EDGE('',*,*,#599,.T.);
#602=ORIENTED_EDGE('',*,*,#601,.T.);
#604=ORIENTED_EDGE('',*,*,#603,.T.);
#606=ORIENTED_EDGE('',*,*,#605,.T.);
#608=ORIENTED_EDGE('',*,*,#607,.T.);
#609=EDGE_LOOP('',(#574,#576,#578,#580,#582,#584,#586,#588,#590,#592,#594,#596,
#598,#600,#602,#604,#606,#608));
#610=FACE_OUTER_BOUND('',#609,.F.);
#611=ORIENTED_EDGE('',*,*,#548,.F.);
#612=ORIENTED_EDGE('',*,*,#562,.F.);
#613=EDGE_LOOP('',(#611,#612));
#614=FACE_BOUND('',#613,.F.);
#616=CARTESIAN_POINT('',(-4.2672E0,2.432953141502E-1,0.E0));
#617=DIRECTION('',(0.E0,-9.848077530122E-1,-1.736481776669E-1));
#618=DIRECTION('',(0.E0,1.736481776669E-1,-9.848077530122E-1));
#619=AXIS2_PLACEMENT_3D('',#616,#617,#618);
#620=PLANE('',#619);
#622=ORIENTED_EDGE('',*,*,#621,.F.);
#624=ORIENTED_EDGE('',*,*,#623,.T.);
#626=ORIENTED_EDGE('',*,*,#625,.T.);
#627=ORIENTED_EDGE('',*,*,#573,.T.);
#628=EDGE_LOOP('',(#622,#624,#626,#627));
#629=FACE_OUTER_BOUND('',#628,.F.);
#631=CARTESIAN_POINT('',(3.175E0,-4.0005E-1,-1.016E0));
#632=DIRECTION('',(7.071067811865E-1,0.E0,7.071067811865E-1));
#633=DIRECTION('',(-7.071067811865E-1,0.E0,7.071067811865E-1));
#634=AXIS2_PLACEMENT_3D('',#631,#632,#633);
#635=PLANE('',#634);
#637=ORIENTED_EDGE('',*,*,#636,.F.);
#639=ORIENTED_EDGE('',*,*,#638,.T.);
#640=ORIENTED_EDGE('',*,*,#621,.T.);
#641=ORIENTED_EDGE('',*,*,#607,.F.);
#643=ORIENTED_EDGE('',*,*,#642,.F.);
#644=ORIENTED_EDGE('',*,*,#497,.T.);
#645=EDGE_LOOP('',(#637,#639,#640,#641,#643,#644));
#646=FACE_OUTER_BOUND('',#645,.F.);
#648=CARTESIAN_POINT('',(-4.2672E0,-4.0005E-1,-8.89E-1));
#649=DIRECTION('',(0.E0,9.848077530122E-1,-1.736481776669E-1));
#650=DIRECTION('',(0.E0,1.736481776669E-1,9.848077530122E-1));
#651=AXIS2_PLACEMENT_3D('',#648,#649,#650);
#652=PLANE('',#651);
#654=ORIENTED_EDGE('',*,*,#653,.F.);
#656=ORIENTED_EDGE('',*,*,#655,.F.);
#657=ORIENTED_EDGE('',*,*,#636,.T.);
#658=ORIENTED_EDGE('',*,*,#495,.F.);
#659=EDGE_LOOP('',(#654,#656,#657,#658));
#660=FACE_OUTER_BOUND('',#659,.F.);
#662=CARTESIAN_POINT('',(-2.159E0,-4.0005E-1,0.E0));
#663=DIRECTION('',(-7.071067811865E-1,0.E0,7.071067811865E-1));
#664=DIRECTION('',(-7.071067811865E-1,0.E0,-7.071067811865E-1));
#665=AXIS2_PLACEMENT_3D('',#662,#663,#664);
#666=PLANE('',#665);
#667=ORIENTED_EDGE('',*,*,#653,.T.);
#668=ORIENTED_EDGE('',*,*,#529,.T.);
#670=ORIENTED_EDGE('',*,*,#669,.T.);
#671=ORIENTED_EDGE('',*,*,#575,.F.);
#672=ORIENTED_EDGE('',*,*,#625,.F.);
#674=ORIENTED_EDGE('',*,*,#673,.F.);
#675=EDGE_LOOP('',(#667,#668,#670,#671,#672,#674));
#676=FACE_OUTER_BOUND('',#675,.F.);
#678=CARTESIAN_POINT('',(-3.175E0,-4.0005E-1,-1.016E0));
#679=DIRECTION('',(-1.E0,0.E0,0.E0));
#680=DIRECTION('',(0.E0,0.E0,-1.E0));
#681=AXIS2_PLACEMENT_3D('',#678,#679,#680);
#682=PLANE('',#681);
#683=ORIENTED_EDGE('',*,*,#527,.T.);
#685=ORIENTED_EDGE('',*,*,#684,.T.);
#686=ORIENTED_EDGE('',*,*,#577,.F.);
#687=ORIENTED_EDGE('',*,*,#669,.F.);
#688=EDGE_LOOP('',(#683,#685,#686,#687));
#689=FACE_OUTER_BOUND('',#688,.F.);
#691=CARTESIAN_POINT('',(-3.175E0,-4.0005E-1,-1.14808E1));
#692=DIRECTION('',(0.E0,0.E0,1.E0));
#693=DIRECTION('',(-1.E0,0.E0,0.E0));
#694=AXIS2_PLACEMENT_3D('',#691,#692,#693);
#695=PLANE('',#694);
#696=ORIENTED_EDGE('',*,*,#525,.F.);
#698=ORIENTED_EDGE('',*,*,#697,.F.);
#699=ORIENTED_EDGE('',*,*,#579,.T.);
#700=ORIENTED_EDGE('',*,*,#684,.F.);
#701=EDGE_LOOP('',(#696,#698,#699,#700));
#702=FACE_OUTER_BOUND('',#701,.F.);
#704=CARTESIAN_POINT('',(-3.556E0,-4.0005E-1,-1.14808E1));
#705=DIRECTION('',(-1.E0,0.E0,0.E0));
#706=DIRECTION('',(0.E0,0.E0,-1.E0));
#707=AXIS2_PLACEMENT_3D('',#704,#705,#706);
#708=PLANE('',#707);
#709=ORIENTED_EDGE('',*,*,#523,.F.);
#711=ORIENTED_EDGE('',*,*,#710,.F.);
#712=ORIENTED_EDGE('',*,*,#581,.T.);
#713=ORIENTED_EDGE('',*,*,#697,.T.);
#714=EDGE_LOOP('',(#709,#711,#712,#713));
#715=FACE_OUTER_BOUND('',#714,.F.);
#717=CARTESIAN_POINT('',(-3.556E0,-4.0005E-1,-1.26238E1));
#718=DIRECTION('',(0.E0,0.E0,-1.E0));
#719=DIRECTION('',(1.E0,0.E0,0.E0));
#720=AXIS2_PLACEMENT_3D('',#717,#718,#719);
#721=PLANE('',#720);
#722=ORIENTED_EDGE('',*,*,#521,.F.);
#724=ORIENTED_EDGE('',*,*,#723,.F.);
#725=ORIENTED_EDGE('',*,*,#583,.T.);
#726=ORIENTED_EDGE('',*,*,#710,.T.);
#727=EDGE_LOOP('',(#722,#724,#725,#726));
#728=FACE_OUTER_BOUND('',#727,.F.);
#730=CARTESIAN_POINT('',(-3.1242E0,-4.0005E-1,-1.26238E1));
#731=DIRECTION('',(-1.E0,0.E0,0.E0));
#732=DIRECTION('',(0.E0,0.E0,-1.E0));
#733=AXIS2_PLACEMENT_3D('',#730,#731,#732);
#734=PLANE('',#733);
#735=ORIENTED_EDGE('',*,*,#519,.F.);
#737=ORIENTED_EDGE('',*,*,#736,.T.);
#738=ORIENTED_EDGE('',*,*,#585,.T.);
#739=ORIENTED_EDGE('',*,*,#723,.T.);
#740=EDGE_LOOP('',(#735,#737,#738,#739));
#741=FACE_OUTER_BOUND('',#740,.F.);
#743=CARTESIAN_POINT('',(-3.1242E0,-4.0005E-1,-1.57988E1));
#744=DIRECTION('',(0.E0,0.E0,-1.E0));
#745=DIRECTION('',(1.E0,0.E0,0.E0));
#746=AXIS2_PLACEMENT_3D('',#743,#744,#745);
#747=PLANE('',#746);
#748=ORIENTED_EDGE('',*,*,#517,.T.);
#750=ORIENTED_EDGE('',*,*,#749,.T.);
#751=ORIENTED_EDGE('',*,*,#587,.F.);
#752=ORIENTED_EDGE('',*,*,#736,.F.);
#753=EDGE_LOOP('',(#748,#750,#751,#752));
#754=FACE_OUTER_BOUND('',#753,.F.);
#756=CARTESIAN_POINT('',(-1.9558E0,-4.0005E-1,-1.57988E1));
#757=DIRECTION('',(1.E0,0.E0,0.E0));
#758=DIRECTION('',(0.E0,0.E0,1.E0));
#759=AXIS2_PLACEMENT_3D('',#756,#757,#758);
#760=PLANE('',#759);
#761=ORIENTED_EDGE('',*,*,#515,.T.);
#763=ORIENTED_EDGE('',*,*,#762,.T.);
#764=ORIENTED_EDGE('',*,*,#589,.F.);
#765=ORIENTED_EDGE('',*,*,#749,.F.);
#766=EDGE_LOOP('',(#761,#763,#764,#765));
#767=FACE_OUTER_BOUND('',#766,.F.);
#769=CARTESIAN_POINT('',(-1.9558E0,-4.0005E-1,-1.26238E1));
#770=DIRECTION('',(0.E0,0.E0,-1.E0));
#771=DIRECTION('',(1.E0,0.E0,0.E0));
#772=AXIS2_PLACEMENT_3D('',#769,#770,#771);
#773=PLANE('',#772);
#774=ORIENTED_EDGE('',*,*,#513,.T.);
#776=ORIENTED_EDGE('',*,*,#775,.T.);
#777=ORIENTED_EDGE('',*,*,#591,.F.);
#778=ORIENTED_EDGE('',*,*,#762,.F.);
#779=EDGE_LOOP('',(#774,#776,#777,#778));
#780=FACE_OUTER_BOUND('',#779,.F.);
#782=CARTESIAN_POINT('',(1.7526E0,-4.0005E-1,-1.26238E1));
#783=DIRECTION('',(-1.E0,0.E0,0.E0));
#784=DIRECTION('',(0.E0,0.E0,-1.E0));
#785=AXIS2_PLACEMENT_3D('',#782,#783,#784);
#786=PLANE('',#785);
#787=ORIENTED_EDGE('',*,*,#511,.T.);
#789=ORIENTED_EDGE('',*,*,#788,.T.);
#790=ORIENTED_EDGE('',*,*,#593,.F.);
#791=ORIENTED_EDGE('',*,*,#775,.F.);
#792=EDGE_LOOP('',(#787,#789,#790,#791));
#793=FACE_OUTER_BOUND('',#792,.F.);
#795=CARTESIAN_POINT('',(1.7526E0,-4.0005E-1,-1.57988E1));
#796=DIRECTION('',(0.E0,0.E0,-1.E0));
#797=DIRECTION('',(1.E0,0.E0,0.E0));
#798=AXIS2_PLACEMENT_3D('',#795,#796,#797);
#799=PLANE('',#798);
#800=ORIENTED_EDGE('',*,*,#509,.T.);
#802=ORIENTED_EDGE('',*,*,#801,.T.);
#803=ORIENTED_EDGE('',*,*,#595,.F.);
#804=ORIENTED_EDGE('',*,*,#788,.F.);
#805=EDGE_LOOP('',(#800,#802,#803,#804));
#806=FACE_OUTER_BOUND('',#805,.F.);
#808=CARTESIAN_POINT('',(3.1242E0,-4.0005E-1,-1.57988E1));
#809=DIRECTION('',(1.E0,0.E0,0.E0));
#810=DIRECTION('',(0.E0,0.E0,1.E0));
#811=AXIS2_PLACEMENT_3D('',#808,#809,#810);
#812=PLANE('',#811);
#813=ORIENTED_EDGE('',*,*,#507,.T.);
#815=ORIENTED_EDGE('',*,*,#814,.T.);
#816=ORIENTED_EDGE('',*,*,#597,.F.);
#817=ORIENTED_EDGE('',*,*,#801,.F.);
#818=EDGE_LOOP('',(#813,#815,#816,#817));
#819=FACE_OUTER_BOUND('',#818,.F.);
#821=CARTESIAN_POINT('',(3.1242E0,-4.0005E-1,-1.26238E1));
#822=DIRECTION('',(0.E0,0.E0,-1.E0));
#823=DIRECTION('',(1.E0,0.E0,0.E0));
#824=AXIS2_PLACEMENT_3D('',#821,#822,#823);
#825=PLANE('',#824);
#826=ORIENTED_EDGE('',*,*,#505,.T.);
#828=ORIENTED_EDGE('',*,*,#827,.T.);
#829=ORIENTED_EDGE('',*,*,#599,.F.);
#830=ORIENTED_EDGE('',*,*,#814,.F.);
#831=EDGE_LOOP('',(#826,#828,#829,#830));
#832=FACE_OUTER_BOUND('',#831,.F.);
#834=CARTESIAN_POINT('',(3.556E0,-4.0005E-1,-1.26238E1));
#835=DIRECTION('',(1.E0,0.E0,0.E0));
#836=DIRECTION('',(0.E0,0.E0,1.E0));
#837=AXIS2_PLACEMENT_3D('',#834,#835,#836);
#838=PLANE('',#837);
#839=ORIENTED_EDGE('',*,*,#503,.T.);
#841=ORIENTED_EDGE('',*,*,#840,.T.);
#842=ORIENTED_EDGE('',*,*,#601,.F.);
#843=ORIENTED_EDGE('',*,*,#827,.F.);
#844=EDGE_LOOP('',(#839,#841,#842,#843));
#845=FACE_OUTER_BOUND('',#844,.F.);
#847=CARTESIAN_POINT('',(3.556E0,-4.0005E-1,-1.14808E1));
#848=DIRECTION('',(0.E0,0.E0,1.E0));
#849=DIRECTION('',(-1.E0,0.E0,0.E0));
#850=AXIS2_PLACEMENT_3D('',#847,#848,#849);
#851=PLANE('',#850);
#852=ORIENTED_EDGE('',*,*,#501,.T.);
#854=ORIENTED_EDGE('',*,*,#853,.T.);
#855=ORIENTED_EDGE('',*,*,#603,.F.);
#856=ORIENTED_EDGE('',*,*,#840,.F.);
#857=EDGE_LOOP('',(#852,#854,#855,#856));
#858=FACE_OUTER_BOUND('',#857,.F.);
#860=CARTESIAN_POINT('',(3.175E0,-4.0005E-1,-1.14808E1));
#861=DIRECTION('',(1.E0,0.E0,0.E0));
#862=DIRECTION('',(0.E0,0.E0,1.E0));
#863=AXIS2_PLACEMENT_3D('',#860,#861,#862);
#864=PLANE('',#863);
#865=ORIENTED_EDGE('',*,*,#499,.T.);
#866=ORIENTED_EDGE('',*,*,#642,.T.);
#867=ORIENTED_EDGE('',*,*,#605,.F.);
#868=ORIENTED_EDGE('',*,*,#853,.F.);
#869=EDGE_LOOP('',(#865,#866,#867,#868));
#870=FACE_OUTER_BOUND('',#869,.F.);
#872=CARTESIAN_POINT('',(2.159E0,-4.0005E-1,0.E0));
#873=DIRECTION('',(0.E0,0.E0,1.E0));
#874=DIRECTION('',(-1.E0,0.E0,0.E0));
#875=AXIS2_PLACEMENT_3D('',#872,#873,#874);
#876=PLANE('',#875);
#877=ORIENTED_EDGE('',*,*,#655,.T.);
#878=ORIENTED_EDGE('',*,*,#673,.T.);
#879=ORIENTED_EDGE('',*,*,#623,.F.);
#880=ORIENTED_EDGE('',*,*,#638,.F.);
#881=EDGE_LOOP('',(#877,#878,#879,#880));
#882=FACE_OUTER_BOUND('',#881,.F.);
#884=CLOSED_SHELL('',(#539,#554,#567,#615,#630,#647,#661,#677,#690,#703,#716,
#729,#742,#755,#768,#781,#794,#807,#820,#833,#846,#859,#871,#883));
#885=MANIFOLD_SOLID_BREP('',#884);
#888=PLANE_ANGLE_MEASURE_WITH_UNIT(PLANE_ANGLE_MEASURE(1.745329251994E-2),#887);
#889=(CONVERSION_BASED_UNIT('DEGREE',#888)NAMED_UNIT(*)PLANE_ANGLE_UNIT());
#891=UNCERTAINTY_MEASURE_WITH_UNIT(LENGTH_MEASURE(1.877687021795E-3),#886,
'distance_accuracy_value',
'Maximum model space distance between geometric entities at asserted connectivities');
#894=APPLICATION_CONTEXT('automotive_design');
#895=APPLICATION_PROTOCOL_DEFINITION('international standard',
'automotive_design',2001,#894);
#896=PRODUCT_DEFINITION_CONTEXT('part definition',#894,'design');
#897=PRODUCT_CONTEXT('',#894,'mechanical');
#898=PRODUCT('C-63900-1','C-63900-1','NOT SPECIFIED',(#897));
#899=PRODUCT_DEFINITION_FORMATION('1','LAST_VERSION',#898);
#907=DERIVED_UNIT_ELEMENT(#906,2.E0);
#908=DERIVED_UNIT((#907));
#909=MEASURE_REPRESENTATION_ITEM('surface area measure',AREA_MEASURE(
2.150059104935E2),#908);
#914=DERIVED_UNIT_ELEMENT(#913,3.E0);
#915=DERIVED_UNIT((#914));
#916=MEASURE_REPRESENTATION_ITEM('volume measure',VOLUME_MEASURE(
6.792877326463E1),#915);
#920=CARTESIAN_POINT('centre point',(1.409002068192E-2,0.E0,-7.302876981750E0));
#925=DERIVED_UNIT_ELEMENT(#924,2.E0);
#926=DERIVED_UNIT((#925));
#927=MEASURE_REPRESENTATION_ITEM('surface area measure',AREA_MEASURE(
2.150059104935E2),#926);
#932=DERIVED_UNIT_ELEMENT(#931,3.E0);
#933=DERIVED_UNIT((#932));
#934=MEASURE_REPRESENTATION_ITEM('volume measure',VOLUME_MEASURE(
6.792877326463E1),#933);
#938=CARTESIAN_POINT('centre point',(1.409002068192E-2,0.E0,-7.302876981750E0));
#943=PRODUCT_RELATED_PRODUCT_CATEGORY('part','',(#898));
#1=DRAUGHTING_PRE_DEFINED_COLOUR('black');
#2=COLOUR_RGB('',0.E0,0.E0,3.6E-1);
#3=COLOUR_RGB('',0.E0,0.E0,4.8E-1);
#4=DRAUGHTING_PRE_DEFINED_COLOUR('blue');
#5=COLOUR_RGB('',0.E0,5.8824E-2,4.58824E-1);
#6=COLOUR_RGB('',0.E0,1.80392E-1,4.78431E-1);
#7=COLOUR_RGB('',0.E0,3.6E-1,9.E-2);
#8=COLOUR_RGB('',0.E0,3.6E-1,2.7E-1);
#9=COLOUR_RGB('',0.E0,5.6E-1,6.4E-1);
#10=COLOUR_RGB('',0.E0,5.8E-1,8.E-1);
#11=COLOUR_RGB('',0.E0,7.1E-1,6.6E-1);
#12=COLOUR_RGB('',0.E0,7.13E-1,0.E0);
#13=COLOUR_RGB('',0.E0,9.5E-1,8.4E-1);
#14=DRAUGHTING_PRE_DEFINED_COLOUR('green');
#15=DRAUGHTING_PRE_DEFINED_COLOUR('cyan');
#16=COLOUR_RGB('',1.1765E-2,1.9608E-2,3.9216E-2);
#17=COLOUR_RGB('',4.E-2,0.E0,1.6E-1);
#18=COLOUR_RGB('',3.9216E-2,2.19608E-1,1.21569E-1);
#19=COLOUR_RGB('',3.9216E-2,3.60784E-1,2.E-1);
#20=COLOUR_RGB('',5.098E-2,7.0588E-2,1.01961E-1);
#21=COLOUR_RGB('',9.E-2,0.E0,1.2E-1);
#22=COLOUR_RGB('',9.0196E-2,1.60784E-1,1.09804E-1);
#23=COLOUR_RGB('',9.0196E-2,3.80392E-1,6.70588E-1);
#24=COLOUR_RGB('',1.E-1,0.E0,2.5E-1);
#25=COLOUR_RGB('',1.01961E-1,4.78431E-1,3.88235E-1);
#26=COLOUR_RGB('',1.09804E-1,1.4902E-1,9.0196E-2);
#27=COLOUR_RGB('',1.4902E-1,3.09804E-1,5.29412E-1);
#28=COLOUR_RGB('',1.4902E-1,4.E-1,1.60784E-1);
#29=COLOUR_RGB('',1.6E-1,3.2E-2,0.E0);
#30=COLOUR_RGB('',1.60784E-1,4.5098E-1,7.21569E-1);
#31=COLOUR_RGB('',1.6E-1,4.6E-1,6.5E-1);
#32=COLOUR_RGB('',1.6E-1,1.E0,1.6E-1);
#33=COLOUR_RGB('',2.E-1,3.2E-2,0.E0);
#34=COLOUR_RGB('',2.11765E-1,4.11765E-1,1.4902E-1);
#35=COLOUR_RGB('',2.39216E-1,2.39216E-1,2.31373E-1);
#36=COLOUR_RGB('',2.39216E-1,2.70588E-1,1.80392E-1);
#37=COLOUR_RGB('',2.5098E-1,2.90196E-1,3.29412E-1);
#38=COLOUR_RGB('',2.90196E-1,4.31373E-1,2.E-1);
#39=COLOUR_RGB('',3.1E-1,3.1E-1,5.6E-1);
#40=COLOUR_RGB('',3.09804E-1,6.58824E-1,2.E-1);
#41=COLOUR_RGB('',3.2E-1,1.5E-1,0.E0);
#42=COLOUR_RGB('',3.60784E-1,3.1373E-2,1.68627E-1);
#43=COLOUR_RGB('',3.68627E-1,2.E-1,1.21569E-1);
#44=COLOUR_RGB('',3.88235E-1,2.39216E-1,6.11765E-1);
#45=COLOUR_RGB('',4.E-1,4.E-1,4.E-1);
#46=COLOUR_RGB('',4.11765E-1,5.8824E-2,7.8431E-2);
#47=COLOUR_RGB('',4.11765E-1,3.29412E-1,2.19608E-1);
#48=COLOUR_RGB('',4.2E-1,4.2E-1,1.E0);
#49=COLOUR_RGB('',4.4E-1,8.5E-1,1.E0);
#50=COLOUR_RGB('',4.58824E-1,4.5098E-1,3.09804E-1);
#51=COLOUR_RGB('',4.70588E-1,5.09804E-1,5.4902E-1);
#52=COLOUR_RGB('',4.78431E-1,4.90196E-1,4.58824E-1);
#53=COLOUR_RGB('',4.90196E-1,3.60784E-1,2.19608E-1);
#54=COLOUR_RGB('',4.9E-1,4.9E-1,0.E0);
#55=COLOUR_RGB('',4.9E-1,1.E0,0.E0);
#56=COLOUR_RGB('',5.E-1,0.E0,0.E0);
#57=COLOUR_RGB('',5.E-1,0.E0,2.3E-1);
#58=COLOUR_RGB('',5.E-1,5.E-1,5.E-1);
#59=COLOUR_RGB('',5.21569E-1,2.19608E-1,1.68627E-1);
#60=COLOUR_RGB('',5.3E-1,0.E0,0.E0);
#61=COLOUR_RGB('',5.29412E-1,5.80392E-1,6.5098E-1);
#62=COLOUR_RGB('',5.4E-1,0.E0,4.4E-1);
#63=COLOUR_RGB('',5.5E-1,3.E-1,0.E0);
#64=COLOUR_RGB('',5.6E-1,1.E-1,5.E-2);
#65=COLOUR_RGB('',5.60784E-1,5.80392E-1,6.19608E-1);
#66=COLOUR_RGB('',5.68627E-1,5.8824E-2,4.E-1);
#67=COLOUR_RGB('',5.8E-1,2.2E-1,1.E-2);
#68=COLOUR_RGB('',5.88235E-1,1.21569E-1,1.09804E-1);
#69=COLOUR_RGB('',6.E-1,6.E-1,6.E-1);
#70=COLOUR_RGB('',6.11765E-1,5.60784E-1,3.80392E-1);
#71=COLOUR_RGB('',6.11765E-1,6.11765E-1,6.5098E-1);
#72=COLOUR_RGB('',6.2E-1,0.E0,5.5E-1);
#73=COLOUR_RGB('',6.19608E-1,6.39216E-1,6.90196E-1);
#74=COLOUR_RGB('',6.4E-1,0.E0,2.5E-1);
#75=COLOUR_RGB('',6.4E-1,1.E-2,0.E0);
#76=COLOUR_RGB('',6.39216E-1,5.4902E-1,4.78431E-1);
#77=COLOUR_RGB('',6.5098E-1,6.70588E-1,7.09804E-1);
#78=COLOUR_RGB('',6.70588E-1,1.21569E-1,1.09804E-1);
#79=COLOUR_RGB('',6.78431E-1,4.78431E-1,3.09804E-1);
#80=COLOUR_RGB('',6.8E-1,7.5E-1,1.E0);
#81=COLOUR_RGB('',6.952E-1,7.426E-1,7.9E-1);
#82=COLOUR_RGB('',7.09804E-1,7.0588E-2,2.E-1);
#83=COLOUR_RGB('',7.1E-1,3.1E-1,0.E0);
#84=COLOUR_RGB('',7.2E-1,7.2E-1,7.2E-1);
#85=COLOUR_RGB('',7.29412E-1,7.41176E-1,7.29412E-1);
#86=COLOUR_RGB('',7.41176E-1,7.29412E-1,6.70588E-1);
#87=COLOUR_RGB('',7.4E-1,1.E0,2.6E-1);
#88=COLOUR_RGB('',7.5E-1,3.E-2,0.E0);
#89=COLOUR_RGB('',7.4902E-1,8.90196E-1,7.29412E-1);
#90=COLOUR_RGB('',7.6E-1,0.E0,4.7E-1);
#91=COLOUR_RGB('',7.80392E-1,9.0196E-2,7.0588E-2);
#92=COLOUR_RGB('',7.88235E-1,2.19608E-1,5.4902E-1);
#93=COLOUR_RGB('',8.1E-1,4.E-2,0.E0);
#94=COLOUR_RGB('',8.1E-1,6.1E-1,0.E0);
#95=COLOUR_RGB('',8.2E-1,4.E-2,6.6E-1);
#96=COLOUR_RGB('',8.31373E-1,8.5098E-1,8.58824E-1);
#97=COLOUR_RGB('',8.5098E-1,7.29412E-1,5.4902E-1);
#98=COLOUR_RGB('',8.5E-1,8.5E-1,8.5E-1);
#99=COLOUR_RGB('',8.78431E-1,3.68627E-1,1.21569E-1);
#100=COLOUR_RGB('',8.784E-1,9.49E-1,1.E0);
#101=COLOUR_RGB('',8.90196E-1,5.88235E-1,1.41176E-1);
#102=COLOUR_RGB('',9.E-1,1.E0,0.E0);
#103=COLOUR_RGB('',9.09804E-1,6.11765E-1,7.09804E-1);
#104=COLOUR_RGB('',9.37E-1,7.85E-1,0.E0);
#105=COLOUR_RGB('',9.41176E-1,9.29412E-1,9.01961E-1);
#106=COLOUR_RGB('',9.5E-1,2.2E-1,8.1E-1);
#107=COLOUR_RGB('',9.6E-1,3.7E-1,3.E-1);
#108=COLOUR_RGB('',9.6E-1,7.1E-1,3.75E-1);
#109=COLOUR_RGB('',9.80392E-1,1.E0,1.E0);
#110=COLOUR_RGB('',9.88235E-1,1.09804E-1,7.8431E-2);
#111=COLOUR_RGB('',9.88235E-1,7.21569E-1,1.29412E-1);
#112=COLOUR_RGB('',9.88235E-1,9.21569E-1,8.E-1);
#113=DRAUGHTING_PRE_DEFINED_COLOUR('red');
#114=COLOUR_RGB('',1.E0,0.E0,6.1E-1);
#115=COLOUR_RGB('',1.E0,4.E-2,0.E0);
#116=COLOUR_RGB('',1.E0,2.3E-1,0.E0);
#117=COLOUR_RGB('',1.E0,3.5E-1,5.2E-1);
#118=COLOUR_RGB('',1.E0,3.6E-1,0.E0);
#119=COLOUR_RGB('',1.E0,3.88235E-1,2.11765E-1);
#120=COLOUR_RGB('',1.E0,4.9E-1,3.7E-1);
#121=COLOUR_RGB('',1.E0,5.E-1,0.E0);
#122=COLOUR_RGB('',1.E0,5.6E-1,7.8E-1);
#123=COLOUR_RGB('',1.E0,6.4E-1,4.9E-1);
#124=COLOUR_RGB('',1.E0,6.7E-1,0.E0);
#125=COLOUR_RGB('',1.E0,7.6E-1,6.5E-1);
#126=COLOUR_RGB('',1.E0,8.39216E-1,3.01961E-1);
#127=COLOUR_RGB('',1.E0,8.6E-1,4.E-2);
#128=COLOUR_RGB('',1.E0,9.60784E-1,2.58824E-1);
#129=COLOUR_RGB('',1.E0,9.60784E-1,8.90196E-1);
#130=COLOUR_RGB('',1.E0,9.8E-1,7.2E-1);
#131=DRAUGHTING_PRE_DEFINED_COLOUR('yellow');
#132=COLOUR_RGB('',1.E0,1.E0,3.9216E-2);
#133=DRAUGHTING_PRE_DEFINED_COLOUR('white');
#138=CIRCLE('',#137,8.5725E-1);
#143=CIRCLE('',#142,8.5725E-1);
#228=CIRCLE('',#227,8.5725E-1);
#233=CIRCLE('',#232,8.5725E-1);
#495=EDGE_CURVE('',#436,#437,#147,.T.);
#497=EDGE_CURVE('',#469,#437,#151,.T.);
#499=EDGE_CURVE('',#467,#469,#155,.T.);
#501=EDGE_CURVE('',#465,#467,#159,.T.);
#503=EDGE_CURVE('',#463,#465,#163,.T.);
#505=EDGE_CURVE('',#461,#463,#167,.T.);
#507=EDGE_CURVE('',#459,#461,#171,.T.);
#509=EDGE_CURVE('',#457,#459,#175,.T.);
#511=EDGE_CURVE('',#455,#457,#179,.T.);
#513=EDGE_CURVE('',#453,#455,#183,.T.);
#515=EDGE_CURVE('',#451,#453,#187,.T.);
#517=EDGE_CURVE('',#415,#451,#191,.T.);
#519=EDGE_CURVE('',#415,#413,#195,.T.);
#521=EDGE_CURVE('',#413,#411,#199,.T.);
#523=EDGE_CURVE('',#411,#408,#203,.T.);
#525=EDGE_CURVE('',#408,#409,#207,.T.);
#527=EDGE_CURVE('',#431,#409,#211,.T.);
#529=EDGE_CURVE('',#436,#431,#215,.T.);
#533=EDGE_CURVE('',#404,#405,#138,.T.);
#535=EDGE_CURVE('',#405,#404,#143,.T.);
#539=ADVANCED_FACE('',(#532,#538),#494,.T.);
#546=EDGE_CURVE('',#418,#404,#223,.T.);
#548=EDGE_CURVE('',#418,#419,#228,.T.);
#550=EDGE_CURVE('',#419,#405,#219,.T.);
#554=ADVANCED_FACE('',(#553),#544,.F.);
#562=EDGE_CURVE('',#419,#418,#233,.T.);
#567=ADVANCED_FACE('',(#566),#559,.F.);
#573=EDGE_CURVE('',#440,#441,#237,.T.);
#575=EDGE_CURVE('',#440,#433,#241,.T.);
#577=EDGE_CURVE('',#433,#423,#245,.T.);
#579=EDGE_CURVE('',#422,#423,#249,.T.);
#581=EDGE_CURVE('',#425,#422,#253,.T.);
#583=EDGE_CURVE('',#427,#425,#257,.T.);
#585=EDGE_CURVE('',#429,#427,#261,.T.);
#587=EDGE_CURVE('',#429,#471,#265,.T.);
#589=EDGE_CURVE('',#471,#473,#269,.T.);
#591=EDGE_CURVE('',#473,#475,#273,.T.);
#593=EDGE_CURVE('',#475,#477,#277,.T.);
#595=EDGE_CURVE('',#477,#479,#281,.T.);
#597=EDGE_CURVE('',#479,#481,#285,.T.);
#599=EDGE_CURVE('',#481,#483,#289,.T.);
#601=EDGE_CURVE('',#483,#485,#293,.T.);
#603=EDGE_CURVE('',#485,#487,#297,.T.);
#605=EDGE_CURVE('',#487,#489,#301,.T.);
#607=EDGE_CURVE('',#489,#441,#305,.T.);
#615=ADVANCED_FACE('',(#610,#614),#572,.F.);
#621=EDGE_CURVE('',#449,#441,#313,.T.);
#623=EDGE_CURVE('',#449,#445,#397,.T.);
#625=EDGE_CURVE('',#445,#440,#325,.T.);
#630=ADVANCED_FACE('',(#629),#620,.F.);
#636=EDGE_CURVE('',#447,#437,#309,.T.);
#638=EDGE_CURVE('',#447,#449,#401,.T.);
#642=EDGE_CURVE('',#469,#489,#317,.T.);
#647=ADVANCED_FACE('',(#646),#635,.T.);
#653=EDGE_CURVE('',#443,#436,#321,.T.);
#655=EDGE_CURVE('',#447,#443,#393,.T.);
#661=ADVANCED_FACE('',(#660),#652,.F.);
#669=EDGE_CURVE('',#431,#433,#333,.T.);
#673=EDGE_CURVE('',#443,#445,#329,.T.);
#677=ADVANCED_FACE('',(#676),#666,.T.);
#684=EDGE_CURVE('',#409,#423,#337,.T.);
#690=ADVANCED_FACE('',(#689),#682,.T.);
#697=EDGE_CURVE('',#422,#408,#341,.T.);
#703=ADVANCED_FACE('',(#702),#695,.T.);
#710=EDGE_CURVE('',#425,#411,#345,.T.);
#716=ADVANCED_FACE('',(#715),#708,.T.);
#723=EDGE_CURVE('',#427,#413,#349,.T.);
#729=ADVANCED_FACE('',(#728),#721,.T.);
#736=EDGE_CURVE('',#415,#429,#353,.T.);
#742=ADVANCED_FACE('',(#741),#734,.T.);
#749=EDGE_CURVE('',#451,#471,#357,.T.);
#755=ADVANCED_FACE('',(#754),#747,.T.);
#762=EDGE_CURVE('',#453,#473,#361,.T.);
#768=ADVANCED_FACE('',(#767),#760,.T.);
#775=EDGE_CURVE('',#455,#475,#365,.T.);
#781=ADVANCED_FACE('',(#780),#773,.T.);
#788=EDGE_CURVE('',#457,#477,#369,.T.);
#794=ADVANCED_FACE('',(#793),#786,.T.);
#801=EDGE_CURVE('',#459,#479,#373,.T.);
#807=ADVANCED_FACE('',(#806),#799,.T.);
#814=EDGE_CURVE('',#461,#481,#377,.T.);
#820=ADVANCED_FACE('',(#819),#812,.T.);
#827=EDGE_CURVE('',#463,#483,#381,.T.);
#833=ADVANCED_FACE('',(#832),#825,.T.);
#840=EDGE_CURVE('',#465,#485,#385,.T.);
#846=ADVANCED_FACE('',(#845),#838,.T.);
#853=EDGE_CURVE('',#467,#487,#389,.T.);
#859=ADVANCED_FACE('',(#858),#851,.T.);
#871=ADVANCED_FACE('',(#870),#864,.T.);
#883=ADVANCED_FACE('',(#882),#876,.T.);
#886=(LENGTH_UNIT()NAMED_UNIT(*)SI_UNIT(.MILLI.,.METRE.));
#887=(NAMED_UNIT(*)PLANE_ANGLE_UNIT()SI_UNIT($,.RADIAN.));
#890=(NAMED_UNIT(*)SI_UNIT($,.STERADIAN.)SOLID_ANGLE_UNIT());
#892=(GEOMETRIC_REPRESENTATION_CONTEXT(3)GLOBAL_UNCERTAINTY_ASSIGNED_CONTEXT((
#891))GLOBAL_UNIT_ASSIGNED_CONTEXT((#886,#889,#890))REPRESENTATION_CONTEXT
('ID1','3'));
#893=ADVANCED_BREP_SHAPE_REPRESENTATION('',(#885),#892);
#900=PRODUCT_DEFINITION('part definition','',#899,#896);
#901=PRODUCT_DEFINITION_SHAPE('','SHAPE FOR C-63900-1.',#900);
#902=SHAPE_ASPECT('','solid data associated with C-63900-1',#901,.F.);
#903=PROPERTY_DEFINITION('',
'shape for solid data with which properties are associated',#902);
#904=SHAPE_REPRESENTATION('',(#885),#892);
#905=SHAPE_DEFINITION_REPRESENTATION(#903,#904);
#906=(LENGTH_UNIT()NAMED_UNIT(*)SI_UNIT(.MILLI.,.METRE.));
#910=PROPERTY_DEFINITION('geometric validation property','area of C-63900-1',
#902);
#911=REPRESENTATION('surface area',(#909),#892);
#912=PROPERTY_DEFINITION_REPRESENTATION(#910,#911);
#913=(LENGTH_UNIT()NAMED_UNIT(*)SI_UNIT(.MILLI.,.METRE.));
#917=PROPERTY_DEFINITION('geometric validation property','volume of C-63900-1',
#902);
#918=REPRESENTATION('volume',(#916),#892);
#919=PROPERTY_DEFINITION_REPRESENTATION(#917,#918);
#921=PROPERTY_DEFINITION('geometric validation property',
'centroid of C-63900-1',#902);
#922=REPRESENTATION('centroid',(#920),#892);
#923=PROPERTY_DEFINITION_REPRESENTATION(#921,#922);
#924=(LENGTH_UNIT()NAMED_UNIT(*)SI_UNIT(.MILLI.,.METRE.));
#928=PROPERTY_DEFINITION('geometric validation property','area of C-63900-1',
#901);
#929=REPRESENTATION('surface area',(#927),#892);
#930=PROPERTY_DEFINITION_REPRESENTATION(#928,#929);
#931=(LENGTH_UNIT()NAMED_UNIT(*)SI_UNIT(.MILLI.,.METRE.));
#935=PROPERTY_DEFINITION('geometric validation property','volume of C-63900-1',
#901);
#936=REPRESENTATION('volume',(#934),#892);
#937=PROPERTY_DEFINITION_REPRESENTATION(#935,#936);
#939=PROPERTY_DEFINITION('geometric validation property',
'centroid of C-63900-1',#901);
#940=REPRESENTATION('centroid',(#938),#892);
#941=PROPERTY_DEFINITION_REPRESENTATION(#939,#940);
#942=SHAPE_DEFINITION_REPRESENTATION(#901,#893);
ENDSEC;
END-ISO-10303-21;
