ISO-10303-21;
HEADER;
/* Generated by software containing ST-Developer
 * from STEP Tools, Inc. (www.steptools.com) 
 */
/* OPTION: strings as raw bytes, not using required /X/ escapes */

FILE_DESCRIPTION(
/* description */ ('Unknown'),
/* implementation_level */ '2;1');

FILE_NAME(
/* name */ 'ASJ-200-B-HT',
/* time_stamp */ '2024-06-27T14:55:07+02:00',
/* author */ ('Unknown'),
/* organization */ ('Unknown'),
/* preprocessor_version */ 'ST-DEVELOPER v18.102',
/* originating_system */ 'Solid Edge',
/* authorisation */ 'Unknown');

FILE_SCHEMA (('AUTOMOTIVE_DESIGN {1 0 10303 214 3 1 1}'));
ENDSEC;

DATA;
#10=PROPERTY_DEFINITION_REPRESENTATION(#14,#12);
#11=PROPERTY_DEFINITION_REPRESENTATION(#15,#13);
#12=REPRESENTATION('',(#16),#2380);
#13=REPRESENTATION('',(#17),#2380);
#14=PROPERTY_DEFINITION('pmi validation property','',#2385);
#15=PROPERTY_DEFINITION('pmi validation property','',#2385);
#16=VALUE_REPRESENTATION_ITEM('number of annotations',COUNT_MEASURE(0.));
#17=VALUE_REPRESENTATION_ITEM('number of views',COUNT_MEASURE(0.));
#18=SHAPE_REPRESENTATION_RELATIONSHIP('','',#1630,#19);
#19=ADVANCED_BREP_SHAPE_REPRESENTATION('',(#1628),#2380);
#20=CONICAL_SURFACE('',#1649,2.5,0.785398163397449);
#21=CONICAL_SURFACE('',#1661,0.7,0.785398163397448);
#22=CONICAL_SURFACE('',#1662,0.7,0.78539816339745);
#23=CYLINDRICAL_SURFACE('',#1644,2.5);
#24=CYLINDRICAL_SURFACE('',#1650,1.8);
#25=CYLINDRICAL_SURFACE('',#1653,0.7);
#26=CYLINDRICAL_SURFACE('',#1657,0.7);
#27=CYLINDRICAL_SURFACE('',#1699,0.741797005590379);
#28=CYLINDRICAL_SURFACE('',#1700,0.741797005590379);
#29=CYLINDRICAL_SURFACE('',#1701,0.741797005590379);
#30=CYLINDRICAL_SURFACE('',#1702,0.741797005590379);
#31=CYLINDRICAL_SURFACE('',#1703,0.741797005590379);
#32=CYLINDRICAL_SURFACE('',#1704,0.741797005590379);
#33=CYLINDRICAL_SURFACE('',#1705,0.741797005590379);
#34=CYLINDRICAL_SURFACE('',#1706,0.741797005590379);
#35=CYLINDRICAL_SURFACE('',#1728,0.519257903913266);
#36=CYLINDRICAL_SURFACE('',#1729,0.519257903913266);
#37=CIRCLE('',#1637,0.7);
#38=CIRCLE('',#1638,0.7);
#39=CIRCLE('',#1640,2.5);
#40=CIRCLE('',#1643,2.5);
#41=CIRCLE('',#1645,2.5);
#42=CIRCLE('',#1647,1.8);
#43=CIRCLE('',#1648,2.16942842907311);
#44=CIRCLE('',#1651,1.8);
#45=CIRCLE('',#1654,0.7);
#46=CIRCLE('',#1656,0.5512427930829);
#47=CIRCLE('',#1658,0.7);
#48=CIRCLE('',#1660,0.551242793082901);
#49=CIRCLE('',#1665,0.741797005590379);
#50=CIRCLE('',#1666,0.741797005590379);
#51=CIRCLE('',#1669,0.741797005590379);
#52=CIRCLE('',#1670,0.741797005590379);
#53=CIRCLE('',#1674,0.741797005590379);
#54=CIRCLE('',#1675,0.741797005590379);
#55=CIRCLE('',#1678,0.741797005590379);
#56=CIRCLE('',#1679,0.741797005590379);
#57=CIRCLE('',#1683,0.741797005590379);
#58=CIRCLE('',#1684,0.741797005590379);
#59=CIRCLE('',#1687,0.741797005590379);
#60=CIRCLE('',#1688,0.741797005590379);
#61=CIRCLE('',#1692,0.741797005590379);
#62=CIRCLE('',#1693,0.741797005590379);
#63=CIRCLE('',#1696,0.741797005590379);
#64=CIRCLE('',#1697,0.741797005590379);
#65=CIRCLE('',#1718,0.519257903913266);
#66=CIRCLE('',#1720,0.519257903913266);
#67=CIRCLE('',#1723,0.519257903913266);
#68=CIRCLE('',#1725,0.519257903913266);
#69=ORIENTED_EDGE('',*,*,#379,.T.);
#70=ORIENTED_EDGE('',*,*,#380,.T.);
#71=ORIENTED_EDGE('',*,*,#381,.T.);
#72=ORIENTED_EDGE('',*,*,#382,.F.);
#73=ORIENTED_EDGE('',*,*,#383,.F.);
#74=ORIENTED_EDGE('',*,*,#384,.T.);
#75=ORIENTED_EDGE('',*,*,#385,.T.);
#76=ORIENTED_EDGE('',*,*,#386,.F.);
#77=ORIENTED_EDGE('',*,*,#387,.T.);
#78=ORIENTED_EDGE('',*,*,#388,.T.);
#79=ORIENTED_EDGE('',*,*,#385,.F.);
#80=ORIENTED_EDGE('',*,*,#389,.T.);
#81=ORIENTED_EDGE('',*,*,#390,.T.);
#82=ORIENTED_EDGE('',*,*,#391,.T.);
#83=ORIENTED_EDGE('',*,*,#392,.T.);
#84=ORIENTED_EDGE('',*,*,#393,.T.);
#85=ORIENTED_EDGE('',*,*,#394,.T.);
#86=ORIENTED_EDGE('',*,*,#395,.F.);
#87=ORIENTED_EDGE('',*,*,#396,.F.);
#88=ORIENTED_EDGE('',*,*,#381,.F.);
#89=ORIENTED_EDGE('',*,*,#397,.T.);
#90=ORIENTED_EDGE('',*,*,#398,.F.);
#91=ORIENTED_EDGE('',*,*,#399,.T.);
#92=ORIENTED_EDGE('',*,*,#400,.T.);
#93=ORIENTED_EDGE('',*,*,#401,.T.);
#94=ORIENTED_EDGE('',*,*,#402,.F.);
#95=ORIENTED_EDGE('',*,*,#394,.F.);
#96=ORIENTED_EDGE('',*,*,#403,.F.);
#97=ORIENTED_EDGE('',*,*,#404,.F.);
#98=ORIENTED_EDGE('',*,*,#405,.F.);
#99=ORIENTED_EDGE('',*,*,#401,.F.);
#100=ORIENTED_EDGE('',*,*,#406,.T.);
#101=ORIENTED_EDGE('',*,*,#383,.T.);
#102=ORIENTED_EDGE('',*,*,#407,.F.);
#103=ORIENTED_EDGE('',*,*,#408,.F.);
#104=ORIENTED_EDGE('',*,*,#409,.F.);
#105=ORIENTED_EDGE('',*,*,#410,.F.);
#106=ORIENTED_EDGE('',*,*,#411,.F.);
#107=ORIENTED_EDGE('',*,*,#412,.F.);
#108=ORIENTED_EDGE('',*,*,#413,.F.);
#109=ORIENTED_EDGE('',*,*,#414,.F.);
#110=ORIENTED_EDGE('',*,*,#415,.F.);
#111=ORIENTED_EDGE('',*,*,#416,.F.);
#112=ORIENTED_EDGE('',*,*,#417,.F.);
#113=ORIENTED_EDGE('',*,*,#418,.F.);
#114=ORIENTED_EDGE('',*,*,#419,.F.);
#115=ORIENTED_EDGE('',*,*,#420,.F.);
#116=ORIENTED_EDGE('',*,*,#421,.F.);
#117=ORIENTED_EDGE('',*,*,#422,.F.);
#118=ORIENTED_EDGE('',*,*,#423,.F.);
#119=ORIENTED_EDGE('',*,*,#405,.T.);
#120=ORIENTED_EDGE('',*,*,#424,.T.);
#121=ORIENTED_EDGE('',*,*,#395,.T.);
#122=ORIENTED_EDGE('',*,*,#402,.T.);
#123=ORIENTED_EDGE('',*,*,#425,.T.);
#124=ORIENTED_EDGE('',*,*,#426,.T.);
#125=ORIENTED_EDGE('',*,*,#389,.F.);
#126=ORIENTED_EDGE('',*,*,#384,.F.);
#127=ORIENTED_EDGE('',*,*,#406,.F.);
#128=ORIENTED_EDGE('',*,*,#400,.F.);
#129=ORIENTED_EDGE('',*,*,#396,.T.);
#130=ORIENTED_EDGE('',*,*,#427,.T.);
#131=ORIENTED_EDGE('',*,*,#407,.T.);
#132=ORIENTED_EDGE('',*,*,#382,.T.);
#133=ORIENTED_EDGE('',*,*,#428,.T.);
#134=ORIENTED_EDGE('',*,*,#424,.F.);
#135=ORIENTED_EDGE('',*,*,#427,.F.);
#136=ORIENTED_EDGE('',*,*,#429,.T.);
#137=ORIENTED_EDGE('',*,*,#430,.T.);
#138=ORIENTED_EDGE('',*,*,#430,.F.);
#139=ORIENTED_EDGE('',*,*,#428,.F.);
#140=ORIENTED_EDGE('',*,*,#431,.T.);
#141=ORIENTED_EDGE('',*,*,#429,.F.);
#142=ORIENTED_EDGE('',*,*,#431,.F.);
#143=ORIENTED_EDGE('',*,*,#432,.T.);
#144=ORIENTED_EDGE('',*,*,#404,.T.);
#145=ORIENTED_EDGE('',*,*,#433,.T.);
#146=ORIENTED_EDGE('',*,*,#434,.T.);
#147=ORIENTED_EDGE('',*,*,#403,.T.);
#148=ORIENTED_EDGE('',*,*,#435,.T.);
#149=ORIENTED_EDGE('',*,*,#435,.F.);
#150=ORIENTED_EDGE('',*,*,#434,.F.);
#151=ORIENTED_EDGE('',*,*,#433,.F.);
#152=ORIENTED_EDGE('',*,*,#432,.F.);
#153=ORIENTED_EDGE('',*,*,#436,.F.);
#154=ORIENTED_EDGE('',*,*,#437,.T.);
#155=ORIENTED_EDGE('',*,*,#438,.T.);
#156=ORIENTED_EDGE('',*,*,#409,.T.);
#157=ORIENTED_EDGE('',*,*,#439,.F.);
#158=ORIENTED_EDGE('',*,*,#440,.T.);
#159=ORIENTED_EDGE('',*,*,#436,.T.);
#160=ORIENTED_EDGE('',*,*,#408,.T.);
#161=ORIENTED_EDGE('',*,*,#441,.F.);
#162=ORIENTED_EDGE('',*,*,#442,.T.);
#163=ORIENTED_EDGE('',*,*,#443,.F.);
#164=ORIENTED_EDGE('',*,*,#444,.T.);
#165=ORIENTED_EDGE('',*,*,#441,.T.);
#166=ORIENTED_EDGE('',*,*,#411,.T.);
#167=ORIENTED_EDGE('',*,*,#438,.F.);
#168=ORIENTED_EDGE('',*,*,#445,.T.);
#169=ORIENTED_EDGE('',*,*,#446,.F.);
#170=ORIENTED_EDGE('',*,*,#447,.T.);
#171=ORIENTED_EDGE('',*,*,#443,.T.);
#172=ORIENTED_EDGE('',*,*,#410,.T.);
#173=ORIENTED_EDGE('',*,*,#446,.T.);
#174=ORIENTED_EDGE('',*,*,#448,.T.);
#175=ORIENTED_EDGE('',*,*,#439,.T.);
#176=ORIENTED_EDGE('',*,*,#449,.T.);
#177=ORIENTED_EDGE('',*,*,#450,.F.);
#178=ORIENTED_EDGE('',*,*,#451,.T.);
#179=ORIENTED_EDGE('',*,*,#452,.T.);
#180=ORIENTED_EDGE('',*,*,#413,.T.);
#181=ORIENTED_EDGE('',*,*,#453,.F.);
#182=ORIENTED_EDGE('',*,*,#454,.T.);
#183=ORIENTED_EDGE('',*,*,#455,.F.);
#184=ORIENTED_EDGE('',*,*,#456,.T.);
#185=ORIENTED_EDGE('',*,*,#450,.T.);
#186=ORIENTED_EDGE('',*,*,#412,.T.);
#187=ORIENTED_EDGE('',*,*,#457,.F.);
#188=ORIENTED_EDGE('',*,*,#458,.T.);
#189=ORIENTED_EDGE('',*,*,#453,.T.);
#190=ORIENTED_EDGE('',*,*,#415,.T.);
#191=ORIENTED_EDGE('',*,*,#459,.F.);
#192=ORIENTED_EDGE('',*,*,#460,.T.);
#193=ORIENTED_EDGE('',*,*,#457,.T.);
#194=ORIENTED_EDGE('',*,*,#414,.T.);
#195=ORIENTED_EDGE('',*,*,#452,.F.);
#196=ORIENTED_EDGE('',*,*,#461,.T.);
#197=ORIENTED_EDGE('',*,*,#455,.T.);
#198=ORIENTED_EDGE('',*,*,#462,.T.);
#199=ORIENTED_EDGE('',*,*,#459,.T.);
#200=ORIENTED_EDGE('',*,*,#463,.T.);
#201=ORIENTED_EDGE('',*,*,#464,.F.);
#202=ORIENTED_EDGE('',*,*,#465,.T.);
#203=ORIENTED_EDGE('',*,*,#466,.T.);
#204=ORIENTED_EDGE('',*,*,#417,.T.);
#205=ORIENTED_EDGE('',*,*,#467,.F.);
#206=ORIENTED_EDGE('',*,*,#468,.T.);
#207=ORIENTED_EDGE('',*,*,#469,.F.);
#208=ORIENTED_EDGE('',*,*,#470,.T.);
#209=ORIENTED_EDGE('',*,*,#464,.T.);
#210=ORIENTED_EDGE('',*,*,#416,.T.);
#211=ORIENTED_EDGE('',*,*,#471,.F.);
#212=ORIENTED_EDGE('',*,*,#472,.T.);
#213=ORIENTED_EDGE('',*,*,#467,.T.);
#214=ORIENTED_EDGE('',*,*,#419,.T.);
#215=ORIENTED_EDGE('',*,*,#473,.F.);
#216=ORIENTED_EDGE('',*,*,#474,.T.);
#217=ORIENTED_EDGE('',*,*,#471,.T.);
#218=ORIENTED_EDGE('',*,*,#418,.T.);
#219=ORIENTED_EDGE('',*,*,#466,.F.);
#220=ORIENTED_EDGE('',*,*,#475,.T.);
#221=ORIENTED_EDGE('',*,*,#469,.T.);
#222=ORIENTED_EDGE('',*,*,#476,.T.);
#223=ORIENTED_EDGE('',*,*,#473,.T.);
#224=ORIENTED_EDGE('',*,*,#477,.T.);
#225=ORIENTED_EDGE('',*,*,#478,.F.);
#226=ORIENTED_EDGE('',*,*,#479,.T.);
#227=ORIENTED_EDGE('',*,*,#480,.T.);
#228=ORIENTED_EDGE('',*,*,#421,.T.);
#229=ORIENTED_EDGE('',*,*,#481,.F.);
#230=ORIENTED_EDGE('',*,*,#482,.T.);
#231=ORIENTED_EDGE('',*,*,#483,.F.);
#232=ORIENTED_EDGE('',*,*,#484,.T.);
#233=ORIENTED_EDGE('',*,*,#478,.T.);
#234=ORIENTED_EDGE('',*,*,#420,.T.);
#235=ORIENTED_EDGE('',*,*,#485,.F.);
#236=ORIENTED_EDGE('',*,*,#486,.T.);
#237=ORIENTED_EDGE('',*,*,#481,.T.);
#238=ORIENTED_EDGE('',*,*,#423,.T.);
#239=ORIENTED_EDGE('',*,*,#487,.F.);
#240=ORIENTED_EDGE('',*,*,#488,.T.);
#241=ORIENTED_EDGE('',*,*,#485,.T.);
#242=ORIENTED_EDGE('',*,*,#422,.T.);
#243=ORIENTED_EDGE('',*,*,#480,.F.);
#244=ORIENTED_EDGE('',*,*,#489,.T.);
#245=ORIENTED_EDGE('',*,*,#483,.T.);
#246=ORIENTED_EDGE('',*,*,#490,.T.);
#247=ORIENTED_EDGE('',*,*,#487,.T.);
#248=ORIENTED_EDGE('',*,*,#491,.T.);
#249=ORIENTED_EDGE('',*,*,#442,.F.);
#250=ORIENTED_EDGE('',*,*,#444,.F.);
#251=ORIENTED_EDGE('',*,*,#447,.F.);
#252=ORIENTED_EDGE('',*,*,#449,.F.);
#253=ORIENTED_EDGE('',*,*,#475,.F.);
#254=ORIENTED_EDGE('',*,*,#465,.F.);
#255=ORIENTED_EDGE('',*,*,#470,.F.);
#256=ORIENTED_EDGE('',*,*,#477,.F.);
#257=ORIENTED_EDGE('',*,*,#468,.F.);
#258=ORIENTED_EDGE('',*,*,#472,.F.);
#259=ORIENTED_EDGE('',*,*,#474,.F.);
#260=ORIENTED_EDGE('',*,*,#476,.F.);
#261=ORIENTED_EDGE('',*,*,#489,.F.);
#262=ORIENTED_EDGE('',*,*,#479,.F.);
#263=ORIENTED_EDGE('',*,*,#484,.F.);
#264=ORIENTED_EDGE('',*,*,#491,.F.);
#265=ORIENTED_EDGE('',*,*,#482,.F.);
#266=ORIENTED_EDGE('',*,*,#486,.F.);
#267=ORIENTED_EDGE('',*,*,#488,.F.);
#268=ORIENTED_EDGE('',*,*,#490,.F.);
#269=ORIENTED_EDGE('',*,*,#445,.F.);
#270=ORIENTED_EDGE('',*,*,#437,.F.);
#271=ORIENTED_EDGE('',*,*,#440,.F.);
#272=ORIENTED_EDGE('',*,*,#448,.F.);
#273=ORIENTED_EDGE('',*,*,#461,.F.);
#274=ORIENTED_EDGE('',*,*,#451,.F.);
#275=ORIENTED_EDGE('',*,*,#456,.F.);
#276=ORIENTED_EDGE('',*,*,#463,.F.);
#277=ORIENTED_EDGE('',*,*,#454,.F.);
#278=ORIENTED_EDGE('',*,*,#458,.F.);
#279=ORIENTED_EDGE('',*,*,#460,.F.);
#280=ORIENTED_EDGE('',*,*,#462,.F.);
#281=ORIENTED_EDGE('',*,*,#388,.F.);
#282=ORIENTED_EDGE('',*,*,#492,.F.);
#283=ORIENTED_EDGE('',*,*,#493,.T.);
#284=ORIENTED_EDGE('',*,*,#386,.T.);
#285=ORIENTED_EDGE('',*,*,#397,.F.);
#286=ORIENTED_EDGE('',*,*,#380,.F.);
#287=ORIENTED_EDGE('',*,*,#494,.T.);
#288=ORIENTED_EDGE('',*,*,#495,.T.);
#289=ORIENTED_EDGE('',*,*,#392,.F.);
#290=ORIENTED_EDGE('',*,*,#495,.F.);
#291=ORIENTED_EDGE('',*,*,#496,.T.);
#292=ORIENTED_EDGE('',*,*,#497,.T.);
#293=ORIENTED_EDGE('',*,*,#393,.F.);
#294=ORIENTED_EDGE('',*,*,#497,.F.);
#295=ORIENTED_EDGE('',*,*,#498,.T.);
#296=ORIENTED_EDGE('',*,*,#398,.T.);
#297=ORIENTED_EDGE('',*,*,#390,.F.);
#298=ORIENTED_EDGE('',*,*,#426,.F.);
#299=ORIENTED_EDGE('',*,*,#499,.T.);
#300=ORIENTED_EDGE('',*,*,#500,.T.);
#301=ORIENTED_EDGE('',*,*,#391,.F.);
#302=ORIENTED_EDGE('',*,*,#500,.F.);
#303=ORIENTED_EDGE('',*,*,#501,.T.);
#304=ORIENTED_EDGE('',*,*,#502,.T.);
#305=ORIENTED_EDGE('',*,*,#387,.F.);
#306=ORIENTED_EDGE('',*,*,#502,.F.);
#307=ORIENTED_EDGE('',*,*,#503,.T.);
#308=ORIENTED_EDGE('',*,*,#492,.T.);
#309=ORIENTED_EDGE('',*,*,#504,.T.);
#310=ORIENTED_EDGE('',*,*,#505,.T.);
#311=ORIENTED_EDGE('',*,*,#506,.T.);
#312=ORIENTED_EDGE('',*,*,#507,.T.);
#313=ORIENTED_EDGE('',*,*,#508,.T.);
#314=ORIENTED_EDGE('',*,*,#509,.T.);
#315=ORIENTED_EDGE('',*,*,#510,.T.);
#316=ORIENTED_EDGE('',*,*,#511,.T.);
#317=ORIENTED_EDGE('',*,*,#512,.T.);
#318=ORIENTED_EDGE('',*,*,#513,.T.);
#319=ORIENTED_EDGE('',*,*,#493,.F.);
#320=ORIENTED_EDGE('',*,*,#503,.F.);
#321=ORIENTED_EDGE('',*,*,#501,.F.);
#322=ORIENTED_EDGE('',*,*,#499,.F.);
#323=ORIENTED_EDGE('',*,*,#425,.F.);
#324=ORIENTED_EDGE('',*,*,#399,.F.);
#325=ORIENTED_EDGE('',*,*,#498,.F.);
#326=ORIENTED_EDGE('',*,*,#496,.F.);
#327=ORIENTED_EDGE('',*,*,#494,.F.);
#328=ORIENTED_EDGE('',*,*,#379,.F.);
#329=ORIENTED_EDGE('',*,*,#505,.F.);
#330=ORIENTED_EDGE('',*,*,#514,.F.);
#331=ORIENTED_EDGE('',*,*,#515,.T.);
#332=ORIENTED_EDGE('',*,*,#516,.T.);
#333=ORIENTED_EDGE('',*,*,#506,.F.);
#334=ORIENTED_EDGE('',*,*,#516,.F.);
#335=ORIENTED_EDGE('',*,*,#517,.T.);
#336=ORIENTED_EDGE('',*,*,#518,.T.);
#337=ORIENTED_EDGE('',*,*,#519,.T.);
#338=ORIENTED_EDGE('',*,*,#520,.T.);
#339=ORIENTED_EDGE('',*,*,#507,.F.);
#340=ORIENTED_EDGE('',*,*,#518,.F.);
#341=ORIENTED_EDGE('',*,*,#509,.F.);
#342=ORIENTED_EDGE('',*,*,#521,.T.);
#343=ORIENTED_EDGE('',*,*,#522,.T.);
#344=ORIENTED_EDGE('',*,*,#523,.T.);
#345=ORIENTED_EDGE('',*,*,#510,.F.);
#346=ORIENTED_EDGE('',*,*,#523,.F.);
#347=ORIENTED_EDGE('',*,*,#524,.T.);
#348=ORIENTED_EDGE('',*,*,#525,.T.);
#349=ORIENTED_EDGE('',*,*,#526,.T.);
#350=ORIENTED_EDGE('',*,*,#527,.T.);
#351=ORIENTED_EDGE('',*,*,#511,.F.);
#352=ORIENTED_EDGE('',*,*,#525,.F.);
#353=ORIENTED_EDGE('',*,*,#513,.F.);
#354=ORIENTED_EDGE('',*,*,#528,.T.);
#355=ORIENTED_EDGE('',*,*,#529,.T.);
#356=ORIENTED_EDGE('',*,*,#530,.T.);
#357=ORIENTED_EDGE('',*,*,#504,.F.);
#358=ORIENTED_EDGE('',*,*,#530,.F.);
#359=ORIENTED_EDGE('',*,*,#531,.T.);
#360=ORIENTED_EDGE('',*,*,#514,.T.);
#361=ORIENTED_EDGE('',*,*,#522,.F.);
#362=ORIENTED_EDGE('',*,*,#532,.T.);
#363=ORIENTED_EDGE('',*,*,#519,.F.);
#364=ORIENTED_EDGE('',*,*,#517,.F.);
#365=ORIENTED_EDGE('',*,*,#515,.F.);
#366=ORIENTED_EDGE('',*,*,#531,.F.);
#367=ORIENTED_EDGE('',*,*,#529,.F.);
#368=ORIENTED_EDGE('',*,*,#533,.T.);
#369=ORIENTED_EDGE('',*,*,#526,.F.);
#370=ORIENTED_EDGE('',*,*,#524,.F.);
#371=ORIENTED_EDGE('',*,*,#527,.F.);
#372=ORIENTED_EDGE('',*,*,#533,.F.);
#373=ORIENTED_EDGE('',*,*,#528,.F.);
#374=ORIENTED_EDGE('',*,*,#512,.F.);
#375=ORIENTED_EDGE('',*,*,#520,.F.);
#376=ORIENTED_EDGE('',*,*,#532,.F.);
#377=ORIENTED_EDGE('',*,*,#521,.F.);
#378=ORIENTED_EDGE('',*,*,#508,.F.);
#379=EDGE_CURVE('',#534,#535,#640,.T.);
#380=EDGE_CURVE('',#535,#536,#641,.T.);
#381=EDGE_CURVE('',#536,#537,#642,.T.);
#382=EDGE_CURVE('',#538,#537,#643,.T.);
#383=EDGE_CURVE('',#539,#538,#644,.T.);
#384=EDGE_CURVE('',#539,#540,#645,.T.);
#385=EDGE_CURVE('',#540,#541,#646,.T.);
#386=EDGE_CURVE('',#534,#541,#647,.T.);
#387=EDGE_CURVE('',#542,#543,#648,.T.);
#388=EDGE_CURVE('',#543,#541,#649,.T.);
#389=EDGE_CURVE('',#540,#544,#650,.T.);
#390=EDGE_CURVE('',#544,#545,#651,.T.);
#391=EDGE_CURVE('',#545,#542,#652,.T.);
#392=EDGE_CURVE('',#546,#547,#653,.T.);
#393=EDGE_CURVE('',#547,#548,#654,.T.);
#394=EDGE_CURVE('',#548,#549,#655,.T.);
#395=EDGE_CURVE('',#550,#549,#656,.T.);
#396=EDGE_CURVE('',#537,#550,#657,.T.);
#397=EDGE_CURVE('',#536,#546,#658,.T.);
#398=EDGE_CURVE('',#551,#548,#659,.T.);
#399=EDGE_CURVE('',#551,#552,#660,.T.);
#400=EDGE_CURVE('',#552,#553,#661,.T.);
#401=EDGE_CURVE('',#553,#554,#662,.T.);
#402=EDGE_CURVE('',#549,#554,#663,.T.);
#403=EDGE_CURVE('',#555,#555,#37,.T.);
#404=EDGE_CURVE('',#556,#556,#38,.T.);
#405=EDGE_CURVE('',#554,#557,#664,.T.);
#406=EDGE_CURVE('',#553,#539,#665,.T.);
#407=EDGE_CURVE('',#557,#538,#666,.T.);
#408=EDGE_CURVE('',#558,#559,#667,.T.);
#409=EDGE_CURVE('',#560,#558,#668,.T.);
#410=EDGE_CURVE('',#561,#560,#669,.T.);
#411=EDGE_CURVE('',#559,#561,#670,.T.);
#412=EDGE_CURVE('',#562,#563,#671,.T.);
#413=EDGE_CURVE('',#564,#562,#672,.T.);
#414=EDGE_CURVE('',#565,#564,#673,.T.);
#415=EDGE_CURVE('',#563,#565,#674,.T.);
#416=EDGE_CURVE('',#566,#567,#675,.T.);
#417=EDGE_CURVE('',#568,#566,#676,.T.);
#418=EDGE_CURVE('',#569,#568,#677,.T.);
#419=EDGE_CURVE('',#567,#569,#678,.T.);
#420=EDGE_CURVE('',#570,#571,#679,.T.);
#421=EDGE_CURVE('',#572,#570,#680,.T.);
#422=EDGE_CURVE('',#573,#572,#681,.T.);
#423=EDGE_CURVE('',#571,#573,#682,.T.);
#424=EDGE_CURVE('',#557,#550,#39,.T.);
#425=EDGE_CURVE('',#552,#574,#683,.T.);
#426=EDGE_CURVE('',#574,#544,#684,.T.);
#427=EDGE_CURVE('',#550,#557,#40,.T.);
#428=EDGE_CURVE('',#575,#575,#41,.T.);
#429=EDGE_CURVE('',#576,#576,#42,.T.);
#430=EDGE_CURVE('',#577,#577,#43,.F.);
#431=EDGE_CURVE('',#578,#578,#44,.T.);
#432=EDGE_CURVE('',#579,#579,#45,.T.);
#433=EDGE_CURVE('',#580,#580,#46,.F.);
#434=EDGE_CURVE('',#581,#581,#47,.T.);
#435=EDGE_CURVE('',#582,#582,#48,.F.);
#436=EDGE_CURVE('',#583,#558,#685,.T.);
#437=EDGE_CURVE('',#583,#584,#686,.F.);
#438=EDGE_CURVE('',#584,#560,#687,.T.);
#439=EDGE_CURVE('',#585,#586,#688,.T.);
#440=EDGE_CURVE('',#585,#583,#49,.F.);
#441=EDGE_CURVE('',#587,#559,#689,.T.);
#442=EDGE_CURVE('',#587,#586,#50,.F.);
#443=EDGE_CURVE('',#588,#561,#690,.T.);
#444=EDGE_CURVE('',#588,#587,#691,.F.);
#445=EDGE_CURVE('',#584,#589,#51,.F.);
#446=EDGE_CURVE('',#590,#589,#692,.T.);
#447=EDGE_CURVE('',#590,#588,#52,.F.);
#448=EDGE_CURVE('',#589,#585,#693,.T.);
#449=EDGE_CURVE('',#586,#590,#694,.T.);
#450=EDGE_CURVE('',#591,#562,#695,.T.);
#451=EDGE_CURVE('',#591,#592,#696,.F.);
#452=EDGE_CURVE('',#592,#564,#697,.T.);
#453=EDGE_CURVE('',#593,#563,#698,.T.);
#454=EDGE_CURVE('',#593,#594,#53,.F.);
#455=EDGE_CURVE('',#595,#594,#699,.T.);
#456=EDGE_CURVE('',#595,#591,#54,.F.);
#457=EDGE_CURVE('',#596,#565,#700,.T.);
#458=EDGE_CURVE('',#596,#593,#701,.F.);
#459=EDGE_CURVE('',#597,#598,#702,.T.);
#460=EDGE_CURVE('',#597,#596,#55,.F.);
#461=EDGE_CURVE('',#592,#598,#56,.F.);
#462=EDGE_CURVE('',#594,#597,#703,.T.);
#463=EDGE_CURVE('',#598,#595,#704,.T.);
#464=EDGE_CURVE('',#599,#566,#705,.T.);
#465=EDGE_CURVE('',#599,#600,#706,.F.);
#466=EDGE_CURVE('',#600,#568,#707,.T.);
#467=EDGE_CURVE('',#601,#567,#708,.T.);
#468=EDGE_CURVE('',#601,#602,#57,.F.);
#469=EDGE_CURVE('',#603,#602,#709,.T.);
#470=EDGE_CURVE('',#603,#599,#58,.F.);
#471=EDGE_CURVE('',#604,#569,#710,.T.);
#472=EDGE_CURVE('',#604,#601,#711,.F.);
#473=EDGE_CURVE('',#605,#606,#712,.T.);
#474=EDGE_CURVE('',#605,#604,#59,.F.);
#475=EDGE_CURVE('',#600,#606,#60,.F.);
#476=EDGE_CURVE('',#602,#605,#713,.T.);
#477=EDGE_CURVE('',#606,#603,#714,.T.);
#478=EDGE_CURVE('',#607,#570,#715,.T.);
#479=EDGE_CURVE('',#607,#608,#716,.F.);
#480=EDGE_CURVE('',#608,#572,#717,.T.);
#481=EDGE_CURVE('',#609,#571,#718,.T.);
#482=EDGE_CURVE('',#609,#610,#61,.F.);
#483=EDGE_CURVE('',#611,#610,#719,.T.);
#484=EDGE_CURVE('',#611,#607,#62,.F.);
#485=EDGE_CURVE('',#612,#573,#720,.T.);
#486=EDGE_CURVE('',#612,#609,#721,.F.);
#487=EDGE_CURVE('',#613,#614,#722,.T.);
#488=EDGE_CURVE('',#613,#612,#63,.F.);
#489=EDGE_CURVE('',#608,#614,#64,.F.);
#490=EDGE_CURVE('',#610,#613,#723,.T.);
#491=EDGE_CURVE('',#614,#611,#724,.T.);
#492=EDGE_CURVE('',#615,#543,#725,.T.);
#493=EDGE_CURVE('',#615,#534,#726,.T.);
#494=EDGE_CURVE('',#535,#616,#727,.T.);
#495=EDGE_CURVE('',#616,#546,#728,.T.);
#496=EDGE_CURVE('',#616,#617,#729,.T.);
#497=EDGE_CURVE('',#617,#547,#730,.T.);
#498=EDGE_CURVE('',#617,#551,#731,.T.);
#499=EDGE_CURVE('',#574,#618,#732,.T.);
#500=EDGE_CURVE('',#618,#545,#733,.T.);
#501=EDGE_CURVE('',#618,#619,#734,.T.);
#502=EDGE_CURVE('',#619,#542,#735,.T.);
#503=EDGE_CURVE('',#619,#615,#736,.T.);
#504=EDGE_CURVE('',#620,#621,#737,.T.);
#505=EDGE_CURVE('',#621,#622,#738,.T.);
#506=EDGE_CURVE('',#622,#623,#739,.T.);
#507=EDGE_CURVE('',#623,#624,#740,.T.);
#508=EDGE_CURVE('',#624,#625,#741,.F.);
#509=EDGE_CURVE('',#625,#626,#742,.T.);
#510=EDGE_CURVE('',#626,#627,#743,.T.);
#511=EDGE_CURVE('',#627,#628,#744,.T.);
#512=EDGE_CURVE('',#628,#629,#745,.F.);
#513=EDGE_CURVE('',#629,#620,#746,.T.);
#514=EDGE_CURVE('',#630,#621,#747,.T.);
#515=EDGE_CURVE('',#630,#631,#748,.T.);
#516=EDGE_CURVE('',#631,#622,#749,.T.);
#517=EDGE_CURVE('',#631,#632,#750,.T.);
#518=EDGE_CURVE('',#632,#623,#751,.T.);
#519=EDGE_CURVE('',#632,#633,#752,.T.);
#520=EDGE_CURVE('',#633,#624,#65,.T.);
#521=EDGE_CURVE('',#625,#634,#66,.T.);
#522=EDGE_CURVE('',#634,#635,#753,.T.);
#523=EDGE_CURVE('',#635,#626,#754,.T.);
#524=EDGE_CURVE('',#635,#636,#755,.T.);
#525=EDGE_CURVE('',#636,#627,#756,.T.);
#526=EDGE_CURVE('',#636,#637,#757,.T.);
#527=EDGE_CURVE('',#637,#628,#67,.T.);
#528=EDGE_CURVE('',#629,#638,#68,.T.);
#529=EDGE_CURVE('',#638,#639,#758,.T.);
#530=EDGE_CURVE('',#639,#620,#759,.T.);
#531=EDGE_CURVE('',#639,#630,#760,.T.);
#532=EDGE_CURVE('',#634,#633,#761,.F.);
#533=EDGE_CURVE('',#638,#637,#762,.F.);
#534=VERTEX_POINT('',#2054);
#535=VERTEX_POINT('',#2055);
#536=VERTEX_POINT('',#2057);
#537=VERTEX_POINT('',#2059);
#538=VERTEX_POINT('',#2061);
#539=VERTEX_POINT('',#2063);
#540=VERTEX_POINT('',#2065);
#541=VERTEX_POINT('',#2067);
#542=VERTEX_POINT('',#2071);
#543=VERTEX_POINT('',#2072);
#544=VERTEX_POINT('',#2075);
#545=VERTEX_POINT('',#2077);
#546=VERTEX_POINT('',#2081);
#547=VERTEX_POINT('',#2082);
#548=VERTEX_POINT('',#2084);
#549=VERTEX_POINT('',#2086);
#550=VERTEX_POINT('',#2088);
#551=VERTEX_POINT('',#2093);
#552=VERTEX_POINT('',#2095);
#553=VERTEX_POINT('',#2097);
#554=VERTEX_POINT('',#2099);
#555=VERTEX_POINT('',#2103);
#556=VERTEX_POINT('',#2105);
#557=VERTEX_POINT('',#2107);
#558=VERTEX_POINT('',#2111);
#559=VERTEX_POINT('',#2112);
#560=VERTEX_POINT('',#2114);
#561=VERTEX_POINT('',#2116);
#562=VERTEX_POINT('',#2119);
#563=VERTEX_POINT('',#2120);
#564=VERTEX_POINT('',#2122);
#565=VERTEX_POINT('',#2124);
#566=VERTEX_POINT('',#2127);
#567=VERTEX_POINT('',#2128);
#568=VERTEX_POINT('',#2130);
#569=VERTEX_POINT('',#2132);
#570=VERTEX_POINT('',#2135);
#571=VERTEX_POINT('',#2136);
#572=VERTEX_POINT('',#2138);
#573=VERTEX_POINT('',#2140);
#574=VERTEX_POINT('',#2146);
#575=VERTEX_POINT('',#2152);
#576=VERTEX_POINT('',#2155);
#577=VERTEX_POINT('',#2157);
#578=VERTEX_POINT('',#2161);
#579=VERTEX_POINT('',#2165);
#580=VERTEX_POINT('',#2168);
#581=VERTEX_POINT('',#2171);
#582=VERTEX_POINT('',#2174);
#583=VERTEX_POINT('',#2179);
#584=VERTEX_POINT('',#2181);
#585=VERTEX_POINT('',#2185);
#586=VERTEX_POINT('',#2186);
#587=VERTEX_POINT('',#2189);
#588=VERTEX_POINT('',#2193);
#589=VERTEX_POINT('',#2197);
#590=VERTEX_POINT('',#2199);
#591=VERTEX_POINT('',#2206);
#592=VERTEX_POINT('',#2208);
#593=VERTEX_POINT('',#2212);
#594=VERTEX_POINT('',#2214);
#595=VERTEX_POINT('',#2216);
#596=VERTEX_POINT('',#2220);
#597=VERTEX_POINT('',#2224);
#598=VERTEX_POINT('',#2225);
#599=VERTEX_POINT('',#2233);
#600=VERTEX_POINT('',#2235);
#601=VERTEX_POINT('',#2239);
#602=VERTEX_POINT('',#2241);
#603=VERTEX_POINT('',#2243);
#604=VERTEX_POINT('',#2247);
#605=VERTEX_POINT('',#2251);
#606=VERTEX_POINT('',#2252);
#607=VERTEX_POINT('',#2260);
#608=VERTEX_POINT('',#2262);
#609=VERTEX_POINT('',#2266);
#610=VERTEX_POINT('',#2268);
#611=VERTEX_POINT('',#2270);
#612=VERTEX_POINT('',#2274);
#613=VERTEX_POINT('',#2278);
#614=VERTEX_POINT('',#2279);
#615=VERTEX_POINT('',#2295);
#616=VERTEX_POINT('',#2299);
#617=VERTEX_POINT('',#2303);
#618=VERTEX_POINT('',#2309);
#619=VERTEX_POINT('',#2313);
#620=VERTEX_POINT('',#2319);
#621=VERTEX_POINT('',#2320);
#622=VERTEX_POINT('',#2322);
#623=VERTEX_POINT('',#2324);
#624=VERTEX_POINT('',#2326);
#625=VERTEX_POINT('',#2328);
#626=VERTEX_POINT('',#2330);
#627=VERTEX_POINT('',#2332);
#628=VERTEX_POINT('',#2334);
#629=VERTEX_POINT('',#2336);
#630=VERTEX_POINT('',#2340);
#631=VERTEX_POINT('',#2342);
#632=VERTEX_POINT('',#2346);
#633=VERTEX_POINT('',#2350);
#634=VERTEX_POINT('',#2354);
#635=VERTEX_POINT('',#2356);
#636=VERTEX_POINT('',#2360);
#637=VERTEX_POINT('',#2364);
#638=VERTEX_POINT('',#2368);
#639=VERTEX_POINT('',#2370);
#640=LINE('',#2053,#763);
#641=LINE('',#2056,#764);
#642=LINE('',#2058,#765);
#643=LINE('',#2060,#766);
#644=LINE('',#2062,#767);
#645=LINE('',#2064,#768);
#646=LINE('',#2066,#769);
#647=LINE('',#2068,#770);
#648=LINE('',#2070,#771);
#649=LINE('',#2073,#772);
#650=LINE('',#2074,#773);
#651=LINE('',#2076,#774);
#652=LINE('',#2078,#775);
#653=LINE('',#2080,#776);
#654=LINE('',#2083,#777);
#655=LINE('',#2085,#778);
#656=LINE('',#2087,#779);
#657=LINE('',#2089,#780);
#658=LINE('',#2090,#781);
#659=LINE('',#2092,#782);
#660=LINE('',#2094,#783);
#661=LINE('',#2096,#784);
#662=LINE('',#2098,#785);
#663=LINE('',#2100,#786);
#664=LINE('',#2106,#787);
#665=LINE('',#2108,#788);
#666=LINE('',#2109,#789);
#667=LINE('',#2110,#790);
#668=LINE('',#2113,#791);
#669=LINE('',#2115,#792);
#670=LINE('',#2117,#793);
#671=LINE('',#2118,#794);
#672=LINE('',#2121,#795);
#673=LINE('',#2123,#796);
#674=LINE('',#2125,#797);
#675=LINE('',#2126,#798);
#676=LINE('',#2129,#799);
#677=LINE('',#2131,#800);
#678=LINE('',#2133,#801);
#679=LINE('',#2134,#802);
#680=LINE('',#2137,#803);
#681=LINE('',#2139,#804);
#682=LINE('',#2141,#805);
#683=LINE('',#2145,#806);
#684=LINE('',#2147,#807);
#685=LINE('',#2178,#808);
#686=LINE('',#2180,#809);
#687=LINE('',#2182,#810);
#688=LINE('',#2184,#811);
#689=LINE('',#2188,#812);
#690=LINE('',#2192,#813);
#691=LINE('',#2194,#814);
#692=LINE('',#2198,#815);
#693=LINE('',#2202,#816);
#694=LINE('',#2203,#817);
#695=LINE('',#2205,#818);
#696=LINE('',#2207,#819);
#697=LINE('',#2209,#820);
#698=LINE('',#2211,#821);
#699=LINE('',#2215,#822);
#700=LINE('',#2219,#823);
#701=LINE('',#2221,#824);
#702=LINE('',#2223,#825);
#703=LINE('',#2229,#826);
#704=LINE('',#2230,#827);
#705=LINE('',#2232,#828);
#706=LINE('',#2234,#829);
#707=LINE('',#2236,#830);
#708=LINE('',#2238,#831);
#709=LINE('',#2242,#832);
#710=LINE('',#2246,#833);
#711=LINE('',#2248,#834);
#712=LINE('',#2250,#835);
#713=LINE('',#2256,#836);
#714=LINE('',#2257,#837);
#715=LINE('',#2259,#838);
#716=LINE('',#2261,#839);
#717=LINE('',#2263,#840);
#718=LINE('',#2265,#841);
#719=LINE('',#2269,#842);
#720=LINE('',#2273,#843);
#721=LINE('',#2275,#844);
#722=LINE('',#2277,#845);
#723=LINE('',#2283,#846);
#724=LINE('',#2284,#847);
#725=LINE('',#2294,#848);
#726=LINE('',#2296,#849);
#727=LINE('',#2298,#850);
#728=LINE('',#2300,#851);
#729=LINE('',#2302,#852);
#730=LINE('',#2304,#853);
#731=LINE('',#2306,#854);
#732=LINE('',#2308,#855);
#733=LINE('',#2310,#856);
#734=LINE('',#2312,#857);
#735=LINE('',#2314,#858);
#736=LINE('',#2316,#859);
#737=LINE('',#2318,#860);
#738=LINE('',#2321,#861);
#739=LINE('',#2323,#862);
#740=LINE('',#2325,#863);
#741=LINE('',#2327,#864);
#742=LINE('',#2329,#865);
#743=LINE('',#2331,#866);
#744=LINE('',#2333,#867);
#745=LINE('',#2335,#868);
#746=LINE('',#2337,#869);
#747=LINE('',#2339,#870);
#748=LINE('',#2341,#871);
#749=LINE('',#2343,#872);
#750=LINE('',#2345,#873);
#751=LINE('',#2347,#874);
#752=LINE('',#2349,#875);
#753=LINE('',#2355,#876);
#754=LINE('',#2357,#877);
#755=LINE('',#2359,#878);
#756=LINE('',#2361,#879);
#757=LINE('',#2363,#880);
#758=LINE('',#2369,#881);
#759=LINE('',#2371,#882);
#760=LINE('',#2373,#883);
#761=LINE('',#2375,#884);
#762=LINE('',#2376,#885);
#763=VECTOR('',#1734,1000.);
#764=VECTOR('',#1735,1000.);
#765=VECTOR('',#1736,1000.);
#766=VECTOR('',#1737,1000.);
#767=VECTOR('',#1738,1000.);
#768=VECTOR('',#1739,1000.);
#769=VECTOR('',#1740,1000.);
#770=VECTOR('',#1741,1000.);
#771=VECTOR('',#1744,1000.);
#772=VECTOR('',#1745,1000.);
#773=VECTOR('',#1746,1000.);
#774=VECTOR('',#1747,1000.);
#775=VECTOR('',#1748,1000.);
#776=VECTOR('',#1751,1000.);
#777=VECTOR('',#1752,1000.);
#778=VECTOR('',#1753,1000.);
#779=VECTOR('',#1754,1000.);
#780=VECTOR('',#1755,1000.);
#781=VECTOR('',#1756,1000.);
#782=VECTOR('',#1759,1000.);
#783=VECTOR('',#1760,1000.);
#784=VECTOR('',#1761,1000.);
#785=VECTOR('',#1762,1000.);
#786=VECTOR('',#1763,1000.);
#787=VECTOR('',#1770,1000.);
#788=VECTOR('',#1771,1000.);
#789=VECTOR('',#1772,1000.);
#790=VECTOR('',#1773,1000.);
#791=VECTOR('',#1774,1000.);
#792=VECTOR('',#1775,1000.);
#793=VECTOR('',#1776,1000.);
#794=VECTOR('',#1777,1000.);
#795=VECTOR('',#1778,1000.);
#796=VECTOR('',#1779,1000.);
#797=VECTOR('',#1780,1000.);
#798=VECTOR('',#1781,1000.);
#799=VECTOR('',#1782,1000.);
#800=VECTOR('',#1783,1000.);
#801=VECTOR('',#1784,1000.);
#802=VECTOR('',#1785,1000.);
#803=VECTOR('',#1786,1000.);
#804=VECTOR('',#1787,1000.);
#805=VECTOR('',#1788,1000.);
#806=VECTOR('',#1795,1000.);
#807=VECTOR('',#1796,1000.);
#808=VECTOR('',#1841,1000.);
#809=VECTOR('',#1842,1000.);
#810=VECTOR('',#1843,1000.);
#811=VECTOR('',#1846,1000.);
#812=VECTOR('',#1849,1000.);
#813=VECTOR('',#1854,1000.);
#814=VECTOR('',#1855,1000.);
#815=VECTOR('',#1860,1000.);
#816=VECTOR('',#1865,1000.);
#817=VECTOR('',#1866,1000.);
#818=VECTOR('',#1869,1000.);
#819=VECTOR('',#1870,1000.);
#820=VECTOR('',#1871,1000.);
#821=VECTOR('',#1874,1000.);
#822=VECTOR('',#1877,1000.);
#823=VECTOR('',#1882,1000.);
#824=VECTOR('',#1883,1000.);
#825=VECTOR('',#1886,1000.);
#826=VECTOR('',#1893,1000.);
#827=VECTOR('',#1894,1000.);
#828=VECTOR('',#1897,1000.);
#829=VECTOR('',#1898,1000.);
#830=VECTOR('',#1899,1000.);
#831=VECTOR('',#1902,1000.);
#832=VECTOR('',#1905,1000.);
#833=VECTOR('',#1910,1000.);
#834=VECTOR('',#1911,1000.);
#835=VECTOR('',#1914,1000.);
#836=VECTOR('',#1921,1000.);
#837=VECTOR('',#1922,1000.);
#838=VECTOR('',#1925,1000.);
#839=VECTOR('',#1926,1000.);
#840=VECTOR('',#1927,1000.);
#841=VECTOR('',#1930,1000.);
#842=VECTOR('',#1933,1000.);
#843=VECTOR('',#1938,1000.);
#844=VECTOR('',#1939,1000.);
#845=VECTOR('',#1942,1000.);
#846=VECTOR('',#1949,1000.);
#847=VECTOR('',#1950,1000.);
#848=VECTOR('',#1969,1000.);
#849=VECTOR('',#1970,1000.);
#850=VECTOR('',#1973,1000.);
#851=VECTOR('',#1974,1000.);
#852=VECTOR('',#1977,1000.);
#853=VECTOR('',#1978,1000.);
#854=VECTOR('',#1981,1000.);
#855=VECTOR('',#1984,1000.);
#856=VECTOR('',#1985,1000.);
#857=VECTOR('',#1988,1000.);
#858=VECTOR('',#1989,1000.);
#859=VECTOR('',#1992,1000.);
#860=VECTOR('',#1995,1000.);
#861=VECTOR('',#1996,1000.);
#862=VECTOR('',#1997,1000.);
#863=VECTOR('',#1998,1000.);
#864=VECTOR('',#1999,1000.);
#865=VECTOR('',#2000,1000.);
#866=VECTOR('',#2001,1000.);
#867=VECTOR('',#2002,1000.);
#868=VECTOR('',#2003,1000.);
#869=VECTOR('',#2004,1000.);
#870=VECTOR('',#2007,1000.);
#871=VECTOR('',#2008,1000.);
#872=VECTOR('',#2009,1000.);
#873=VECTOR('',#2012,1000.);
#874=VECTOR('',#2013,1000.);
#875=VECTOR('',#2016,1000.);
#876=VECTOR('',#2023,1000.);
#877=VECTOR('',#2024,1000.);
#878=VECTOR('',#2027,1000.);
#879=VECTOR('',#2028,1000.);
#880=VECTOR('',#2031,1000.);
#881=VECTOR('',#2038,1000.);
#882=VECTOR('',#2039,1000.);
#883=VECTOR('',#2042,1000.);
#884=VECTOR('',#2045,1000.);
#885=VECTOR('',#2046,1000.);
#886=EDGE_LOOP('',(#69,#70,#71,#72,#73,#74,#75,#76));
#887=EDGE_LOOP('',(#77,#78,#79,#80,#81,#82));
#888=EDGE_LOOP('',(#83,#84,#85,#86,#87,#88,#89));
#889=EDGE_LOOP('',(#90,#91,#92,#93,#94,#95));
#890=EDGE_LOOP('',(#96));
#891=EDGE_LOOP('',(#97));
#892=EDGE_LOOP('',(#98,#99,#100,#101,#102));
#893=EDGE_LOOP('',(#103,#104,#105,#106));
#894=EDGE_LOOP('',(#107,#108,#109,#110));
#895=EDGE_LOOP('',(#111,#112,#113,#114));
#896=EDGE_LOOP('',(#115,#116,#117,#118));
#897=EDGE_LOOP('',(#119,#120,#121,#122));
#898=EDGE_LOOP('',(#123,#124,#125,#126,#127,#128));
#899=EDGE_LOOP('',(#129,#130,#131,#132));
#900=EDGE_LOOP('',(#133));
#901=EDGE_LOOP('',(#134,#135));
#902=EDGE_LOOP('',(#136));
#903=EDGE_LOOP('',(#137));
#904=EDGE_LOOP('',(#138));
#905=EDGE_LOOP('',(#139));
#906=EDGE_LOOP('',(#140));
#907=EDGE_LOOP('',(#141));
#908=EDGE_LOOP('',(#142));
#909=EDGE_LOOP('',(#143));
#910=EDGE_LOOP('',(#144));
#911=EDGE_LOOP('',(#145));
#912=EDGE_LOOP('',(#146));
#913=EDGE_LOOP('',(#147));
#914=EDGE_LOOP('',(#148));
#915=EDGE_LOOP('',(#149));
#916=EDGE_LOOP('',(#150));
#917=EDGE_LOOP('',(#151));
#918=EDGE_LOOP('',(#152));
#919=EDGE_LOOP('',(#153,#154,#155,#156));
#920=EDGE_LOOP('',(#157,#158,#159,#160,#161,#162));
#921=EDGE_LOOP('',(#163,#164,#165,#166));
#922=EDGE_LOOP('',(#167,#168,#169,#170,#171,#172));
#923=EDGE_LOOP('',(#173,#174,#175,#176));
#924=EDGE_LOOP('',(#177,#178,#179,#180));
#925=EDGE_LOOP('',(#181,#182,#183,#184,#185,#186));
#926=EDGE_LOOP('',(#187,#188,#189,#190));
#927=EDGE_LOOP('',(#191,#192,#193,#194,#195,#196));
#928=EDGE_LOOP('',(#197,#198,#199,#200));
#929=EDGE_LOOP('',(#201,#202,#203,#204));
#930=EDGE_LOOP('',(#205,#206,#207,#208,#209,#210));
#931=EDGE_LOOP('',(#211,#212,#213,#214));
#932=EDGE_LOOP('',(#215,#216,#217,#218,#219,#220));
#933=EDGE_LOOP('',(#221,#222,#223,#224));
#934=EDGE_LOOP('',(#225,#226,#227,#228));
#935=EDGE_LOOP('',(#229,#230,#231,#232,#233,#234));
#936=EDGE_LOOP('',(#235,#236,#237,#238));
#937=EDGE_LOOP('',(#239,#240,#241,#242,#243,#244));
#938=EDGE_LOOP('',(#245,#246,#247,#248));
#939=EDGE_LOOP('',(#249,#250,#251,#252));
#940=EDGE_LOOP('',(#253,#254,#255,#256));
#941=EDGE_LOOP('',(#257,#258,#259,#260));
#942=EDGE_LOOP('',(#261,#262,#263,#264));
#943=EDGE_LOOP('',(#265,#266,#267,#268));
#944=EDGE_LOOP('',(#269,#270,#271,#272));
#945=EDGE_LOOP('',(#273,#274,#275,#276));
#946=EDGE_LOOP('',(#277,#278,#279,#280));
#947=EDGE_LOOP('',(#281,#282,#283,#284));
#948=EDGE_LOOP('',(#285,#286,#287,#288));
#949=EDGE_LOOP('',(#289,#290,#291,#292));
#950=EDGE_LOOP('',(#293,#294,#295,#296));
#951=EDGE_LOOP('',(#297,#298,#299,#300));
#952=EDGE_LOOP('',(#301,#302,#303,#304));
#953=EDGE_LOOP('',(#305,#306,#307,#308));
#954=EDGE_LOOP('',(#309,#310,#311,#312,#313,#314,#315,#316,#317,#318));
#955=EDGE_LOOP('',(#319,#320,#321,#322,#323,#324,#325,#326,#327,#328));
#956=EDGE_LOOP('',(#329,#330,#331,#332));
#957=EDGE_LOOP('',(#333,#334,#335,#336));
#958=EDGE_LOOP('',(#337,#338,#339,#340));
#959=EDGE_LOOP('',(#341,#342,#343,#344));
#960=EDGE_LOOP('',(#345,#346,#347,#348));
#961=EDGE_LOOP('',(#349,#350,#351,#352));
#962=EDGE_LOOP('',(#353,#354,#355,#356));
#963=EDGE_LOOP('',(#357,#358,#359,#360));
#964=EDGE_LOOP('',(#361,#362,#363,#364,#365,#366,#367,#368,#369,#370));
#965=EDGE_LOOP('',(#371,#372,#373,#374));
#966=EDGE_LOOP('',(#375,#376,#377,#378));
#967=FACE_BOUND('',#886,.T.);
#968=FACE_BOUND('',#887,.T.);
#969=FACE_BOUND('',#888,.T.);
#970=FACE_BOUND('',#889,.T.);
#971=FACE_BOUND('',#890,.T.);
#972=FACE_BOUND('',#891,.T.);
#973=FACE_BOUND('',#892,.T.);
#974=FACE_BOUND('',#893,.T.);
#975=FACE_BOUND('',#894,.T.);
#976=FACE_BOUND('',#895,.T.);
#977=FACE_BOUND('',#896,.T.);
#978=FACE_BOUND('',#897,.T.);
#979=FACE_BOUND('',#898,.T.);
#980=FACE_BOUND('',#899,.T.);
#981=FACE_BOUND('',#900,.T.);
#982=FACE_BOUND('',#901,.T.);
#983=FACE_BOUND('',#902,.T.);
#984=FACE_BOUND('',#903,.T.);
#985=FACE_BOUND('',#904,.T.);
#986=FACE_BOUND('',#905,.T.);
#987=FACE_BOUND('',#906,.T.);
#988=FACE_BOUND('',#907,.T.);
#989=FACE_BOUND('',#908,.T.);
#990=FACE_BOUND('',#909,.T.);
#991=FACE_BOUND('',#910,.T.);
#992=FACE_BOUND('',#911,.T.);
#993=FACE_BOUND('',#912,.T.);
#994=FACE_BOUND('',#913,.T.);
#995=FACE_BOUND('',#914,.T.);
#996=FACE_BOUND('',#915,.T.);
#997=FACE_BOUND('',#916,.T.);
#998=FACE_BOUND('',#917,.T.);
#999=FACE_BOUND('',#918,.T.);
#1000=FACE_BOUND('',#919,.T.);
#1001=FACE_BOUND('',#920,.T.);
#1002=FACE_BOUND('',#921,.T.);
#1003=FACE_BOUND('',#922,.T.);
#1004=FACE_BOUND('',#923,.T.);
#1005=FACE_BOUND('',#924,.T.);
#1006=FACE_BOUND('',#925,.T.);
#1007=FACE_BOUND('',#926,.T.);
#1008=FACE_BOUND('',#927,.T.);
#1009=FACE_BOUND('',#928,.T.);
#1010=FACE_BOUND('',#929,.T.);
#1011=FACE_BOUND('',#930,.T.);
#1012=FACE_BOUND('',#931,.T.);
#1013=FACE_BOUND('',#932,.T.);
#1014=FACE_BOUND('',#933,.T.);
#1015=FACE_BOUND('',#934,.T.);
#1016=FACE_BOUND('',#935,.T.);
#1017=FACE_BOUND('',#936,.T.);
#1018=FACE_BOUND('',#937,.T.);
#1019=FACE_BOUND('',#938,.T.);
#1020=FACE_BOUND('',#939,.T.);
#1021=FACE_BOUND('',#940,.T.);
#1022=FACE_BOUND('',#941,.T.);
#1023=FACE_BOUND('',#942,.T.);
#1024=FACE_BOUND('',#943,.T.);
#1025=FACE_BOUND('',#944,.T.);
#1026=FACE_BOUND('',#945,.T.);
#1027=FACE_BOUND('',#946,.T.);
#1028=FACE_BOUND('',#947,.T.);
#1029=FACE_BOUND('',#948,.T.);
#1030=FACE_BOUND('',#949,.T.);
#1031=FACE_BOUND('',#950,.T.);
#1032=FACE_BOUND('',#951,.T.);
#1033=FACE_BOUND('',#952,.T.);
#1034=FACE_BOUND('',#953,.T.);
#1035=FACE_BOUND('',#954,.T.);
#1036=FACE_BOUND('',#955,.T.);
#1037=FACE_BOUND('',#956,.T.);
#1038=FACE_BOUND('',#957,.T.);
#1039=FACE_BOUND('',#958,.T.);
#1040=FACE_BOUND('',#959,.T.);
#1041=FACE_BOUND('',#960,.T.);
#1042=FACE_BOUND('',#961,.T.);
#1043=FACE_BOUND('',#962,.T.);
#1044=FACE_BOUND('',#963,.T.);
#1045=FACE_BOUND('',#964,.T.);
#1046=FACE_BOUND('',#965,.T.);
#1047=FACE_BOUND('',#966,.T.);
#1048=PLANE('',#1632);
#1049=PLANE('',#1633);
#1050=PLANE('',#1634);
#1051=PLANE('',#1635);
#1052=PLANE('',#1636);
#1053=PLANE('',#1639);
#1054=PLANE('',#1641);
#1055=PLANE('',#1642);
#1056=PLANE('',#1646);
#1057=PLANE('',#1652);
#1058=PLANE('',#1655);
#1059=PLANE('',#1659);
#1060=PLANE('',#1663);
#1061=PLANE('',#1664);
#1062=PLANE('',#1667);
#1063=PLANE('',#1668);
#1064=PLANE('',#1671);
#1065=PLANE('',#1672);
#1066=PLANE('',#1673);
#1067=PLANE('',#1676);
#1068=PLANE('',#1677);
#1069=PLANE('',#1680);
#1070=PLANE('',#1681);
#1071=PLANE('',#1682);
#1072=PLANE('',#1685);
#1073=PLANE('',#1686);
#1074=PLANE('',#1689);
#1075=PLANE('',#1690);
#1076=PLANE('',#1691);
#1077=PLANE('',#1694);
#1078=PLANE('',#1695);
#1079=PLANE('',#1698);
#1080=PLANE('',#1707);
#1081=PLANE('',#1708);
#1082=PLANE('',#1709);
#1083=PLANE('',#1710);
#1084=PLANE('',#1711);
#1085=PLANE('',#1712);
#1086=PLANE('',#1713);
#1087=PLANE('',#1714);
#1088=PLANE('',#1715);
#1089=PLANE('',#1716);
#1090=PLANE('',#1717);
#1091=PLANE('',#1719);
#1092=PLANE('',#1721);
#1093=PLANE('',#1722);
#1094=PLANE('',#1724);
#1095=PLANE('',#1726);
#1096=PLANE('',#1727);
#1097=STYLED_ITEM('',(#1163),#1561);
#1098=STYLED_ITEM('',(#1164),#1562);
#1099=STYLED_ITEM('',(#1165),#1563);
#1100=STYLED_ITEM('',(#1166),#1564);
#1101=STYLED_ITEM('',(#1167),#1565);
#1102=STYLED_ITEM('',(#1168),#1566);
#1103=STYLED_ITEM('',(#1169),#1567);
#1104=STYLED_ITEM('',(#1170),#1568);
#1105=STYLED_ITEM('',(#1171),#1569);
#1106=STYLED_ITEM('',(#1172),#1570);
#1107=STYLED_ITEM('',(#1173),#1571);
#1108=STYLED_ITEM('',(#1174),#1572);
#1109=STYLED_ITEM('',(#1175),#1573);
#1110=STYLED_ITEM('',(#1176),#1574);
#1111=STYLED_ITEM('',(#1177),#1575);
#1112=STYLED_ITEM('',(#1178),#1576);
#1113=STYLED_ITEM('',(#1179),#1577);
#1114=STYLED_ITEM('',(#1180),#1578);
#1115=STYLED_ITEM('',(#1181),#1579);
#1116=STYLED_ITEM('',(#1182),#1580);
#1117=STYLED_ITEM('',(#1183),#1581);
#1118=STYLED_ITEM('',(#1184),#1582);
#1119=STYLED_ITEM('',(#1185),#1583);
#1120=STYLED_ITEM('',(#1186),#1584);
#1121=STYLED_ITEM('',(#1187),#1585);
#1122=STYLED_ITEM('',(#1188),#1586);
#1123=STYLED_ITEM('',(#1189),#1587);
#1124=STYLED_ITEM('',(#1190),#1588);
#1125=STYLED_ITEM('',(#1191),#1589);
#1126=STYLED_ITEM('',(#1192),#1590);
#1127=STYLED_ITEM('',(#1193),#1591);
#1128=STYLED_ITEM('',(#1194),#1592);
#1129=STYLED_ITEM('',(#1195),#1593);
#1130=STYLED_ITEM('',(#1196),#1594);
#1131=STYLED_ITEM('',(#1197),#1595);
#1132=STYLED_ITEM('',(#1198),#1596);
#1133=STYLED_ITEM('',(#1199),#1597);
#1134=STYLED_ITEM('',(#1200),#1598);
#1135=STYLED_ITEM('',(#1201),#1599);
#1136=STYLED_ITEM('',(#1202),#1600);
#1137=STYLED_ITEM('',(#1203),#1601);
#1138=STYLED_ITEM('',(#1204),#1602);
#1139=STYLED_ITEM('',(#1205),#1603);
#1140=STYLED_ITEM('',(#1206),#1604);
#1141=STYLED_ITEM('',(#1207),#1605);
#1142=STYLED_ITEM('',(#1208),#1606);
#1143=STYLED_ITEM('',(#1209),#1607);
#1144=STYLED_ITEM('',(#1210),#1608);
#1145=STYLED_ITEM('',(#1211),#1609);
#1146=STYLED_ITEM('',(#1212),#1610);
#1147=STYLED_ITEM('',(#1213),#1611);
#1148=STYLED_ITEM('',(#1214),#1612);
#1149=STYLED_ITEM('',(#1215),#1613);
#1150=STYLED_ITEM('',(#1216),#1614);
#1151=STYLED_ITEM('',(#1217),#1615);
#1152=STYLED_ITEM('',(#1218),#1616);
#1153=STYLED_ITEM('',(#1219),#1617);
#1154=STYLED_ITEM('',(#1220),#1618);
#1155=STYLED_ITEM('',(#1221),#1619);
#1156=STYLED_ITEM('',(#1222),#1620);
#1157=STYLED_ITEM('',(#1223),#1621);
#1158=STYLED_ITEM('',(#1224),#1622);
#1159=STYLED_ITEM('',(#1225),#1623);
#1160=STYLED_ITEM('',(#1226),#1624);
#1161=STYLED_ITEM('',(#1227),#1625);
#1162=STYLED_ITEM('',(#1228),#1626);
#1163=PRESENTATION_STYLE_ASSIGNMENT((#1229));
#1164=PRESENTATION_STYLE_ASSIGNMENT((#1230));
#1165=PRESENTATION_STYLE_ASSIGNMENT((#1231));
#1166=PRESENTATION_STYLE_ASSIGNMENT((#1232));
#1167=PRESENTATION_STYLE_ASSIGNMENT((#1233));
#1168=PRESENTATION_STYLE_ASSIGNMENT((#1234));
#1169=PRESENTATION_STYLE_ASSIGNMENT((#1235));
#1170=PRESENTATION_STYLE_ASSIGNMENT((#1236));
#1171=PRESENTATION_STYLE_ASSIGNMENT((#1237));
#1172=PRESENTATION_STYLE_ASSIGNMENT((#1238));
#1173=PRESENTATION_STYLE_ASSIGNMENT((#1239));
#1174=PRESENTATION_STYLE_ASSIGNMENT((#1240));
#1175=PRESENTATION_STYLE_ASSIGNMENT((#1241));
#1176=PRESENTATION_STYLE_ASSIGNMENT((#1242));
#1177=PRESENTATION_STYLE_ASSIGNMENT((#1243));
#1178=PRESENTATION_STYLE_ASSIGNMENT((#1244));
#1179=PRESENTATION_STYLE_ASSIGNMENT((#1245));
#1180=PRESENTATION_STYLE_ASSIGNMENT((#1246));
#1181=PRESENTATION_STYLE_ASSIGNMENT((#1247));
#1182=PRESENTATION_STYLE_ASSIGNMENT((#1248));
#1183=PRESENTATION_STYLE_ASSIGNMENT((#1249));
#1184=PRESENTATION_STYLE_ASSIGNMENT((#1250));
#1185=PRESENTATION_STYLE_ASSIGNMENT((#1251));
#1186=PRESENTATION_STYLE_ASSIGNMENT((#1252));
#1187=PRESENTATION_STYLE_ASSIGNMENT((#1253));
#1188=PRESENTATION_STYLE_ASSIGNMENT((#1254));
#1189=PRESENTATION_STYLE_ASSIGNMENT((#1255));
#1190=PRESENTATION_STYLE_ASSIGNMENT((#1256));
#1191=PRESENTATION_STYLE_ASSIGNMENT((#1257));
#1192=PRESENTATION_STYLE_ASSIGNMENT((#1258));
#1193=PRESENTATION_STYLE_ASSIGNMENT((#1259));
#1194=PRESENTATION_STYLE_ASSIGNMENT((#1260));
#1195=PRESENTATION_STYLE_ASSIGNMENT((#1261));
#1196=PRESENTATION_STYLE_ASSIGNMENT((#1262));
#1197=PRESENTATION_STYLE_ASSIGNMENT((#1263));
#1198=PRESENTATION_STYLE_ASSIGNMENT((#1264));
#1199=PRESENTATION_STYLE_ASSIGNMENT((#1265));
#1200=PRESENTATION_STYLE_ASSIGNMENT((#1266));
#1201=PRESENTATION_STYLE_ASSIGNMENT((#1267));
#1202=PRESENTATION_STYLE_ASSIGNMENT((#1268));
#1203=PRESENTATION_STYLE_ASSIGNMENT((#1269));
#1204=PRESENTATION_STYLE_ASSIGNMENT((#1270));
#1205=PRESENTATION_STYLE_ASSIGNMENT((#1271));
#1206=PRESENTATION_STYLE_ASSIGNMENT((#1272));
#1207=PRESENTATION_STYLE_ASSIGNMENT((#1273));
#1208=PRESENTATION_STYLE_ASSIGNMENT((#1274));
#1209=PRESENTATION_STYLE_ASSIGNMENT((#1275));
#1210=PRESENTATION_STYLE_ASSIGNMENT((#1276));
#1211=PRESENTATION_STYLE_ASSIGNMENT((#1277));
#1212=PRESENTATION_STYLE_ASSIGNMENT((#1278));
#1213=PRESENTATION_STYLE_ASSIGNMENT((#1279));
#1214=PRESENTATION_STYLE_ASSIGNMENT((#1280));
#1215=PRESENTATION_STYLE_ASSIGNMENT((#1281));
#1216=PRESENTATION_STYLE_ASSIGNMENT((#1282));
#1217=PRESENTATION_STYLE_ASSIGNMENT((#1283));
#1218=PRESENTATION_STYLE_ASSIGNMENT((#1284));
#1219=PRESENTATION_STYLE_ASSIGNMENT((#1285));
#1220=PRESENTATION_STYLE_ASSIGNMENT((#1286));
#1221=PRESENTATION_STYLE_ASSIGNMENT((#1287));
#1222=PRESENTATION_STYLE_ASSIGNMENT((#1288));
#1223=PRESENTATION_STYLE_ASSIGNMENT((#1289));
#1224=PRESENTATION_STYLE_ASSIGNMENT((#1290));
#1225=PRESENTATION_STYLE_ASSIGNMENT((#1291));
#1226=PRESENTATION_STYLE_ASSIGNMENT((#1292));
#1227=PRESENTATION_STYLE_ASSIGNMENT((#1293));
#1228=PRESENTATION_STYLE_ASSIGNMENT((#1294));
#1229=SURFACE_STYLE_USAGE(.BOTH.,#1295);
#1230=SURFACE_STYLE_USAGE(.BOTH.,#1296);
#1231=SURFACE_STYLE_USAGE(.BOTH.,#1297);
#1232=SURFACE_STYLE_USAGE(.BOTH.,#1298);
#1233=SURFACE_STYLE_USAGE(.BOTH.,#1299);
#1234=SURFACE_STYLE_USAGE(.BOTH.,#1300);
#1235=SURFACE_STYLE_USAGE(.BOTH.,#1301);
#1236=SURFACE_STYLE_USAGE(.BOTH.,#1302);
#1237=SURFACE_STYLE_USAGE(.BOTH.,#1303);
#1238=SURFACE_STYLE_USAGE(.BOTH.,#1304);
#1239=SURFACE_STYLE_USAGE(.BOTH.,#1305);
#1240=SURFACE_STYLE_USAGE(.BOTH.,#1306);
#1241=SURFACE_STYLE_USAGE(.BOTH.,#1307);
#1242=SURFACE_STYLE_USAGE(.BOTH.,#1308);
#1243=SURFACE_STYLE_USAGE(.BOTH.,#1309);
#1244=SURFACE_STYLE_USAGE(.BOTH.,#1310);
#1245=SURFACE_STYLE_USAGE(.BOTH.,#1311);
#1246=SURFACE_STYLE_USAGE(.BOTH.,#1312);
#1247=SURFACE_STYLE_USAGE(.BOTH.,#1313);
#1248=SURFACE_STYLE_USAGE(.BOTH.,#1314);
#1249=SURFACE_STYLE_USAGE(.BOTH.,#1315);
#1250=SURFACE_STYLE_USAGE(.BOTH.,#1316);
#1251=SURFACE_STYLE_USAGE(.BOTH.,#1317);
#1252=SURFACE_STYLE_USAGE(.BOTH.,#1318);
#1253=SURFACE_STYLE_USAGE(.BOTH.,#1319);
#1254=SURFACE_STYLE_USAGE(.BOTH.,#1320);
#1255=SURFACE_STYLE_USAGE(.BOTH.,#1321);
#1256=SURFACE_STYLE_USAGE(.BOTH.,#1322);
#1257=SURFACE_STYLE_USAGE(.BOTH.,#1323);
#1258=SURFACE_STYLE_USAGE(.BOTH.,#1324);
#1259=SURFACE_STYLE_USAGE(.BOTH.,#1325);
#1260=SURFACE_STYLE_USAGE(.BOTH.,#1326);
#1261=SURFACE_STYLE_USAGE(.BOTH.,#1327);
#1262=SURFACE_STYLE_USAGE(.BOTH.,#1328);
#1263=SURFACE_STYLE_USAGE(.BOTH.,#1329);
#1264=SURFACE_STYLE_USAGE(.BOTH.,#1330);
#1265=SURFACE_STYLE_USAGE(.BOTH.,#1331);
#1266=SURFACE_STYLE_USAGE(.BOTH.,#1332);
#1267=SURFACE_STYLE_USAGE(.BOTH.,#1333);
#1268=SURFACE_STYLE_USAGE(.BOTH.,#1334);
#1269=SURFACE_STYLE_USAGE(.BOTH.,#1335);
#1270=SURFACE_STYLE_USAGE(.BOTH.,#1336);
#1271=SURFACE_STYLE_USAGE(.BOTH.,#1337);
#1272=SURFACE_STYLE_USAGE(.BOTH.,#1338);
#1273=SURFACE_STYLE_USAGE(.BOTH.,#1339);
#1274=SURFACE_STYLE_USAGE(.BOTH.,#1340);
#1275=SURFACE_STYLE_USAGE(.BOTH.,#1341);
#1276=SURFACE_STYLE_USAGE(.BOTH.,#1342);
#1277=SURFACE_STYLE_USAGE(.BOTH.,#1343);
#1278=SURFACE_STYLE_USAGE(.BOTH.,#1344);
#1279=SURFACE_STYLE_USAGE(.BOTH.,#1345);
#1280=SURFACE_STYLE_USAGE(.BOTH.,#1346);
#1281=SURFACE_STYLE_USAGE(.BOTH.,#1347);
#1282=SURFACE_STYLE_USAGE(.BOTH.,#1348);
#1283=SURFACE_STYLE_USAGE(.BOTH.,#1349);
#1284=SURFACE_STYLE_USAGE(.BOTH.,#1350);
#1285=SURFACE_STYLE_USAGE(.BOTH.,#1351);
#1286=SURFACE_STYLE_USAGE(.BOTH.,#1352);
#1287=SURFACE_STYLE_USAGE(.BOTH.,#1353);
#1288=SURFACE_STYLE_USAGE(.BOTH.,#1354);
#1289=SURFACE_STYLE_USAGE(.BOTH.,#1355);
#1290=SURFACE_STYLE_USAGE(.BOTH.,#1356);
#1291=SURFACE_STYLE_USAGE(.BOTH.,#1357);
#1292=SURFACE_STYLE_USAGE(.BOTH.,#1358);
#1293=SURFACE_STYLE_USAGE(.BOTH.,#1359);
#1294=SURFACE_STYLE_USAGE(.BOTH.,#1360);
#1295=SURFACE_SIDE_STYLE('',(#1361));
#1296=SURFACE_SIDE_STYLE('',(#1362));
#1297=SURFACE_SIDE_STYLE('',(#1363));
#1298=SURFACE_SIDE_STYLE('',(#1364));
#1299=SURFACE_SIDE_STYLE('',(#1365));
#1300=SURFACE_SIDE_STYLE('',(#1366));
#1301=SURFACE_SIDE_STYLE('',(#1367));
#1302=SURFACE_SIDE_STYLE('',(#1368));
#1303=SURFACE_SIDE_STYLE('',(#1369));
#1304=SURFACE_SIDE_STYLE('',(#1370));
#1305=SURFACE_SIDE_STYLE('',(#1371));
#1306=SURFACE_SIDE_STYLE('',(#1372));
#1307=SURFACE_SIDE_STYLE('',(#1373));
#1308=SURFACE_SIDE_STYLE('',(#1374));
#1309=SURFACE_SIDE_STYLE('',(#1375));
#1310=SURFACE_SIDE_STYLE('',(#1376));
#1311=SURFACE_SIDE_STYLE('',(#1377));
#1312=SURFACE_SIDE_STYLE('',(#1378));
#1313=SURFACE_SIDE_STYLE('',(#1379));
#1314=SURFACE_SIDE_STYLE('',(#1380));
#1315=SURFACE_SIDE_STYLE('',(#1381));
#1316=SURFACE_SIDE_STYLE('',(#1382));
#1317=SURFACE_SIDE_STYLE('',(#1383));
#1318=SURFACE_SIDE_STYLE('',(#1384));
#1319=SURFACE_SIDE_STYLE('',(#1385));
#1320=SURFACE_SIDE_STYLE('',(#1386));
#1321=SURFACE_SIDE_STYLE('',(#1387));
#1322=SURFACE_SIDE_STYLE('',(#1388));
#1323=SURFACE_SIDE_STYLE('',(#1389));
#1324=SURFACE_SIDE_STYLE('',(#1390));
#1325=SURFACE_SIDE_STYLE('',(#1391));
#1326=SURFACE_SIDE_STYLE('',(#1392));
#1327=SURFACE_SIDE_STYLE('',(#1393));
#1328=SURFACE_SIDE_STYLE('',(#1394));
#1329=SURFACE_SIDE_STYLE('',(#1395));
#1330=SURFACE_SIDE_STYLE('',(#1396));
#1331=SURFACE_SIDE_STYLE('',(#1397));
#1332=SURFACE_SIDE_STYLE('',(#1398));
#1333=SURFACE_SIDE_STYLE('',(#1399));
#1334=SURFACE_SIDE_STYLE('',(#1400));
#1335=SURFACE_SIDE_STYLE('',(#1401));
#1336=SURFACE_SIDE_STYLE('',(#1402));
#1337=SURFACE_SIDE_STYLE('',(#1403));
#1338=SURFACE_SIDE_STYLE('',(#1404));
#1339=SURFACE_SIDE_STYLE('',(#1405));
#1340=SURFACE_SIDE_STYLE('',(#1406));
#1341=SURFACE_SIDE_STYLE('',(#1407));
#1342=SURFACE_SIDE_STYLE('',(#1408));
#1343=SURFACE_SIDE_STYLE('',(#1409));
#1344=SURFACE_SIDE_STYLE('',(#1410));
#1345=SURFACE_SIDE_STYLE('',(#1411));
#1346=SURFACE_SIDE_STYLE('',(#1412));
#1347=SURFACE_SIDE_STYLE('',(#1413));
#1348=SURFACE_SIDE_STYLE('',(#1414));
#1349=SURFACE_SIDE_STYLE('',(#1415));
#1350=SURFACE_SIDE_STYLE('',(#1416));
#1351=SURFACE_SIDE_STYLE('',(#1417));
#1352=SURFACE_SIDE_STYLE('',(#1418));
#1353=SURFACE_SIDE_STYLE('',(#1419));
#1354=SURFACE_SIDE_STYLE('',(#1420));
#1355=SURFACE_SIDE_STYLE('',(#1421));
#1356=SURFACE_SIDE_STYLE('',(#1422));
#1357=SURFACE_SIDE_STYLE('',(#1423));
#1358=SURFACE_SIDE_STYLE('',(#1424));
#1359=SURFACE_SIDE_STYLE('',(#1425));
#1360=SURFACE_SIDE_STYLE('',(#1426));
#1361=SURFACE_STYLE_FILL_AREA(#1427);
#1362=SURFACE_STYLE_FILL_AREA(#1428);
#1363=SURFACE_STYLE_FILL_AREA(#1429);
#1364=SURFACE_STYLE_FILL_AREA(#1430);
#1365=SURFACE_STYLE_FILL_AREA(#1431);
#1366=SURFACE_STYLE_FILL_AREA(#1432);
#1367=SURFACE_STYLE_FILL_AREA(#1433);
#1368=SURFACE_STYLE_FILL_AREA(#1434);
#1369=SURFACE_STYLE_FILL_AREA(#1435);
#1370=SURFACE_STYLE_FILL_AREA(#1436);
#1371=SURFACE_STYLE_FILL_AREA(#1437);
#1372=SURFACE_STYLE_FILL_AREA(#1438);
#1373=SURFACE_STYLE_FILL_AREA(#1439);
#1374=SURFACE_STYLE_FILL_AREA(#1440);
#1375=SURFACE_STYLE_FILL_AREA(#1441);
#1376=SURFACE_STYLE_FILL_AREA(#1442);
#1377=SURFACE_STYLE_FILL_AREA(#1443);
#1378=SURFACE_STYLE_FILL_AREA(#1444);
#1379=SURFACE_STYLE_FILL_AREA(#1445);
#1380=SURFACE_STYLE_FILL_AREA(#1446);
#1381=SURFACE_STYLE_FILL_AREA(#1447);
#1382=SURFACE_STYLE_FILL_AREA(#1448);
#1383=SURFACE_STYLE_FILL_AREA(#1449);
#1384=SURFACE_STYLE_FILL_AREA(#1450);
#1385=SURFACE_STYLE_FILL_AREA(#1451);
#1386=SURFACE_STYLE_FILL_AREA(#1452);
#1387=SURFACE_STYLE_FILL_AREA(#1453);
#1388=SURFACE_STYLE_FILL_AREA(#1454);
#1389=SURFACE_STYLE_FILL_AREA(#1455);
#1390=SURFACE_STYLE_FILL_AREA(#1456);
#1391=SURFACE_STYLE_FILL_AREA(#1457);
#1392=SURFACE_STYLE_FILL_AREA(#1458);
#1393=SURFACE_STYLE_FILL_AREA(#1459);
#1394=SURFACE_STYLE_FILL_AREA(#1460);
#1395=SURFACE_STYLE_FILL_AREA(#1461);
#1396=SURFACE_STYLE_FILL_AREA(#1462);
#1397=SURFACE_STYLE_FILL_AREA(#1463);
#1398=SURFACE_STYLE_FILL_AREA(#1464);
#1399=SURFACE_STYLE_FILL_AREA(#1465);
#1400=SURFACE_STYLE_FILL_AREA(#1466);
#1401=SURFACE_STYLE_FILL_AREA(#1467);
#1402=SURFACE_STYLE_FILL_AREA(#1468);
#1403=SURFACE_STYLE_FILL_AREA(#1469);
#1404=SURFACE_STYLE_FILL_AREA(#1470);
#1405=SURFACE_STYLE_FILL_AREA(#1471);
#1406=SURFACE_STYLE_FILL_AREA(#1472);
#1407=SURFACE_STYLE_FILL_AREA(#1473);
#1408=SURFACE_STYLE_FILL_AREA(#1474);
#1409=SURFACE_STYLE_FILL_AREA(#1475);
#1410=SURFACE_STYLE_FILL_AREA(#1476);
#1411=SURFACE_STYLE_FILL_AREA(#1477);
#1412=SURFACE_STYLE_FILL_AREA(#1478);
#1413=SURFACE_STYLE_FILL_AREA(#1479);
#1414=SURFACE_STYLE_FILL_AREA(#1480);
#1415=SURFACE_STYLE_FILL_AREA(#1481);
#1416=SURFACE_STYLE_FILL_AREA(#1482);
#1417=SURFACE_STYLE_FILL_AREA(#1483);
#1418=SURFACE_STYLE_FILL_AREA(#1484);
#1419=SURFACE_STYLE_FILL_AREA(#1485);
#1420=SURFACE_STYLE_FILL_AREA(#1486);
#1421=SURFACE_STYLE_FILL_AREA(#1487);
#1422=SURFACE_STYLE_FILL_AREA(#1488);
#1423=SURFACE_STYLE_FILL_AREA(#1489);
#1424=SURFACE_STYLE_FILL_AREA(#1490);
#1425=SURFACE_STYLE_FILL_AREA(#1491);
#1426=SURFACE_STYLE_FILL_AREA(#1492);
#1427=FILL_AREA_STYLE('',(#1493));
#1428=FILL_AREA_STYLE('',(#1494));
#1429=FILL_AREA_STYLE('',(#1495));
#1430=FILL_AREA_STYLE('',(#1496));
#1431=FILL_AREA_STYLE('',(#1497));
#1432=FILL_AREA_STYLE('',(#1498));
#1433=FILL_AREA_STYLE('',(#1499));
#1434=FILL_AREA_STYLE('',(#1500));
#1435=FILL_AREA_STYLE('',(#1501));
#1436=FILL_AREA_STYLE('',(#1502));
#1437=FILL_AREA_STYLE('',(#1503));
#1438=FILL_AREA_STYLE('',(#1504));
#1439=FILL_AREA_STYLE('',(#1505));
#1440=FILL_AREA_STYLE('',(#1506));
#1441=FILL_AREA_STYLE('',(#1507));
#1442=FILL_AREA_STYLE('',(#1508));
#1443=FILL_AREA_STYLE('',(#1509));
#1444=FILL_AREA_STYLE('',(#1510));
#1445=FILL_AREA_STYLE('',(#1511));
#1446=FILL_AREA_STYLE('',(#1512));
#1447=FILL_AREA_STYLE('',(#1513));
#1448=FILL_AREA_STYLE('',(#1514));
#1449=FILL_AREA_STYLE('',(#1515));
#1450=FILL_AREA_STYLE('',(#1516));
#1451=FILL_AREA_STYLE('',(#1517));
#1452=FILL_AREA_STYLE('',(#1518));
#1453=FILL_AREA_STYLE('',(#1519));
#1454=FILL_AREA_STYLE('',(#1520));
#1455=FILL_AREA_STYLE('',(#1521));
#1456=FILL_AREA_STYLE('',(#1522));
#1457=FILL_AREA_STYLE('',(#1523));
#1458=FILL_AREA_STYLE('',(#1524));
#1459=FILL_AREA_STYLE('',(#1525));
#1460=FILL_AREA_STYLE('',(#1526));
#1461=FILL_AREA_STYLE('',(#1527));
#1462=FILL_AREA_STYLE('',(#1528));
#1463=FILL_AREA_STYLE('',(#1529));
#1464=FILL_AREA_STYLE('',(#1530));
#1465=FILL_AREA_STYLE('',(#1531));
#1466=FILL_AREA_STYLE('',(#1532));
#1467=FILL_AREA_STYLE('',(#1533));
#1468=FILL_AREA_STYLE('',(#1534));
#1469=FILL_AREA_STYLE('',(#1535));
#1470=FILL_AREA_STYLE('',(#1536));
#1471=FILL_AREA_STYLE('',(#1537));
#1472=FILL_AREA_STYLE('',(#1538));
#1473=FILL_AREA_STYLE('',(#1539));
#1474=FILL_AREA_STYLE('',(#1540));
#1475=FILL_AREA_STYLE('',(#1541));
#1476=FILL_AREA_STYLE('',(#1542));
#1477=FILL_AREA_STYLE('',(#1543));
#1478=FILL_AREA_STYLE('',(#1544));
#1479=FILL_AREA_STYLE('',(#1545));
#1480=FILL_AREA_STYLE('',(#1546));
#1481=FILL_AREA_STYLE('',(#1547));
#1482=FILL_AREA_STYLE('',(#1548));
#1483=FILL_AREA_STYLE('',(#1549));
#1484=FILL_AREA_STYLE('',(#1550));
#1485=FILL_AREA_STYLE('',(#1551));
#1486=FILL_AREA_STYLE('',(#1552));
#1487=FILL_AREA_STYLE('',(#1553));
#1488=FILL_AREA_STYLE('',(#1554));
#1489=FILL_AREA_STYLE('',(#1555));
#1490=FILL_AREA_STYLE('',(#1556));
#1491=FILL_AREA_STYLE('',(#1557));
#1492=FILL_AREA_STYLE('',(#1558));
#1493=FILL_AREA_STYLE_COLOUR('',#1559);
#1494=FILL_AREA_STYLE_COLOUR('',#1559);
#1495=FILL_AREA_STYLE_COLOUR('',#1559);
#1496=FILL_AREA_STYLE_COLOUR('',#1559);
#1497=FILL_AREA_STYLE_COLOUR('',#1559);
#1498=FILL_AREA_STYLE_COLOUR('',#1559);
#1499=FILL_AREA_STYLE_COLOUR('',#1559);
#1500=FILL_AREA_STYLE_COLOUR('',#1559);
#1501=FILL_AREA_STYLE_COLOUR('',#1559);
#1502=FILL_AREA_STYLE_COLOUR('',#1559);
#1503=FILL_AREA_STYLE_COLOUR('',#1559);
#1504=FILL_AREA_STYLE_COLOUR('',#1559);
#1505=FILL_AREA_STYLE_COLOUR('',#1559);
#1506=FILL_AREA_STYLE_COLOUR('',#1559);
#1507=FILL_AREA_STYLE_COLOUR('',#1559);
#1508=FILL_AREA_STYLE_COLOUR('',#1559);
#1509=FILL_AREA_STYLE_COLOUR('',#1559);
#1510=FILL_AREA_STYLE_COLOUR('',#1559);
#1511=FILL_AREA_STYLE_COLOUR('',#1559);
#1512=FILL_AREA_STYLE_COLOUR('',#1560);
#1513=FILL_AREA_STYLE_COLOUR('',#1560);
#1514=FILL_AREA_STYLE_COLOUR('',#1560);
#1515=FILL_AREA_STYLE_COLOUR('',#1560);
#1516=FILL_AREA_STYLE_COLOUR('',#1560);
#1517=FILL_AREA_STYLE_COLOUR('',#1560);
#1518=FILL_AREA_STYLE_COLOUR('',#1560);
#1519=FILL_AREA_STYLE_COLOUR('',#1560);
#1520=FILL_AREA_STYLE_COLOUR('',#1560);
#1521=FILL_AREA_STYLE_COLOUR('',#1560);
#1522=FILL_AREA_STYLE_COLOUR('',#1560);
#1523=FILL_AREA_STYLE_COLOUR('',#1560);
#1524=FILL_AREA_STYLE_COLOUR('',#1560);
#1525=FILL_AREA_STYLE_COLOUR('',#1560);
#1526=FILL_AREA_STYLE_COLOUR('',#1560);
#1527=FILL_AREA_STYLE_COLOUR('',#1560);
#1528=FILL_AREA_STYLE_COLOUR('',#1560);
#1529=FILL_AREA_STYLE_COLOUR('',#1560);
#1530=FILL_AREA_STYLE_COLOUR('',#1560);
#1531=FILL_AREA_STYLE_COLOUR('',#1560);
#1532=FILL_AREA_STYLE_COLOUR('',#1560);
#1533=FILL_AREA_STYLE_COLOUR('',#1560);
#1534=FILL_AREA_STYLE_COLOUR('',#1560);
#1535=FILL_AREA_STYLE_COLOUR('',#1560);
#1536=FILL_AREA_STYLE_COLOUR('',#1560);
#1537=FILL_AREA_STYLE_COLOUR('',#1560);
#1538=FILL_AREA_STYLE_COLOUR('',#1560);
#1539=FILL_AREA_STYLE_COLOUR('',#1560);
#1540=FILL_AREA_STYLE_COLOUR('',#1559);
#1541=FILL_AREA_STYLE_COLOUR('',#1559);
#1542=FILL_AREA_STYLE_COLOUR('',#1559);
#1543=FILL_AREA_STYLE_COLOUR('',#1559);
#1544=FILL_AREA_STYLE_COLOUR('',#1559);
#1545=FILL_AREA_STYLE_COLOUR('',#1559);
#1546=FILL_AREA_STYLE_COLOUR('',#1559);
#1547=FILL_AREA_STYLE_COLOUR('',#1559);
#1548=FILL_AREA_STYLE_COLOUR('',#1560);
#1549=FILL_AREA_STYLE_COLOUR('',#1560);
#1550=FILL_AREA_STYLE_COLOUR('',#1560);
#1551=FILL_AREA_STYLE_COLOUR('',#1560);
#1552=FILL_AREA_STYLE_COLOUR('',#1560);
#1553=FILL_AREA_STYLE_COLOUR('',#1560);
#1554=FILL_AREA_STYLE_COLOUR('',#1560);
#1555=FILL_AREA_STYLE_COLOUR('',#1560);
#1556=FILL_AREA_STYLE_COLOUR('',#1560);
#1557=FILL_AREA_STYLE_COLOUR('',#1560);
#1558=FILL_AREA_STYLE_COLOUR('',#1560);
#1559=COLOUR_RGB('',0.200000002980232,0.200000002980232,0.200000002980232);
#1560=COLOUR_RGB('',0.699999988079071,0.699999988079071,0.699999988079071);
#1561=ADVANCED_FACE('',(#967),#1048,.T.);
#1562=ADVANCED_FACE('',(#968),#1049,.T.);
#1563=ADVANCED_FACE('',(#969),#1050,.T.);
#1564=ADVANCED_FACE('',(#970),#1051,.T.);
#1565=ADVANCED_FACE('',(#971,#972,#973,#974,#975,#976,#977),#1052,.T.);
#1566=ADVANCED_FACE('',(#978),#1053,.T.);
#1567=ADVANCED_FACE('',(#979),#1054,.F.);
#1568=ADVANCED_FACE('',(#980),#1055,.T.);
#1569=ADVANCED_FACE('',(#981,#982),#23,.T.);
#1570=ADVANCED_FACE('',(#983,#984),#1056,.F.);
#1571=ADVANCED_FACE('',(#985,#986),#20,.T.);
#1572=ADVANCED_FACE('',(#987,#988),#24,.F.);
#1573=ADVANCED_FACE('',(#989),#1057,.F.);
#1574=ADVANCED_FACE('',(#990,#991),#25,.T.);
#1575=ADVANCED_FACE('',(#992),#1058,.F.);
#1576=ADVANCED_FACE('',(#993,#994),#26,.T.);
#1577=ADVANCED_FACE('',(#995),#1059,.F.);
#1578=ADVANCED_FACE('',(#996,#997),#21,.T.);
#1579=ADVANCED_FACE('',(#998,#999),#22,.T.);
#1580=ADVANCED_FACE('',(#1000),#1060,.F.);
#1581=ADVANCED_FACE('',(#1001),#1061,.F.);
#1582=ADVANCED_FACE('',(#1002),#1062,.F.);
#1583=ADVANCED_FACE('',(#1003),#1063,.F.);
#1584=ADVANCED_FACE('',(#1004),#1064,.T.);
#1585=ADVANCED_FACE('',(#1005),#1065,.F.);
#1586=ADVANCED_FACE('',(#1006),#1066,.F.);
#1587=ADVANCED_FACE('',(#1007),#1067,.F.);
#1588=ADVANCED_FACE('',(#1008),#1068,.F.);
#1589=ADVANCED_FACE('',(#1009),#1069,.T.);
#1590=ADVANCED_FACE('',(#1010),#1070,.F.);
#1591=ADVANCED_FACE('',(#1011),#1071,.F.);
#1592=ADVANCED_FACE('',(#1012),#1072,.F.);
#1593=ADVANCED_FACE('',(#1013),#1073,.F.);
#1594=ADVANCED_FACE('',(#1014),#1074,.T.);
#1595=ADVANCED_FACE('',(#1015),#1075,.F.);
#1596=ADVANCED_FACE('',(#1016),#1076,.F.);
#1597=ADVANCED_FACE('',(#1017),#1077,.F.);
#1598=ADVANCED_FACE('',(#1018),#1078,.F.);
#1599=ADVANCED_FACE('',(#1019),#1079,.T.);
#1600=ADVANCED_FACE('',(#1020),#27,.T.);
#1601=ADVANCED_FACE('',(#1021),#28,.T.);
#1602=ADVANCED_FACE('',(#1022),#29,.T.);
#1603=ADVANCED_FACE('',(#1023),#30,.T.);
#1604=ADVANCED_FACE('',(#1024),#31,.T.);
#1605=ADVANCED_FACE('',(#1025),#32,.T.);
#1606=ADVANCED_FACE('',(#1026),#33,.T.);
#1607=ADVANCED_FACE('',(#1027),#34,.T.);
#1608=ADVANCED_FACE('',(#1028),#1080,.T.);
#1609=ADVANCED_FACE('',(#1029),#1081,.T.);
#1610=ADVANCED_FACE('',(#1030),#1082,.T.);
#1611=ADVANCED_FACE('',(#1031),#1083,.T.);
#1612=ADVANCED_FACE('',(#1032),#1084,.T.);
#1613=ADVANCED_FACE('',(#1033),#1085,.T.);
#1614=ADVANCED_FACE('',(#1034),#1086,.T.);
#1615=ADVANCED_FACE('',(#1035,#1036),#1087,.F.);
#1616=ADVANCED_FACE('',(#1037),#1088,.T.);
#1617=ADVANCED_FACE('',(#1038),#1089,.T.);
#1618=ADVANCED_FACE('',(#1039),#1090,.T.);
#1619=ADVANCED_FACE('',(#1040),#1091,.T.);
#1620=ADVANCED_FACE('',(#1041),#1092,.T.);
#1621=ADVANCED_FACE('',(#1042),#1093,.T.);
#1622=ADVANCED_FACE('',(#1043),#1094,.T.);
#1623=ADVANCED_FACE('',(#1044),#1095,.T.);
#1624=ADVANCED_FACE('',(#1045),#1096,.F.);
#1625=ADVANCED_FACE('',(#1046),#35,.T.);
#1626=ADVANCED_FACE('',(#1047),#36,.T.);
#1627=CLOSED_SHELL('',(#1561,#1562,#1563,#1564,#1565,#1566,#1567,#1568,
#1569,#1570,#1571,#1572,#1573,#1574,#1575,#1576,#1577,#1578,#1579,#1580,
#1581,#1582,#1583,#1584,#1585,#1586,#1587,#1588,#1589,#1590,#1591,#1592,
#1593,#1594,#1595,#1596,#1597,#1598,#1599,#1600,#1601,#1602,#1603,#1604,
#1605,#1606,#1607,#1608,#1609,#1610,#1611,#1612,#1613,#1614,#1615,#1616,
#1617,#1618,#1619,#1620,#1621,#1622,#1623,#1624,#1625,#1626));
#1628=MANIFOLD_SOLID_BREP('',#1627);
#1629=SHAPE_DEFINITION_REPRESENTATION(#2385,#1630);
#1630=SHAPE_REPRESENTATION('ASJ-200-B-HT',(#1631),#2380);
#1631=AXIS2_PLACEMENT_3D('',#2051,#1730,#1731);
#1632=AXIS2_PLACEMENT_3D('',#2052,#1732,#1733);
#1633=AXIS2_PLACEMENT_3D('',#2069,#1742,#1743);
#1634=AXIS2_PLACEMENT_3D('',#2079,#1749,#1750);
#1635=AXIS2_PLACEMENT_3D('',#2091,#1757,#1758);
#1636=AXIS2_PLACEMENT_3D('',#2101,#1764,#1765);
#1637=AXIS2_PLACEMENT_3D('',#2102,#1766,#1767);
#1638=AXIS2_PLACEMENT_3D('',#2104,#1768,#1769);
#1639=AXIS2_PLACEMENT_3D('',#2142,#1789,#1790);
#1640=AXIS2_PLACEMENT_3D('',#2143,#1791,#1792);
#1641=AXIS2_PLACEMENT_3D('',#2144,#1793,#1794);
#1642=AXIS2_PLACEMENT_3D('',#2148,#1797,#1798);
#1643=AXIS2_PLACEMENT_3D('',#2149,#1799,#1800);
#1644=AXIS2_PLACEMENT_3D('',#2150,#1801,#1802);
#1645=AXIS2_PLACEMENT_3D('',#2151,#1803,#1804);
#1646=AXIS2_PLACEMENT_3D('',#2153,#1805,#1806);
#1647=AXIS2_PLACEMENT_3D('',#2154,#1807,#1808);
#1648=AXIS2_PLACEMENT_3D('',#2156,#1809,#1810);
#1649=AXIS2_PLACEMENT_3D('',#2158,#1811,#1812);
#1650=AXIS2_PLACEMENT_3D('',#2159,#1813,#1814);
#1651=AXIS2_PLACEMENT_3D('',#2160,#1815,#1816);
#1652=AXIS2_PLACEMENT_3D('',#2162,#1817,#1818);
#1653=AXIS2_PLACEMENT_3D('',#2163,#1819,#1820);
#1654=AXIS2_PLACEMENT_3D('',#2164,#1821,#1822);
#1655=AXIS2_PLACEMENT_3D('',#2166,#1823,#1824);
#1656=AXIS2_PLACEMENT_3D('',#2167,#1825,#1826);
#1657=AXIS2_PLACEMENT_3D('',#2169,#1827,#1828);
#1658=AXIS2_PLACEMENT_3D('',#2170,#1829,#1830);
#1659=AXIS2_PLACEMENT_3D('',#2172,#1831,#1832);
#1660=AXIS2_PLACEMENT_3D('',#2173,#1833,#1834);
#1661=AXIS2_PLACEMENT_3D('',#2175,#1835,#1836);
#1662=AXIS2_PLACEMENT_3D('',#2176,#1837,#1838);
#1663=AXIS2_PLACEMENT_3D('',#2177,#1839,#1840);
#1664=AXIS2_PLACEMENT_3D('',#2183,#1844,#1845);
#1665=AXIS2_PLACEMENT_3D('',#2187,#1847,#1848);
#1666=AXIS2_PLACEMENT_3D('',#2190,#1850,#1851);
#1667=AXIS2_PLACEMENT_3D('',#2191,#1852,#1853);
#1668=AXIS2_PLACEMENT_3D('',#2195,#1856,#1857);
#1669=AXIS2_PLACEMENT_3D('',#2196,#1858,#1859);
#1670=AXIS2_PLACEMENT_3D('',#2200,#1861,#1862);
#1671=AXIS2_PLACEMENT_3D('',#2201,#1863,#1864);
#1672=AXIS2_PLACEMENT_3D('',#2204,#1867,#1868);
#1673=AXIS2_PLACEMENT_3D('',#2210,#1872,#1873);
#1674=AXIS2_PLACEMENT_3D('',#2213,#1875,#1876);
#1675=AXIS2_PLACEMENT_3D('',#2217,#1878,#1879);
#1676=AXIS2_PLACEMENT_3D('',#2218,#1880,#1881);
#1677=AXIS2_PLACEMENT_3D('',#2222,#1884,#1885);
#1678=AXIS2_PLACEMENT_3D('',#2226,#1887,#1888);
#1679=AXIS2_PLACEMENT_3D('',#2227,#1889,#1890);
#1680=AXIS2_PLACEMENT_3D('',#2228,#1891,#1892);
#1681=AXIS2_PLACEMENT_3D('',#2231,#1895,#1896);
#1682=AXIS2_PLACEMENT_3D('',#2237,#1900,#1901);
#1683=AXIS2_PLACEMENT_3D('',#2240,#1903,#1904);
#1684=AXIS2_PLACEMENT_3D('',#2244,#1906,#1907);
#1685=AXIS2_PLACEMENT_3D('',#2245,#1908,#1909);
#1686=AXIS2_PLACEMENT_3D('',#2249,#1912,#1913);
#1687=AXIS2_PLACEMENT_3D('',#2253,#1915,#1916);
#1688=AXIS2_PLACEMENT_3D('',#2254,#1917,#1918);
#1689=AXIS2_PLACEMENT_3D('',#2255,#1919,#1920);
#1690=AXIS2_PLACEMENT_3D('',#2258,#1923,#1924);
#1691=AXIS2_PLACEMENT_3D('',#2264,#1928,#1929);
#1692=AXIS2_PLACEMENT_3D('',#2267,#1931,#1932);
#1693=AXIS2_PLACEMENT_3D('',#2271,#1934,#1935);
#1694=AXIS2_PLACEMENT_3D('',#2272,#1936,#1937);
#1695=AXIS2_PLACEMENT_3D('',#2276,#1940,#1941);
#1696=AXIS2_PLACEMENT_3D('',#2280,#1943,#1944);
#1697=AXIS2_PLACEMENT_3D('',#2281,#1945,#1946);
#1698=AXIS2_PLACEMENT_3D('',#2282,#1947,#1948);
#1699=AXIS2_PLACEMENT_3D('',#2285,#1951,#1952);
#1700=AXIS2_PLACEMENT_3D('',#2286,#1953,#1954);
#1701=AXIS2_PLACEMENT_3D('',#2287,#1955,#1956);
#1702=AXIS2_PLACEMENT_3D('',#2288,#1957,#1958);
#1703=AXIS2_PLACEMENT_3D('',#2289,#1959,#1960);
#1704=AXIS2_PLACEMENT_3D('',#2290,#1961,#1962);
#1705=AXIS2_PLACEMENT_3D('',#2291,#1963,#1964);
#1706=AXIS2_PLACEMENT_3D('',#2292,#1965,#1966);
#1707=AXIS2_PLACEMENT_3D('',#2293,#1967,#1968);
#1708=AXIS2_PLACEMENT_3D('',#2297,#1971,#1972);
#1709=AXIS2_PLACEMENT_3D('',#2301,#1975,#1976);
#1710=AXIS2_PLACEMENT_3D('',#2305,#1979,#1980);
#1711=AXIS2_PLACEMENT_3D('',#2307,#1982,#1983);
#1712=AXIS2_PLACEMENT_3D('',#2311,#1986,#1987);
#1713=AXIS2_PLACEMENT_3D('',#2315,#1990,#1991);
#1714=AXIS2_PLACEMENT_3D('',#2317,#1993,#1994);
#1715=AXIS2_PLACEMENT_3D('',#2338,#2005,#2006);
#1716=AXIS2_PLACEMENT_3D('',#2344,#2010,#2011);
#1717=AXIS2_PLACEMENT_3D('',#2348,#2014,#2015);
#1718=AXIS2_PLACEMENT_3D('',#2351,#2017,#2018);
#1719=AXIS2_PLACEMENT_3D('',#2352,#2019,#2020);
#1720=AXIS2_PLACEMENT_3D('',#2353,#2021,#2022);
#1721=AXIS2_PLACEMENT_3D('',#2358,#2025,#2026);
#1722=AXIS2_PLACEMENT_3D('',#2362,#2029,#2030);
#1723=AXIS2_PLACEMENT_3D('',#2365,#2032,#2033);
#1724=AXIS2_PLACEMENT_3D('',#2366,#2034,#2035);
#1725=AXIS2_PLACEMENT_3D('',#2367,#2036,#2037);
#1726=AXIS2_PLACEMENT_3D('',#2372,#2040,#2041);
#1727=AXIS2_PLACEMENT_3D('',#2374,#2043,#2044);
#1728=AXIS2_PLACEMENT_3D('',#2377,#2047,#2048);
#1729=AXIS2_PLACEMENT_3D('',#2378,#2049,#2050);
#1730=DIRECTION('',(0.,0.,1.));
#1731=DIRECTION('',(1.,0.,0.));
#1732=DIRECTION('',(1.,0.,0.));
#1733=DIRECTION('',(0.,0.,-1.));
#1734=DIRECTION('',(0.,-1.,0.));
#1735=DIRECTION('',(0.,0.,1.));
#1736=DIRECTION('',(0.,-1.,0.));
#1737=DIRECTION('',(0.,0.,1.));
#1738=DIRECTION('',(0.,-1.,0.));
#1739=DIRECTION('',(0.,0.,1.));
#1740=DIRECTION('',(0.,-1.,0.));
#1741=DIRECTION('',(0.,0.,1.));
#1742=DIRECTION('',(0.,0.,1.));
#1743=DIRECTION('',(1.,0.,0.));
#1744=DIRECTION('',(0.,-1.,0.));
#1745=DIRECTION('',(1.,0.,0.));
#1746=DIRECTION('',(-1.,0.,0.));
#1747=DIRECTION('',(0.,-1.,0.));
#1748=DIRECTION('',(1.,0.,0.));
#1749=DIRECTION('',(0.,0.,1.));
#1750=DIRECTION('',(1.,0.,0.));
#1751=DIRECTION('',(5.78241158658937E-16,1.,0.));
#1752=DIRECTION('',(-1.,0.,0.));
#1753=DIRECTION('',(0.,-1.,0.));
#1754=DIRECTION('',(-1.,0.,0.));
#1755=DIRECTION('',(-1.,0.,0.));
#1756=DIRECTION('',(-0.999996715992474,-0.00256281178926271,0.));
#1757=DIRECTION('',(-1.,0.,0.));
#1758=DIRECTION('',(0.,0.,1.));
#1759=DIRECTION('',(0.,0.,1.));
#1760=DIRECTION('',(0.,1.,0.));
#1761=DIRECTION('',(0.,0.,-1.));
#1762=DIRECTION('',(0.,-1.,0.));
#1763=DIRECTION('',(0.,0.,-1.));
#1764=DIRECTION('',(0.,0.,-1.));
#1765=DIRECTION('',(-1.,0.,0.));
#1766=DIRECTION('',(0.,0.,-1.));
#1767=DIRECTION('',(-1.,0.,0.));
#1768=DIRECTION('',(0.,0.,-1.));
#1769=DIRECTION('',(-1.,0.,0.));
#1770=DIRECTION('',(1.,0.,0.));
#1771=DIRECTION('',(1.,0.,0.));
#1772=DIRECTION('',(1.,0.,0.));
#1773=DIRECTION('',(0.,1.,0.));
#1774=DIRECTION('',(-1.,0.,0.));
#1775=DIRECTION('',(0.,-1.,0.));
#1776=DIRECTION('',(1.,0.,0.));
#1777=DIRECTION('',(0.,1.,0.));
#1778=DIRECTION('',(-1.,0.,0.));
#1779=DIRECTION('',(0.,-1.,0.));
#1780=DIRECTION('',(1.,-5.78241158658936E-15,0.));
#1781=DIRECTION('',(0.,-1.,0.));
#1782=DIRECTION('',(1.,0.,0.));
#1783=DIRECTION('',(0.,1.,0.));
#1784=DIRECTION('',(-1.,0.,0.));
#1785=DIRECTION('',(0.,-1.,0.));
#1786=DIRECTION('',(1.,-1.44560289664734E-15,0.));
#1787=DIRECTION('',(0.,1.,0.));
#1788=DIRECTION('',(-1.,0.,0.));
#1789=DIRECTION('',(0.,-1.,0.));
#1790=DIRECTION('',(0.,0.,-1.));
#1791=DIRECTION('',(0.,1.,0.));
#1792=DIRECTION('',(1.,0.,0.));
#1793=DIRECTION('',(0.,-1.,0.));
#1794=DIRECTION('',(0.,0.,-1.));
#1795=DIRECTION('',(1.,0.,0.));
#1796=DIRECTION('',(0.,0.,1.));
#1797=DIRECTION('',(0.,-1.,0.));
#1798=DIRECTION('',(0.,0.,-1.));
#1799=DIRECTION('',(0.,1.,0.));
#1800=DIRECTION('',(1.,0.,0.));
#1801=DIRECTION('',(0.,1.,0.));
#1802=DIRECTION('',(0.,0.,1.));
#1803=DIRECTION('',(0.,1.,0.));
#1804=DIRECTION('',(0.,0.,1.));
#1805=DIRECTION('',(0.,1.,0.));
#1806=DIRECTION('',(0.,0.,1.));
#1807=DIRECTION('',(0.,1.,0.));
#1808=DIRECTION('',(1.,0.,0.));
#1809=DIRECTION('',(0.,1.,0.));
#1810=DIRECTION('',(0.,0.,1.));
#1811=DIRECTION('',(0.,1.,0.));
#1812=DIRECTION('',(0.,0.,1.));
#1813=DIRECTION('',(0.,-1.,0.));
#1814=DIRECTION('',(0.,0.,-1.));
#1815=DIRECTION('',(0.,1.,0.));
#1816=DIRECTION('',(1.,0.,0.));
#1817=DIRECTION('',(0.,1.,0.));
#1818=DIRECTION('',(0.,0.,1.));
#1819=DIRECTION('',(0.,0.,1.));
#1820=DIRECTION('',(1.,0.,0.));
#1821=DIRECTION('',(0.,0.,1.));
#1822=DIRECTION('',(1.,0.,0.));
#1823=DIRECTION('',(0.,0.,1.));
#1824=DIRECTION('',(1.,0.,0.));
#1825=DIRECTION('',(0.,0.,1.));
#1826=DIRECTION('',(1.,0.,0.));
#1827=DIRECTION('',(0.,0.,1.));
#1828=DIRECTION('',(1.,0.,0.));
#1829=DIRECTION('',(0.,0.,1.));
#1830=DIRECTION('',(1.,0.,0.));
#1831=DIRECTION('',(0.,0.,1.));
#1832=DIRECTION('',(1.,0.,0.));
#1833=DIRECTION('',(0.,0.,1.));
#1834=DIRECTION('',(1.,0.,0.));
#1835=DIRECTION('',(0.,0.,1.));
#1836=DIRECTION('',(1.,0.,0.));
#1837=DIRECTION('',(0.,0.,1.));
#1838=DIRECTION('',(1.,0.,0.));
#1839=DIRECTION('',(0.,1.,0.));
#1840=DIRECTION('',(0.,0.,1.));
#1841=DIRECTION('',(0.,0.,1.));
#1842=DIRECTION('',(-1.,0.,0.));
#1843=DIRECTION('',(0.,0.,1.));
#1844=DIRECTION('',(1.,0.,0.));
#1845=DIRECTION('',(0.,0.,-1.));
#1846=DIRECTION('',(0.,1.,0.));
#1847=DIRECTION('',(1.,0.,0.));
#1848=DIRECTION('',(0.,0.,-1.));
#1849=DIRECTION('',(0.,0.,1.));
#1850=DIRECTION('',(1.,0.,0.));
#1851=DIRECTION('',(0.,0.,-1.));
#1852=DIRECTION('',(0.,-1.,0.));
#1853=DIRECTION('',(0.,0.,-1.));
#1854=DIRECTION('',(0.,0.,1.));
#1855=DIRECTION('',(1.,0.,0.));
#1856=DIRECTION('',(-1.,0.,0.));
#1857=DIRECTION('',(0.,0.,1.));
#1858=DIRECTION('',(-1.,0.,0.));
#1859=DIRECTION('',(0.,0.,1.));
#1860=DIRECTION('',(0.,-1.,0.));
#1861=DIRECTION('',(-1.,0.,0.));
#1862=DIRECTION('',(0.,0.,1.));
#1863=DIRECTION('',(0.,0.,-1.));
#1864=DIRECTION('',(-1.,0.,0.));
#1865=DIRECTION('',(-1.,0.,0.));
#1866=DIRECTION('',(1.,0.,0.));
#1867=DIRECTION('',(0.,1.,0.));
#1868=DIRECTION('',(0.,0.,1.));
#1869=DIRECTION('',(0.,0.,1.));
#1870=DIRECTION('',(-1.,0.,0.));
#1871=DIRECTION('',(0.,0.,1.));
#1872=DIRECTION('',(1.,0.,0.));
#1873=DIRECTION('',(0.,0.,-1.));
#1874=DIRECTION('',(0.,0.,1.));
#1875=DIRECTION('',(1.,0.,0.));
#1876=DIRECTION('',(0.,0.,-1.));
#1877=DIRECTION('',(0.,1.,0.));
#1878=DIRECTION('',(1.,0.,0.));
#1879=DIRECTION('',(0.,0.,-1.));
#1880=DIRECTION('',(-5.78241158658936E-15,-1.,0.));
#1881=DIRECTION('',(1.,-5.78241158658936E-15,0.));
#1882=DIRECTION('',(0.,0.,1.));
#1883=DIRECTION('',(1.,-5.78241158658936E-15,0.));
#1884=DIRECTION('',(-1.,0.,0.));
#1885=DIRECTION('',(0.,0.,1.));
#1886=DIRECTION('',(0.,-1.,0.));
#1887=DIRECTION('',(-1.,0.,0.));
#1888=DIRECTION('',(0.,0.,1.));
#1889=DIRECTION('',(-1.,0.,0.));
#1890=DIRECTION('',(0.,0.,1.));
#1891=DIRECTION('',(0.,0.,-1.));
#1892=DIRECTION('',(-1.,0.,0.));
#1893=DIRECTION('',(1.,-5.78241158658936E-15,0.));
#1894=DIRECTION('',(-1.,0.,0.));
#1895=DIRECTION('',(0.,-1.,0.));
#1896=DIRECTION('',(0.,0.,-1.));
#1897=DIRECTION('',(0.,0.,1.));
#1898=DIRECTION('',(1.,0.,0.));
#1899=DIRECTION('',(0.,0.,1.));
#1900=DIRECTION('',(-1.,0.,0.));
#1901=DIRECTION('',(0.,0.,1.));
#1902=DIRECTION('',(0.,0.,1.));
#1903=DIRECTION('',(-1.,0.,0.));
#1904=DIRECTION('',(0.,0.,1.));
#1905=DIRECTION('',(0.,-1.,0.));
#1906=DIRECTION('',(-1.,0.,0.));
#1907=DIRECTION('',(0.,0.,1.));
#1908=DIRECTION('',(0.,1.,0.));
#1909=DIRECTION('',(0.,0.,1.));
#1910=DIRECTION('',(0.,0.,1.));
#1911=DIRECTION('',(-1.,0.,0.));
#1912=DIRECTION('',(1.,0.,0.));
#1913=DIRECTION('',(0.,0.,-1.));
#1914=DIRECTION('',(0.,1.,0.));
#1915=DIRECTION('',(1.,0.,0.));
#1916=DIRECTION('',(0.,0.,-1.));
#1917=DIRECTION('',(1.,0.,0.));
#1918=DIRECTION('',(0.,0.,-1.));
#1919=DIRECTION('',(0.,0.,-1.));
#1920=DIRECTION('',(-1.,0.,0.));
#1921=DIRECTION('',(-1.,0.,0.));
#1922=DIRECTION('',(1.,0.,0.));
#1923=DIRECTION('',(-1.44560289664734E-15,-1.,0.));
#1924=DIRECTION('',(1.,-1.44560289664734E-15,0.));
#1925=DIRECTION('',(0.,0.,1.));
#1926=DIRECTION('',(1.,-1.44560289664734E-15,0.));
#1927=DIRECTION('',(0.,0.,1.));
#1928=DIRECTION('',(-1.,0.,0.));
#1929=DIRECTION('',(0.,0.,1.));
#1930=DIRECTION('',(0.,0.,1.));
#1931=DIRECTION('',(-1.,0.,0.));
#1932=DIRECTION('',(0.,0.,1.));
#1933=DIRECTION('',(0.,-1.,0.));
#1934=DIRECTION('',(-1.,0.,0.));
#1935=DIRECTION('',(0.,0.,1.));
#1936=DIRECTION('',(0.,1.,0.));
#1937=DIRECTION('',(0.,0.,1.));
#1938=DIRECTION('',(0.,0.,1.));
#1939=DIRECTION('',(-1.,0.,0.));
#1940=DIRECTION('',(1.,0.,0.));
#1941=DIRECTION('',(0.,0.,-1.));
#1942=DIRECTION('',(0.,1.,0.));
#1943=DIRECTION('',(1.,0.,0.));
#1944=DIRECTION('',(0.,0.,-1.));
#1945=DIRECTION('',(1.,0.,0.));
#1946=DIRECTION('',(0.,0.,-1.));
#1947=DIRECTION('',(0.,0.,-1.));
#1948=DIRECTION('',(-1.,0.,0.));
#1949=DIRECTION('',(-1.,0.,0.));
#1950=DIRECTION('',(1.,-1.44560289664734E-15,0.));
#1951=DIRECTION('',(-1.,0.,0.));
#1952=DIRECTION('',(0.,0.,1.));
#1953=DIRECTION('',(-1.,0.,0.));
#1954=DIRECTION('',(0.,0.,1.));
#1955=DIRECTION('',(1.,0.,0.));
#1956=DIRECTION('',(0.,0.,-1.));
#1957=DIRECTION('',(-1.,1.44560289664734E-15,0.));
#1958=DIRECTION('',(-1.44560289664734E-15,-1.,0.));
#1959=DIRECTION('',(1.,0.,0.));
#1960=DIRECTION('',(0.,0.,-1.));
#1961=DIRECTION('',(1.,0.,0.));
#1962=DIRECTION('',(0.,0.,-1.));
#1963=DIRECTION('',(1.,0.,0.));
#1964=DIRECTION('',(0.,0.,-1.));
#1965=DIRECTION('',(-1.,5.78241158658936E-15,0.));
#1966=DIRECTION('',(-5.78241158658936E-15,-1.,0.));
#1967=DIRECTION('',(0.,-1.,0.));
#1968=DIRECTION('',(0.,0.,-1.));
#1969=DIRECTION('',(0.,0.,1.));
#1970=DIRECTION('',(1.,0.,0.));
#1971=DIRECTION('',(-0.00256281178926271,0.999996715992474,0.));
#1972=DIRECTION('',(-0.999996715992474,-0.00256281178926271,0.));
#1973=DIRECTION('',(-0.999996715992474,-0.00256281178926271,0.));
#1974=DIRECTION('',(0.,0.,1.));
#1975=DIRECTION('',(1.,-5.78241158658936E-16,0.));
#1976=DIRECTION('',(5.78241158658936E-16,1.,0.));
#1977=DIRECTION('',(5.78241158658937E-16,1.,0.));
#1978=DIRECTION('',(0.,0.,1.));
#1979=DIRECTION('',(0.,1.,0.));
#1980=DIRECTION('',(0.,0.,1.));
#1981=DIRECTION('',(-1.,0.,0.));
#1982=DIRECTION('',(-1.,0.,0.));
#1983=DIRECTION('',(0.,0.,1.));
#1984=DIRECTION('',(0.,-1.,0.));
#1985=DIRECTION('',(0.,0.,1.));
#1986=DIRECTION('',(0.,-1.,0.));
#1987=DIRECTION('',(0.,0.,-1.));
#1988=DIRECTION('',(1.,0.,0.));
#1989=DIRECTION('',(0.,0.,1.));
#1990=DIRECTION('',(-1.,0.,0.));
#1991=DIRECTION('',(0.,0.,1.));
#1992=DIRECTION('',(0.,-1.,0.));
#1993=DIRECTION('',(0.,0.,-1.));
#1994=DIRECTION('',(-1.,0.,0.));
#1995=DIRECTION('',(0.,-1.,0.));
#1996=DIRECTION('',(1.,3.76954680526246E-16,0.));
#1997=DIRECTION('',(0.,-1.,0.));
#1998=DIRECTION('',(1.,0.,0.));
#1999=DIRECTION('',(0.,1.,0.));
#2000=DIRECTION('',(-1.,0.,0.));
#2001=DIRECTION('',(-3.28923598711658E-16,1.,0.));
#2002=DIRECTION('',(-1.,0.,0.));
#2003=DIRECTION('',(0.,-1.,0.));
#2004=DIRECTION('',(1.,0.,0.));
#2005=DIRECTION('',(-3.76954680526246E-16,1.,0.));
#2006=DIRECTION('',(-1.,-3.76954680526246E-16,0.));
#2007=DIRECTION('',(0.,0.,-1.));
#2008=DIRECTION('',(1.,3.76954680526246E-16,0.));
#2009=DIRECTION('',(0.,0.,-1.));
#2010=DIRECTION('',(1.,0.,0.));
#2011=DIRECTION('',(0.,0.,-1.));
#2012=DIRECTION('',(0.,-1.,0.));
#2013=DIRECTION('',(0.,0.,-1.));
#2014=DIRECTION('',(0.,1.,0.));
#2015=DIRECTION('',(0.,0.,1.));
#2016=DIRECTION('',(1.,0.,0.));
#2017=DIRECTION('',(0.,1.,0.));
#2018=DIRECTION('',(0.,0.,1.));
#2019=DIRECTION('',(0.,-1.,0.));
#2020=DIRECTION('',(0.,0.,-1.));
#2021=DIRECTION('',(0.,-1.,0.));
#2022=DIRECTION('',(0.,0.,-1.));
#2023=DIRECTION('',(-1.,0.,0.));
#2024=DIRECTION('',(0.,0.,-1.));
#2025=DIRECTION('',(-1.,-3.28923598711658E-16,0.));
#2026=DIRECTION('',(3.28923598711658E-16,-1.,0.));
#2027=DIRECTION('',(-3.28923598711658E-16,1.,0.));
#2028=DIRECTION('',(0.,0.,-1.));
#2029=DIRECTION('',(0.,-1.,0.));
#2030=DIRECTION('',(0.,0.,-1.));
#2031=DIRECTION('',(-1.,0.,0.));
#2032=DIRECTION('',(0.,-1.,0.));
#2033=DIRECTION('',(0.,0.,-1.));
#2034=DIRECTION('',(0.,1.,0.));
#2035=DIRECTION('',(0.,0.,1.));
#2036=DIRECTION('',(0.,1.,0.));
#2037=DIRECTION('',(0.,0.,1.));
#2038=DIRECTION('',(1.,0.,0.));
#2039=DIRECTION('',(0.,0.,-1.));
#2040=DIRECTION('',(1.,0.,0.));
#2041=DIRECTION('',(0.,0.,-1.));
#2042=DIRECTION('',(0.,-1.,0.));
#2043=DIRECTION('',(0.,0.,-1.));
#2044=DIRECTION('',(-1.,0.,0.));
#2045=DIRECTION('',(0.,-1.,0.));
#2046=DIRECTION('',(0.,1.,0.));
#2047=DIRECTION('',(0.,-1.,0.));
#2048=DIRECTION('',(0.,0.,-1.));
#2049=DIRECTION('',(0.,1.,0.));
#2050=DIRECTION('',(0.,0.,1.));
#2051=CARTESIAN_POINT('',(0.,0.,0.));
#2052=CARTESIAN_POINT('',(3.15,11.5,-2.5));
#2053=CARTESIAN_POINT('',(3.15,10.0381451925829,2.05691221608696));
#2054=CARTESIAN_POINT('',(3.15,10.0381451925829,2.05691221608696));
#2055=CARTESIAN_POINT('',(3.15,8.71435179315127,2.05691221608696));
#2056=CARTESIAN_POINT('',(3.15,8.71435179315127,2.31242720689951));
#2057=CARTESIAN_POINT('',(3.15,8.71435179315127,2.5));
#2058=CARTESIAN_POINT('',(3.15,11.5,2.5));
#2059=CARTESIAN_POINT('',(3.15,0.,2.5));
#2060=CARTESIAN_POINT('',(3.15,0.,-2.5));
#2061=CARTESIAN_POINT('',(3.15,0.,-2.5));
#2062=CARTESIAN_POINT('',(3.15,11.5,-2.5));
#2063=CARTESIAN_POINT('',(3.15,11.5,-2.5));
#2064=CARTESIAN_POINT('',(3.15,11.5,-2.5));
#2065=CARTESIAN_POINT('',(3.15,11.5,2.5));
#2066=CARTESIAN_POINT('',(3.15,11.5,2.5));
#2067=CARTESIAN_POINT('',(3.15,10.0381451925829,2.5));
#2068=CARTESIAN_POINT('',(3.15,10.0381451925829,2.31242720689951));
#2069=CARTESIAN_POINT('',(3.15,11.5,2.5));
#2070=CARTESIAN_POINT('',(2.79320926986564,10.9813494153404,2.5));
#2071=CARTESIAN_POINT('',(2.79320926986564,10.9813494153404,2.5));
#2072=CARTESIAN_POINT('',(2.79320926986564,10.0381451925829,2.5));
#2073=CARTESIAN_POINT('',(2.79320926986564,10.0381451925829,2.5));
#2074=CARTESIAN_POINT('',(3.15,11.5,2.5));
#2075=CARTESIAN_POINT('',(-1.91850005923378,11.5,2.5));
#2076=CARTESIAN_POINT('',(-1.91850005923378,11.5,2.5));
#2077=CARTESIAN_POINT('',(-1.91850005923378,10.9813494153404,2.5));
#2078=CARTESIAN_POINT('',(-1.91850005923378,10.9813494153404,2.5));
#2079=CARTESIAN_POINT('',(3.15,11.5,2.5));
#2080=CARTESIAN_POINT('',(-2.45,8.7,2.5));
#2081=CARTESIAN_POINT('',(-2.45,8.7,2.5));
#2082=CARTESIAN_POINT('',(-2.45,9.45,2.5));
#2083=CARTESIAN_POINT('',(-2.45,9.45,2.5));
#2084=CARTESIAN_POINT('',(-3.15,9.45,2.5));
#2085=CARTESIAN_POINT('',(-3.15,11.5,2.5));
#2086=CARTESIAN_POINT('',(-3.15,0.,2.5));
#2087=CARTESIAN_POINT('',(3.15,0.,2.5));
#2088=CARTESIAN_POINT('',(0.,0.,2.5));
#2089=CARTESIAN_POINT('',(3.15,0.,2.5));
#2090=CARTESIAN_POINT('',(3.15,8.71435179315127,2.5));
#2091=CARTESIAN_POINT('',(-3.15,11.5,2.5));
#2092=CARTESIAN_POINT('',(-3.15,9.45,2.31242720689951));
#2093=CARTESIAN_POINT('',(-3.15,9.45,2.05691221608696));
#2094=CARTESIAN_POINT('',(-3.15,11.5,2.05691221608696));
#2095=CARTESIAN_POINT('',(-3.15,11.5,2.05691221608696));
#2096=CARTESIAN_POINT('',(-3.15,11.5,2.5));
#2097=CARTESIAN_POINT('',(-3.15,11.5,-2.5));
#2098=CARTESIAN_POINT('',(-3.15,11.5,-2.5));
#2099=CARTESIAN_POINT('',(-3.15,0.,-2.5));
#2100=CARTESIAN_POINT('',(-3.15,0.,2.5));
#2101=CARTESIAN_POINT('',(-3.15,11.5,-2.5));
#2102=CARTESIAN_POINT('',(3.06161699786838E-16,2.5,-2.5));
#2103=CARTESIAN_POINT('',(-0.7,2.5,-2.5));
#2104=CARTESIAN_POINT('',(1.0435445910173E-15,8.5,-2.5));
#2105=CARTESIAN_POINT('',(-0.699999999999999,8.5,-2.5));
#2106=CARTESIAN_POINT('',(-3.15,0.,-2.5));
#2107=CARTESIAN_POINT('',(0.,0.,-2.5));
#2108=CARTESIAN_POINT('',(-3.15,11.5,-2.5));
#2109=CARTESIAN_POINT('',(-3.15,0.,-2.5));
#2110=CARTESIAN_POINT('',(2.25,4.05,-2.5));
#2111=CARTESIAN_POINT('',(2.25,4.05,-2.5));
#2112=CARTESIAN_POINT('',(2.25,5.55,-2.5));
#2113=CARTESIAN_POINT('',(2.55,4.05,-2.5));
#2114=CARTESIAN_POINT('',(2.55,4.05,-2.5));
#2115=CARTESIAN_POINT('',(2.55,5.55,-2.5));
#2116=CARTESIAN_POINT('',(2.55,5.55,-2.5));
#2117=CARTESIAN_POINT('',(2.25,5.55,-2.5));
#2118=CARTESIAN_POINT('',(2.05,9.85,-2.5));
#2119=CARTESIAN_POINT('',(2.05,9.85,-2.5));
#2120=CARTESIAN_POINT('',(2.05,11.35,-2.5));
#2121=CARTESIAN_POINT('',(2.35,9.85,-2.5));
#2122=CARTESIAN_POINT('',(2.35,9.85,-2.5));
#2123=CARTESIAN_POINT('',(2.35,11.35,-2.5));
#2124=CARTESIAN_POINT('',(2.35,11.35,-2.5));
#2125=CARTESIAN_POINT('',(2.05,11.35,-2.5));
#2126=CARTESIAN_POINT('',(-2.45,9.45,-2.5));
#2127=CARTESIAN_POINT('',(-2.45,9.45,-2.5));
#2128=CARTESIAN_POINT('',(-2.45,7.95,-2.5));
#2129=CARTESIAN_POINT('',(-2.75,9.45,-2.5));
#2130=CARTESIAN_POINT('',(-2.75,9.45,-2.5));
#2131=CARTESIAN_POINT('',(-2.75,7.95,-2.5));
#2132=CARTESIAN_POINT('',(-2.75,7.95,-2.5));
#2133=CARTESIAN_POINT('',(-2.45,7.95,-2.5));
#2134=CARTESIAN_POINT('',(-2.45,2.65,-2.5));
#2135=CARTESIAN_POINT('',(-2.45,2.65,-2.5));
#2136=CARTESIAN_POINT('',(-2.45,1.15,-2.5));
#2137=CARTESIAN_POINT('',(-2.75,2.65,-2.5));
#2138=CARTESIAN_POINT('',(-2.75,2.65,-2.5));
#2139=CARTESIAN_POINT('',(-2.75,1.15,-2.5));
#2140=CARTESIAN_POINT('',(-2.75,1.15,-2.5));
#2141=CARTESIAN_POINT('',(-2.45,1.15,-2.5));
#2142=CARTESIAN_POINT('',(0.,0.,0.));
#2143=CARTESIAN_POINT('',(0.,0.,0.));
#2144=CARTESIAN_POINT('',(0.,11.5,0.));
#2145=CARTESIAN_POINT('',(-1.91850005923378,11.5,2.05691221608696));
#2146=CARTESIAN_POINT('',(-1.91850005923378,11.5,2.05691221608696));
#2147=CARTESIAN_POINT('',(-1.91850005923378,11.5,2.31242720689951));
#2148=CARTESIAN_POINT('',(0.,0.,0.));
#2149=CARTESIAN_POINT('',(0.,0.,0.));
#2150=CARTESIAN_POINT('',(0.,-2.5,0.));
#2151=CARTESIAN_POINT('',(0.,-2.16942842907311,0.));
#2152=CARTESIAN_POINT('',(0.,-2.16942842907311,2.5));
#2153=CARTESIAN_POINT('',(0.,-2.5,0.));
#2154=CARTESIAN_POINT('',(0.,-2.5,0.));
#2155=CARTESIAN_POINT('',(1.8,-2.5,0.));
#2156=CARTESIAN_POINT('',(0.,-2.5,0.));
#2157=CARTESIAN_POINT('',(0.,-2.5,2.16942842907311));
#2158=CARTESIAN_POINT('',(0.,-2.16942842907311,0.));
#2159=CARTESIAN_POINT('',(0.,6.86356029877356,0.));
#2160=CARTESIAN_POINT('',(0.,6.86356029877356,0.));
#2161=CARTESIAN_POINT('',(1.8,6.86356029877356,0.));
#2162=CARTESIAN_POINT('',(0.,6.86356029877356,0.));
#2163=CARTESIAN_POINT('',(1.0435445910173E-15,8.5,-3.5));
#2164=CARTESIAN_POINT('',(1.0435445910173E-15,8.5,-3.3512427930829));
#2165=CARTESIAN_POINT('',(0.700000000000001,8.5,-3.3512427930829));
#2166=CARTESIAN_POINT('',(1.0435445910173E-15,8.5,-3.5));
#2167=CARTESIAN_POINT('',(1.0435445910173E-15,8.5,-3.5));
#2168=CARTESIAN_POINT('',(0.551242793082901,8.5,-3.5));
#2169=CARTESIAN_POINT('',(3.06161699786838E-16,2.5,-3.5));
#2170=CARTESIAN_POINT('',(3.06161699786838E-16,2.5,-3.3512427930829));
#2171=CARTESIAN_POINT('',(0.7,2.5,-3.3512427930829));
#2172=CARTESIAN_POINT('',(3.06161699786838E-16,2.5,-3.5));
#2173=CARTESIAN_POINT('',(3.06161699786838E-16,2.5,-3.5));
#2174=CARTESIAN_POINT('',(0.551242793082901,2.5,-3.5));
#2175=CARTESIAN_POINT('',(3.06161699786838E-16,2.5,-3.3512427930829));
#2176=CARTESIAN_POINT('',(1.0435445910173E-15,8.5,-3.3512427930829));
#2177=CARTESIAN_POINT('',(2.55,4.05,-4.6));
#2178=CARTESIAN_POINT('',(2.25,4.05,-4.6));
#2179=CARTESIAN_POINT('',(2.25,4.05,-3.85820299440962));
#2180=CARTESIAN_POINT('',(2.55,4.05,-3.85820299440962));
#2181=CARTESIAN_POINT('',(2.55,4.05,-3.85820299440962));
#2182=CARTESIAN_POINT('',(2.55,4.05,-4.6));
#2183=CARTESIAN_POINT('',(2.25,4.05,-4.6));
#2184=CARTESIAN_POINT('',(2.25,4.05,-4.6));
#2185=CARTESIAN_POINT('',(2.25,4.79179700559038,-4.6));
#2186=CARTESIAN_POINT('',(2.25,4.80820299440962,-4.6));
#2187=CARTESIAN_POINT('',(2.25,4.79179700559038,-3.85820299440962));
#2188=CARTESIAN_POINT('',(2.25,5.55,-4.6));
#2189=CARTESIAN_POINT('',(2.25,5.55,-3.85820299440962));
#2190=CARTESIAN_POINT('',(2.25,4.80820299440962,-3.85820299440962));
#2191=CARTESIAN_POINT('',(2.25,5.55,-4.6));
#2192=CARTESIAN_POINT('',(2.55,5.55,-4.6));
#2193=CARTESIAN_POINT('',(2.55,5.55,-3.85820299440962));
#2194=CARTESIAN_POINT('',(2.25,5.55,-3.85820299440962));
#2195=CARTESIAN_POINT('',(2.55,5.55,-4.6));
#2196=CARTESIAN_POINT('',(2.55,4.79179700559038,-3.85820299440962));
#2197=CARTESIAN_POINT('',(2.55,4.79179700559038,-4.6));
#2198=CARTESIAN_POINT('',(2.55,5.55,-4.6));
#2199=CARTESIAN_POINT('',(2.55,4.80820299440962,-4.6));
#2200=CARTESIAN_POINT('',(2.55,4.80820299440962,-3.85820299440962));
#2201=CARTESIAN_POINT('',(0.,0.,-4.6));
#2202=CARTESIAN_POINT('',(2.25,4.79179700559038,-4.6));
#2203=CARTESIAN_POINT('',(2.55,4.80820299440962,-4.6));
#2204=CARTESIAN_POINT('',(2.35,9.85,-4.6));
#2205=CARTESIAN_POINT('',(2.05,9.85,-4.6));
#2206=CARTESIAN_POINT('',(2.05,9.85,-3.85820299440962));
#2207=CARTESIAN_POINT('',(2.35,9.85,-3.85820299440962));
#2208=CARTESIAN_POINT('',(2.35,9.85,-3.85820299440962));
#2209=CARTESIAN_POINT('',(2.35,9.85,-4.6));
#2210=CARTESIAN_POINT('',(2.05,9.85,-4.6));
#2211=CARTESIAN_POINT('',(2.05,11.35,-4.6));
#2212=CARTESIAN_POINT('',(2.05,11.35,-3.85820299440962));
#2213=CARTESIAN_POINT('',(2.05,10.6082029944096,-3.85820299440962));
#2214=CARTESIAN_POINT('',(2.05,10.6082029944096,-4.6));
#2215=CARTESIAN_POINT('',(2.05,9.85,-4.6));
#2216=CARTESIAN_POINT('',(2.05,10.5917970055904,-4.6));
#2217=CARTESIAN_POINT('',(2.05,10.5917970055904,-3.85820299440962));
#2218=CARTESIAN_POINT('',(2.05,11.35,-4.6));
#2219=CARTESIAN_POINT('',(2.35,11.35,-4.6));
#2220=CARTESIAN_POINT('',(2.35,11.35,-3.85820299440962));
#2221=CARTESIAN_POINT('',(2.05,11.35,-3.85820299440962));
#2222=CARTESIAN_POINT('',(2.35,11.35,-4.6));
#2223=CARTESIAN_POINT('',(2.35,11.35,-4.6));
#2224=CARTESIAN_POINT('',(2.35,10.6082029944096,-4.6));
#2225=CARTESIAN_POINT('',(2.35,10.5917970055904,-4.6));
#2226=CARTESIAN_POINT('',(2.35,10.6082029944096,-3.85820299440962));
#2227=CARTESIAN_POINT('',(2.35,10.5917970055904,-3.85820299440962));
#2228=CARTESIAN_POINT('',(0.,0.,-4.6));
#2229=CARTESIAN_POINT('',(2.35,10.6082029944096,-4.6));
#2230=CARTESIAN_POINT('',(2.05,10.5917970055904,-4.6));
#2231=CARTESIAN_POINT('',(-2.75,9.45,-4.6));
#2232=CARTESIAN_POINT('',(-2.45,9.45,-4.6));
#2233=CARTESIAN_POINT('',(-2.45,9.45,-3.85820299440962));
#2234=CARTESIAN_POINT('',(-2.75,9.45,-3.85820299440962));
#2235=CARTESIAN_POINT('',(-2.75,9.45,-3.85820299440962));
#2236=CARTESIAN_POINT('',(-2.75,9.45,-4.6));
#2237=CARTESIAN_POINT('',(-2.45,9.45,-4.6));
#2238=CARTESIAN_POINT('',(-2.45,7.95,-4.6));
#2239=CARTESIAN_POINT('',(-2.45,7.95,-3.85820299440962));
#2240=CARTESIAN_POINT('',(-2.45,8.69179700559038,-3.85820299440962));
#2241=CARTESIAN_POINT('',(-2.45,8.69179700559038,-4.6));
#2242=CARTESIAN_POINT('',(-2.45,9.45,-4.6));
#2243=CARTESIAN_POINT('',(-2.45,8.70820299440962,-4.6));
#2244=CARTESIAN_POINT('',(-2.45,8.70820299440962,-3.85820299440962));
#2245=CARTESIAN_POINT('',(-2.45,7.95,-4.6));
#2246=CARTESIAN_POINT('',(-2.75,7.95,-4.6));
#2247=CARTESIAN_POINT('',(-2.75,7.95,-3.85820299440962));
#2248=CARTESIAN_POINT('',(-2.45,7.95,-3.85820299440962));
#2249=CARTESIAN_POINT('',(-2.75,7.95,-4.6));
#2250=CARTESIAN_POINT('',(-2.75,7.95,-4.6));
#2251=CARTESIAN_POINT('',(-2.75,8.69179700559038,-4.6));
#2252=CARTESIAN_POINT('',(-2.75,8.70820299440962,-4.6));
#2253=CARTESIAN_POINT('',(-2.75,8.69179700559038,-3.85820299440962));
#2254=CARTESIAN_POINT('',(-2.75,8.70820299440962,-3.85820299440962));
#2255=CARTESIAN_POINT('',(0.,0.,-4.6));
#2256=CARTESIAN_POINT('',(-2.75,8.69179700559038,-4.6));
#2257=CARTESIAN_POINT('',(-2.45,8.70820299440962,-4.6));
#2258=CARTESIAN_POINT('',(-2.75,2.65,-4.6));
#2259=CARTESIAN_POINT('',(-2.45,2.65,-4.6));
#2260=CARTESIAN_POINT('',(-2.45,2.65,-3.85820299440962));
#2261=CARTESIAN_POINT('',(-2.75,2.65,-3.85820299440962));
#2262=CARTESIAN_POINT('',(-2.75,2.65,-3.85820299440962));
#2263=CARTESIAN_POINT('',(-2.75,2.65,-4.6));
#2264=CARTESIAN_POINT('',(-2.45,2.65,-4.6));
#2265=CARTESIAN_POINT('',(-2.45,1.15,-4.6));
#2266=CARTESIAN_POINT('',(-2.45,1.15,-3.85820299440962));
#2267=CARTESIAN_POINT('',(-2.45,1.89179700559038,-3.85820299440962));
#2268=CARTESIAN_POINT('',(-2.45,1.89179700559038,-4.6));
#2269=CARTESIAN_POINT('',(-2.45,2.65,-4.6));
#2270=CARTESIAN_POINT('',(-2.45,1.90820299440962,-4.6));
#2271=CARTESIAN_POINT('',(-2.45,1.90820299440962,-3.85820299440962));
#2272=CARTESIAN_POINT('',(-2.45,1.15,-4.6));
#2273=CARTESIAN_POINT('',(-2.75,1.15,-4.6));
#2274=CARTESIAN_POINT('',(-2.75,1.15,-3.85820299440962));
#2275=CARTESIAN_POINT('',(-2.45,1.15,-3.85820299440962));
#2276=CARTESIAN_POINT('',(-2.75,1.15,-4.6));
#2277=CARTESIAN_POINT('',(-2.75,1.15,-4.6));
#2278=CARTESIAN_POINT('',(-2.75,1.89179700559038,-4.6));
#2279=CARTESIAN_POINT('',(-2.75,1.90820299440962,-4.6));
#2280=CARTESIAN_POINT('',(-2.75,1.89179700559038,-3.85820299440962));
#2281=CARTESIAN_POINT('',(-2.75,1.90820299440962,-3.85820299440962));
#2282=CARTESIAN_POINT('',(0.,0.,-4.6));
#2283=CARTESIAN_POINT('',(-2.75,1.89179700559038,-4.6));
#2284=CARTESIAN_POINT('',(-2.45,1.90820299440962,-4.6));
#2285=CARTESIAN_POINT('',(0.,4.80820299440962,-3.85820299440962));
#2286=CARTESIAN_POINT('',(0.,8.70820299440962,-3.85820299440962));
#2287=CARTESIAN_POINT('',(0.,8.69179700559038,-3.85820299440962));
#2288=CARTESIAN_POINT('',(2.75850377610967E-15,1.90820299440962,-3.85820299440962));
#2289=CARTESIAN_POINT('',(0.,1.89179700559038,-3.85820299440962));
#2290=CARTESIAN_POINT('',(0.,4.79179700559038,-3.85820299440962));
#2291=CARTESIAN_POINT('',(0.,10.5917970055904,-3.85820299440962));
#2292=CARTESIAN_POINT('',(6.13409959077662E-14,10.6082029944096,-3.85820299440962));
#2293=CARTESIAN_POINT('',(2.79320926986564,10.0381451925829,2.31242720689951));
#2294=CARTESIAN_POINT('',(2.79320926986564,10.0381451925829,2.31242720689951));
#2295=CARTESIAN_POINT('',(2.79320926986564,10.0381451925829,2.05691221608696));
#2296=CARTESIAN_POINT('',(2.79320926986564,10.0381451925829,2.05691221608696));
#2297=CARTESIAN_POINT('',(3.15,8.71435179315127,2.31242720689951));
#2298=CARTESIAN_POINT('',(3.15,8.71435179315127,2.05691221608696));
#2299=CARTESIAN_POINT('',(-2.45,8.7,2.05691221608696));
#2300=CARTESIAN_POINT('',(-2.45,8.7,2.31242720689951));
#2301=CARTESIAN_POINT('',(-2.45,8.7,2.31242720689951));
#2302=CARTESIAN_POINT('',(-2.45,8.7,2.05691221608696));
#2303=CARTESIAN_POINT('',(-2.45,9.45,2.05691221608696));
#2304=CARTESIAN_POINT('',(-2.45,9.45,2.31242720689951));
#2305=CARTESIAN_POINT('',(-2.45,9.45,2.31242720689951));
#2306=CARTESIAN_POINT('',(-2.45,9.45,2.05691221608696));
#2307=CARTESIAN_POINT('',(-1.91850005923378,11.5,2.31242720689951));
#2308=CARTESIAN_POINT('',(-1.91850005923378,11.5,2.05691221608696));
#2309=CARTESIAN_POINT('',(-1.91850005923378,10.9813494153404,2.05691221608696));
#2310=CARTESIAN_POINT('',(-1.91850005923378,10.9813494153404,2.31242720689951));
#2311=CARTESIAN_POINT('',(-1.91850005923378,10.9813494153404,2.31242720689951));
#2312=CARTESIAN_POINT('',(-1.91850005923378,10.9813494153404,2.05691221608696));
#2313=CARTESIAN_POINT('',(2.79320926986564,10.9813494153404,2.05691221608696));
#2314=CARTESIAN_POINT('',(2.79320926986564,10.9813494153404,2.31242720689951));
#2315=CARTESIAN_POINT('',(2.79320926986564,10.9813494153404,2.31242720689951));
#2316=CARTESIAN_POINT('',(2.79320926986564,10.9813494153404,2.05691221608696));
#2317=CARTESIAN_POINT('',(0.,0.,2.05691221608696));
#2318=CARTESIAN_POINT('',(-2.07215197874222,11.3088590065443,2.05691221608696));
#2319=CARTESIAN_POINT('',(-2.07215197874222,11.3088590065443,2.05691221608696));
#2320=CARTESIAN_POINT('',(-2.07215197874222,10.9004925755408,2.05691221608696));
#2321=CARTESIAN_POINT('',(-2.07215197874222,10.9004925755408,2.05691221608696));
#2322=CARTESIAN_POINT('',(2.52978975482388,10.9004925755408,2.05691221608696));
#2323=CARTESIAN_POINT('',(2.52978975482388,10.9004925755408,2.05691221608696));
#2324=CARTESIAN_POINT('',(2.52978975482388,9.94580894982883,2.05691221608696));
#2325=CARTESIAN_POINT('',(2.52978975482388,9.94580894982883,2.05691221608696));
#2326=CARTESIAN_POINT('',(2.91966066200999,9.94580894982883,2.05691221608696));
#2327=CARTESIAN_POINT('',(2.91966066200999,9.36366191723102,2.05691221608696));
#2328=CARTESIAN_POINT('',(2.91966066200999,8.7815148846332,2.05691221608696));
#2329=CARTESIAN_POINT('',(3.05249886710116,8.7815148846332,2.05691221608696));
#2330=CARTESIAN_POINT('',(-2.26686091402727,8.7815148846332,2.05691221608696));
#2331=CARTESIAN_POINT('',(-2.26686091402727,8.7815148846332,2.05691221608696));
#2332=CARTESIAN_POINT('',(-2.26686091402727,10.1,2.05691221608696));
#2333=CARTESIAN_POINT('',(-2.26686091402727,10.1,2.05691221608696));
#2334=CARTESIAN_POINT('',(-2.7356933684055,10.1,2.05691221608696));
#2335=CARTESIAN_POINT('',(-2.7356933684055,10.7044295032721,2.05691221608696));
#2336=CARTESIAN_POINT('',(-2.7356933684055,11.3088590065443,2.05691221608696));
#2337=CARTESIAN_POINT('',(-2.86853157349667,11.3088590065443,2.05691221608696));
#2338=CARTESIAN_POINT('',(-2.07215197874222,10.9004925755408,2.22931483729771));
#2339=CARTESIAN_POINT('',(-2.07215197874222,10.9004925755408,2.22931483729771));
#2340=CARTESIAN_POINT('',(-2.07215197874222,10.9004925755408,2.22931483729771));
#2341=CARTESIAN_POINT('',(-2.07215197874222,10.9004925755408,2.22931483729771));
#2342=CARTESIAN_POINT('',(2.52978975482388,10.9004925755408,2.22931483729771));
#2343=CARTESIAN_POINT('',(2.52978975482388,10.9004925755408,2.22931483729771));
#2344=CARTESIAN_POINT('',(2.52978975482388,10.9004925755408,2.22931483729771));
#2345=CARTESIAN_POINT('',(2.52978975482388,10.9004925755408,2.22931483729771));
#2346=CARTESIAN_POINT('',(2.52978975482388,9.94580894982883,2.22931483729771));
#2347=CARTESIAN_POINT('',(2.52978975482388,9.94580894982883,2.22931483729771));
#2348=CARTESIAN_POINT('',(2.52978975482388,9.94580894982883,2.22931483729771));
#2349=CARTESIAN_POINT('',(2.52978975482388,9.94580894982883,2.22931483729771));
#2350=CARTESIAN_POINT('',(2.5332409631879,9.94580894982883,2.22931483729771));
#2351=CARTESIAN_POINT('',(2.5332409631879,9.94580894982883,1.71005693338444));
#2352=CARTESIAN_POINT('',(3.05249886710116,8.7815148846332,2.22931483729771));
#2353=CARTESIAN_POINT('',(2.5332409631879,8.7815148846332,1.71005693338444));
#2354=CARTESIAN_POINT('',(2.5332409631879,8.7815148846332,2.22931483729771));
#2355=CARTESIAN_POINT('',(3.05249886710116,8.7815148846332,2.22931483729771));
#2356=CARTESIAN_POINT('',(-2.26686091402727,8.7815148846332,2.22931483729771));
#2357=CARTESIAN_POINT('',(-2.26686091402727,8.7815148846332,2.22931483729771));
#2358=CARTESIAN_POINT('',(-2.26686091402727,8.7815148846332,2.22931483729771));
#2359=CARTESIAN_POINT('',(-2.26686091402727,8.7815148846332,2.22931483729771));
#2360=CARTESIAN_POINT('',(-2.26686091402727,10.1,2.22931483729771));
#2361=CARTESIAN_POINT('',(-2.26686091402727,10.1,2.22931483729771));
#2362=CARTESIAN_POINT('',(-2.26686091402727,10.1,2.22931483729771));
#2363=CARTESIAN_POINT('',(-2.26686091402727,10.1,2.22931483729771));
#2364=CARTESIAN_POINT('',(-2.3492736695834,10.1,2.22931483729771));
#2365=CARTESIAN_POINT('',(-2.3492736695834,10.1,1.71005693338444));
#2366=CARTESIAN_POINT('',(-2.86853157349667,11.3088590065443,2.22931483729771));
#2367=CARTESIAN_POINT('',(-2.3492736695834,11.3088590065443,1.71005693338444));
#2368=CARTESIAN_POINT('',(-2.3492736695834,11.3088590065443,2.22931483729771));
#2369=CARTESIAN_POINT('',(-2.86853157349667,11.3088590065443,2.22931483729771));
#2370=CARTESIAN_POINT('',(-2.07215197874222,11.3088590065443,2.22931483729771));
#2371=CARTESIAN_POINT('',(-2.07215197874222,11.3088590065443,2.22931483729771));
#2372=CARTESIAN_POINT('',(-2.07215197874222,11.3088590065443,2.22931483729771));
#2373=CARTESIAN_POINT('',(-2.07215197874222,11.3088590065443,2.22931483729771));
#2374=CARTESIAN_POINT('',(0.,0.,2.22931483729771));
#2375=CARTESIAN_POINT('',(2.5332409631879,9.94580894982883,2.22931483729771));
#2376=CARTESIAN_POINT('',(-2.3492736695834,10.1,2.22931483729771));
#2377=CARTESIAN_POINT('',(-2.3492736695834,10.9004925755408,1.71005693338444));
#2378=CARTESIAN_POINT('',(2.5332409631879,9.94580894982883,1.71005693338444));
#2379=MECHANICAL_DESIGN_GEOMETRIC_PRESENTATION_REPRESENTATION('',(#1097,
#1098,#1099,#1100,#1101,#1102,#1103,#1104,#1105,#1106,#1107,#1108,#1109,
#1110,#1111,#1112,#1113,#1114,#1115,#1116,#1117,#1118,#1119,#1120,#1121,
#1122,#1123,#1124,#1125,#1126,#1127,#1128,#1129,#1130,#1131,#1132,#1133,
#1134,#1135,#1136,#1137,#1138,#1139,#1140,#1141,#1142,#1143,#1144,#1145,
#1146,#1147,#1148,#1149,#1150,#1151,#1152,#1153,#1154,#1155,#1156,#1157,
#1158,#1159,#1160,#1161,#1162),#2380);
#2380=(
GEOMETRIC_REPRESENTATION_CONTEXT(3)
GLOBAL_UNCERTAINTY_ASSIGNED_CONTEXT((#2381))
GLOBAL_UNIT_ASSIGNED_CONTEXT((#2384,#2383,#2382))
REPRESENTATION_CONTEXT('ASJ-200-B-HT','TOP_LEVEL_ASSEMBLY_PART')
);
#2381=UNCERTAINTY_MEASURE_WITH_UNIT(LENGTH_MEASURE(0.005),#2384,
'DISTANCE_ACCURACY_VALUE','Maximum Tolerance applied to model');
#2382=(
NAMED_UNIT(*)
SI_UNIT($,.STERADIAN.)
SOLID_ANGLE_UNIT()
);
#2383=(
NAMED_UNIT(*)
PLANE_ANGLE_UNIT()
SI_UNIT($,.RADIAN.)
);
#2384=(
LENGTH_UNIT()
NAMED_UNIT(*)
SI_UNIT(.MILLI.,.METRE.)
);
#2385=PRODUCT_DEFINITION_SHAPE('','',#2386);
#2386=PRODUCT_DEFINITION('','',#2388,#2387);
#2387=PRODUCT_DEFINITION_CONTEXT('',#2394,'design');
#2388=PRODUCT_DEFINITION_FORMATION_WITH_SPECIFIED_SOURCE('','',#2390,
 .NOT_KNOWN.);
#2389=PRODUCT_RELATED_PRODUCT_CATEGORY('','',(#2390));
#2390=PRODUCT('ASJ-200-B-HT','ASJ-200-B-HT','ASJ-200-B-HT',(#2392));
#2391=PRODUCT_CATEGORY('','');
#2392=PRODUCT_CONTEXT('',#2394,'mechanical');
#2393=APPLICATION_PROTOCOL_DEFINITION('international standard',
'automotive_design',2010,#2394);
#2394=APPLICATION_CONTEXT(
'core data for automotive mechanical design processes');
ENDSEC;
END-ISO-10303-21;
