ISO-10303-21;
HEADER;
/* Generated by software containing ST-Developer
 * from STEP Tools, Inc. (www.steptools.com) 
 */
/* OPTION: strings as raw bytes, not using required /X/ escapes */

FILE_DESCRIPTION(
/* description */ ('Unknown'),
/* implementation_level */ '2;1');

FILE_NAME(
/* name */ 'TB0011-350-03GR',
/* time_stamp */ '2025-12-22T07:13:11+02:00',
/* author */ ('Unknown'),
/* organization */ ('Unknown'),
/* preprocessor_version */ 'ST-DEVELOPER v20',
/* originating_system */ 'Solid Edge',
/* authorisation */ 'Unknown');

FILE_SCHEMA (('AUTOMOTIVE_DESIGN {1 0 10303 214 3 1 1}'));
ENDSEC;

DATA;
#10=PROPERTY_DEFINITION_REPRESENTATION(#14,#12);
#11=PROPERTY_DEFINITION_REPRESENTATION(#15,#13);
#12=REPRESENTATION('',(#16),#2262);
#13=REPRESENTATION('',(#17),#2262);
#14=PROPERTY_DEFINITION('pmi validation property','',#2267);
#15=PROPERTY_DEFINITION('pmi validation property','',#2267);
#16=VALUE_REPRESENTATION_ITEM('number of annotations',COUNT_MEASURE(0.));
#17=VALUE_REPRESENTATION_ITEM('number of views',COUNT_MEASURE(0.));
#18=SHAPE_REPRESENTATION_RELATIONSHIP('','',#1555,#19);
#19=ADVANCED_BREP_SHAPE_REPRESENTATION('',(#1553),#2262);
#20=CYLINDRICAL_SURFACE('',#1574,0.992754853531116);
#21=CYLINDRICAL_SURFACE('',#1576,1.06102037347573);
#22=CYLINDRICAL_SURFACE('',#1583,0.757145884486357);
#23=CYLINDRICAL_SURFACE('',#1608,0.757145884486357);
#24=CYLINDRICAL_SURFACE('',#1610,0.757145884486357);
#25=CYLINDRICAL_SURFACE('',#1612,0.992754853531116);
#26=CYLINDRICAL_SURFACE('',#1614,0.992754853531116);
#27=CYLINDRICAL_SURFACE('',#1638,1.06102037347573);
#28=CYLINDRICAL_SURFACE('',#1639,1.06102037347573);
#29=CYLINDRICAL_SURFACE('',#1640,0.4);
#30=CYLINDRICAL_SURFACE('',#1642,0.4);
#31=CYLINDRICAL_SURFACE('',#1648,0.4);
#32=CIRCLE('',#1559,1.06102037347573);
#33=CIRCLE('',#1560,1.06102037347573);
#34=CIRCLE('',#1561,1.06102037347573);
#35=CIRCLE('',#1564,0.992754853531116);
#36=CIRCLE('',#1565,0.992754853531116);
#37=CIRCLE('',#1568,0.992754853531116);
#38=CIRCLE('',#1569,1.06102037347573);
#39=CIRCLE('',#1571,0.992754853531116);
#40=CIRCLE('',#1573,0.992754853531116);
#41=CIRCLE('',#1582,0.757145884486357);
#42=CIRCLE('',#1584,0.757145884486357);
#43=CIRCLE('',#1587,0.757145884486357);
#44=CIRCLE('',#1589,0.757145884486357);
#45=CIRCLE('',#1591,0.992754853531116);
#46=CIRCLE('',#1594,0.992754853531116);
#47=CIRCLE('',#1597,0.992754853531116);
#48=CIRCLE('',#1598,0.992754853531116);
#49=CIRCLE('',#1600,0.992754853531116);
#50=CIRCLE('',#1603,0.992754853531116);
#51=CIRCLE('',#1606,0.992754853531116);
#52=CIRCLE('',#1607,0.992754853531116);
#53=CIRCLE('',#1609,0.757145884486357);
#54=CIRCLE('',#1611,0.757145884486357);
#55=CIRCLE('',#1613,0.992754853531116);
#56=CIRCLE('',#1615,0.992754853531116);
#57=CIRCLE('',#1619,0.4);
#58=CIRCLE('',#1621,0.4);
#59=CIRCLE('',#1623,1.06102037347573);
#60=CIRCLE('',#1625,1.06102037347573);
#61=CIRCLE('',#1641,0.4);
#62=CIRCLE('',#1643,0.4);
#63=CIRCLE('',#1645,0.4);
#64=CIRCLE('',#1647,0.4);
#65=ORIENTED_EDGE('',*,*,#335,.T.);
#66=ORIENTED_EDGE('',*,*,#336,.F.);
#67=ORIENTED_EDGE('',*,*,#337,.F.);
#68=ORIENTED_EDGE('',*,*,#338,.F.);
#69=ORIENTED_EDGE('',*,*,#339,.F.);
#70=ORIENTED_EDGE('',*,*,#340,.F.);
#71=ORIENTED_EDGE('',*,*,#341,.F.);
#72=ORIENTED_EDGE('',*,*,#342,.F.);
#73=ORIENTED_EDGE('',*,*,#343,.F.);
#74=ORIENTED_EDGE('',*,*,#344,.F.);
#75=ORIENTED_EDGE('',*,*,#345,.T.);
#76=ORIENTED_EDGE('',*,*,#346,.T.);
#77=ORIENTED_EDGE('',*,*,#347,.T.);
#78=ORIENTED_EDGE('',*,*,#348,.T.);
#79=ORIENTED_EDGE('',*,*,#349,.T.);
#80=ORIENTED_EDGE('',*,*,#350,.T.);
#81=ORIENTED_EDGE('',*,*,#342,.T.);
#82=ORIENTED_EDGE('',*,*,#351,.F.);
#83=ORIENTED_EDGE('',*,*,#352,.F.);
#84=ORIENTED_EDGE('',*,*,#353,.F.);
#85=ORIENTED_EDGE('',*,*,#354,.F.);
#86=ORIENTED_EDGE('',*,*,#355,.F.);
#87=ORIENTED_EDGE('',*,*,#356,.F.);
#88=ORIENTED_EDGE('',*,*,#357,.T.);
#89=ORIENTED_EDGE('',*,*,#336,.T.);
#90=ORIENTED_EDGE('',*,*,#356,.T.);
#91=ORIENTED_EDGE('',*,*,#358,.F.);
#92=ORIENTED_EDGE('',*,*,#359,.T.);
#93=ORIENTED_EDGE('',*,*,#360,.T.);
#94=ORIENTED_EDGE('',*,*,#352,.T.);
#95=ORIENTED_EDGE('',*,*,#361,.T.);
#96=ORIENTED_EDGE('',*,*,#362,.T.);
#97=ORIENTED_EDGE('',*,*,#363,.T.);
#98=ORIENTED_EDGE('',*,*,#364,.T.);
#99=ORIENTED_EDGE('',*,*,#365,.T.);
#100=ORIENTED_EDGE('',*,*,#366,.F.);
#101=ORIENTED_EDGE('',*,*,#367,.F.);
#102=ORIENTED_EDGE('',*,*,#368,.F.);
#103=ORIENTED_EDGE('',*,*,#369,.F.);
#104=ORIENTED_EDGE('',*,*,#370,.F.);
#105=ORIENTED_EDGE('',*,*,#371,.F.);
#106=ORIENTED_EDGE('',*,*,#368,.T.);
#107=ORIENTED_EDGE('',*,*,#372,.T.);
#108=ORIENTED_EDGE('',*,*,#373,.T.);
#109=ORIENTED_EDGE('',*,*,#374,.F.);
#110=ORIENTED_EDGE('',*,*,#375,.F.);
#111=ORIENTED_EDGE('',*,*,#376,.T.);
#112=ORIENTED_EDGE('',*,*,#377,.F.);
#113=ORIENTED_EDGE('',*,*,#370,.T.);
#114=ORIENTED_EDGE('',*,*,#373,.F.);
#115=ORIENTED_EDGE('',*,*,#369,.T.);
#116=ORIENTED_EDGE('',*,*,#371,.T.);
#117=ORIENTED_EDGE('',*,*,#377,.T.);
#118=ORIENTED_EDGE('',*,*,#372,.F.);
#119=ORIENTED_EDGE('',*,*,#367,.T.);
#120=ORIENTED_EDGE('',*,*,#378,.T.);
#121=ORIENTED_EDGE('',*,*,#375,.T.);
#122=ORIENTED_EDGE('',*,*,#379,.F.);
#123=ORIENTED_EDGE('',*,*,#376,.F.);
#124=ORIENTED_EDGE('',*,*,#378,.F.);
#125=ORIENTED_EDGE('',*,*,#366,.T.);
#126=ORIENTED_EDGE('',*,*,#379,.T.);
#127=ORIENTED_EDGE('',*,*,#374,.T.);
#128=ORIENTED_EDGE('',*,*,#345,.F.);
#129=ORIENTED_EDGE('',*,*,#380,.T.);
#130=ORIENTED_EDGE('',*,*,#381,.F.);
#131=ORIENTED_EDGE('',*,*,#382,.T.);
#132=ORIENTED_EDGE('',*,*,#383,.T.);
#133=ORIENTED_EDGE('',*,*,#384,.T.);
#134=ORIENTED_EDGE('',*,*,#383,.F.);
#135=ORIENTED_EDGE('',*,*,#385,.T.);
#136=ORIENTED_EDGE('',*,*,#386,.T.);
#137=ORIENTED_EDGE('',*,*,#387,.T.);
#138=ORIENTED_EDGE('',*,*,#386,.F.);
#139=ORIENTED_EDGE('',*,*,#388,.T.);
#140=ORIENTED_EDGE('',*,*,#389,.T.);
#141=ORIENTED_EDGE('',*,*,#390,.T.);
#142=ORIENTED_EDGE('',*,*,#389,.F.);
#143=ORIENTED_EDGE('',*,*,#391,.T.);
#144=ORIENTED_EDGE('',*,*,#381,.T.);
#145=ORIENTED_EDGE('',*,*,#392,.T.);
#146=ORIENTED_EDGE('',*,*,#382,.F.);
#147=ORIENTED_EDGE('',*,*,#391,.F.);
#148=ORIENTED_EDGE('',*,*,#388,.F.);
#149=ORIENTED_EDGE('',*,*,#385,.F.);
#150=ORIENTED_EDGE('',*,*,#393,.T.);
#151=ORIENTED_EDGE('',*,*,#392,.F.);
#152=ORIENTED_EDGE('',*,*,#393,.F.);
#153=ORIENTED_EDGE('',*,*,#394,.F.);
#154=ORIENTED_EDGE('',*,*,#395,.F.);
#155=ORIENTED_EDGE('',*,*,#396,.F.);
#156=ORIENTED_EDGE('',*,*,#397,.T.);
#157=ORIENTED_EDGE('',*,*,#397,.F.);
#158=ORIENTED_EDGE('',*,*,#398,.F.);
#159=ORIENTED_EDGE('',*,*,#399,.T.);
#160=ORIENTED_EDGE('',*,*,#400,.T.);
#161=ORIENTED_EDGE('',*,*,#401,.F.);
#162=ORIENTED_EDGE('',*,*,#402,.T.);
#163=ORIENTED_EDGE('',*,*,#402,.F.);
#164=ORIENTED_EDGE('',*,*,#403,.F.);
#165=ORIENTED_EDGE('',*,*,#404,.T.);
#166=ORIENTED_EDGE('',*,*,#405,.T.);
#167=ORIENTED_EDGE('',*,*,#399,.F.);
#168=ORIENTED_EDGE('',*,*,#406,.F.);
#169=ORIENTED_EDGE('',*,*,#404,.F.);
#170=ORIENTED_EDGE('',*,*,#407,.F.);
#171=ORIENTED_EDGE('',*,*,#408,.F.);
#172=ORIENTED_EDGE('',*,*,#409,.T.);
#173=ORIENTED_EDGE('',*,*,#409,.F.);
#174=ORIENTED_EDGE('',*,*,#410,.F.);
#175=ORIENTED_EDGE('',*,*,#411,.T.);
#176=ORIENTED_EDGE('',*,*,#412,.T.);
#177=ORIENTED_EDGE('',*,*,#413,.F.);
#178=ORIENTED_EDGE('',*,*,#414,.T.);
#179=ORIENTED_EDGE('',*,*,#414,.F.);
#180=ORIENTED_EDGE('',*,*,#415,.F.);
#181=ORIENTED_EDGE('',*,*,#416,.T.);
#182=ORIENTED_EDGE('',*,*,#417,.T.);
#183=ORIENTED_EDGE('',*,*,#411,.F.);
#184=ORIENTED_EDGE('',*,*,#418,.F.);
#185=ORIENTED_EDGE('',*,*,#416,.F.);
#186=ORIENTED_EDGE('',*,*,#419,.F.);
#187=ORIENTED_EDGE('',*,*,#394,.T.);
#188=ORIENTED_EDGE('',*,*,#420,.F.);
#189=ORIENTED_EDGE('',*,*,#395,.T.);
#190=ORIENTED_EDGE('',*,*,#421,.F.);
#191=ORIENTED_EDGE('',*,*,#422,.F.);
#192=ORIENTED_EDGE('',*,*,#407,.T.);
#193=ORIENTED_EDGE('',*,*,#403,.T.);
#194=ORIENTED_EDGE('',*,*,#401,.T.);
#195=ORIENTED_EDGE('',*,*,#405,.F.);
#196=ORIENTED_EDGE('',*,*,#406,.T.);
#197=ORIENTED_EDGE('',*,*,#398,.T.);
#198=ORIENTED_EDGE('',*,*,#396,.T.);
#199=ORIENTED_EDGE('',*,*,#400,.F.);
#200=ORIENTED_EDGE('',*,*,#423,.F.);
#201=ORIENTED_EDGE('',*,*,#419,.T.);
#202=ORIENTED_EDGE('',*,*,#415,.T.);
#203=ORIENTED_EDGE('',*,*,#413,.T.);
#204=ORIENTED_EDGE('',*,*,#417,.F.);
#205=ORIENTED_EDGE('',*,*,#418,.T.);
#206=ORIENTED_EDGE('',*,*,#410,.T.);
#207=ORIENTED_EDGE('',*,*,#408,.T.);
#208=ORIENTED_EDGE('',*,*,#412,.F.);
#209=ORIENTED_EDGE('',*,*,#420,.T.);
#210=ORIENTED_EDGE('',*,*,#424,.F.);
#211=ORIENTED_EDGE('',*,*,#425,.F.);
#212=ORIENTED_EDGE('',*,*,#426,.F.);
#213=ORIENTED_EDGE('',*,*,#427,.F.);
#214=ORIENTED_EDGE('',*,*,#421,.T.);
#215=ORIENTED_EDGE('',*,*,#428,.F.);
#216=ORIENTED_EDGE('',*,*,#429,.F.);
#217=ORIENTED_EDGE('',*,*,#430,.F.);
#218=ORIENTED_EDGE('',*,*,#431,.F.);
#219=ORIENTED_EDGE('',*,*,#432,.T.);
#220=ORIENTED_EDGE('',*,*,#433,.T.);
#221=ORIENTED_EDGE('',*,*,#422,.T.);
#222=ORIENTED_EDGE('',*,*,#434,.F.);
#223=ORIENTED_EDGE('',*,*,#423,.T.);
#224=ORIENTED_EDGE('',*,*,#435,.F.);
#225=ORIENTED_EDGE('',*,*,#436,.F.);
#226=ORIENTED_EDGE('',*,*,#437,.F.);
#227=ORIENTED_EDGE('',*,*,#425,.T.);
#228=ORIENTED_EDGE('',*,*,#438,.T.);
#229=ORIENTED_EDGE('',*,*,#439,.F.);
#230=ORIENTED_EDGE('',*,*,#440,.F.);
#231=ORIENTED_EDGE('',*,*,#426,.T.);
#232=ORIENTED_EDGE('',*,*,#437,.T.);
#233=ORIENTED_EDGE('',*,*,#441,.F.);
#234=ORIENTED_EDGE('',*,*,#442,.F.);
#235=ORIENTED_EDGE('',*,*,#427,.T.);
#236=ORIENTED_EDGE('',*,*,#440,.T.);
#237=ORIENTED_EDGE('',*,*,#443,.F.);
#238=ORIENTED_EDGE('',*,*,#438,.F.);
#239=ORIENTED_EDGE('',*,*,#424,.T.);
#240=ORIENTED_EDGE('',*,*,#442,.T.);
#241=ORIENTED_EDGE('',*,*,#444,.T.);
#242=ORIENTED_EDGE('',*,*,#445,.F.);
#243=ORIENTED_EDGE('',*,*,#429,.T.);
#244=ORIENTED_EDGE('',*,*,#446,.T.);
#245=ORIENTED_EDGE('',*,*,#447,.T.);
#246=ORIENTED_EDGE('',*,*,#448,.F.);
#247=ORIENTED_EDGE('',*,*,#430,.T.);
#248=ORIENTED_EDGE('',*,*,#445,.T.);
#249=ORIENTED_EDGE('',*,*,#449,.T.);
#250=ORIENTED_EDGE('',*,*,#450,.F.);
#251=ORIENTED_EDGE('',*,*,#431,.T.);
#252=ORIENTED_EDGE('',*,*,#448,.T.);
#253=ORIENTED_EDGE('',*,*,#451,.T.);
#254=ORIENTED_EDGE('',*,*,#446,.F.);
#255=ORIENTED_EDGE('',*,*,#428,.T.);
#256=ORIENTED_EDGE('',*,*,#450,.T.);
#257=ORIENTED_EDGE('',*,*,#362,.F.);
#258=ORIENTED_EDGE('',*,*,#452,.T.);
#259=ORIENTED_EDGE('',*,*,#340,.T.);
#260=ORIENTED_EDGE('',*,*,#453,.F.);
#261=ORIENTED_EDGE('',*,*,#451,.F.);
#262=ORIENTED_EDGE('',*,*,#449,.F.);
#263=ORIENTED_EDGE('',*,*,#447,.F.);
#264=ORIENTED_EDGE('',*,*,#444,.F.);
#265=ORIENTED_EDGE('',*,*,#454,.F.);
#266=ORIENTED_EDGE('',*,*,#364,.F.);
#267=ORIENTED_EDGE('',*,*,#455,.T.);
#268=ORIENTED_EDGE('',*,*,#338,.T.);
#269=ORIENTED_EDGE('',*,*,#443,.T.);
#270=ORIENTED_EDGE('',*,*,#441,.T.);
#271=ORIENTED_EDGE('',*,*,#439,.T.);
#272=ORIENTED_EDGE('',*,*,#436,.T.);
#273=ORIENTED_EDGE('',*,*,#380,.F.);
#274=ORIENTED_EDGE('',*,*,#384,.F.);
#275=ORIENTED_EDGE('',*,*,#387,.F.);
#276=ORIENTED_EDGE('',*,*,#390,.F.);
#277=ORIENTED_EDGE('',*,*,#351,.T.);
#278=ORIENTED_EDGE('',*,*,#341,.T.);
#279=ORIENTED_EDGE('',*,*,#452,.F.);
#280=ORIENTED_EDGE('',*,*,#361,.F.);
#281=ORIENTED_EDGE('',*,*,#454,.T.);
#282=ORIENTED_EDGE('',*,*,#337,.T.);
#283=ORIENTED_EDGE('',*,*,#357,.F.);
#284=ORIENTED_EDGE('',*,*,#365,.F.);
#285=ORIENTED_EDGE('',*,*,#434,.T.);
#286=ORIENTED_EDGE('',*,*,#347,.F.);
#287=ORIENTED_EDGE('',*,*,#435,.T.);
#288=ORIENTED_EDGE('',*,*,#346,.F.);
#289=ORIENTED_EDGE('',*,*,#456,.T.);
#290=ORIENTED_EDGE('',*,*,#432,.F.);
#291=ORIENTED_EDGE('',*,*,#457,.F.);
#292=ORIENTED_EDGE('',*,*,#433,.F.);
#293=ORIENTED_EDGE('',*,*,#458,.T.);
#294=ORIENTED_EDGE('',*,*,#457,.T.);
#295=ORIENTED_EDGE('',*,*,#456,.F.);
#296=ORIENTED_EDGE('',*,*,#339,.T.);
#297=ORIENTED_EDGE('',*,*,#455,.F.);
#298=ORIENTED_EDGE('',*,*,#363,.F.);
#299=ORIENTED_EDGE('',*,*,#453,.T.);
#300=ORIENTED_EDGE('',*,*,#459,.T.);
#301=ORIENTED_EDGE('',*,*,#458,.F.);
#302=ORIENTED_EDGE('',*,*,#459,.F.);
#303=ORIENTED_EDGE('',*,*,#355,.T.);
#304=ORIENTED_EDGE('',*,*,#460,.F.);
#305=ORIENTED_EDGE('',*,*,#461,.F.);
#306=ORIENTED_EDGE('',*,*,#358,.T.);
#307=ORIENTED_EDGE('',*,*,#354,.T.);
#308=ORIENTED_EDGE('',*,*,#462,.F.);
#309=ORIENTED_EDGE('',*,*,#463,.F.);
#310=ORIENTED_EDGE('',*,*,#460,.T.);
#311=ORIENTED_EDGE('',*,*,#353,.T.);
#312=ORIENTED_EDGE('',*,*,#360,.F.);
#313=ORIENTED_EDGE('',*,*,#464,.F.);
#314=ORIENTED_EDGE('',*,*,#462,.T.);
#315=ORIENTED_EDGE('',*,*,#359,.F.);
#316=ORIENTED_EDGE('',*,*,#461,.T.);
#317=ORIENTED_EDGE('',*,*,#463,.T.);
#318=ORIENTED_EDGE('',*,*,#464,.T.);
#319=ORIENTED_EDGE('',*,*,#348,.F.);
#320=ORIENTED_EDGE('',*,*,#335,.F.);
#321=ORIENTED_EDGE('',*,*,#465,.T.);
#322=ORIENTED_EDGE('',*,*,#466,.T.);
#323=ORIENTED_EDGE('',*,*,#349,.F.);
#324=ORIENTED_EDGE('',*,*,#466,.F.);
#325=ORIENTED_EDGE('',*,*,#467,.T.);
#326=ORIENTED_EDGE('',*,*,#468,.T.);
#327=ORIENTED_EDGE('',*,*,#350,.F.);
#328=ORIENTED_EDGE('',*,*,#468,.F.);
#329=ORIENTED_EDGE('',*,*,#469,.T.);
#330=ORIENTED_EDGE('',*,*,#343,.T.);
#331=ORIENTED_EDGE('',*,*,#344,.T.);
#332=ORIENTED_EDGE('',*,*,#469,.F.);
#333=ORIENTED_EDGE('',*,*,#467,.F.);
#334=ORIENTED_EDGE('',*,*,#465,.F.);
#335=EDGE_CURVE('',#470,#471,#567,.T.);
#336=EDGE_CURVE('',#472,#471,#568,.T.);
#337=EDGE_CURVE('',#473,#472,#569,.T.);
#338=EDGE_CURVE('',#474,#473,#570,.T.);
#339=EDGE_CURVE('',#475,#474,#571,.T.);
#340=EDGE_CURVE('',#476,#475,#572,.T.);
#341=EDGE_CURVE('',#477,#476,#573,.T.);
#342=EDGE_CURVE('',#478,#477,#574,.T.);
#343=EDGE_CURVE('',#479,#478,#575,.T.);
#344=EDGE_CURVE('',#470,#479,#576,.T.);
#345=EDGE_CURVE('',#480,#480,#32,.T.);
#346=EDGE_CURVE('',#481,#481,#33,.T.);
#347=EDGE_CURVE('',#482,#482,#34,.T.);
#348=EDGE_CURVE('',#471,#483,#577,.T.);
#349=EDGE_CURVE('',#483,#484,#578,.T.);
#350=EDGE_CURVE('',#484,#478,#579,.T.);
#351=EDGE_CURVE('',#485,#477,#580,.T.);
#352=EDGE_CURVE('',#486,#485,#581,.T.);
#353=EDGE_CURVE('',#487,#486,#582,.T.);
#354=EDGE_CURVE('',#488,#487,#583,.T.);
#355=EDGE_CURVE('',#489,#488,#584,.T.);
#356=EDGE_CURVE('',#490,#489,#585,.T.);
#357=EDGE_CURVE('',#490,#472,#586,.T.);
#358=EDGE_CURVE('',#491,#489,#587,.T.);
#359=EDGE_CURVE('',#491,#492,#588,.T.);
#360=EDGE_CURVE('',#492,#486,#589,.T.);
#361=EDGE_CURVE('',#485,#493,#590,.T.);
#362=EDGE_CURVE('',#493,#494,#591,.T.);
#363=EDGE_CURVE('',#494,#495,#592,.T.);
#364=EDGE_CURVE('',#495,#496,#593,.T.);
#365=EDGE_CURVE('',#496,#490,#594,.T.);
#366=EDGE_CURVE('',#497,#498,#595,.T.);
#367=EDGE_CURVE('',#499,#497,#35,.T.);
#368=EDGE_CURVE('',#500,#499,#596,.T.);
#369=EDGE_CURVE('',#498,#500,#36,.T.);
#370=EDGE_CURVE('',#501,#502,#597,.T.);
#371=EDGE_CURVE('',#500,#501,#598,.T.);
#372=EDGE_CURVE('',#499,#502,#599,.T.);
#373=EDGE_CURVE('',#503,#503,#37,.T.);
#374=EDGE_CURVE('',#504,#504,#38,.T.);
#375=EDGE_CURVE('',#505,#506,#39,.T.);
#376=EDGE_CURVE('',#505,#506,#600,.T.);
#377=EDGE_CURVE('',#501,#502,#40,.T.);
#378=EDGE_CURVE('',#497,#505,#601,.T.);
#379=EDGE_CURVE('',#498,#506,#602,.T.);
#380=EDGE_CURVE('',#507,#508,#603,.T.);
#381=EDGE_CURVE('',#509,#508,#604,.T.);
#382=EDGE_CURVE('',#509,#510,#605,.T.);
#383=EDGE_CURVE('',#510,#507,#606,.T.);
#384=EDGE_CURVE('',#511,#507,#607,.T.);
#385=EDGE_CURVE('',#510,#512,#608,.T.);
#386=EDGE_CURVE('',#512,#511,#609,.T.);
#387=EDGE_CURVE('',#513,#511,#610,.T.);
#388=EDGE_CURVE('',#512,#514,#611,.T.);
#389=EDGE_CURVE('',#514,#513,#612,.T.);
#390=EDGE_CURVE('',#508,#513,#613,.T.);
#391=EDGE_CURVE('',#514,#509,#614,.T.);
#392=EDGE_CURVE('',#515,#515,#41,.T.);
#393=EDGE_CURVE('',#516,#516,#42,.T.);
#394=EDGE_CURVE('',#517,#517,#43,.T.);
#395=EDGE_CURVE('',#518,#518,#44,.T.);
#396=EDGE_CURVE('',#519,#520,#45,.T.);
#397=EDGE_CURVE('',#519,#520,#615,.T.);
#398=EDGE_CURVE('',#521,#519,#616,.T.);
#399=EDGE_CURVE('',#521,#522,#617,.T.);
#400=EDGE_CURVE('',#522,#520,#618,.T.);
#401=EDGE_CURVE('',#523,#524,#46,.T.);
#402=EDGE_CURVE('',#523,#524,#619,.T.);
#403=EDGE_CURVE('',#525,#523,#620,.T.);
#404=EDGE_CURVE('',#525,#526,#621,.T.);
#405=EDGE_CURVE('',#526,#524,#622,.T.);
#406=EDGE_CURVE('',#526,#521,#47,.T.);
#407=EDGE_CURVE('',#522,#525,#48,.T.);
#408=EDGE_CURVE('',#527,#528,#49,.T.);
#409=EDGE_CURVE('',#527,#528,#623,.T.);
#410=EDGE_CURVE('',#529,#527,#624,.T.);
#411=EDGE_CURVE('',#529,#530,#625,.T.);
#412=EDGE_CURVE('',#530,#528,#626,.T.);
#413=EDGE_CURVE('',#531,#532,#50,.T.);
#414=EDGE_CURVE('',#531,#532,#627,.T.);
#415=EDGE_CURVE('',#533,#531,#628,.T.);
#416=EDGE_CURVE('',#533,#534,#629,.T.);
#417=EDGE_CURVE('',#534,#532,#630,.T.);
#418=EDGE_CURVE('',#534,#529,#51,.T.);
#419=EDGE_CURVE('',#530,#533,#52,.T.);
#420=EDGE_CURVE('',#535,#535,#53,.T.);
#421=EDGE_CURVE('',#536,#536,#54,.T.);
#422=EDGE_CURVE('',#537,#537,#55,.T.);
#423=EDGE_CURVE('',#538,#538,#56,.T.);
#424=EDGE_CURVE('',#539,#540,#631,.T.);
#425=EDGE_CURVE('',#541,#539,#632,.T.);
#426=EDGE_CURVE('',#542,#541,#633,.T.);
#427=EDGE_CURVE('',#540,#542,#634,.T.);
#428=EDGE_CURVE('',#543,#544,#635,.T.);
#429=EDGE_CURVE('',#545,#543,#636,.T.);
#430=EDGE_CURVE('',#546,#545,#637,.T.);
#431=EDGE_CURVE('',#544,#546,#638,.T.);
#432=EDGE_CURVE('',#547,#547,#57,.T.);
#433=EDGE_CURVE('',#548,#548,#58,.T.);
#434=EDGE_CURVE('',#549,#549,#59,.T.);
#435=EDGE_CURVE('',#550,#550,#60,.T.);
#436=EDGE_CURVE('',#551,#552,#639,.T.);
#437=EDGE_CURVE('',#541,#551,#640,.T.);
#438=EDGE_CURVE('',#539,#552,#641,.T.);
#439=EDGE_CURVE('',#553,#551,#642,.T.);
#440=EDGE_CURVE('',#542,#553,#643,.T.);
#441=EDGE_CURVE('',#554,#553,#644,.T.);
#442=EDGE_CURVE('',#540,#554,#645,.T.);
#443=EDGE_CURVE('',#552,#554,#646,.T.);
#444=EDGE_CURVE('',#555,#556,#647,.T.);
#445=EDGE_CURVE('',#545,#556,#648,.T.);
#446=EDGE_CURVE('',#543,#555,#649,.T.);
#447=EDGE_CURVE('',#556,#557,#650,.T.);
#448=EDGE_CURVE('',#546,#557,#651,.T.);
#449=EDGE_CURVE('',#557,#558,#652,.T.);
#450=EDGE_CURVE('',#544,#558,#653,.T.);
#451=EDGE_CURVE('',#558,#555,#654,.T.);
#452=EDGE_CURVE('',#493,#476,#655,.T.);
#453=EDGE_CURVE('',#494,#475,#656,.T.);
#454=EDGE_CURVE('',#496,#473,#657,.T.);
#455=EDGE_CURVE('',#495,#474,#658,.T.);
#456=EDGE_CURVE('',#559,#559,#61,.T.);
#457=EDGE_CURVE('',#560,#560,#62,.T.);
#458=EDGE_CURVE('',#561,#561,#63,.T.);
#459=EDGE_CURVE('',#562,#562,#64,.T.);
#460=EDGE_CURVE('',#563,#488,#659,.T.);
#461=EDGE_CURVE('',#491,#563,#660,.T.);
#462=EDGE_CURVE('',#564,#487,#661,.T.);
#463=EDGE_CURVE('',#563,#564,#662,.T.);
#464=EDGE_CURVE('',#564,#492,#663,.T.);
#465=EDGE_CURVE('',#470,#565,#664,.T.);
#466=EDGE_CURVE('',#565,#483,#665,.T.);
#467=EDGE_CURVE('',#565,#566,#666,.T.);
#468=EDGE_CURVE('',#566,#484,#667,.T.);
#469=EDGE_CURVE('',#566,#479,#668,.T.);
#470=VERTEX_POINT('',#1964);
#471=VERTEX_POINT('',#1965);
#472=VERTEX_POINT('',#1967);
#473=VERTEX_POINT('',#1969);
#474=VERTEX_POINT('',#1971);
#475=VERTEX_POINT('',#1973);
#476=VERTEX_POINT('',#1975);
#477=VERTEX_POINT('',#1977);
#478=VERTEX_POINT('',#1979);
#479=VERTEX_POINT('',#1981);
#480=VERTEX_POINT('',#1985);
#481=VERTEX_POINT('',#1987);
#482=VERTEX_POINT('',#1989);
#483=VERTEX_POINT('',#1991);
#484=VERTEX_POINT('',#1993);
#485=VERTEX_POINT('',#1996);
#486=VERTEX_POINT('',#1998);
#487=VERTEX_POINT('',#2000);
#488=VERTEX_POINT('',#2002);
#489=VERTEX_POINT('',#2004);
#490=VERTEX_POINT('',#2006);
#491=VERTEX_POINT('',#2010);
#492=VERTEX_POINT('',#2012);
#493=VERTEX_POINT('',#2015);
#494=VERTEX_POINT('',#2017);
#495=VERTEX_POINT('',#2019);
#496=VERTEX_POINT('',#2021);
#497=VERTEX_POINT('',#2025);
#498=VERTEX_POINT('',#2026);
#499=VERTEX_POINT('',#2028);
#500=VERTEX_POINT('',#2030);
#501=VERTEX_POINT('',#2034);
#502=VERTEX_POINT('',#2035);
#503=VERTEX_POINT('',#2040);
#504=VERTEX_POINT('',#2042);
#505=VERTEX_POINT('',#2045);
#506=VERTEX_POINT('',#2046);
#507=VERTEX_POINT('',#2057);
#508=VERTEX_POINT('',#2058);
#509=VERTEX_POINT('',#2060);
#510=VERTEX_POINT('',#2062);
#511=VERTEX_POINT('',#2066);
#512=VERTEX_POINT('',#2068);
#513=VERTEX_POINT('',#2072);
#514=VERTEX_POINT('',#2074);
#515=VERTEX_POINT('',#2081);
#516=VERTEX_POINT('',#2084);
#517=VERTEX_POINT('',#2088);
#518=VERTEX_POINT('',#2091);
#519=VERTEX_POINT('',#2094);
#520=VERTEX_POINT('',#2095);
#521=VERTEX_POINT('',#2099);
#522=VERTEX_POINT('',#2101);
#523=VERTEX_POINT('',#2105);
#524=VERTEX_POINT('',#2106);
#525=VERTEX_POINT('',#2110);
#526=VERTEX_POINT('',#2112);
#527=VERTEX_POINT('',#2119);
#528=VERTEX_POINT('',#2120);
#529=VERTEX_POINT('',#2124);
#530=VERTEX_POINT('',#2126);
#531=VERTEX_POINT('',#2130);
#532=VERTEX_POINT('',#2131);
#533=VERTEX_POINT('',#2135);
#534=VERTEX_POINT('',#2137);
#535=VERTEX_POINT('',#2144);
#536=VERTEX_POINT('',#2147);
#537=VERTEX_POINT('',#2150);
#538=VERTEX_POINT('',#2153);
#539=VERTEX_POINT('',#2156);
#540=VERTEX_POINT('',#2157);
#541=VERTEX_POINT('',#2159);
#542=VERTEX_POINT('',#2161);
#543=VERTEX_POINT('',#2165);
#544=VERTEX_POINT('',#2166);
#545=VERTEX_POINT('',#2168);
#546=VERTEX_POINT('',#2170);
#547=VERTEX_POINT('',#2174);
#548=VERTEX_POINT('',#2177);
#549=VERTEX_POINT('',#2180);
#550=VERTEX_POINT('',#2183);
#551=VERTEX_POINT('',#2186);
#552=VERTEX_POINT('',#2187);
#553=VERTEX_POINT('',#2192);
#554=VERTEX_POINT('',#2196);
#555=VERTEX_POINT('',#2202);
#556=VERTEX_POINT('',#2203);
#557=VERTEX_POINT('',#2208);
#558=VERTEX_POINT('',#2212);
#559=VERTEX_POINT('',#2228);
#560=VERTEX_POINT('',#2231);
#561=VERTEX_POINT('',#2234);
#562=VERTEX_POINT('',#2237);
#563=VERTEX_POINT('',#2241);
#564=VERTEX_POINT('',#2245);
#565=VERTEX_POINT('',#2252);
#566=VERTEX_POINT('',#2256);
#567=LINE('',#1963,#669);
#568=LINE('',#1966,#670);
#569=LINE('',#1968,#671);
#570=LINE('',#1970,#672);
#571=LINE('',#1972,#673);
#572=LINE('',#1974,#674);
#573=LINE('',#1976,#675);
#574=LINE('',#1978,#676);
#575=LINE('',#1980,#677);
#576=LINE('',#1982,#678);
#577=LINE('',#1990,#679);
#578=LINE('',#1992,#680);
#579=LINE('',#1994,#681);
#580=LINE('',#1995,#682);
#581=LINE('',#1997,#683);
#582=LINE('',#1999,#684);
#583=LINE('',#2001,#685);
#584=LINE('',#2003,#686);
#585=LINE('',#2005,#687);
#586=LINE('',#2007,#688);
#587=LINE('',#2009,#689);
#588=LINE('',#2011,#690);
#589=LINE('',#2013,#691);
#590=LINE('',#2014,#692);
#591=LINE('',#2016,#693);
#592=LINE('',#2018,#694);
#593=LINE('',#2020,#695);
#594=LINE('',#2022,#696);
#595=LINE('',#2024,#697);
#596=LINE('',#2029,#698);
#597=LINE('',#2033,#699);
#598=LINE('',#2036,#700);
#599=LINE('',#2037,#701);
#600=LINE('',#2047,#702);
#601=LINE('',#2051,#703);
#602=LINE('',#2052,#704);
#603=LINE('',#2056,#705);
#604=LINE('',#2059,#706);
#605=LINE('',#2061,#707);
#606=LINE('',#2063,#708);
#607=LINE('',#2065,#709);
#608=LINE('',#2067,#710);
#609=LINE('',#2069,#711);
#610=LINE('',#2071,#712);
#611=LINE('',#2073,#713);
#612=LINE('',#2075,#714);
#613=LINE('',#2077,#715);
#614=LINE('',#2078,#716);
#615=LINE('',#2096,#717);
#616=LINE('',#2098,#718);
#617=LINE('',#2100,#719);
#618=LINE('',#2102,#720);
#619=LINE('',#2107,#721);
#620=LINE('',#2109,#722);
#621=LINE('',#2111,#723);
#622=LINE('',#2113,#724);
#623=LINE('',#2121,#725);
#624=LINE('',#2123,#726);
#625=LINE('',#2125,#727);
#626=LINE('',#2127,#728);
#627=LINE('',#2132,#729);
#628=LINE('',#2134,#730);
#629=LINE('',#2136,#731);
#630=LINE('',#2138,#732);
#631=LINE('',#2155,#733);
#632=LINE('',#2158,#734);
#633=LINE('',#2160,#735);
#634=LINE('',#2162,#736);
#635=LINE('',#2164,#737);
#636=LINE('',#2167,#738);
#637=LINE('',#2169,#739);
#638=LINE('',#2171,#740);
#639=LINE('',#2185,#741);
#640=LINE('',#2188,#742);
#641=LINE('',#2189,#743);
#642=LINE('',#2191,#744);
#643=LINE('',#2193,#745);
#644=LINE('',#2195,#746);
#645=LINE('',#2197,#747);
#646=LINE('',#2199,#748);
#647=LINE('',#2201,#749);
#648=LINE('',#2204,#750);
#649=LINE('',#2205,#751);
#650=LINE('',#2207,#752);
#651=LINE('',#2209,#753);
#652=LINE('',#2211,#754);
#653=LINE('',#2213,#755);
#654=LINE('',#2215,#756);
#655=LINE('',#2217,#757);
#656=LINE('',#2218,#758);
#657=LINE('',#2220,#759);
#658=LINE('',#2221,#760);
#659=LINE('',#2240,#761);
#660=LINE('',#2242,#762);
#661=LINE('',#2244,#763);
#662=LINE('',#2246,#764);
#663=LINE('',#2248,#765);
#664=LINE('',#2251,#766);
#665=LINE('',#2253,#767);
#666=LINE('',#2255,#768);
#667=LINE('',#2257,#769);
#668=LINE('',#2259,#770);
#669=VECTOR('',#1661,1000.);
#670=VECTOR('',#1662,1000.);
#671=VECTOR('',#1663,1000.);
#672=VECTOR('',#1664,1000.);
#673=VECTOR('',#1665,1000.);
#674=VECTOR('',#1666,1000.);
#675=VECTOR('',#1667,1000.);
#676=VECTOR('',#1668,1000.);
#677=VECTOR('',#1669,1000.);
#678=VECTOR('',#1670,1000.);
#679=VECTOR('',#1679,1000.);
#680=VECTOR('',#1680,1000.);
#681=VECTOR('',#1681,1000.);
#682=VECTOR('',#1682,1000.);
#683=VECTOR('',#1683,1000.);
#684=VECTOR('',#1684,1000.);
#685=VECTOR('',#1685,1000.);
#686=VECTOR('',#1686,1000.);
#687=VECTOR('',#1687,1000.);
#688=VECTOR('',#1688,1000.);
#689=VECTOR('',#1691,1000.);
#690=VECTOR('',#1692,1000.);
#691=VECTOR('',#1693,1000.);
#692=VECTOR('',#1694,1000.);
#693=VECTOR('',#1695,1000.);
#694=VECTOR('',#1696,1000.);
#695=VECTOR('',#1697,1000.);
#696=VECTOR('',#1698,1000.);
#697=VECTOR('',#1701,1000.);
#698=VECTOR('',#1704,1000.);
#699=VECTOR('',#1709,1000.);
#700=VECTOR('',#1710,1000.);
#701=VECTOR('',#1711,1000.);
#702=VECTOR('',#1722,1000.);
#703=VECTOR('',#1729,1000.);
#704=VECTOR('',#1730,1000.);
#705=VECTOR('',#1737,1000.);
#706=VECTOR('',#1738,1000.);
#707=VECTOR('',#1739,1000.);
#708=VECTOR('',#1740,1000.);
#709=VECTOR('',#1743,1000.);
#710=VECTOR('',#1744,1000.);
#711=VECTOR('',#1745,1000.);
#712=VECTOR('',#1748,1000.);
#713=VECTOR('',#1749,1000.);
#714=VECTOR('',#1750,1000.);
#715=VECTOR('',#1753,1000.);
#716=VECTOR('',#1754,1000.);
#717=VECTOR('',#1777,1000.);
#718=VECTOR('',#1780,1000.);
#719=VECTOR('',#1781,1000.);
#720=VECTOR('',#1782,1000.);
#721=VECTOR('',#1787,1000.);
#722=VECTOR('',#1790,1000.);
#723=VECTOR('',#1791,1000.);
#724=VECTOR('',#1792,1000.);
#725=VECTOR('',#1803,1000.);
#726=VECTOR('',#1806,1000.);
#727=VECTOR('',#1807,1000.);
#728=VECTOR('',#1808,1000.);
#729=VECTOR('',#1813,1000.);
#730=VECTOR('',#1816,1000.);
#731=VECTOR('',#1817,1000.);
#732=VECTOR('',#1818,1000.);
#733=VECTOR('',#1843,1000.);
#734=VECTOR('',#1844,1000.);
#735=VECTOR('',#1845,1000.);
#736=VECTOR('',#1846,1000.);
#737=VECTOR('',#1849,1000.);
#738=VECTOR('',#1850,1000.);
#739=VECTOR('',#1851,1000.);
#740=VECTOR('',#1852,1000.);
#741=VECTOR('',#1871,1000.);
#742=VECTOR('',#1872,1000.);
#743=VECTOR('',#1873,1000.);
#744=VECTOR('',#1876,1000.);
#745=VECTOR('',#1877,1000.);
#746=VECTOR('',#1880,1000.);
#747=VECTOR('',#1881,1000.);
#748=VECTOR('',#1884,1000.);
#749=VECTOR('',#1887,1000.);
#750=VECTOR('',#1888,1000.);
#751=VECTOR('',#1889,1000.);
#752=VECTOR('',#1892,1000.);
#753=VECTOR('',#1893,1000.);
#754=VECTOR('',#1896,1000.);
#755=VECTOR('',#1897,1000.);
#756=VECTOR('',#1900,1000.);
#757=VECTOR('',#1903,1000.);
#758=VECTOR('',#1904,1000.);
#759=VECTOR('',#1907,1000.);
#760=VECTOR('',#1908,1000.);
#761=VECTOR('',#1937,1000.);
#762=VECTOR('',#1938,1000.);
#763=VECTOR('',#1941,1000.);
#764=VECTOR('',#1942,1000.);
#765=VECTOR('',#1945,1000.);
#766=VECTOR('',#1950,1000.);
#767=VECTOR('',#1951,1000.);
#768=VECTOR('',#1954,1000.);
#769=VECTOR('',#1955,1000.);
#770=VECTOR('',#1958,1000.);
#771=EDGE_LOOP('',(#65,#66,#67,#68,#69,#70,#71,#72,#73,#74));
#772=EDGE_LOOP('',(#75));
#773=EDGE_LOOP('',(#76));
#774=EDGE_LOOP('',(#77));
#775=EDGE_LOOP('',(#78,#79,#80,#81,#82,#83,#84,#85,#86,#87,#88,#89));
#776=EDGE_LOOP('',(#90,#91,#92,#93,#94,#95,#96,#97,#98,#99));
#777=EDGE_LOOP('',(#100,#101,#102,#103));
#778=EDGE_LOOP('',(#104,#105,#106,#107));
#779=EDGE_LOOP('',(#108));
#780=EDGE_LOOP('',(#109));
#781=EDGE_LOOP('',(#110,#111));
#782=EDGE_LOOP('',(#112,#113));
#783=EDGE_LOOP('',(#114));
#784=EDGE_LOOP('',(#115,#116,#117,#118,#119,#120,#121,#122));
#785=EDGE_LOOP('',(#123,#124,#125,#126));
#786=EDGE_LOOP('',(#127));
#787=EDGE_LOOP('',(#128));
#788=EDGE_LOOP('',(#129,#130,#131,#132));
#789=EDGE_LOOP('',(#133,#134,#135,#136));
#790=EDGE_LOOP('',(#137,#138,#139,#140));
#791=EDGE_LOOP('',(#141,#142,#143,#144));
#792=EDGE_LOOP('',(#145));
#793=EDGE_LOOP('',(#146,#147,#148,#149));
#794=EDGE_LOOP('',(#150));
#795=EDGE_LOOP('',(#151));
#796=EDGE_LOOP('',(#152));
#797=EDGE_LOOP('',(#153));
#798=EDGE_LOOP('',(#154));
#799=EDGE_LOOP('',(#155,#156));
#800=EDGE_LOOP('',(#157,#158,#159,#160));
#801=EDGE_LOOP('',(#161,#162));
#802=EDGE_LOOP('',(#163,#164,#165,#166));
#803=EDGE_LOOP('',(#167,#168,#169,#170));
#804=EDGE_LOOP('',(#171,#172));
#805=EDGE_LOOP('',(#173,#174,#175,#176));
#806=EDGE_LOOP('',(#177,#178));
#807=EDGE_LOOP('',(#179,#180,#181,#182));
#808=EDGE_LOOP('',(#183,#184,#185,#186));
#809=EDGE_LOOP('',(#187));
#810=EDGE_LOOP('',(#188));
#811=EDGE_LOOP('',(#189));
#812=EDGE_LOOP('',(#190));
#813=EDGE_LOOP('',(#191));
#814=EDGE_LOOP('',(#192,#193,#194,#195,#196,#197,#198,#199));
#815=EDGE_LOOP('',(#200));
#816=EDGE_LOOP('',(#201,#202,#203,#204,#205,#206,#207,#208));
#817=EDGE_LOOP('',(#209));
#818=EDGE_LOOP('',(#210,#211,#212,#213));
#819=EDGE_LOOP('',(#214));
#820=EDGE_LOOP('',(#215,#216,#217,#218));
#821=EDGE_LOOP('',(#219));
#822=EDGE_LOOP('',(#220));
#823=EDGE_LOOP('',(#221));
#824=EDGE_LOOP('',(#222));
#825=EDGE_LOOP('',(#223));
#826=EDGE_LOOP('',(#224));
#827=EDGE_LOOP('',(#225,#226,#227,#228));
#828=EDGE_LOOP('',(#229,#230,#231,#232));
#829=EDGE_LOOP('',(#233,#234,#235,#236));
#830=EDGE_LOOP('',(#237,#238,#239,#240));
#831=EDGE_LOOP('',(#241,#242,#243,#244));
#832=EDGE_LOOP('',(#245,#246,#247,#248));
#833=EDGE_LOOP('',(#249,#250,#251,#252));
#834=EDGE_LOOP('',(#253,#254,#255,#256));
#835=EDGE_LOOP('',(#257,#258,#259,#260));
#836=EDGE_LOOP('',(#261,#262,#263,#264));
#837=EDGE_LOOP('',(#265,#266,#267,#268));
#838=EDGE_LOOP('',(#269,#270,#271,#272));
#839=EDGE_LOOP('',(#273,#274,#275,#276));
#840=EDGE_LOOP('',(#277,#278,#279,#280));
#841=EDGE_LOOP('',(#281,#282,#283,#284));
#842=EDGE_LOOP('',(#285));
#843=EDGE_LOOP('',(#286));
#844=EDGE_LOOP('',(#287));
#845=EDGE_LOOP('',(#288));
#846=EDGE_LOOP('',(#289));
#847=EDGE_LOOP('',(#290));
#848=EDGE_LOOP('',(#291));
#849=EDGE_LOOP('',(#292));
#850=EDGE_LOOP('',(#293));
#851=EDGE_LOOP('',(#294));
#852=EDGE_LOOP('',(#295));
#853=EDGE_LOOP('',(#296,#297,#298,#299));
#854=EDGE_LOOP('',(#300));
#855=EDGE_LOOP('',(#301));
#856=EDGE_LOOP('',(#302));
#857=EDGE_LOOP('',(#303,#304,#305,#306));
#858=EDGE_LOOP('',(#307,#308,#309,#310));
#859=EDGE_LOOP('',(#311,#312,#313,#314));
#860=EDGE_LOOP('',(#315,#316,#317,#318));
#861=EDGE_LOOP('',(#319,#320,#321,#322));
#862=EDGE_LOOP('',(#323,#324,#325,#326));
#863=EDGE_LOOP('',(#327,#328,#329,#330));
#864=EDGE_LOOP('',(#331,#332,#333,#334));
#865=FACE_BOUND('',#771,.T.);
#866=FACE_BOUND('',#772,.T.);
#867=FACE_BOUND('',#773,.T.);
#868=FACE_BOUND('',#774,.T.);
#869=FACE_BOUND('',#775,.T.);
#870=FACE_BOUND('',#776,.T.);
#871=FACE_BOUND('',#777,.T.);
#872=FACE_BOUND('',#778,.T.);
#873=FACE_BOUND('',#779,.T.);
#874=FACE_BOUND('',#780,.T.);
#875=FACE_BOUND('',#781,.T.);
#876=FACE_BOUND('',#782,.T.);
#877=FACE_BOUND('',#783,.T.);
#878=FACE_BOUND('',#784,.T.);
#879=FACE_BOUND('',#785,.T.);
#880=FACE_BOUND('',#786,.T.);
#881=FACE_BOUND('',#787,.T.);
#882=FACE_BOUND('',#788,.T.);
#883=FACE_BOUND('',#789,.T.);
#884=FACE_BOUND('',#790,.T.);
#885=FACE_BOUND('',#791,.T.);
#886=FACE_BOUND('',#792,.T.);
#887=FACE_BOUND('',#793,.T.);
#888=FACE_BOUND('',#794,.T.);
#889=FACE_BOUND('',#795,.T.);
#890=FACE_BOUND('',#796,.T.);
#891=FACE_BOUND('',#797,.T.);
#892=FACE_BOUND('',#798,.T.);
#893=FACE_BOUND('',#799,.T.);
#894=FACE_BOUND('',#800,.T.);
#895=FACE_BOUND('',#801,.T.);
#896=FACE_BOUND('',#802,.T.);
#897=FACE_BOUND('',#803,.T.);
#898=FACE_BOUND('',#804,.T.);
#899=FACE_BOUND('',#805,.T.);
#900=FACE_BOUND('',#806,.T.);
#901=FACE_BOUND('',#807,.T.);
#902=FACE_BOUND('',#808,.T.);
#903=FACE_BOUND('',#809,.T.);
#904=FACE_BOUND('',#810,.T.);
#905=FACE_BOUND('',#811,.T.);
#906=FACE_BOUND('',#812,.T.);
#907=FACE_BOUND('',#813,.T.);
#908=FACE_BOUND('',#814,.T.);
#909=FACE_BOUND('',#815,.T.);
#910=FACE_BOUND('',#816,.T.);
#911=FACE_BOUND('',#817,.T.);
#912=FACE_BOUND('',#818,.T.);
#913=FACE_BOUND('',#819,.T.);
#914=FACE_BOUND('',#820,.T.);
#915=FACE_BOUND('',#821,.T.);
#916=FACE_BOUND('',#822,.T.);
#917=FACE_BOUND('',#823,.T.);
#918=FACE_BOUND('',#824,.T.);
#919=FACE_BOUND('',#825,.T.);
#920=FACE_BOUND('',#826,.T.);
#921=FACE_BOUND('',#827,.T.);
#922=FACE_BOUND('',#828,.T.);
#923=FACE_BOUND('',#829,.T.);
#924=FACE_BOUND('',#830,.T.);
#925=FACE_BOUND('',#831,.T.);
#926=FACE_BOUND('',#832,.T.);
#927=FACE_BOUND('',#833,.T.);
#928=FACE_BOUND('',#834,.T.);
#929=FACE_BOUND('',#835,.T.);
#930=FACE_BOUND('',#836,.T.);
#931=FACE_BOUND('',#837,.T.);
#932=FACE_BOUND('',#838,.T.);
#933=FACE_BOUND('',#839,.T.);
#934=FACE_BOUND('',#840,.T.);
#935=FACE_BOUND('',#841,.T.);
#936=FACE_BOUND('',#842,.T.);
#937=FACE_BOUND('',#843,.T.);
#938=FACE_BOUND('',#844,.T.);
#939=FACE_BOUND('',#845,.T.);
#940=FACE_BOUND('',#846,.T.);
#941=FACE_BOUND('',#847,.T.);
#942=FACE_BOUND('',#848,.T.);
#943=FACE_BOUND('',#849,.T.);
#944=FACE_BOUND('',#850,.T.);
#945=FACE_BOUND('',#851,.T.);
#946=FACE_BOUND('',#852,.T.);
#947=FACE_BOUND('',#853,.T.);
#948=FACE_BOUND('',#854,.T.);
#949=FACE_BOUND('',#855,.T.);
#950=FACE_BOUND('',#856,.T.);
#951=FACE_BOUND('',#857,.T.);
#952=FACE_BOUND('',#858,.T.);
#953=FACE_BOUND('',#859,.T.);
#954=FACE_BOUND('',#860,.T.);
#955=FACE_BOUND('',#861,.T.);
#956=FACE_BOUND('',#862,.T.);
#957=FACE_BOUND('',#863,.T.);
#958=FACE_BOUND('',#864,.T.);
#959=PLANE('',#1557);
#960=PLANE('',#1558);
#961=PLANE('',#1562);
#962=PLANE('',#1563);
#963=PLANE('',#1566);
#964=PLANE('',#1567);
#965=PLANE('',#1570);
#966=PLANE('',#1572);
#967=PLANE('',#1575);
#968=PLANE('',#1577);
#969=PLANE('',#1578);
#970=PLANE('',#1579);
#971=PLANE('',#1580);
#972=PLANE('',#1581);
#973=PLANE('',#1585);
#974=PLANE('',#1586);
#975=PLANE('',#1588);
#976=PLANE('',#1590);
#977=PLANE('',#1592);
#978=PLANE('',#1593);
#979=PLANE('',#1595);
#980=PLANE('',#1596);
#981=PLANE('',#1599);
#982=PLANE('',#1601);
#983=PLANE('',#1602);
#984=PLANE('',#1604);
#985=PLANE('',#1605);
#986=PLANE('',#1616);
#987=PLANE('',#1617);
#988=PLANE('',#1618);
#989=PLANE('',#1620);
#990=PLANE('',#1622);
#991=PLANE('',#1624);
#992=PLANE('',#1626);
#993=PLANE('',#1627);
#994=PLANE('',#1628);
#995=PLANE('',#1629);
#996=PLANE('',#1630);
#997=PLANE('',#1631);
#998=PLANE('',#1632);
#999=PLANE('',#1633);
#1000=PLANE('',#1634);
#1001=PLANE('',#1635);
#1002=PLANE('',#1636);
#1003=PLANE('',#1637);
#1004=PLANE('',#1644);
#1005=PLANE('',#1646);
#1006=PLANE('',#1649);
#1007=PLANE('',#1650);
#1008=PLANE('',#1651);
#1009=PLANE('',#1652);
#1010=PLANE('',#1653);
#1011=PLANE('',#1654);
#1012=PLANE('',#1655);
#1013=PLANE('',#1656);
#1014=STYLED_ITEM('',(#1081),#1485);
#1015=STYLED_ITEM('',(#1082),#1486);
#1016=STYLED_ITEM('',(#1083),#1487);
#1017=STYLED_ITEM('',(#1084),#1488);
#1018=STYLED_ITEM('',(#1085),#1489);
#1019=STYLED_ITEM('',(#1086),#1490);
#1020=STYLED_ITEM('',(#1087),#1491);
#1021=STYLED_ITEM('',(#1088),#1492);
#1022=STYLED_ITEM('',(#1089),#1493);
#1023=STYLED_ITEM('',(#1090),#1494);
#1024=STYLED_ITEM('',(#1091),#1495);
#1025=STYLED_ITEM('',(#1092),#1496);
#1026=STYLED_ITEM('',(#1093),#1497);
#1027=STYLED_ITEM('',(#1094),#1498);
#1028=STYLED_ITEM('',(#1095),#1499);
#1029=STYLED_ITEM('',(#1096),#1500);
#1030=STYLED_ITEM('',(#1097),#1501);
#1031=STYLED_ITEM('',(#1098),#1502);
#1032=STYLED_ITEM('',(#1099),#1503);
#1033=STYLED_ITEM('',(#1100),#1504);
#1034=STYLED_ITEM('',(#1101),#1505);
#1035=STYLED_ITEM('',(#1102),#1506);
#1036=STYLED_ITEM('',(#1103),#1507);
#1037=STYLED_ITEM('',(#1104),#1508);
#1038=STYLED_ITEM('',(#1105),#1509);
#1039=STYLED_ITEM('',(#1106),#1510);
#1040=STYLED_ITEM('',(#1107),#1511);
#1041=STYLED_ITEM('',(#1108),#1512);
#1042=STYLED_ITEM('',(#1109),#1513);
#1043=STYLED_ITEM('',(#1110),#1514);
#1044=STYLED_ITEM('',(#1111),#1515);
#1045=STYLED_ITEM('',(#1112),#1516);
#1046=STYLED_ITEM('',(#1113),#1517);
#1047=STYLED_ITEM('',(#1114),#1518);
#1048=STYLED_ITEM('',(#1115),#1519);
#1049=STYLED_ITEM('',(#1116),#1520);
#1050=STYLED_ITEM('',(#1117),#1521);
#1051=STYLED_ITEM('',(#1118),#1522);
#1052=STYLED_ITEM('',(#1119),#1523);
#1053=STYLED_ITEM('',(#1120),#1524);
#1054=STYLED_ITEM('',(#1121),#1525);
#1055=STYLED_ITEM('',(#1122),#1526);
#1056=STYLED_ITEM('',(#1123),#1527);
#1057=STYLED_ITEM('',(#1124),#1528);
#1058=STYLED_ITEM('',(#1125),#1529);
#1059=STYLED_ITEM('',(#1126),#1530);
#1060=STYLED_ITEM('',(#1127),#1531);
#1061=STYLED_ITEM('',(#1128),#1532);
#1062=STYLED_ITEM('',(#1129),#1533);
#1063=STYLED_ITEM('',(#1130),#1534);
#1064=STYLED_ITEM('',(#1131),#1535);
#1065=STYLED_ITEM('',(#1132),#1536);
#1066=STYLED_ITEM('',(#1133),#1537);
#1067=STYLED_ITEM('',(#1134),#1538);
#1068=STYLED_ITEM('',(#1135),#1539);
#1069=STYLED_ITEM('',(#1136),#1540);
#1070=STYLED_ITEM('',(#1137),#1541);
#1071=STYLED_ITEM('',(#1138),#1542);
#1072=STYLED_ITEM('',(#1139),#1543);
#1073=STYLED_ITEM('',(#1140),#1544);
#1074=STYLED_ITEM('',(#1141),#1545);
#1075=STYLED_ITEM('',(#1142),#1546);
#1076=STYLED_ITEM('',(#1143),#1547);
#1077=STYLED_ITEM('',(#1144),#1548);
#1078=STYLED_ITEM('',(#1145),#1549);
#1079=STYLED_ITEM('',(#1146),#1550);
#1080=STYLED_ITEM('',(#1147),#1551);
#1081=PRESENTATION_STYLE_ASSIGNMENT((#1148));
#1082=PRESENTATION_STYLE_ASSIGNMENT((#1149));
#1083=PRESENTATION_STYLE_ASSIGNMENT((#1150));
#1084=PRESENTATION_STYLE_ASSIGNMENT((#1151));
#1085=PRESENTATION_STYLE_ASSIGNMENT((#1152));
#1086=PRESENTATION_STYLE_ASSIGNMENT((#1153));
#1087=PRESENTATION_STYLE_ASSIGNMENT((#1154));
#1088=PRESENTATION_STYLE_ASSIGNMENT((#1155));
#1089=PRESENTATION_STYLE_ASSIGNMENT((#1156));
#1090=PRESENTATION_STYLE_ASSIGNMENT((#1157));
#1091=PRESENTATION_STYLE_ASSIGNMENT((#1158));
#1092=PRESENTATION_STYLE_ASSIGNMENT((#1159));
#1093=PRESENTATION_STYLE_ASSIGNMENT((#1160));
#1094=PRESENTATION_STYLE_ASSIGNMENT((#1161));
#1095=PRESENTATION_STYLE_ASSIGNMENT((#1162));
#1096=PRESENTATION_STYLE_ASSIGNMENT((#1163));
#1097=PRESENTATION_STYLE_ASSIGNMENT((#1164));
#1098=PRESENTATION_STYLE_ASSIGNMENT((#1165));
#1099=PRESENTATION_STYLE_ASSIGNMENT((#1166));
#1100=PRESENTATION_STYLE_ASSIGNMENT((#1167));
#1101=PRESENTATION_STYLE_ASSIGNMENT((#1168));
#1102=PRESENTATION_STYLE_ASSIGNMENT((#1169));
#1103=PRESENTATION_STYLE_ASSIGNMENT((#1170));
#1104=PRESENTATION_STYLE_ASSIGNMENT((#1171));
#1105=PRESENTATION_STYLE_ASSIGNMENT((#1172));
#1106=PRESENTATION_STYLE_ASSIGNMENT((#1173));
#1107=PRESENTATION_STYLE_ASSIGNMENT((#1174));
#1108=PRESENTATION_STYLE_ASSIGNMENT((#1175));
#1109=PRESENTATION_STYLE_ASSIGNMENT((#1176));
#1110=PRESENTATION_STYLE_ASSIGNMENT((#1177));
#1111=PRESENTATION_STYLE_ASSIGNMENT((#1178));
#1112=PRESENTATION_STYLE_ASSIGNMENT((#1179));
#1113=PRESENTATION_STYLE_ASSIGNMENT((#1180));
#1114=PRESENTATION_STYLE_ASSIGNMENT((#1181));
#1115=PRESENTATION_STYLE_ASSIGNMENT((#1182));
#1116=PRESENTATION_STYLE_ASSIGNMENT((#1183));
#1117=PRESENTATION_STYLE_ASSIGNMENT((#1184));
#1118=PRESENTATION_STYLE_ASSIGNMENT((#1185));
#1119=PRESENTATION_STYLE_ASSIGNMENT((#1186));
#1120=PRESENTATION_STYLE_ASSIGNMENT((#1187));
#1121=PRESENTATION_STYLE_ASSIGNMENT((#1188));
#1122=PRESENTATION_STYLE_ASSIGNMENT((#1189));
#1123=PRESENTATION_STYLE_ASSIGNMENT((#1190));
#1124=PRESENTATION_STYLE_ASSIGNMENT((#1191));
#1125=PRESENTATION_STYLE_ASSIGNMENT((#1192));
#1126=PRESENTATION_STYLE_ASSIGNMENT((#1193));
#1127=PRESENTATION_STYLE_ASSIGNMENT((#1194));
#1128=PRESENTATION_STYLE_ASSIGNMENT((#1195));
#1129=PRESENTATION_STYLE_ASSIGNMENT((#1196));
#1130=PRESENTATION_STYLE_ASSIGNMENT((#1197));
#1131=PRESENTATION_STYLE_ASSIGNMENT((#1198));
#1132=PRESENTATION_STYLE_ASSIGNMENT((#1199));
#1133=PRESENTATION_STYLE_ASSIGNMENT((#1200));
#1134=PRESENTATION_STYLE_ASSIGNMENT((#1201));
#1135=PRESENTATION_STYLE_ASSIGNMENT((#1202));
#1136=PRESENTATION_STYLE_ASSIGNMENT((#1203));
#1137=PRESENTATION_STYLE_ASSIGNMENT((#1204));
#1138=PRESENTATION_STYLE_ASSIGNMENT((#1205));
#1139=PRESENTATION_STYLE_ASSIGNMENT((#1206));
#1140=PRESENTATION_STYLE_ASSIGNMENT((#1207));
#1141=PRESENTATION_STYLE_ASSIGNMENT((#1208));
#1142=PRESENTATION_STYLE_ASSIGNMENT((#1209));
#1143=PRESENTATION_STYLE_ASSIGNMENT((#1210));
#1144=PRESENTATION_STYLE_ASSIGNMENT((#1211));
#1145=PRESENTATION_STYLE_ASSIGNMENT((#1212));
#1146=PRESENTATION_STYLE_ASSIGNMENT((#1213));
#1147=PRESENTATION_STYLE_ASSIGNMENT((#1214));
#1148=SURFACE_STYLE_USAGE(.BOTH.,#1215);
#1149=SURFACE_STYLE_USAGE(.BOTH.,#1216);
#1150=SURFACE_STYLE_USAGE(.BOTH.,#1217);
#1151=SURFACE_STYLE_USAGE(.BOTH.,#1218);
#1152=SURFACE_STYLE_USAGE(.BOTH.,#1219);
#1153=SURFACE_STYLE_USAGE(.BOTH.,#1220);
#1154=SURFACE_STYLE_USAGE(.BOTH.,#1221);
#1155=SURFACE_STYLE_USAGE(.BOTH.,#1222);
#1156=SURFACE_STYLE_USAGE(.BOTH.,#1223);
#1157=SURFACE_STYLE_USAGE(.BOTH.,#1224);
#1158=SURFACE_STYLE_USAGE(.BOTH.,#1225);
#1159=SURFACE_STYLE_USAGE(.BOTH.,#1226);
#1160=SURFACE_STYLE_USAGE(.BOTH.,#1227);
#1161=SURFACE_STYLE_USAGE(.BOTH.,#1228);
#1162=SURFACE_STYLE_USAGE(.BOTH.,#1229);
#1163=SURFACE_STYLE_USAGE(.BOTH.,#1230);
#1164=SURFACE_STYLE_USAGE(.BOTH.,#1231);
#1165=SURFACE_STYLE_USAGE(.BOTH.,#1232);
#1166=SURFACE_STYLE_USAGE(.BOTH.,#1233);
#1167=SURFACE_STYLE_USAGE(.BOTH.,#1234);
#1168=SURFACE_STYLE_USAGE(.BOTH.,#1235);
#1169=SURFACE_STYLE_USAGE(.BOTH.,#1236);
#1170=SURFACE_STYLE_USAGE(.BOTH.,#1237);
#1171=SURFACE_STYLE_USAGE(.BOTH.,#1238);
#1172=SURFACE_STYLE_USAGE(.BOTH.,#1239);
#1173=SURFACE_STYLE_USAGE(.BOTH.,#1240);
#1174=SURFACE_STYLE_USAGE(.BOTH.,#1241);
#1175=SURFACE_STYLE_USAGE(.BOTH.,#1242);
#1176=SURFACE_STYLE_USAGE(.BOTH.,#1243);
#1177=SURFACE_STYLE_USAGE(.BOTH.,#1244);
#1178=SURFACE_STYLE_USAGE(.BOTH.,#1245);
#1179=SURFACE_STYLE_USAGE(.BOTH.,#1246);
#1180=SURFACE_STYLE_USAGE(.BOTH.,#1247);
#1181=SURFACE_STYLE_USAGE(.BOTH.,#1248);
#1182=SURFACE_STYLE_USAGE(.BOTH.,#1249);
#1183=SURFACE_STYLE_USAGE(.BOTH.,#1250);
#1184=SURFACE_STYLE_USAGE(.BOTH.,#1251);
#1185=SURFACE_STYLE_USAGE(.BOTH.,#1252);
#1186=SURFACE_STYLE_USAGE(.BOTH.,#1253);
#1187=SURFACE_STYLE_USAGE(.BOTH.,#1254);
#1188=SURFACE_STYLE_USAGE(.BOTH.,#1255);
#1189=SURFACE_STYLE_USAGE(.BOTH.,#1256);
#1190=SURFACE_STYLE_USAGE(.BOTH.,#1257);
#1191=SURFACE_STYLE_USAGE(.BOTH.,#1258);
#1192=SURFACE_STYLE_USAGE(.BOTH.,#1259);
#1193=SURFACE_STYLE_USAGE(.BOTH.,#1260);
#1194=SURFACE_STYLE_USAGE(.BOTH.,#1261);
#1195=SURFACE_STYLE_USAGE(.BOTH.,#1262);
#1196=SURFACE_STYLE_USAGE(.BOTH.,#1263);
#1197=SURFACE_STYLE_USAGE(.BOTH.,#1264);
#1198=SURFACE_STYLE_USAGE(.BOTH.,#1265);
#1199=SURFACE_STYLE_USAGE(.BOTH.,#1266);
#1200=SURFACE_STYLE_USAGE(.BOTH.,#1267);
#1201=SURFACE_STYLE_USAGE(.BOTH.,#1268);
#1202=SURFACE_STYLE_USAGE(.BOTH.,#1269);
#1203=SURFACE_STYLE_USAGE(.BOTH.,#1270);
#1204=SURFACE_STYLE_USAGE(.BOTH.,#1271);
#1205=SURFACE_STYLE_USAGE(.BOTH.,#1272);
#1206=SURFACE_STYLE_USAGE(.BOTH.,#1273);
#1207=SURFACE_STYLE_USAGE(.BOTH.,#1274);
#1208=SURFACE_STYLE_USAGE(.BOTH.,#1275);
#1209=SURFACE_STYLE_USAGE(.BOTH.,#1276);
#1210=SURFACE_STYLE_USAGE(.BOTH.,#1277);
#1211=SURFACE_STYLE_USAGE(.BOTH.,#1278);
#1212=SURFACE_STYLE_USAGE(.BOTH.,#1279);
#1213=SURFACE_STYLE_USAGE(.BOTH.,#1280);
#1214=SURFACE_STYLE_USAGE(.BOTH.,#1281);
#1215=SURFACE_SIDE_STYLE('',(#1282));
#1216=SURFACE_SIDE_STYLE('',(#1283));
#1217=SURFACE_SIDE_STYLE('',(#1284));
#1218=SURFACE_SIDE_STYLE('',(#1285));
#1219=SURFACE_SIDE_STYLE('',(#1286));
#1220=SURFACE_SIDE_STYLE('',(#1287));
#1221=SURFACE_SIDE_STYLE('',(#1288));
#1222=SURFACE_SIDE_STYLE('',(#1289));
#1223=SURFACE_SIDE_STYLE('',(#1290));
#1224=SURFACE_SIDE_STYLE('',(#1291));
#1225=SURFACE_SIDE_STYLE('',(#1292));
#1226=SURFACE_SIDE_STYLE('',(#1293));
#1227=SURFACE_SIDE_STYLE('',(#1294));
#1228=SURFACE_SIDE_STYLE('',(#1295));
#1229=SURFACE_SIDE_STYLE('',(#1296));
#1230=SURFACE_SIDE_STYLE('',(#1297));
#1231=SURFACE_SIDE_STYLE('',(#1298));
#1232=SURFACE_SIDE_STYLE('',(#1299));
#1233=SURFACE_SIDE_STYLE('',(#1300));
#1234=SURFACE_SIDE_STYLE('',(#1301));
#1235=SURFACE_SIDE_STYLE('',(#1302));
#1236=SURFACE_SIDE_STYLE('',(#1303));
#1237=SURFACE_SIDE_STYLE('',(#1304));
#1238=SURFACE_SIDE_STYLE('',(#1305));
#1239=SURFACE_SIDE_STYLE('',(#1306));
#1240=SURFACE_SIDE_STYLE('',(#1307));
#1241=SURFACE_SIDE_STYLE('',(#1308));
#1242=SURFACE_SIDE_STYLE('',(#1309));
#1243=SURFACE_SIDE_STYLE('',(#1310));
#1244=SURFACE_SIDE_STYLE('',(#1311));
#1245=SURFACE_SIDE_STYLE('',(#1312));
#1246=SURFACE_SIDE_STYLE('',(#1313));
#1247=SURFACE_SIDE_STYLE('',(#1314));
#1248=SURFACE_SIDE_STYLE('',(#1315));
#1249=SURFACE_SIDE_STYLE('',(#1316));
#1250=SURFACE_SIDE_STYLE('',(#1317));
#1251=SURFACE_SIDE_STYLE('',(#1318));
#1252=SURFACE_SIDE_STYLE('',(#1319));
#1253=SURFACE_SIDE_STYLE('',(#1320));
#1254=SURFACE_SIDE_STYLE('',(#1321));
#1255=SURFACE_SIDE_STYLE('',(#1322));
#1256=SURFACE_SIDE_STYLE('',(#1323));
#1257=SURFACE_SIDE_STYLE('',(#1324));
#1258=SURFACE_SIDE_STYLE('',(#1325));
#1259=SURFACE_SIDE_STYLE('',(#1326));
#1260=SURFACE_SIDE_STYLE('',(#1327));
#1261=SURFACE_SIDE_STYLE('',(#1328));
#1262=SURFACE_SIDE_STYLE('',(#1329));
#1263=SURFACE_SIDE_STYLE('',(#1330));
#1264=SURFACE_SIDE_STYLE('',(#1331));
#1265=SURFACE_SIDE_STYLE('',(#1332));
#1266=SURFACE_SIDE_STYLE('',(#1333));
#1267=SURFACE_SIDE_STYLE('',(#1334));
#1268=SURFACE_SIDE_STYLE('',(#1335));
#1269=SURFACE_SIDE_STYLE('',(#1336));
#1270=SURFACE_SIDE_STYLE('',(#1337));
#1271=SURFACE_SIDE_STYLE('',(#1338));
#1272=SURFACE_SIDE_STYLE('',(#1339));
#1273=SURFACE_SIDE_STYLE('',(#1340));
#1274=SURFACE_SIDE_STYLE('',(#1341));
#1275=SURFACE_SIDE_STYLE('',(#1342));
#1276=SURFACE_SIDE_STYLE('',(#1343));
#1277=SURFACE_SIDE_STYLE('',(#1344));
#1278=SURFACE_SIDE_STYLE('',(#1345));
#1279=SURFACE_SIDE_STYLE('',(#1346));
#1280=SURFACE_SIDE_STYLE('',(#1347));
#1281=SURFACE_SIDE_STYLE('',(#1348));
#1282=SURFACE_STYLE_FILL_AREA(#1349);
#1283=SURFACE_STYLE_FILL_AREA(#1350);
#1284=SURFACE_STYLE_FILL_AREA(#1351);
#1285=SURFACE_STYLE_FILL_AREA(#1352);
#1286=SURFACE_STYLE_FILL_AREA(#1353);
#1287=SURFACE_STYLE_FILL_AREA(#1354);
#1288=SURFACE_STYLE_FILL_AREA(#1355);
#1289=SURFACE_STYLE_FILL_AREA(#1356);
#1290=SURFACE_STYLE_FILL_AREA(#1357);
#1291=SURFACE_STYLE_FILL_AREA(#1358);
#1292=SURFACE_STYLE_FILL_AREA(#1359);
#1293=SURFACE_STYLE_FILL_AREA(#1360);
#1294=SURFACE_STYLE_FILL_AREA(#1361);
#1295=SURFACE_STYLE_FILL_AREA(#1362);
#1296=SURFACE_STYLE_FILL_AREA(#1363);
#1297=SURFACE_STYLE_FILL_AREA(#1364);
#1298=SURFACE_STYLE_FILL_AREA(#1365);
#1299=SURFACE_STYLE_FILL_AREA(#1366);
#1300=SURFACE_STYLE_FILL_AREA(#1367);
#1301=SURFACE_STYLE_FILL_AREA(#1368);
#1302=SURFACE_STYLE_FILL_AREA(#1369);
#1303=SURFACE_STYLE_FILL_AREA(#1370);
#1304=SURFACE_STYLE_FILL_AREA(#1371);
#1305=SURFACE_STYLE_FILL_AREA(#1372);
#1306=SURFACE_STYLE_FILL_AREA(#1373);
#1307=SURFACE_STYLE_FILL_AREA(#1374);
#1308=SURFACE_STYLE_FILL_AREA(#1375);
#1309=SURFACE_STYLE_FILL_AREA(#1376);
#1310=SURFACE_STYLE_FILL_AREA(#1377);
#1311=SURFACE_STYLE_FILL_AREA(#1378);
#1312=SURFACE_STYLE_FILL_AREA(#1379);
#1313=SURFACE_STYLE_FILL_AREA(#1380);
#1314=SURFACE_STYLE_FILL_AREA(#1381);
#1315=SURFACE_STYLE_FILL_AREA(#1382);
#1316=SURFACE_STYLE_FILL_AREA(#1383);
#1317=SURFACE_STYLE_FILL_AREA(#1384);
#1318=SURFACE_STYLE_FILL_AREA(#1385);
#1319=SURFACE_STYLE_FILL_AREA(#1386);
#1320=SURFACE_STYLE_FILL_AREA(#1387);
#1321=SURFACE_STYLE_FILL_AREA(#1388);
#1322=SURFACE_STYLE_FILL_AREA(#1389);
#1323=SURFACE_STYLE_FILL_AREA(#1390);
#1324=SURFACE_STYLE_FILL_AREA(#1391);
#1325=SURFACE_STYLE_FILL_AREA(#1392);
#1326=SURFACE_STYLE_FILL_AREA(#1393);
#1327=SURFACE_STYLE_FILL_AREA(#1394);
#1328=SURFACE_STYLE_FILL_AREA(#1395);
#1329=SURFACE_STYLE_FILL_AREA(#1396);
#1330=SURFACE_STYLE_FILL_AREA(#1397);
#1331=SURFACE_STYLE_FILL_AREA(#1398);
#1332=SURFACE_STYLE_FILL_AREA(#1399);
#1333=SURFACE_STYLE_FILL_AREA(#1400);
#1334=SURFACE_STYLE_FILL_AREA(#1401);
#1335=SURFACE_STYLE_FILL_AREA(#1402);
#1336=SURFACE_STYLE_FILL_AREA(#1403);
#1337=SURFACE_STYLE_FILL_AREA(#1404);
#1338=SURFACE_STYLE_FILL_AREA(#1405);
#1339=SURFACE_STYLE_FILL_AREA(#1406);
#1340=SURFACE_STYLE_FILL_AREA(#1407);
#1341=SURFACE_STYLE_FILL_AREA(#1408);
#1342=SURFACE_STYLE_FILL_AREA(#1409);
#1343=SURFACE_STYLE_FILL_AREA(#1410);
#1344=SURFACE_STYLE_FILL_AREA(#1411);
#1345=SURFACE_STYLE_FILL_AREA(#1412);
#1346=SURFACE_STYLE_FILL_AREA(#1413);
#1347=SURFACE_STYLE_FILL_AREA(#1414);
#1348=SURFACE_STYLE_FILL_AREA(#1415);
#1349=FILL_AREA_STYLE('',(#1416));
#1350=FILL_AREA_STYLE('',(#1417));
#1351=FILL_AREA_STYLE('',(#1418));
#1352=FILL_AREA_STYLE('',(#1419));
#1353=FILL_AREA_STYLE('',(#1420));
#1354=FILL_AREA_STYLE('',(#1421));
#1355=FILL_AREA_STYLE('',(#1422));
#1356=FILL_AREA_STYLE('',(#1423));
#1357=FILL_AREA_STYLE('',(#1424));
#1358=FILL_AREA_STYLE('',(#1425));
#1359=FILL_AREA_STYLE('',(#1426));
#1360=FILL_AREA_STYLE('',(#1427));
#1361=FILL_AREA_STYLE('',(#1428));
#1362=FILL_AREA_STYLE('',(#1429));
#1363=FILL_AREA_STYLE('',(#1430));
#1364=FILL_AREA_STYLE('',(#1431));
#1365=FILL_AREA_STYLE('',(#1432));
#1366=FILL_AREA_STYLE('',(#1433));
#1367=FILL_AREA_STYLE('',(#1434));
#1368=FILL_AREA_STYLE('',(#1435));
#1369=FILL_AREA_STYLE('',(#1436));
#1370=FILL_AREA_STYLE('',(#1437));
#1371=FILL_AREA_STYLE('',(#1438));
#1372=FILL_AREA_STYLE('',(#1439));
#1373=FILL_AREA_STYLE('',(#1440));
#1374=FILL_AREA_STYLE('',(#1441));
#1375=FILL_AREA_STYLE('',(#1442));
#1376=FILL_AREA_STYLE('',(#1443));
#1377=FILL_AREA_STYLE('',(#1444));
#1378=FILL_AREA_STYLE('',(#1445));
#1379=FILL_AREA_STYLE('',(#1446));
#1380=FILL_AREA_STYLE('',(#1447));
#1381=FILL_AREA_STYLE('',(#1448));
#1382=FILL_AREA_STYLE('',(#1449));
#1383=FILL_AREA_STYLE('',(#1450));
#1384=FILL_AREA_STYLE('',(#1451));
#1385=FILL_AREA_STYLE('',(#1452));
#1386=FILL_AREA_STYLE('',(#1453));
#1387=FILL_AREA_STYLE('',(#1454));
#1388=FILL_AREA_STYLE('',(#1455));
#1389=FILL_AREA_STYLE('',(#1456));
#1390=FILL_AREA_STYLE('',(#1457));
#1391=FILL_AREA_STYLE('',(#1458));
#1392=FILL_AREA_STYLE('',(#1459));
#1393=FILL_AREA_STYLE('',(#1460));
#1394=FILL_AREA_STYLE('',(#1461));
#1395=FILL_AREA_STYLE('',(#1462));
#1396=FILL_AREA_STYLE('',(#1463));
#1397=FILL_AREA_STYLE('',(#1464));
#1398=FILL_AREA_STYLE('',(#1465));
#1399=FILL_AREA_STYLE('',(#1466));
#1400=FILL_AREA_STYLE('',(#1467));
#1401=FILL_AREA_STYLE('',(#1468));
#1402=FILL_AREA_STYLE('',(#1469));
#1403=FILL_AREA_STYLE('',(#1470));
#1404=FILL_AREA_STYLE('',(#1471));
#1405=FILL_AREA_STYLE('',(#1472));
#1406=FILL_AREA_STYLE('',(#1473));
#1407=FILL_AREA_STYLE('',(#1474));
#1408=FILL_AREA_STYLE('',(#1475));
#1409=FILL_AREA_STYLE('',(#1476));
#1410=FILL_AREA_STYLE('',(#1477));
#1411=FILL_AREA_STYLE('',(#1478));
#1412=FILL_AREA_STYLE('',(#1479));
#1413=FILL_AREA_STYLE('',(#1480));
#1414=FILL_AREA_STYLE('',(#1481));
#1415=FILL_AREA_STYLE('',(#1482));
#1416=FILL_AREA_STYLE_COLOUR('',#1483);
#1417=FILL_AREA_STYLE_COLOUR('',#1483);
#1418=FILL_AREA_STYLE_COLOUR('',#1483);
#1419=FILL_AREA_STYLE_COLOUR('',#1484);
#1420=FILL_AREA_STYLE_COLOUR('',#1484);
#1421=FILL_AREA_STYLE_COLOUR('',#1483);
#1422=FILL_AREA_STYLE_COLOUR('',#1484);
#1423=FILL_AREA_STYLE_COLOUR('',#1484);
#1424=FILL_AREA_STYLE_COLOUR('',#1484);
#1425=FILL_AREA_STYLE_COLOUR('',#1484);
#1426=FILL_AREA_STYLE_COLOUR('',#1483);
#1427=FILL_AREA_STYLE_COLOUR('',#1483);
#1428=FILL_AREA_STYLE_COLOUR('',#1483);
#1429=FILL_AREA_STYLE_COLOUR('',#1483);
#1430=FILL_AREA_STYLE_COLOUR('',#1483);
#1431=FILL_AREA_STYLE_COLOUR('',#1484);
#1432=FILL_AREA_STYLE_COLOUR('',#1484);
#1433=FILL_AREA_STYLE_COLOUR('',#1484);
#1434=FILL_AREA_STYLE_COLOUR('',#1484);
#1435=FILL_AREA_STYLE_COLOUR('',#1484);
#1436=FILL_AREA_STYLE_COLOUR('',#1484);
#1437=FILL_AREA_STYLE_COLOUR('',#1484);
#1438=FILL_AREA_STYLE_COLOUR('',#1484);
#1439=FILL_AREA_STYLE_COLOUR('',#1484);
#1440=FILL_AREA_STYLE_COLOUR('',#1484);
#1441=FILL_AREA_STYLE_COLOUR('',#1484);
#1442=FILL_AREA_STYLE_COLOUR('',#1484);
#1443=FILL_AREA_STYLE_COLOUR('',#1484);
#1444=FILL_AREA_STYLE_COLOUR('',#1484);
#1445=FILL_AREA_STYLE_COLOUR('',#1484);
#1446=FILL_AREA_STYLE_COLOUR('',#1484);
#1447=FILL_AREA_STYLE_COLOUR('',#1484);
#1448=FILL_AREA_STYLE_COLOUR('',#1484);
#1449=FILL_AREA_STYLE_COLOUR('',#1484);
#1450=FILL_AREA_STYLE_COLOUR('',#1484);
#1451=FILL_AREA_STYLE_COLOUR('',#1484);
#1452=FILL_AREA_STYLE_COLOUR('',#1484);
#1453=FILL_AREA_STYLE_COLOUR('',#1484);
#1454=FILL_AREA_STYLE_COLOUR('',#1483);
#1455=FILL_AREA_STYLE_COLOUR('',#1483);
#1456=FILL_AREA_STYLE_COLOUR('',#1483);
#1457=FILL_AREA_STYLE_COLOUR('',#1483);
#1458=FILL_AREA_STYLE_COLOUR('',#1483);
#1459=FILL_AREA_STYLE_COLOUR('',#1483);
#1460=FILL_AREA_STYLE_COLOUR('',#1483);
#1461=FILL_AREA_STYLE_COLOUR('',#1483);
#1462=FILL_AREA_STYLE_COLOUR('',#1483);
#1463=FILL_AREA_STYLE_COLOUR('',#1483);
#1464=FILL_AREA_STYLE_COLOUR('',#1483);
#1465=FILL_AREA_STYLE_COLOUR('',#1483);
#1466=FILL_AREA_STYLE_COLOUR('',#1483);
#1467=FILL_AREA_STYLE_COLOUR('',#1483);
#1468=FILL_AREA_STYLE_COLOUR('',#1483);
#1469=FILL_AREA_STYLE_COLOUR('',#1483);
#1470=FILL_AREA_STYLE_COLOUR('',#1484);
#1471=FILL_AREA_STYLE_COLOUR('',#1484);
#1472=FILL_AREA_STYLE_COLOUR('',#1483);
#1473=FILL_AREA_STYLE_COLOUR('',#1484);
#1474=FILL_AREA_STYLE_COLOUR('',#1484);
#1475=FILL_AREA_STYLE_COLOUR('',#1483);
#1476=FILL_AREA_STYLE_COLOUR('',#1483);
#1477=FILL_AREA_STYLE_COLOUR('',#1483);
#1478=FILL_AREA_STYLE_COLOUR('',#1483);
#1479=FILL_AREA_STYLE_COLOUR('',#1483);
#1480=FILL_AREA_STYLE_COLOUR('',#1483);
#1481=FILL_AREA_STYLE_COLOUR('',#1483);
#1482=FILL_AREA_STYLE_COLOUR('',#1483);
#1483=COLOUR_RGB('',0.39215686917305,0.600000023841858,0.39215686917305);
#1484=COLOUR_RGB('',0.699999988079071,0.699999988079071,0.699999988079071);
#1485=ADVANCED_FACE('',(#865),#959,.F.);
#1486=ADVANCED_FACE('',(#866,#867,#868,#869),#960,.F.);
#1487=ADVANCED_FACE('',(#870),#961,.T.);
#1488=ADVANCED_FACE('',(#871),#962,.F.);
#1489=ADVANCED_FACE('',(#872),#963,.T.);
#1490=ADVANCED_FACE('',(#873,#874),#964,.F.);
#1491=ADVANCED_FACE('',(#875),#965,.F.);
#1492=ADVANCED_FACE('',(#876),#966,.F.);
#1493=ADVANCED_FACE('',(#877,#878),#20,.T.);
#1494=ADVANCED_FACE('',(#879),#967,.T.);
#1495=ADVANCED_FACE('',(#880,#881),#21,.F.);
#1496=ADVANCED_FACE('',(#882),#968,.T.);
#1497=ADVANCED_FACE('',(#883),#969,.T.);
#1498=ADVANCED_FACE('',(#884),#970,.T.);
#1499=ADVANCED_FACE('',(#885),#971,.T.);
#1500=ADVANCED_FACE('',(#886,#887),#972,.F.);
#1501=ADVANCED_FACE('',(#888,#889),#22,.F.);
#1502=ADVANCED_FACE('',(#890),#973,.F.);
#1503=ADVANCED_FACE('',(#891),#974,.F.);
#1504=ADVANCED_FACE('',(#892),#975,.F.);
#1505=ADVANCED_FACE('',(#893),#976,.F.);
#1506=ADVANCED_FACE('',(#894),#977,.T.);
#1507=ADVANCED_FACE('',(#895),#978,.F.);
#1508=ADVANCED_FACE('',(#896),#979,.T.);
#1509=ADVANCED_FACE('',(#897),#980,.F.);
#1510=ADVANCED_FACE('',(#898),#981,.F.);
#1511=ADVANCED_FACE('',(#899),#982,.T.);
#1512=ADVANCED_FACE('',(#900),#983,.F.);
#1513=ADVANCED_FACE('',(#901),#984,.T.);
#1514=ADVANCED_FACE('',(#902),#985,.F.);
#1515=ADVANCED_FACE('',(#903,#904),#23,.F.);
#1516=ADVANCED_FACE('',(#905,#906),#24,.F.);
#1517=ADVANCED_FACE('',(#907,#908),#25,.T.);
#1518=ADVANCED_FACE('',(#909,#910),#26,.T.);
#1519=ADVANCED_FACE('',(#911,#912),#986,.F.);
#1520=ADVANCED_FACE('',(#913,#914),#987,.F.);
#1521=ADVANCED_FACE('',(#915),#988,.T.);
#1522=ADVANCED_FACE('',(#916),#989,.T.);
#1523=ADVANCED_FACE('',(#917,#918),#990,.F.);
#1524=ADVANCED_FACE('',(#919,#920),#991,.F.);
#1525=ADVANCED_FACE('',(#921),#992,.T.);
#1526=ADVANCED_FACE('',(#922),#993,.T.);
#1527=ADVANCED_FACE('',(#923),#994,.T.);
#1528=ADVANCED_FACE('',(#924),#995,.T.);
#1529=ADVANCED_FACE('',(#925),#996,.T.);
#1530=ADVANCED_FACE('',(#926),#997,.T.);
#1531=ADVANCED_FACE('',(#927),#998,.T.);
#1532=ADVANCED_FACE('',(#928),#999,.T.);
#1533=ADVANCED_FACE('',(#929),#1000,.F.);
#1534=ADVANCED_FACE('',(#930,#931,#932,#933),#1001,.F.);
#1535=ADVANCED_FACE('',(#934),#1002,.T.);
#1536=ADVANCED_FACE('',(#935),#1003,.T.);
#1537=ADVANCED_FACE('',(#936,#937),#27,.F.);
#1538=ADVANCED_FACE('',(#938,#939),#28,.F.);
#1539=ADVANCED_FACE('',(#940,#941),#29,.T.);
#1540=ADVANCED_FACE('',(#942,#943),#30,.T.);
#1541=ADVANCED_FACE('',(#944,#945,#946,#947),#1004,.F.);
#1542=ADVANCED_FACE('',(#948),#1005,.T.);
#1543=ADVANCED_FACE('',(#949,#950),#31,.T.);
#1544=ADVANCED_FACE('',(#951),#1006,.F.);
#1545=ADVANCED_FACE('',(#952),#1007,.F.);
#1546=ADVANCED_FACE('',(#953),#1008,.F.);
#1547=ADVANCED_FACE('',(#954),#1009,.F.);
#1548=ADVANCED_FACE('',(#955),#1010,.T.);
#1549=ADVANCED_FACE('',(#956),#1011,.T.);
#1550=ADVANCED_FACE('',(#957),#1012,.T.);
#1551=ADVANCED_FACE('',(#958),#1013,.T.);
#1552=CLOSED_SHELL('',(#1485,#1486,#1487,#1488,#1489,#1490,#1491,#1492,
#1493,#1494,#1495,#1496,#1497,#1498,#1499,#1500,#1501,#1502,#1503,#1504,
#1505,#1506,#1507,#1508,#1509,#1510,#1511,#1512,#1513,#1514,#1515,#1516,
#1517,#1518,#1519,#1520,#1521,#1522,#1523,#1524,#1525,#1526,#1527,#1528,
#1529,#1530,#1531,#1532,#1533,#1534,#1535,#1536,#1537,#1538,#1539,#1540,
#1541,#1542,#1543,#1544,#1545,#1546,#1547,#1548,#1549,#1550,#1551));
#1553=MANIFOLD_SOLID_BREP('',#1552);
#1554=SHAPE_DEFINITION_REPRESENTATION(#2267,#1555);
#1555=SHAPE_REPRESENTATION('TB0011-350-03GR',(#1556),#2262);
#1556=AXIS2_PLACEMENT_3D('',#1961,#1657,#1658);
#1557=AXIS2_PLACEMENT_3D('',#1962,#1659,#1660);
#1558=AXIS2_PLACEMENT_3D('',#1983,#1671,#1672);
#1559=AXIS2_PLACEMENT_3D('',#1984,#1673,#1674);
#1560=AXIS2_PLACEMENT_3D('',#1986,#1675,#1676);
#1561=AXIS2_PLACEMENT_3D('',#1988,#1677,#1678);
#1562=AXIS2_PLACEMENT_3D('',#2008,#1689,#1690);
#1563=AXIS2_PLACEMENT_3D('',#2023,#1699,#1700);
#1564=AXIS2_PLACEMENT_3D('',#2027,#1702,#1703);
#1565=AXIS2_PLACEMENT_3D('',#2031,#1705,#1706);
#1566=AXIS2_PLACEMENT_3D('',#2032,#1707,#1708);
#1567=AXIS2_PLACEMENT_3D('',#2038,#1712,#1713);
#1568=AXIS2_PLACEMENT_3D('',#2039,#1714,#1715);
#1569=AXIS2_PLACEMENT_3D('',#2041,#1716,#1717);
#1570=AXIS2_PLACEMENT_3D('',#2043,#1718,#1719);
#1571=AXIS2_PLACEMENT_3D('',#2044,#1720,#1721);
#1572=AXIS2_PLACEMENT_3D('',#2048,#1723,#1724);
#1573=AXIS2_PLACEMENT_3D('',#2049,#1725,#1726);
#1574=AXIS2_PLACEMENT_3D('',#2050,#1727,#1728);
#1575=AXIS2_PLACEMENT_3D('',#2053,#1731,#1732);
#1576=AXIS2_PLACEMENT_3D('',#2054,#1733,#1734);
#1577=AXIS2_PLACEMENT_3D('',#2055,#1735,#1736);
#1578=AXIS2_PLACEMENT_3D('',#2064,#1741,#1742);
#1579=AXIS2_PLACEMENT_3D('',#2070,#1746,#1747);
#1580=AXIS2_PLACEMENT_3D('',#2076,#1751,#1752);
#1581=AXIS2_PLACEMENT_3D('',#2079,#1755,#1756);
#1582=AXIS2_PLACEMENT_3D('',#2080,#1757,#1758);
#1583=AXIS2_PLACEMENT_3D('',#2082,#1759,#1760);
#1584=AXIS2_PLACEMENT_3D('',#2083,#1761,#1762);
#1585=AXIS2_PLACEMENT_3D('',#2085,#1763,#1764);
#1586=AXIS2_PLACEMENT_3D('',#2086,#1765,#1766);
#1587=AXIS2_PLACEMENT_3D('',#2087,#1767,#1768);
#1588=AXIS2_PLACEMENT_3D('',#2089,#1769,#1770);
#1589=AXIS2_PLACEMENT_3D('',#2090,#1771,#1772);
#1590=AXIS2_PLACEMENT_3D('',#2092,#1773,#1774);
#1591=AXIS2_PLACEMENT_3D('',#2093,#1775,#1776);
#1592=AXIS2_PLACEMENT_3D('',#2097,#1778,#1779);
#1593=AXIS2_PLACEMENT_3D('',#2103,#1783,#1784);
#1594=AXIS2_PLACEMENT_3D('',#2104,#1785,#1786);
#1595=AXIS2_PLACEMENT_3D('',#2108,#1788,#1789);
#1596=AXIS2_PLACEMENT_3D('',#2114,#1793,#1794);
#1597=AXIS2_PLACEMENT_3D('',#2115,#1795,#1796);
#1598=AXIS2_PLACEMENT_3D('',#2116,#1797,#1798);
#1599=AXIS2_PLACEMENT_3D('',#2117,#1799,#1800);
#1600=AXIS2_PLACEMENT_3D('',#2118,#1801,#1802);
#1601=AXIS2_PLACEMENT_3D('',#2122,#1804,#1805);
#1602=AXIS2_PLACEMENT_3D('',#2128,#1809,#1810);
#1603=AXIS2_PLACEMENT_3D('',#2129,#1811,#1812);
#1604=AXIS2_PLACEMENT_3D('',#2133,#1814,#1815);
#1605=AXIS2_PLACEMENT_3D('',#2139,#1819,#1820);
#1606=AXIS2_PLACEMENT_3D('',#2140,#1821,#1822);
#1607=AXIS2_PLACEMENT_3D('',#2141,#1823,#1824);
#1608=AXIS2_PLACEMENT_3D('',#2142,#1825,#1826);
#1609=AXIS2_PLACEMENT_3D('',#2143,#1827,#1828);
#1610=AXIS2_PLACEMENT_3D('',#2145,#1829,#1830);
#1611=AXIS2_PLACEMENT_3D('',#2146,#1831,#1832);
#1612=AXIS2_PLACEMENT_3D('',#2148,#1833,#1834);
#1613=AXIS2_PLACEMENT_3D('',#2149,#1835,#1836);
#1614=AXIS2_PLACEMENT_3D('',#2151,#1837,#1838);
#1615=AXIS2_PLACEMENT_3D('',#2152,#1839,#1840);
#1616=AXIS2_PLACEMENT_3D('',#2154,#1841,#1842);
#1617=AXIS2_PLACEMENT_3D('',#2163,#1847,#1848);
#1618=AXIS2_PLACEMENT_3D('',#2172,#1853,#1854);
#1619=AXIS2_PLACEMENT_3D('',#2173,#1855,#1856);
#1620=AXIS2_PLACEMENT_3D('',#2175,#1857,#1858);
#1621=AXIS2_PLACEMENT_3D('',#2176,#1859,#1860);
#1622=AXIS2_PLACEMENT_3D('',#2178,#1861,#1862);
#1623=AXIS2_PLACEMENT_3D('',#2179,#1863,#1864);
#1624=AXIS2_PLACEMENT_3D('',#2181,#1865,#1866);
#1625=AXIS2_PLACEMENT_3D('',#2182,#1867,#1868);
#1626=AXIS2_PLACEMENT_3D('',#2184,#1869,#1870);
#1627=AXIS2_PLACEMENT_3D('',#2190,#1874,#1875);
#1628=AXIS2_PLACEMENT_3D('',#2194,#1878,#1879);
#1629=AXIS2_PLACEMENT_3D('',#2198,#1882,#1883);
#1630=AXIS2_PLACEMENT_3D('',#2200,#1885,#1886);
#1631=AXIS2_PLACEMENT_3D('',#2206,#1890,#1891);
#1632=AXIS2_PLACEMENT_3D('',#2210,#1894,#1895);
#1633=AXIS2_PLACEMENT_3D('',#2214,#1898,#1899);
#1634=AXIS2_PLACEMENT_3D('',#2216,#1901,#1902);
#1635=AXIS2_PLACEMENT_3D('',#2219,#1905,#1906);
#1636=AXIS2_PLACEMENT_3D('',#2222,#1909,#1910);
#1637=AXIS2_PLACEMENT_3D('',#2223,#1911,#1912);
#1638=AXIS2_PLACEMENT_3D('',#2224,#1913,#1914);
#1639=AXIS2_PLACEMENT_3D('',#2225,#1915,#1916);
#1640=AXIS2_PLACEMENT_3D('',#2226,#1917,#1918);
#1641=AXIS2_PLACEMENT_3D('',#2227,#1919,#1920);
#1642=AXIS2_PLACEMENT_3D('',#2229,#1921,#1922);
#1643=AXIS2_PLACEMENT_3D('',#2230,#1923,#1924);
#1644=AXIS2_PLACEMENT_3D('',#2232,#1925,#1926);
#1645=AXIS2_PLACEMENT_3D('',#2233,#1927,#1928);
#1646=AXIS2_PLACEMENT_3D('',#2235,#1929,#1930);
#1647=AXIS2_PLACEMENT_3D('',#2236,#1931,#1932);
#1648=AXIS2_PLACEMENT_3D('',#2238,#1933,#1934);
#1649=AXIS2_PLACEMENT_3D('',#2239,#1935,#1936);
#1650=AXIS2_PLACEMENT_3D('',#2243,#1939,#1940);
#1651=AXIS2_PLACEMENT_3D('',#2247,#1943,#1944);
#1652=AXIS2_PLACEMENT_3D('',#2249,#1946,#1947);
#1653=AXIS2_PLACEMENT_3D('',#2250,#1948,#1949);
#1654=AXIS2_PLACEMENT_3D('',#2254,#1952,#1953);
#1655=AXIS2_PLACEMENT_3D('',#2258,#1956,#1957);
#1656=AXIS2_PLACEMENT_3D('',#2260,#1959,#1960);
#1657=DIRECTION('',(0.,0.,1.));
#1658=DIRECTION('',(1.,0.,0.));
#1659=DIRECTION('',(1.,-6.12303176911189E-17,0.));
#1660=DIRECTION('',(6.12303176911189E-17,1.,0.));
#1661=DIRECTION('',(0.,0.,1.));
#1662=DIRECTION('',(-6.12303176911189E-17,-1.,0.));
#1663=DIRECTION('',(-2.10869845741825E-17,-0.344387966114391,0.938827422264387));
#1664=DIRECTION('',(0.,0.,1.));
#1665=DIRECTION('',(6.12303176911189E-17,1.,1.06587110281958E-15));
#1666=DIRECTION('',(6.24809820825305E-33,1.020425574104E-16,-1.));
#1667=DIRECTION('',(-2.13126239526887E-17,-0.348073058516565,-0.937467410598856));
#1668=DIRECTION('',(-6.12303176911189E-17,-1.,0.));
#1669=DIRECTION('',(0.,0.,1.));
#1670=DIRECTION('',(-6.12303176911189E-17,-1.,0.));
#1671=DIRECTION('',(0.,0.,-1.));
#1672=DIRECTION('',(-1.,0.,0.));
#1673=DIRECTION('',(0.,0.,-1.));
#1674=DIRECTION('',(-1.,0.,0.));
#1675=DIRECTION('',(0.,0.,-1.));
#1676=DIRECTION('',(-1.,0.,0.));
#1677=DIRECTION('',(0.,0.,-1.));
#1678=DIRECTION('',(-1.,0.,0.));
#1679=DIRECTION('',(0.961303359854107,0.275492015008068,0.));
#1680=DIRECTION('',(0.,-1.,0.));
#1681=DIRECTION('',(-0.964846564236294,0.262813826655713,0.));
#1682=DIRECTION('',(-1.,6.95626132780855E-47,-6.52636262434261E-32));
#1683=DIRECTION('',(-6.12303176911189E-17,-1.,0.));
#1684=DIRECTION('',(-0.964846564236294,0.262813826655713,0.));
#1685=DIRECTION('',(0.,-1.,0.));
#1686=DIRECTION('',(0.961303359854107,0.275492015008068,0.));
#1687=DIRECTION('',(-6.12303176911189E-17,-1.,0.));
#1688=DIRECTION('',(-1.,6.95626132780855E-47,-6.52636262434261E-32));
#1689=DIRECTION('',(1.,-6.12303176911189E-17,0.));
#1690=DIRECTION('',(6.12303176911189E-17,1.,0.));
#1691=DIRECTION('',(0.,0.,1.));
#1692=DIRECTION('',(-6.12303176911189E-17,-1.,0.));
#1693=DIRECTION('',(0.,0.,1.));
#1694=DIRECTION('',(-2.13126239526887E-17,-0.348073058516565,-0.937467410598856));
#1695=DIRECTION('',(6.24809820825305E-33,1.020425574104E-16,-1.));
#1696=DIRECTION('',(6.12303176911189E-17,1.,1.06587110281958E-15));
#1697=DIRECTION('',(0.,0.,1.));
#1698=DIRECTION('',(-2.10869845741825E-17,-0.344387966114391,0.938827422264387));
#1699=DIRECTION('',(0.,0.,-1.));
#1700=DIRECTION('',(-1.,0.,0.));
#1701=DIRECTION('',(0.,-1.,0.));
#1702=DIRECTION('',(0.,0.,-1.));
#1703=DIRECTION('',(1.,0.,0.));
#1704=DIRECTION('',(0.,1.,0.));
#1705=DIRECTION('',(0.,0.,-1.));
#1706=DIRECTION('',(1.,0.,0.));
#1707=DIRECTION('',(1.,0.,0.));
#1708=DIRECTION('',(0.,0.,-1.));
#1709=DIRECTION('',(0.,1.,0.));
#1710=DIRECTION('',(0.,0.,1.));
#1711=DIRECTION('',(0.,0.,1.));
#1712=DIRECTION('',(0.,0.,-1.));
#1713=DIRECTION('',(-1.,0.,0.));
#1714=DIRECTION('',(0.,0.,-1.));
#1715=DIRECTION('',(1.,0.,0.));
#1716=DIRECTION('',(0.,0.,-1.));
#1717=DIRECTION('',(1.,-4.33680868994201E-16,0.));
#1718=DIRECTION('',(0.,0.,-1.));
#1719=DIRECTION('',(-1.,0.,0.));
#1720=DIRECTION('',(0.,0.,-1.));
#1721=DIRECTION('',(1.,0.,0.));
#1722=DIRECTION('',(0.,-1.,0.));
#1723=DIRECTION('',(0.,0.,-1.));
#1724=DIRECTION('',(-1.,0.,0.));
#1725=DIRECTION('',(0.,0.,-1.));
#1726=DIRECTION('',(1.,0.,0.));
#1727=DIRECTION('',(0.,0.,-1.));
#1728=DIRECTION('',(-1.,0.,0.));
#1729=DIRECTION('',(0.,0.,1.));
#1730=DIRECTION('',(0.,0.,1.));
#1731=DIRECTION('',(-1.,0.,0.));
#1732=DIRECTION('',(0.,0.,1.));
#1733=DIRECTION('',(0.,0.,-1.));
#1734=DIRECTION('',(-1.,0.,0.));
#1735=DIRECTION('',(1.,0.,0.));
#1736=DIRECTION('',(0.,0.,-1.));
#1737=DIRECTION('',(0.,0.,1.));
#1738=DIRECTION('',(0.,1.,0.));
#1739=DIRECTION('',(0.,0.,-1.));
#1740=DIRECTION('',(0.,1.,0.));
#1741=DIRECTION('',(2.46908886021126E-16,0.,1.));
#1742=DIRECTION('',(1.,0.,-2.46908886021126E-16));
#1743=DIRECTION('',(-1.,0.,2.46908886021126E-16));
#1744=DIRECTION('',(1.,0.,-2.46908886021126E-16));
#1745=DIRECTION('',(0.,1.,0.));
#1746=DIRECTION('',(-1.,0.,0.));
#1747=DIRECTION('',(0.,0.,1.));
#1748=DIRECTION('',(0.,0.,-1.));
#1749=DIRECTION('',(0.,0.,1.));
#1750=DIRECTION('',(0.,1.,0.));
#1751=DIRECTION('',(0.,0.,-1.));
#1752=DIRECTION('',(-1.,0.,0.));
#1753=DIRECTION('',(1.,0.,0.));
#1754=DIRECTION('',(-1.,0.,0.));
#1755=DIRECTION('',(0.,-1.,0.));
#1756=DIRECTION('',(0.,0.,-1.));
#1757=DIRECTION('',(0.,-1.,0.));
#1758=DIRECTION('',(0.,0.,-1.));
#1759=DIRECTION('',(0.,1.,0.));
#1760=DIRECTION('',(0.,0.,1.));
#1761=DIRECTION('',(0.,-1.,0.));
#1762=DIRECTION('',(0.,0.,-1.));
#1763=DIRECTION('',(0.,-1.,0.));
#1764=DIRECTION('',(0.,0.,-1.));
#1765=DIRECTION('',(0.,-1.,0.));
#1766=DIRECTION('',(0.,0.,-1.));
#1767=DIRECTION('',(0.,-1.,0.));
#1768=DIRECTION('',(0.,0.,-1.));
#1769=DIRECTION('',(0.,-1.,0.));
#1770=DIRECTION('',(0.,0.,-1.));
#1771=DIRECTION('',(0.,-1.,0.));
#1772=DIRECTION('',(0.,0.,-1.));
#1773=DIRECTION('',(0.,0.,-1.));
#1774=DIRECTION('',(-1.,0.,0.));
#1775=DIRECTION('',(0.,0.,-1.));
#1776=DIRECTION('',(1.,0.,0.));
#1777=DIRECTION('',(0.,-1.,0.));
#1778=DIRECTION('',(-1.,0.,0.));
#1779=DIRECTION('',(0.,0.,1.));
#1780=DIRECTION('',(0.,0.,1.));
#1781=DIRECTION('',(0.,-1.,0.));
#1782=DIRECTION('',(0.,0.,1.));
#1783=DIRECTION('',(0.,0.,-1.));
#1784=DIRECTION('',(-1.,0.,0.));
#1785=DIRECTION('',(0.,0.,-1.));
#1786=DIRECTION('',(1.,0.,0.));
#1787=DIRECTION('',(0.,1.,0.));
#1788=DIRECTION('',(1.,0.,0.));
#1789=DIRECTION('',(0.,0.,-1.));
#1790=DIRECTION('',(0.,0.,1.));
#1791=DIRECTION('',(0.,1.,0.));
#1792=DIRECTION('',(0.,0.,1.));
#1793=DIRECTION('',(0.,0.,-1.));
#1794=DIRECTION('',(-1.,0.,0.));
#1795=DIRECTION('',(0.,0.,-1.));
#1796=DIRECTION('',(1.,0.,0.));
#1797=DIRECTION('',(0.,0.,-1.));
#1798=DIRECTION('',(1.,0.,0.));
#1799=DIRECTION('',(0.,0.,-1.));
#1800=DIRECTION('',(-1.,0.,0.));
#1801=DIRECTION('',(0.,0.,-1.));
#1802=DIRECTION('',(1.,0.,0.));
#1803=DIRECTION('',(0.,-1.,0.));
#1804=DIRECTION('',(-1.,0.,0.));
#1805=DIRECTION('',(0.,0.,1.));
#1806=DIRECTION('',(0.,0.,1.));
#1807=DIRECTION('',(0.,-1.,0.));
#1808=DIRECTION('',(0.,0.,1.));
#1809=DIRECTION('',(0.,0.,-1.));
#1810=DIRECTION('',(-1.,0.,0.));
#1811=DIRECTION('',(0.,0.,-1.));
#1812=DIRECTION('',(1.,0.,0.));
#1813=DIRECTION('',(0.,1.,0.));
#1814=DIRECTION('',(1.,0.,0.));
#1815=DIRECTION('',(0.,0.,-1.));
#1816=DIRECTION('',(0.,0.,1.));
#1817=DIRECTION('',(0.,1.,0.));
#1818=DIRECTION('',(0.,0.,1.));
#1819=DIRECTION('',(0.,0.,-1.));
#1820=DIRECTION('',(-1.,0.,0.));
#1821=DIRECTION('',(0.,0.,-1.));
#1822=DIRECTION('',(1.,0.,0.));
#1823=DIRECTION('',(0.,0.,-1.));
#1824=DIRECTION('',(1.,0.,0.));
#1825=DIRECTION('',(0.,1.,0.));
#1826=DIRECTION('',(0.,0.,1.));
#1827=DIRECTION('',(0.,-1.,0.));
#1828=DIRECTION('',(0.,0.,-1.));
#1829=DIRECTION('',(0.,1.,0.));
#1830=DIRECTION('',(0.,0.,1.));
#1831=DIRECTION('',(0.,-1.,0.));
#1832=DIRECTION('',(0.,0.,-1.));
#1833=DIRECTION('',(0.,0.,-1.));
#1834=DIRECTION('',(-1.,0.,0.));
#1835=DIRECTION('',(0.,0.,-1.));
#1836=DIRECTION('',(1.,0.,0.));
#1837=DIRECTION('',(0.,0.,-1.));
#1838=DIRECTION('',(-1.,0.,0.));
#1839=DIRECTION('',(0.,0.,-1.));
#1840=DIRECTION('',(1.,0.,0.));
#1841=DIRECTION('',(0.,-1.,0.));
#1842=DIRECTION('',(0.,0.,-1.));
#1843=DIRECTION('',(0.,0.,-1.));
#1844=DIRECTION('',(-1.,0.,0.));
#1845=DIRECTION('',(0.,0.,1.));
#1846=DIRECTION('',(1.,0.,-2.46908886021126E-16));
#1847=DIRECTION('',(0.,-1.,0.));
#1848=DIRECTION('',(0.,0.,-1.));
#1849=DIRECTION('',(0.,0.,-1.));
#1850=DIRECTION('',(-1.,0.,0.));
#1851=DIRECTION('',(0.,0.,1.));
#1852=DIRECTION('',(1.,0.,-2.46908886021126E-16));
#1853=DIRECTION('',(7.49855125712043E-33,1.22464679914735E-16,-1.));
#1854=DIRECTION('',(0.,1.,1.22464679914735E-16));
#1855=DIRECTION('',(7.49855125712043E-33,1.22464679914735E-16,-1.));
#1856=DIRECTION('',(0.,1.,1.22464679914735E-16));
#1857=DIRECTION('',(7.49855125712043E-33,1.22464679914735E-16,-1.));
#1858=DIRECTION('',(0.,1.,1.22464679914735E-16));
#1859=DIRECTION('',(7.49855125712043E-33,1.22464679914735E-16,-1.));
#1860=DIRECTION('',(0.,1.,1.22464679914735E-16));
#1861=DIRECTION('',(0.,0.,-1.));
#1862=DIRECTION('',(-1.,0.,0.));
#1863=DIRECTION('',(0.,0.,-1.));
#1864=DIRECTION('',(1.,-4.33680868994201E-16,0.));
#1865=DIRECTION('',(0.,0.,-1.));
#1866=DIRECTION('',(-1.,0.,0.));
#1867=DIRECTION('',(0.,0.,-1.));
#1868=DIRECTION('',(1.,-4.33680868994201E-16,0.));
#1869=DIRECTION('',(0.,0.,-1.));
#1870=DIRECTION('',(-1.,0.,0.));
#1871=DIRECTION('',(-1.,0.,0.));
#1872=DIRECTION('',(0.,1.,0.));
#1873=DIRECTION('',(0.,1.,0.));
#1874=DIRECTION('',(-1.,0.,0.));
#1875=DIRECTION('',(0.,0.,1.));
#1876=DIRECTION('',(0.,0.,1.));
#1877=DIRECTION('',(0.,1.,0.));
#1878=DIRECTION('',(2.46908886021126E-16,0.,1.));
#1879=DIRECTION('',(1.,0.,-2.46908886021126E-16));
#1880=DIRECTION('',(1.,0.,-2.46908886021126E-16));
#1881=DIRECTION('',(0.,1.,0.));
#1882=DIRECTION('',(1.,0.,0.));
#1883=DIRECTION('',(0.,0.,-1.));
#1884=DIRECTION('',(0.,0.,-1.));
#1885=DIRECTION('',(0.,0.,-1.));
#1886=DIRECTION('',(-1.,0.,0.));
#1887=DIRECTION('',(1.,0.,0.));
#1888=DIRECTION('',(0.,1.,0.));
#1889=DIRECTION('',(0.,1.,0.));
#1890=DIRECTION('',(-1.,0.,0.));
#1891=DIRECTION('',(0.,0.,1.));
#1892=DIRECTION('',(0.,0.,-1.));
#1893=DIRECTION('',(0.,1.,0.));
#1894=DIRECTION('',(2.46908886021126E-16,0.,1.));
#1895=DIRECTION('',(1.,0.,-2.46908886021126E-16));
#1896=DIRECTION('',(-1.,0.,2.46908886021126E-16));
#1897=DIRECTION('',(0.,1.,0.));
#1898=DIRECTION('',(1.,0.,0.));
#1899=DIRECTION('',(0.,0.,-1.));
#1900=DIRECTION('',(0.,0.,1.));
#1901=DIRECTION('',(0.,1.,1.020425574104E-16));
#1902=DIRECTION('',(0.,-1.020425574104E-16,1.));
#1903=DIRECTION('',(-1.,6.95626132780855E-47,-6.52636262434261E-32));
#1904=DIRECTION('',(-1.,0.,0.));
#1905=DIRECTION('',(0.,-1.,0.));
#1906=DIRECTION('',(0.,0.,-1.));
#1907=DIRECTION('',(-1.,6.95626132780855E-47,-6.52636262434261E-32));
#1908=DIRECTION('',(-1.,0.,0.));
#1909=DIRECTION('',(-2.27165099964314E-32,-0.937467410598856,0.348073058516565));
#1910=DIRECTION('',(0.,-0.348073058516565,-0.937467410598856));
#1911=DIRECTION('',(-2.24760075032233E-32,0.938827422264387,0.344387966114391));
#1912=DIRECTION('',(0.,-0.344387966114391,0.938827422264387));
#1913=DIRECTION('',(0.,0.,-1.));
#1914=DIRECTION('',(-1.,0.,0.));
#1915=DIRECTION('',(0.,0.,-1.));
#1916=DIRECTION('',(-1.,0.,0.));
#1917=DIRECTION('',(7.49855125712043E-33,1.22464679914735E-16,-1.));
#1918=DIRECTION('',(0.,1.,1.22464679914735E-16));
#1919=DIRECTION('',(7.49855125712043E-33,1.22464679914735E-16,-1.));
#1920=DIRECTION('',(0.,1.,1.22464679914735E-16));
#1921=DIRECTION('',(7.49855125712043E-33,1.22464679914735E-16,-1.));
#1922=DIRECTION('',(0.,1.,1.22464679914735E-16));
#1923=DIRECTION('',(0.,-1.06587110281958E-15,1.));
#1924=DIRECTION('',(0.,-1.,-1.06587110281958E-15));
#1925=DIRECTION('',(0.,-1.06587110281958E-15,1.));
#1926=DIRECTION('',(0.,-1.,-1.06587110281958E-15));
#1927=DIRECTION('',(0.,-1.06587110281958E-15,1.));
#1928=DIRECTION('',(0.,-1.,-1.06587110281958E-15));
#1929=DIRECTION('',(7.49855125712043E-33,1.22464679914735E-16,-1.));
#1930=DIRECTION('',(0.,1.,1.22464679914735E-16));
#1931=DIRECTION('',(7.49855125712043E-33,1.22464679914735E-16,-1.));
#1932=DIRECTION('',(0.,1.,1.22464679914735E-16));
#1933=DIRECTION('',(7.49855125712043E-33,1.22464679914735E-16,-1.));
#1934=DIRECTION('',(0.,1.,1.22464679914735E-16));
#1935=DIRECTION('',(0.275492015008068,-0.961303359854107,0.));
#1936=DIRECTION('',(0.961303359854107,0.275492015008068,0.));
#1937=DIRECTION('',(0.,0.,1.));
#1938=DIRECTION('',(0.961303359854107,0.275492015008068,0.));
#1939=DIRECTION('',(-1.,0.,0.));
#1940=DIRECTION('',(0.,0.,1.));
#1941=DIRECTION('',(0.,0.,1.));
#1942=DIRECTION('',(0.,-1.,0.));
#1943=DIRECTION('',(0.262813826655713,0.964846564236294,0.));
#1944=DIRECTION('',(-0.964846564236294,0.262813826655713,0.));
#1945=DIRECTION('',(-0.964846564236294,0.262813826655713,0.));
#1946=DIRECTION('',(0.,0.,1.));
#1947=DIRECTION('',(1.,0.,0.));
#1948=DIRECTION('',(0.275492015008068,-0.961303359854107,0.));
#1949=DIRECTION('',(0.961303359854107,0.275492015008068,0.));
#1950=DIRECTION('',(0.961303359854107,0.275492015008068,0.));
#1951=DIRECTION('',(0.,0.,1.));
#1952=DIRECTION('',(-1.,0.,0.));
#1953=DIRECTION('',(0.,0.,1.));
#1954=DIRECTION('',(0.,-1.,0.));
#1955=DIRECTION('',(0.,0.,1.));
#1956=DIRECTION('',(0.262813826655713,0.964846564236294,0.));
#1957=DIRECTION('',(-0.964846564236294,0.262813826655713,0.));
#1958=DIRECTION('',(-0.964846564236294,0.262813826655713,0.));
#1959=DIRECTION('',(0.,0.,1.));
#1960=DIRECTION('',(1.,0.,0.));
#1961=CARTESIAN_POINT('',(0.,0.,0.));
#1962=CARTESIAN_POINT('',(-5.25,1.07153055959458E-16,0.));
#1963=CARTESIAN_POINT('',(-5.24999999999999,1.77833599858156,4.88566177507382));
#1964=CARTESIAN_POINT('',(-5.24999999999999,1.77833599858156,4.88566177507382));
#1965=CARTESIAN_POINT('',(-5.25,1.77833599858156,8.5));
#1966=CARTESIAN_POINT('',(-5.25,3.45,8.5));
#1967=CARTESIAN_POINT('',(-5.24999999999999,2.0665492802098,8.5));
#1968=CARTESIAN_POINT('',(-5.25,4.56967755391308,1.67628460915102));
#1969=CARTESIAN_POINT('',(-5.25,3.45,4.72860958893371));
#1970=CARTESIAN_POINT('',(-5.25,3.45,3.88506365750149E-15));
#1971=CARTESIAN_POINT('',(-5.25,3.45,3.88506365750149E-15));
#1972=CARTESIAN_POINT('',(-5.25,-3.45,-3.46944695195361E-15));
#1973=CARTESIAN_POINT('',(-5.25,-3.45,-3.46944695195361E-15));
#1974=CARTESIAN_POINT('',(-5.25,-3.45,8.5));
#1975=CARTESIAN_POINT('',(-5.24999999999999,-3.45,4.65774002534129));
#1976=CARTESIAN_POINT('',(-5.25,-4.55186962130714,1.69006747663357));
#1977=CARTESIAN_POINT('',(-5.25,-2.023404082238,8.5));
#1978=CARTESIAN_POINT('',(-5.25,3.45,8.5));
#1979=CARTESIAN_POINT('',(-5.24999999999999,1.47212376920481,8.50000000000001));
#1980=CARTESIAN_POINT('',(-5.24999999999999,1.47212376920481,4.88566177507382));
#1981=CARTESIAN_POINT('',(-5.24999999999999,1.47212376920481,4.88566177507382));
#1982=CARTESIAN_POINT('',(-5.25,1.07153055959458E-16,4.88566177507382));
#1983=CARTESIAN_POINT('',(3.5,3.45,8.5));
#1984=CARTESIAN_POINT('',(3.5,0.,8.5));
#1985=CARTESIAN_POINT('',(2.43897962652427,0.,8.5));
#1986=CARTESIAN_POINT('',(-3.5,0.,8.5));
#1987=CARTESIAN_POINT('',(-4.56102037347573,0.,8.5));
#1988=CARTESIAN_POINT('',(0.,0.,8.5));
#1989=CARTESIAN_POINT('',(-1.06102037347573,0.,8.5));
#1990=CARTESIAN_POINT('',(-4.81397364805234,1.90329320076268,8.50000000000001));
#1991=CARTESIAN_POINT('',(-4.81397364805234,1.90329320076268,8.50000000000001));
#1992=CARTESIAN_POINT('',(-4.81397364805234,1.35335488063153,8.50000000000001));
#1993=CARTESIAN_POINT('',(-4.81397364805234,1.35335488063153,8.50000000000001));
#1994=CARTESIAN_POINT('',(-5.24999999999999,1.47212376920481,8.50000000000001));
#1995=CARTESIAN_POINT('',(16.9444703217004,-2.023404082238,8.5));
#1996=CARTESIAN_POINT('',(5.25,-2.023404082238,8.5));
#1997=CARTESIAN_POINT('',(5.25,3.45,8.5));
#1998=CARTESIAN_POINT('',(5.25000000000001,1.47212376920481,8.50000000000001));
#1999=CARTESIAN_POINT('',(5.25000000000001,1.47212376920481,8.50000000000001));
#2000=CARTESIAN_POINT('',(5.68602635194766,1.35335488063153,8.50000000000001));
#2001=CARTESIAN_POINT('',(5.68602635194766,1.35335488063153,8.50000000000001));
#2002=CARTESIAN_POINT('',(5.68602635194766,1.90329320076268,8.50000000000001));
#2003=CARTESIAN_POINT('',(5.68602635194766,1.90329320076268,8.50000000000001));
#2004=CARTESIAN_POINT('',(5.25000000000001,1.77833599858156,8.50000000000001));
#2005=CARTESIAN_POINT('',(5.25,3.45,8.5));
#2006=CARTESIAN_POINT('',(5.25,2.0665492802098,8.5));
#2007=CARTESIAN_POINT('',(16.9444703217004,2.0665492802098,8.5));
#2008=CARTESIAN_POINT('',(5.25,-1.07153055959458E-16,0.));
#2009=CARTESIAN_POINT('',(5.25000000000001,1.77833599858156,4.88566177507382));
#2010=CARTESIAN_POINT('',(5.25,1.77833599858156,4.88566177507382));
#2011=CARTESIAN_POINT('',(5.25,-1.07153055959458E-16,4.88566177507382));
#2012=CARTESIAN_POINT('',(5.25000000000001,1.47212376920481,4.88566177507382));
#2013=CARTESIAN_POINT('',(5.25000000000001,1.47212376920481,4.88566177507382));
#2014=CARTESIAN_POINT('',(5.25,-4.55186962130714,1.69006747663357));
#2015=CARTESIAN_POINT('',(5.25,-3.45,4.65774002534129));
#2016=CARTESIAN_POINT('',(5.25,-3.45,8.5));
#2017=CARTESIAN_POINT('',(5.25,-3.45,-3.46944695195361E-15));
#2018=CARTESIAN_POINT('',(5.25,-3.45,-3.46944695195361E-15));
#2019=CARTESIAN_POINT('',(5.25,3.45,3.88506365750149E-15));
#2020=CARTESIAN_POINT('',(5.25,3.45,3.88506365750149E-15));
#2021=CARTESIAN_POINT('',(5.25,3.45,4.72860958893371));
#2022=CARTESIAN_POINT('',(5.25,4.56967755391308,1.67628460915102));
#2023=CARTESIAN_POINT('',(3.5,0.,8.2978491913546));
#2024=CARTESIAN_POINT('',(3.7588535779688,0.958413806443928,8.2978491913546));
#2025=CARTESIAN_POINT('',(3.7588535779688,0.958413806443928,8.2978491913546));
#2026=CARTESIAN_POINT('',(3.7588535779688,-0.958413806443929,8.2978491913546));
#2027=CARTESIAN_POINT('',(3.5,0.,8.2978491913546));
#2028=CARTESIAN_POINT('',(3.2411464220312,0.958413806443928,8.2978491913546));
#2029=CARTESIAN_POINT('',(3.2411464220312,-0.958413806443928,8.2978491913546));
#2030=CARTESIAN_POINT('',(3.2411464220312,-0.958413806443928,8.2978491913546));
#2031=CARTESIAN_POINT('',(3.5,0.,8.2978491913546));
#2032=CARTESIAN_POINT('',(3.2411464220312,-0.958413806443928,8.2978491913546));
#2033=CARTESIAN_POINT('',(3.2411464220312,-0.958413806443928,8.45832788004179));
#2034=CARTESIAN_POINT('',(3.2411464220312,-0.958413806443928,8.45832788004179));
#2035=CARTESIAN_POINT('',(3.2411464220312,0.958413806443928,8.45832788004179));
#2036=CARTESIAN_POINT('',(3.2411464220312,-0.958413806443928,8.2978491913546));
#2037=CARTESIAN_POINT('',(3.2411464220312,0.958413806443928,8.2978491913546));
#2038=CARTESIAN_POINT('',(3.5,0.,7.96441731683881));
#2039=CARTESIAN_POINT('',(3.5,0.,7.96441731683881));
#2040=CARTESIAN_POINT('',(4.49275485353112,0.,7.96441731683881));
#2041=CARTESIAN_POINT('',(3.5,0.,7.96441731683881));
#2042=CARTESIAN_POINT('',(4.56102037347573,-4.60144237589505E-16,7.96441731683881));
#2043=CARTESIAN_POINT('',(3.5,0.,8.45832788004179));
#2044=CARTESIAN_POINT('',(3.5,0.,8.45832788004179));
#2045=CARTESIAN_POINT('',(3.7588535779688,0.958413806443929,8.45832788004179));
#2046=CARTESIAN_POINT('',(3.7588535779688,-0.958413806443929,8.45832788004179));
#2047=CARTESIAN_POINT('',(3.7588535779688,0.958413806443928,8.45832788004179));
#2048=CARTESIAN_POINT('',(3.5,0.,8.45832788004179));
#2049=CARTESIAN_POINT('',(3.5,0.,8.45832788004179));
#2050=CARTESIAN_POINT('',(3.5,0.,8.45832788004179));
#2051=CARTESIAN_POINT('',(3.7588535779688,0.958413806443929,8.2978491913546));
#2052=CARTESIAN_POINT('',(3.7588535779688,-0.958413806443929,8.2978491913546));
#2053=CARTESIAN_POINT('',(3.7588535779688,0.958413806443928,8.2978491913546));
#2054=CARTESIAN_POINT('',(3.5,0.,9.03558268316121));
#2055=CARTESIAN_POINT('',(2.62177954389804,3.23753987718034,4.0443123599216));
#2056=CARTESIAN_POINT('',(2.62177954389804,3.45,3.88506365750149E-15));
#2057=CARTESIAN_POINT('',(2.62177954389804,3.45,0.684297229012107));
#2058=CARTESIAN_POINT('',(2.62177954389804,3.45,4.0443123599216));
#2059=CARTESIAN_POINT('',(2.62177954389804,3.23753987718034,4.0443123599216));
#2060=CARTESIAN_POINT('',(2.62177954389804,3.23753987718034,4.0443123599216));
#2061=CARTESIAN_POINT('',(2.62177954389804,3.23753987718034,4.0443123599216));
#2062=CARTESIAN_POINT('',(2.62177954389804,3.23753987718034,0.684297229012107));
#2063=CARTESIAN_POINT('',(2.62177954389804,3.23753987718034,0.684297229012107));
#2064=CARTESIAN_POINT('',(2.62177954389804,3.23753987718034,0.684297229012107));
#2065=CARTESIAN_POINT('',(3.5,3.45,0.684297229012106));
#2066=CARTESIAN_POINT('',(4.37822045610196,3.45,0.684297229012106));
#2067=CARTESIAN_POINT('',(2.62177954389804,3.23753987718034,0.684297229012107));
#2068=CARTESIAN_POINT('',(4.37822045610196,3.23753987718034,0.684297229012106));
#2069=CARTESIAN_POINT('',(4.37822045610196,3.23753987718034,0.684297229012106));
#2070=CARTESIAN_POINT('',(4.37822045610196,3.23753987718034,0.684297229012106));
#2071=CARTESIAN_POINT('',(4.37822045610196,3.45,3.88506365750149E-15));
#2072=CARTESIAN_POINT('',(4.37822045610196,3.45,4.0443123599216));
#2073=CARTESIAN_POINT('',(4.37822045610196,3.23753987718034,0.684297229012106));
#2074=CARTESIAN_POINT('',(4.37822045610196,3.23753987718034,4.0443123599216));
#2075=CARTESIAN_POINT('',(4.37822045610196,3.23753987718034,4.0443123599216));
#2076=CARTESIAN_POINT('',(4.37822045610196,3.23753987718034,4.0443123599216));
#2077=CARTESIAN_POINT('',(3.5,3.45,4.0443123599216));
#2078=CARTESIAN_POINT('',(4.37822045610196,3.23753987718034,4.0443123599216));
#2079=CARTESIAN_POINT('',(3.5,3.23753987718034,0.));
#2080=CARTESIAN_POINT('',(3.5,3.23753987718034,1.81552164066403));
#2081=CARTESIAN_POINT('',(3.5,3.23753987718034,1.05837575617767));
#2082=CARTESIAN_POINT('',(3.5,1.47493309926205,1.81552164066403));
#2083=CARTESIAN_POINT('',(3.5,1.47493309926205,1.81552164066403));
#2084=CARTESIAN_POINT('',(3.5,1.47493309926205,1.05837575617767));
#2085=CARTESIAN_POINT('',(3.5,1.47493309926205,1.81552164066403));
#2086=CARTESIAN_POINT('',(1.38238360430709E-15,1.47493309926205,1.81552164066403));
#2087=CARTESIAN_POINT('',(1.38238360430709E-15,1.47493309926205,1.81552164066403));
#2088=CARTESIAN_POINT('',(1.38238360430709E-15,1.47493309926205,1.05837575617767));
#2089=CARTESIAN_POINT('',(-3.5,1.47493309926205,1.81552164066403));
#2090=CARTESIAN_POINT('',(-3.5,1.47493309926205,1.81552164066403));
#2091=CARTESIAN_POINT('',(-3.5,1.47493309926205,1.05837575617767));
#2092=CARTESIAN_POINT('',(0.,0.,8.45832788004179));
#2093=CARTESIAN_POINT('',(0.,0.,8.45832788004179));
#2094=CARTESIAN_POINT('',(0.258853577968797,0.958413806443929,8.45832788004179));
#2095=CARTESIAN_POINT('',(0.258853577968797,-0.958413806443929,8.45832788004179));
#2096=CARTESIAN_POINT('',(0.258853577968798,0.958413806443928,8.45832788004179));
#2097=CARTESIAN_POINT('',(0.258853577968798,0.958413806443928,8.2978491913546));
#2098=CARTESIAN_POINT('',(0.258853577968797,0.958413806443929,8.2978491913546));
#2099=CARTESIAN_POINT('',(0.258853577968798,0.958413806443928,8.2978491913546));
#2100=CARTESIAN_POINT('',(0.258853577968798,0.958413806443928,8.2978491913546));
#2101=CARTESIAN_POINT('',(0.258853577968797,-0.958413806443929,8.2978491913546));
#2102=CARTESIAN_POINT('',(0.258853577968797,-0.958413806443929,8.2978491913546));
#2103=CARTESIAN_POINT('',(0.,0.,8.45832788004179));
#2104=CARTESIAN_POINT('',(0.,0.,8.45832788004179));
#2105=CARTESIAN_POINT('',(-0.258853577968798,-0.958413806443928,8.45832788004179));
#2106=CARTESIAN_POINT('',(-0.258853577968798,0.958413806443928,8.45832788004179));
#2107=CARTESIAN_POINT('',(-0.258853577968798,-0.958413806443928,8.45832788004179));
#2108=CARTESIAN_POINT('',(-0.258853577968798,-0.958413806443928,8.2978491913546));
#2109=CARTESIAN_POINT('',(-0.258853577968798,-0.958413806443928,8.2978491913546));
#2110=CARTESIAN_POINT('',(-0.258853577968798,-0.958413806443928,8.2978491913546));
#2111=CARTESIAN_POINT('',(-0.258853577968798,-0.958413806443928,8.2978491913546));
#2112=CARTESIAN_POINT('',(-0.258853577968798,0.958413806443928,8.2978491913546));
#2113=CARTESIAN_POINT('',(-0.258853577968798,0.958413806443928,8.2978491913546));
#2114=CARTESIAN_POINT('',(0.,0.,8.2978491913546));
#2115=CARTESIAN_POINT('',(0.,0.,8.2978491913546));
#2116=CARTESIAN_POINT('',(0.,0.,8.2978491913546));
#2117=CARTESIAN_POINT('',(-3.5,0.,8.45832788004179));
#2118=CARTESIAN_POINT('',(-3.5,0.,8.45832788004179));
#2119=CARTESIAN_POINT('',(-3.2411464220312,0.958413806443929,8.45832788004179));
#2120=CARTESIAN_POINT('',(-3.2411464220312,-0.958413806443929,8.45832788004179));
#2121=CARTESIAN_POINT('',(-3.2411464220312,0.958413806443928,8.45832788004179));
#2122=CARTESIAN_POINT('',(-3.2411464220312,0.958413806443928,8.2978491913546));
#2123=CARTESIAN_POINT('',(-3.2411464220312,0.958413806443929,8.2978491913546));
#2124=CARTESIAN_POINT('',(-3.2411464220312,0.958413806443928,8.2978491913546));
#2125=CARTESIAN_POINT('',(-3.2411464220312,0.958413806443928,8.2978491913546));
#2126=CARTESIAN_POINT('',(-3.2411464220312,-0.958413806443929,8.2978491913546));
#2127=CARTESIAN_POINT('',(-3.2411464220312,-0.958413806443929,8.2978491913546));
#2128=CARTESIAN_POINT('',(-3.5,0.,8.45832788004179));
#2129=CARTESIAN_POINT('',(-3.5,0.,8.45832788004179));
#2130=CARTESIAN_POINT('',(-3.7588535779688,-0.958413806443928,8.45832788004179));
#2131=CARTESIAN_POINT('',(-3.7588535779688,0.958413806443928,8.45832788004179));
#2132=CARTESIAN_POINT('',(-3.7588535779688,-0.958413806443928,8.45832788004179));
#2133=CARTESIAN_POINT('',(-3.7588535779688,-0.958413806443928,8.2978491913546));
#2134=CARTESIAN_POINT('',(-3.7588535779688,-0.958413806443928,8.2978491913546));
#2135=CARTESIAN_POINT('',(-3.7588535779688,-0.958413806443928,8.2978491913546));
#2136=CARTESIAN_POINT('',(-3.7588535779688,-0.958413806443928,8.2978491913546));
#2137=CARTESIAN_POINT('',(-3.7588535779688,0.958413806443928,8.2978491913546));
#2138=CARTESIAN_POINT('',(-3.7588535779688,0.958413806443928,8.2978491913546));
#2139=CARTESIAN_POINT('',(-3.5,0.,8.2978491913546));
#2140=CARTESIAN_POINT('',(-3.5,0.,8.2978491913546));
#2141=CARTESIAN_POINT('',(-3.5,0.,8.2978491913546));
#2142=CARTESIAN_POINT('',(1.38238360430709E-15,1.47493309926205,1.81552164066403));
#2143=CARTESIAN_POINT('',(1.38238360430709E-15,3.23753987718034,1.81552164066403));
#2144=CARTESIAN_POINT('',(1.38238360430709E-15,3.23753987718034,1.05837575617767));
#2145=CARTESIAN_POINT('',(-3.5,1.47493309926205,1.81552164066403));
#2146=CARTESIAN_POINT('',(-3.5,3.23753987718034,1.81552164066403));
#2147=CARTESIAN_POINT('',(-3.5,3.23753987718034,1.05837575617767));
#2148=CARTESIAN_POINT('',(0.,0.,8.45832788004179));
#2149=CARTESIAN_POINT('',(0.,0.,7.96441731683881));
#2150=CARTESIAN_POINT('',(0.992754853531116,0.,7.96441731683881));
#2151=CARTESIAN_POINT('',(-3.5,0.,8.45832788004179));
#2152=CARTESIAN_POINT('',(-3.5,0.,7.96441731683881));
#2153=CARTESIAN_POINT('',(-2.50724514646888,0.,7.96441731683881));
#2154=CARTESIAN_POINT('',(0.,3.23753987718034,0.));
#2155=CARTESIAN_POINT('',(-0.878220456101961,3.23753987718034,4.0443123599216));
#2156=CARTESIAN_POINT('',(-0.878220456101961,3.23753987718034,4.0443123599216));
#2157=CARTESIAN_POINT('',(-0.878220456101961,3.23753987718034,0.684297229012107));
#2158=CARTESIAN_POINT('',(0.878220456101964,3.23753987718034,4.0443123599216));
#2159=CARTESIAN_POINT('',(0.878220456101964,3.23753987718034,4.0443123599216));
#2160=CARTESIAN_POINT('',(0.878220456101964,3.23753987718034,0.684297229012106));
#2161=CARTESIAN_POINT('',(0.878220456101964,3.23753987718034,0.684297229012106));
#2162=CARTESIAN_POINT('',(-0.878220456101961,3.23753987718034,0.684297229012107));
#2163=CARTESIAN_POINT('',(-3.5,3.23753987718034,0.));
#2164=CARTESIAN_POINT('',(-4.37822045610196,3.23753987718034,4.0443123599216));
#2165=CARTESIAN_POINT('',(-4.37822045610196,3.23753987718034,4.0443123599216));
#2166=CARTESIAN_POINT('',(-4.37822045610196,3.23753987718034,0.684297229012107));
#2167=CARTESIAN_POINT('',(-2.62177954389804,3.23753987718034,4.0443123599216));
#2168=CARTESIAN_POINT('',(-2.62177954389804,3.23753987718034,4.0443123599216));
#2169=CARTESIAN_POINT('',(-2.62177954389804,3.23753987718034,0.684297229012106));
#2170=CARTESIAN_POINT('',(-2.62177954389804,3.23753987718034,0.684297229012106));
#2171=CARTESIAN_POINT('',(-4.37822045610196,3.23753987718034,0.684297229012107));
#2172=CARTESIAN_POINT('',(2.54950742742095E-32,4.163799117101E-16,-3.4));
#2173=CARTESIAN_POINT('',(2.54950742742095E-32,4.163799117101E-16,-3.4));
#2174=CARTESIAN_POINT('',(2.54950742742095E-32,0.4,-3.4));
#2175=CARTESIAN_POINT('',(-3.5,4.163799117101E-16,-3.4));
#2176=CARTESIAN_POINT('',(-3.5,4.163799117101E-16,-3.4));
#2177=CARTESIAN_POINT('',(-3.5,0.4,-3.4));
#2178=CARTESIAN_POINT('',(0.,0.,7.96441731683881));
#2179=CARTESIAN_POINT('',(0.,0.,7.96441731683881));
#2180=CARTESIAN_POINT('',(1.06102037347573,-4.60144237589505E-16,7.96441731683881));
#2181=CARTESIAN_POINT('',(-3.5,0.,7.96441731683881));
#2182=CARTESIAN_POINT('',(-3.5,0.,7.96441731683881));
#2183=CARTESIAN_POINT('',(-2.43897962652427,-4.60144237589505E-16,7.96441731683881));
#2184=CARTESIAN_POINT('',(0.878220456101964,3.23753987718034,4.0443123599216));
#2185=CARTESIAN_POINT('',(0.878220456101964,3.45,4.0443123599216));
#2186=CARTESIAN_POINT('',(0.878220456101964,3.45,4.0443123599216));
#2187=CARTESIAN_POINT('',(-0.878220456101961,3.45,4.0443123599216));
#2188=CARTESIAN_POINT('',(0.878220456101964,3.23753987718034,4.0443123599216));
#2189=CARTESIAN_POINT('',(-0.878220456101961,3.23753987718034,4.0443123599216));
#2190=CARTESIAN_POINT('',(0.878220456101964,3.23753987718034,0.684297229012106));
#2191=CARTESIAN_POINT('',(0.878220456101964,3.45,0.684297229012106));
#2192=CARTESIAN_POINT('',(0.878220456101964,3.45,0.684297229012106));
#2193=CARTESIAN_POINT('',(0.878220456101964,3.23753987718034,0.684297229012106));
#2194=CARTESIAN_POINT('',(-0.878220456101961,3.23753987718034,0.684297229012107));
#2195=CARTESIAN_POINT('',(-0.878220456101961,3.45,0.684297229012107));
#2196=CARTESIAN_POINT('',(-0.878220456101961,3.45,0.684297229012107));
#2197=CARTESIAN_POINT('',(-0.878220456101961,3.23753987718034,0.684297229012107));
#2198=CARTESIAN_POINT('',(-0.878220456101961,3.23753987718034,4.0443123599216));
#2199=CARTESIAN_POINT('',(-0.878220456101961,3.45,4.0443123599216));
#2200=CARTESIAN_POINT('',(-2.62177954389804,3.23753987718034,4.0443123599216));
#2201=CARTESIAN_POINT('',(3.5,3.45,4.0443123599216));
#2202=CARTESIAN_POINT('',(-4.37822045610196,3.45,4.0443123599216));
#2203=CARTESIAN_POINT('',(-2.62177954389804,3.45,4.0443123599216));
#2204=CARTESIAN_POINT('',(-2.62177954389804,3.23753987718034,4.0443123599216));
#2205=CARTESIAN_POINT('',(-4.37822045610196,3.23753987718034,4.0443123599216));
#2206=CARTESIAN_POINT('',(-2.62177954389804,3.23753987718034,0.684297229012106));
#2207=CARTESIAN_POINT('',(-2.62177954389804,3.45,3.88506365750149E-15));
#2208=CARTESIAN_POINT('',(-2.62177954389804,3.45,0.684297229012106));
#2209=CARTESIAN_POINT('',(-2.62177954389804,3.23753987718034,0.684297229012106));
#2210=CARTESIAN_POINT('',(-4.37822045610196,3.23753987718034,0.684297229012107));
#2211=CARTESIAN_POINT('',(3.5,3.45,0.684297229012105));
#2212=CARTESIAN_POINT('',(-4.37822045610196,3.45,0.684297229012107));
#2213=CARTESIAN_POINT('',(-4.37822045610196,3.23753987718034,0.684297229012107));
#2214=CARTESIAN_POINT('',(-4.37822045610196,3.23753987718034,4.0443123599216));
#2215=CARTESIAN_POINT('',(-4.37822045610196,3.45,3.88506365750149E-15));
#2216=CARTESIAN_POINT('',(3.5,-3.45,8.5));
#2217=CARTESIAN_POINT('',(16.9444703217004,-3.45,4.65774002534129));
#2218=CARTESIAN_POINT('',(3.5,-3.45,-3.46944695195361E-15));
#2219=CARTESIAN_POINT('',(3.5,3.45,3.88506365750149E-15));
#2220=CARTESIAN_POINT('',(16.9444703217004,3.45,4.72860958893371));
#2221=CARTESIAN_POINT('',(3.5,3.45,3.88506365750149E-15));
#2222=CARTESIAN_POINT('',(16.9444703217004,-3.45,4.65774002534129));
#2223=CARTESIAN_POINT('',(16.9444703217004,2.0665492802098,8.5));
#2224=CARTESIAN_POINT('',(0.,0.,9.03558268316121));
#2225=CARTESIAN_POINT('',(-3.5,0.,9.03558268316121));
#2226=CARTESIAN_POINT('',(0.,0.,0.));
#2227=CARTESIAN_POINT('',(2.88465515357456E-48,4.71115496758718E-32,-3.84694997028308E-16));
#2228=CARTESIAN_POINT('',(2.88465515357456E-48,0.4,-3.35709125062414E-16));
#2229=CARTESIAN_POINT('',(-3.5,0.,0.));
#2230=CARTESIAN_POINT('',(-3.5,-2.54491834060689E-32,2.0780835277394E-16));
#2231=CARTESIAN_POINT('',(-3.5,-0.4,-2.18540088353892E-16));
#2232=CARTESIAN_POINT('',(3.5,-3.45,-3.46944695195361E-15));
#2233=CARTESIAN_POINT('',(3.5,-2.54491834060689E-32,2.0780835277394E-16));
#2234=CARTESIAN_POINT('',(3.5,-0.4,-2.18540088353892E-16));
#2235=CARTESIAN_POINT('',(3.5,4.163799117101E-16,-3.4));
#2236=CARTESIAN_POINT('',(3.5,4.163799117101E-16,-3.4));
#2237=CARTESIAN_POINT('',(3.5,0.4,-3.4));
#2238=CARTESIAN_POINT('',(3.5,0.,0.));
#2239=CARTESIAN_POINT('',(5.68602635194766,1.90329320076268,4.88566177507382));
#2240=CARTESIAN_POINT('',(5.68602635194766,1.90329320076268,4.88566177507382));
#2241=CARTESIAN_POINT('',(5.68602635194766,1.90329320076268,4.88566177507382));
#2242=CARTESIAN_POINT('',(5.68602635194766,1.90329320076268,4.88566177507382));
#2243=CARTESIAN_POINT('',(5.68602635194766,1.35335488063153,4.88566177507382));
#2244=CARTESIAN_POINT('',(5.68602635194766,1.35335488063153,4.88566177507382));
#2245=CARTESIAN_POINT('',(5.68602635194766,1.35335488063153,4.88566177507382));
#2246=CARTESIAN_POINT('',(5.68602635194766,1.35335488063153,4.88566177507382));
#2247=CARTESIAN_POINT('',(5.25000000000001,1.47212376920481,4.88566177507382));
#2248=CARTESIAN_POINT('',(5.25000000000001,1.47212376920481,4.88566177507382));
#2249=CARTESIAN_POINT('',(0.,0.,4.88566177507382));
#2250=CARTESIAN_POINT('',(-4.81397364805234,1.90329320076268,4.88566177507382));
#2251=CARTESIAN_POINT('',(-4.81397364805234,1.90329320076268,4.88566177507382));
#2252=CARTESIAN_POINT('',(-4.81397364805234,1.90329320076268,4.88566177507382));
#2253=CARTESIAN_POINT('',(-4.81397364805234,1.90329320076268,4.88566177507382));
#2254=CARTESIAN_POINT('',(-4.81397364805234,1.35335488063153,4.88566177507382));
#2255=CARTESIAN_POINT('',(-4.81397364805234,1.35335488063153,4.88566177507382));
#2256=CARTESIAN_POINT('',(-4.81397364805234,1.35335488063153,4.88566177507382));
#2257=CARTESIAN_POINT('',(-4.81397364805234,1.35335488063153,4.88566177507382));
#2258=CARTESIAN_POINT('',(-5.24999999999999,1.47212376920481,4.88566177507382));
#2259=CARTESIAN_POINT('',(-5.24999999999999,1.47212376920481,4.88566177507382));
#2260=CARTESIAN_POINT('',(0.,0.,4.88566177507382));
#2261=MECHANICAL_DESIGN_GEOMETRIC_PRESENTATION_REPRESENTATION('',(#1014,
#1015,#1016,#1017,#1018,#1019,#1020,#1021,#1022,#1023,#1024,#1025,#1026,
#1027,#1028,#1029,#1030,#1031,#1032,#1033,#1034,#1035,#1036,#1037,#1038,
#1039,#1040,#1041,#1042,#1043,#1044,#1045,#1046,#1047,#1048,#1049,#1050,
#1051,#1052,#1053,#1054,#1055,#1056,#1057,#1058,#1059,#1060,#1061,#1062,
#1063,#1064,#1065,#1066,#1067,#1068,#1069,#1070,#1071,#1072,#1073,#1074,
#1075,#1076,#1077,#1078,#1079,#1080),#2262);
#2262=(
GEOMETRIC_REPRESENTATION_CONTEXT(3)
GLOBAL_UNCERTAINTY_ASSIGNED_CONTEXT((#2263))
GLOBAL_UNIT_ASSIGNED_CONTEXT((#2266,#2265,#2264))
REPRESENTATION_CONTEXT('TB0011-350-03GR','TOP_LEVEL_ASSEMBLY_PART')
);
#2263=UNCERTAINTY_MEASURE_WITH_UNIT(LENGTH_MEASURE(0.005),#2266,
'DISTANCE_ACCURACY_VALUE','Maximum Tolerance applied to model');
#2264=(
NAMED_UNIT(*)
SI_UNIT($,.STERADIAN.)
SOLID_ANGLE_UNIT()
);
#2265=(
NAMED_UNIT(*)
PLANE_ANGLE_UNIT()
SI_UNIT($,.RADIAN.)
);
#2266=(
LENGTH_UNIT()
NAMED_UNIT(*)
SI_UNIT(.MILLI.,.METRE.)
);
#2267=PRODUCT_DEFINITION_SHAPE('','',#2268);
#2268=PRODUCT_DEFINITION('','',#2270,#2269);
#2269=PRODUCT_DEFINITION_CONTEXT('',#2276,'design');
#2270=PRODUCT_DEFINITION_FORMATION_WITH_SPECIFIED_SOURCE('','',#2272,
 .NOT_KNOWN.);
#2271=PRODUCT_RELATED_PRODUCT_CATEGORY('','',(#2272));
#2272=PRODUCT('TB0011-350-03GR','TB0011-350-03GR','TB0011-350-03GR',(#2274));
#2273=PRODUCT_CATEGORY('','');
#2274=PRODUCT_CONTEXT('',#2276,'mechanical');
#2275=APPLICATION_PROTOCOL_DEFINITION('international standard',
'automotive_design',2010,#2276);
#2276=APPLICATION_CONTEXT(
'core data for automotive mechanical design processes');
ENDSEC;
END-ISO-10303-21;
